<svg id="Layer_1" data-name="Layer 1" xmlns="http://www.w3.org/2000/svg" xmlns:xlink="http://www.w3.org/1999/xlink" viewBox="0 0 250 97.95"><defs><style>.cls-1{fill:#fff;}.cls-2{fill:url(#linear-gradient);}</style><linearGradient id="linear-gradient" x1="124.67" y1="2.71" x2="124.67" y2="95.79" gradientUnits="userSpaceOnUse"><stop offset="0.24" stop-color="#dd6285"/><stop offset="1" stop-color="#d4145a"/></linearGradient></defs><title>backknap</title><rect class="cls-1" width="250" height="97.95" rx="39.37"/><rect class="cls-2" x="2.61" y="2.71" width="244.13" height="93.08" rx="39.37"/><path class="cls-1" d="M75.6,57.8A17.75,17.75,0,0,1,75,62.67a26.28,26.28,0,0,1-1.55,4.14q-4.56,9-15.87,9h-9q-4.56,0-6.79-2.39a9.28,9.28,0,0,1-2.24-6.62V21.68a9.28,9.28,0,0,1,2.24-6.62q2.23-2.38,6.79-2.39h9q11.31,0,15.87,9A26.28,26.28,0,0,1,75,25.82a17.75,17.75,0,0,1,.65,4.87v1.46a18,18,0,0,1-3.41,11.28q3.41,4.38,3.41,11.29ZM62,32.15V30.69A4.54,4.54,0,0,0,60.9,27.4a4.57,4.57,0,0,0-3.41-1.18H55.21Q53,26.22,53,28.5v8.11h4.47a4.56,4.56,0,0,0,3.41-1.17A4.54,4.54,0,0,0,62,32.15ZM62,57.8V54.72a4.67,4.67,0,0,0-1.14-3.33,4.46,4.46,0,0,0-3.41-1.22H53V60q0,2.28,2.19,2.28h2.28A4.06,4.06,0,0,0,62,57.8Z"/><path class="cls-1" d="M119.78,66.81q0,4.55-2.4,6.78a9.39,9.39,0,0,1-6.64,2.23h-9q-11.31,0-15.79-9a23.61,23.61,0,0,1-1.51-4.14,24.55,24.55,0,0,1-.77-4.87,24.67,24.67,0,0,1,.77-4.87,25.09,25.09,0,0,1,1.5-4.14q4.47-9.09,15.76-9.09a14.31,14.31,0,0,1,2,.16c.76.11,1.59.27,2.52.49V39.7a4.06,4.06,0,0,0-4.55-4.47h-9A4.32,4.32,0,0,1,89.28,34a4.81,4.81,0,0,1-1.09-3.33V26.22a4.82,4.82,0,0,1,1.09-3.33,4.32,4.32,0,0,1,3.37-1.21h9q11.33,0,15.9,9a25.33,25.33,0,0,1,1.55,4.14,17.37,17.37,0,0,1,.66,4.87ZM106.22,60V57.8c0-2.76-1.52-4.27-4.55-4.55q-4.47.33-4.47,4.55a4.65,4.65,0,0,0,1.1,3.29,4.41,4.41,0,0,0,3.37,1.18h2.27A2,2,0,0,0,106.22,60Z"/><path class="cls-1" d="M164,58.37a25.31,25.31,0,0,1-2.2,9q-4.56,9-15.87,9t-15.79-9a28.38,28.38,0,0,1-1.59-4.14,16.66,16.66,0,0,1-.69-4.87V39.13a16.71,16.71,0,0,1,.69-4.87,29.29,29.29,0,0,1,1.59-4.14q4.47-9,15.79-9t15.87,9a25.92,25.92,0,0,1,2.2,9q-.41,4.54-4.5,4.55h-4.57q-4.24,0-4.49-4.55-.09-4.14-4.55-4.46-4.47.31-4.47,4.46V58.37q0,4.14,4.47,4.46,4.46-.31,4.55-4.46.24-4.54,4.49-4.55h4.57Q163.56,53.82,164,58.37Z"/><path class="cls-1" d="M207.49,66.16a4.86,4.86,0,0,1,1,3,4.38,4.38,0,0,1-1.78,3.32l-3.49,2.84a4.41,4.41,0,0,1-2.85,1.06,4.52,4.52,0,0,1-3.49-1.79L185.56,58.86V71.28a4.43,4.43,0,0,1-1.22,3.41A4.71,4.71,0,0,1,181,75.82h-4.46a4.71,4.71,0,0,1-3.33-1.13A4.43,4.43,0,0,1,172,71.28V17.21a4.43,4.43,0,0,1,1.22-3.41,4.71,4.71,0,0,1,3.33-1.13H181a4.71,4.71,0,0,1,3.33,1.13,4.43,4.43,0,0,1,1.22,3.41V38.4l11.37-15.51a4.35,4.35,0,0,1,6.34-.73L206.76,25a4.41,4.41,0,0,1,1.78,3.33,4.86,4.86,0,0,1-1,3L193.84,48.79Z"/></svg>
