<svg id="Layer_1" data-name="Layer 1" xmlns="http://www.w3.org/2000/svg" xmlns:xlink="http://www.w3.org/1999/xlink" viewBox="0 0 486.59 98"><defs><style>.cls-1{fill:#fff;}.cls-2{fill:url(#linear-gradient);}</style><linearGradient id="linear-gradient" x1="242.66" y1="2.71" x2="242.66" y2="95.83" gradientUnits="userSpaceOnUse"><stop offset="0.24" stop-color="#dd6285"/><stop offset="1" stop-color="#d4145a"/></linearGradient></defs><title>tryagain</title><rect class="cls-1" width="486.59" height="98" rx="39.37"/><rect class="cls-2" x="5.08" y="2.71" width="475.16" height="93.13" rx="39.37"/><path class="cls-1" d="M82.14,21.71A4.78,4.78,0,0,1,81,25a4.36,4.36,0,0,1-3.37,1.21H70.93V71.31a4.45,4.45,0,0,1-1.22,3.41,4.67,4.67,0,0,1-3.33,1.14H61.83a4.06,4.06,0,0,1-4.47-4.55V26.24l-6.82.08c-3-.22-4.46-1.75-4.46-4.6V17.28A4.74,4.74,0,0,1,47.17,14a4.33,4.33,0,0,1,3.37-1.22H77.67A4.33,4.33,0,0,1,81,14a4.74,4.74,0,0,1,1.1,3.31Z"/><path class="cls-1" d="M117.3,30.7A4.75,4.75,0,0,1,116.2,34a4.31,4.31,0,0,1-3.37,1.22h-4.54a4.37,4.37,0,0,0-3.37,1.18,4.64,4.64,0,0,0-1.1,3.29V71.39a4.31,4.31,0,0,1-1.22,3.37,4.79,4.79,0,0,1-3.33,1.1H94.8a4.83,4.83,0,0,1-3.33-1.1,4.31,4.31,0,0,1-1.21-3.37V39.72A16.78,16.78,0,0,1,91,34.84a29.3,29.3,0,0,1,1.58-4.14q4.47-9,15.76-9h4.54a4.28,4.28,0,0,1,3.37,1.22,4.75,4.75,0,0,1,1.1,3.33Z"/><path class="cls-1" d="M161.64,57.67a17.09,17.09,0,0,1-.69,4.91,28.07,28.07,0,0,1-1.59,4.18q-4.5,9.1-15.91,9.1h-9a4.31,4.31,0,0,1-3.37-1.22,4.79,4.79,0,0,1-1.1-3.33V66.84a4.83,4.83,0,0,1,1.1-3.33,4.31,4.31,0,0,1,3.37-1.22h9A4.37,4.37,0,0,0,147,60.92a5,5,0,0,0,1-3.74c-.92.22-1.76.38-2.52.49a14.2,14.2,0,0,1-2,.16q-11.28,0-15.75-9a28.07,28.07,0,0,1-1.59-4.18,17.09,17.09,0,0,1-.69-4.91V26.24a4.47,4.47,0,0,1,1.22-3.42A4.71,4.71,0,0,1,130,21.69h4.47a4.73,4.73,0,0,1,3.33,1.13A4.47,4.47,0,0,1,139,26.24V39.72c0,2.87,1.48,4.38,4.46,4.55a3.87,3.87,0,0,0,3.9-2.2A4.54,4.54,0,0,0,148,39.8V26.24a4.58,4.58,0,0,1,1.18-3.42,4.63,4.63,0,0,1,3.31-1.13h4.58a4.61,4.61,0,0,1,3.31,1.13,4.54,4.54,0,0,1,1.18,3.42Z"/><path class="cls-1" d="M226.13,66.84q0,4.56-2.4,6.78a9.36,9.36,0,0,1-6.64,2.24h-9q-11.31,0-15.79-9a23.61,23.61,0,0,1-1.51-4.14,24.55,24.55,0,0,1-.77-4.87,24.55,24.55,0,0,1,.77-4.87,24.89,24.89,0,0,1,1.5-4.15q4.47-9.09,15.76-9.09a14.31,14.31,0,0,1,2,.16c.76.11,1.6.27,2.52.49v-.65A4.06,4.06,0,0,0,208,35.25h-9A4.33,4.33,0,0,1,195.63,34a4.79,4.79,0,0,1-1.09-3.33V26.24a4.79,4.79,0,0,1,1.09-3.33A4.29,4.29,0,0,1,199,21.69h9q11.32,0,15.9,9a27,27,0,0,1,1.56,4.14,17.87,17.87,0,0,1,.65,4.88ZM212.57,60V57.83q0-4.14-4.55-4.55c-3,.22-4.47,1.73-4.47,4.55a4.65,4.65,0,0,0,1.1,3.29A4.4,4.4,0,0,0,208,62.29h2.27A2,2,0,0,0,212.57,60Z"/><path class="cls-1" d="M270.31,57.83a18.2,18.2,0,0,1-.65,4.91,26.67,26.67,0,0,1-1.55,4.18q-4.59,9.18-15.91,8.94l-9-.16a4.76,4.76,0,0,1-3.37-1.22,4.39,4.39,0,0,1-1.09-3.17V66.84a4.82,4.82,0,0,1,1.09-3.33,4.33,4.33,0,0,1,3.37-1.22h9a4,4,0,0,0,4.55-4.46v-.65c-.92.22-1.76.38-2.52.49a14.31,14.31,0,0,1-2,.16q-11.3,0-15.76-9a24.3,24.3,0,0,1-1.5-4.18,25.32,25.32,0,0,1-.77-4.91,24.77,24.77,0,0,1,.77-4.88,24.22,24.22,0,0,1,1.51-4.14q4.47-9,15.79-9h9c3,0,5.3.8,6.79,2.39a9.34,9.34,0,0,1,2.24,6.62ZM256.75,39.72v-2.2a2,2,0,0,0-2.28-2.27H252.2a4.37,4.37,0,0,0-3.37,1.18,4.64,4.64,0,0,0-1.1,3.29q0,4.22,4.47,4.55Q256.75,43.86,256.75,39.72Z"/><path class="cls-1" d="M314.49,66.84q0,4.56-2.4,6.78a9.36,9.36,0,0,1-6.64,2.24h-9q-11.31,0-15.79-9a23.61,23.61,0,0,1-1.51-4.14,24.55,24.55,0,0,1-.77-4.87,24.55,24.55,0,0,1,.77-4.87,24.89,24.89,0,0,1,1.5-4.15q4.47-9.09,15.76-9.09a14.31,14.31,0,0,1,2,.16c.76.11,1.6.27,2.52.49v-.65a4.06,4.06,0,0,0-4.55-4.47h-9A4.34,4.34,0,0,1,284,34a4.79,4.79,0,0,1-1.09-3.33V26.24A4.79,4.79,0,0,1,284,22.91a4.31,4.31,0,0,1,3.37-1.22h9q11.33,0,15.9,9a27,27,0,0,1,1.56,4.14,17.87,17.87,0,0,1,.65,4.88ZM300.93,60V57.83q0-4.14-4.55-4.55c-3,.22-4.47,1.73-4.47,4.55a4.65,4.65,0,0,0,1.1,3.29,4.4,4.4,0,0,0,3.37,1.17h2.27A2,2,0,0,0,300.93,60Z"/><path class="cls-1" d="M336.09,19.33a4.4,4.4,0,0,1-1.22,3.41,4.67,4.67,0,0,1-3.33,1.14h-4.46a4.67,4.67,0,0,1-3.33-1.14,4.44,4.44,0,0,1-1.22-3.41V17.22a4.46,4.46,0,0,1,1.22-3.41,4.67,4.67,0,0,1,3.33-1.14h4.46a4.67,4.67,0,0,1,3.33,1.14,4.43,4.43,0,0,1,1.22,3.41Zm0,52a4.41,4.41,0,0,1-1.22,3.41,4.67,4.67,0,0,1-3.33,1.14h-4.46a4.67,4.67,0,0,1-3.33-1.14,4.45,4.45,0,0,1-1.22-3.41V32.9a4.47,4.47,0,0,1,1.22-3.42,4.71,4.71,0,0,1,3.33-1.13h4.46a4.71,4.71,0,0,1,3.33,1.13,4.44,4.44,0,0,1,1.22,3.42Z"/><path class="cls-1" d="M380.36,71.31a4.51,4.51,0,0,1-1.19,3.41,4.57,4.57,0,0,1-3.31,1.14h-4.57A4.57,4.57,0,0,1,368,74.72a4.51,4.51,0,0,1-1.19-3.41V39.72a4.06,4.06,0,0,0-4.55-4.47H360a2,2,0,0,0-2.19,2.27V71.31a4.45,4.45,0,0,1-1.22,3.41,4.67,4.67,0,0,1-3.33,1.14h-4.47a4.67,4.67,0,0,1-3.33-1.14,4.45,4.45,0,0,1-1.22-3.41V30.7q0-4.54,2.41-6.78a9.35,9.35,0,0,1,6.63-2.23h9q11.33,0,15.88,9a27,27,0,0,1,1.54,4.14,17.49,17.49,0,0,1,.66,4.88Z"/><path class="cls-1" d="M437.12,35.29q0,14-13.48,17.35v.65a4.49,4.49,0,0,1-1.18,3.4,4.59,4.59,0,0,1-3.31,1.14h-4.58a4.59,4.59,0,0,1-3.31-1.14,4.51,4.51,0,0,1-1.18-3.41V48.81q0-8.45,9-9.09,4.47-.33,4.47-4.47V30.7q0-4.14-4.47-4.46l-4.54.08a4.74,4.74,0,0,0-3.38,1.22,4.35,4.35,0,0,0-1.09,3.16v4.55a4.31,4.31,0,0,1-1.22,3.37,4.79,4.79,0,0,1-3.33,1.1h-4.47a4.81,4.81,0,0,1-3.33-1.1,4.27,4.27,0,0,1-1.21-3.36V30.73a16.27,16.27,0,0,1,.69-4.86,27.56,27.56,0,0,1,1.58-4.13q4.47-9,15.76-9h4.54q11.22,0,15.76,9a30.57,30.57,0,0,1,1.58,4.14,16.6,16.6,0,0,1,.69,4.86Zm-13.48,36a4.51,4.51,0,0,1-1.18,3.41,4.59,4.59,0,0,1-3.31,1.14h-4.58a4.59,4.59,0,0,1-3.31-1.14,4.51,4.51,0,0,1-1.18-3.41V66.84a4.53,4.53,0,0,1,1.18-3.41,4.59,4.59,0,0,1,3.31-1.14h4.58a4.59,4.59,0,0,1,3.31,1.14,4.53,4.53,0,0,1,1.18,3.41Z"/></svg>
