<svg id="Layer_1" data-name="Layer 1" xmlns="http://www.w3.org/2000/svg" width="333.51" height="222" viewBox="0 0 333.51 222"><defs><style>.cls-1{fill:#f9eee4;}.cls-2{fill:#e2d6cc;}.cls-3{fill:#d86a0f;}.cls-4{fill:#248943;}</style></defs><title>books</title><path class="cls-1" d="M185.38,217.68,27,200.36a23.64,23.64,0,0,1-20.87-26l1.94-17.74a23.64,23.64,0,0,1,26-20.88l158.36,17.32"/><path class="cls-1" d="M327,131a114.23,114.23,0,0,1,2.39-23.55l-150,56.36c-14.51,5.45-23.15,18.51-19.19,29l5.43,14.48c3.95,10.51,19.06,14.66,33.56,9.21L332.7,166.36A106.62,106.62,0,0,1,327,131Z"/><path class="cls-2" d="M200.41,156.72l-3.62-2.33c-16.26,25.3-18.82,51.66-5.82,60l2-3.12C182.37,204.48,185.77,179.49,200.41,156.72Z"/><path class="cls-2" d="M153.33,155.46l-139-16.76-1,8.37,137.39,16.56a95.1,95.1,0,0,1,6.8-7.67Z"/><path d="M39.54,141.79,199,159.22l.91-8.37-20.29-2.22L40.46,133.41C20.58,131.23,2.83,143.8.9,161.43l-.73,6.68c-1.93,17.62,12.68,33.73,32.57,35.9l159.44,17.44.91-8.37-20.29-2.22L33.65,195.64C19,194,8.2,182.15,9.62,169.14l.73-6.68C11.78,149.45,24.87,140.18,39.54,141.79Z"/><path d="M330.86,162.93l-12,4.27L187,214.06l2.82,7.94,143.74-51.07C332.53,168.4,331.64,165.73,330.86,162.93Z"/><path d="M327.78,102.3l-131.3,48.53,2.92,7.91,129.81-48a94.06,94.06,0,0,1,2.55-9.93Z"/><polygon points="156.41 81.65 18.56 136.94 198.65 151.43 330.79 101.1 156.41 81.65"/><path class="cls-2" d="M326,111.93,194.68,160.46l2.92,7.91,129.8-48a94,94,0,0,1,2.56-9.93Z"/><path class="cls-2" d="M198.47,160.87l-139-16.75-1,8.37,137.39,16.56a97.15,97.15,0,0,1,6.81-7.67Z"/><path class="cls-1" d="M177.44,151.91l122.93-15.19a18.39,18.39,0,0,0,15.95-20.45l-1.7-13.77a18.4,18.4,0,0,0-20.45-16L171.24,101.74"/><path class="cls-1" d="M66.39,86.05a89.32,89.32,0,0,0-2.11-18.29L181.53,110c11.33,4.08,18.19,14.14,15.23,22.36l-4.07,11.31c-3,8.22-14.65,11.61-26,7.53L62.35,113.61A83.21,83.21,0,0,0,66.39,86.05Z"/><path class="cls-2" d="M165.1,104.67l2.79-1.85c12.91,19.5,15.19,40,5.17,46.6l-1.59-2.4C179.64,141.61,176.72,122.22,165.1,104.67Z"/><path class="cls-2" d="M201.69,103.18,309.55,88.64l.88,6.5L203.79,109.51a71.75,71.75,0,0,0-5.38-5.89Z"/><path class="cls-3" d="M290,91.31l-123.77,15.3-.8-6.51,15.75-1.94,108-13.35c15.43-1.91,29.37,7.67,31.06,21.35l.64,5.19c1.69,13.68-9.49,26.36-24.93,28.27L172.2,154.91l-.8-6.5,15.75-1.95,108-13.34c11.39-1.41,19.64-10.77,18.39-20.87l-.64-5.18C311.67,97,301.39,89.9,290,91.31Z"/><path class="cls-3" d="M63.74,110.92l9.39,3.19,103.05,35-2.1,6.2L61.77,117.17A62.73,62.73,0,0,0,63.74,110.92Z"/><path class="cls-3" d="M65.48,63.75l102.6,36.3-2.18,6.18L64.46,70.34a73,73,0,0,0-2.1-7.69Z"/><polygon class="cls-3" points="198.49 45.83 306.26 87.31 166.41 100.54 63.12 62.85 198.49 45.83"/><path class="cls-2" d="M67,71.22l102.61,36.3-2.18,6.18L66,77.81a75.48,75.48,0,0,0-2.1-7.69Z"/><path class="cls-2" d="M166.65,107.88,274.51,93.35l.88,6.49L168.75,114.21a77.11,77.11,0,0,0-5.37-5.89Z"/><path class="cls-1" d="M190.44,102.2,83.53,82C74.82,80.33,69,73.89,70.6,67.65l2.2-8.57c1.59-6.24,10-10,18.72-8.34L198.43,71"/><path class="cls-1" d="M269.52,27.55a23.08,23.08,0,0,1,.66-5.53c-.05-.14-.11-.27-.16-.41-1.45-4-5.88-1-6.16-4.87L180.68,71.83c-8.39,6-11.67,14.32-7.29,18.48l6,5.71c4.38,4.15,14.83,2.63,23.22-3.37l71.71-51.36A20.71,20.71,0,0,1,269.52,27.55Z"/><path class="cls-2" d="M204.09,72.12,202,71c-11.62,12.57-14.78,25.54-7.2,29.54L196.21,99C190,95.73,193.64,83.43,204.09,72.12Z"/><path class="cls-2" d="M174.9,68.77,81.19,50.07l-1.14,4.2,92.64,18.48a55.24,55.24,0,0,1,5.05-3.41Z"/><path class="cls-2" d="M200.33,73.67l-88.9-18-1,3.92,87.89,17.8A53.46,53.46,0,0,1,203,74.22Z"/><path class="cls-4" d="M93.79,52.59,200.28,73.16l1-3.91-13.56-2.62L94.8,48.68c-13.28-2.57-25.83,2-28,10.27L66,62.07c-2.15,8.23,6.92,17,20.2,19.58l106.49,20.57,1-3.91-13.55-2.62-92.94-18c-9.8-1.89-16.49-8.38-14.91-14.45l.81-3.12C74.72,54.1,84,50.7,93.79,52.59Z"/><path class="cls-4" d="M272.13,17,196.89,69.72l3.24,3.15L269.78,24A21.2,21.2,0,0,1,272.13,17Z"/><path class="cls-2" d="M269.52,27.55A23.66,23.66,0,0,1,270,23L196.83,74.89,200.09,78l69.46-49.31C269.53,28.32,269.52,27.94,269.52,27.55Z"/><path class="cls-4" d="M273.5,40.79l-7,4.87L189.84,99.11l3.21,3.17L276.61,44A38.26,38.26,0,0,1,273.5,40.79Z"/><polygon class="cls-4" points="202.72 69.78 75.64 50.03 167.61 0 276.69 18.23 202.72 69.78"/></svg>
