<svg id="Layer_1" data-name="Layer 1" xmlns="http://www.w3.org/2000/svg" width="202.9" height="138" viewBox="0 0 202.9 138"><defs><style>.cls-1{fill:#c6c2c2;}.cls-2{fill:#e2e2e2;}.cls-3{fill:#302020;}</style></defs><title>coffee</title><path class="cls-1" d="M201.87,36.71c-5-11.52-27.5-14-59-8.64q.11-4,.11-8.07H1C1,84.9,22.54,138,48.87,138H95.13c10.9,0,21-9.11,29.05-24.39C176.25,85.2,209.26,53.72,201.87,36.71ZM135.72,88.6A228.61,228.61,0,0,0,144,43.31c17.6-.07,30.47,4.41,32.41,12.57C178.94,66.71,161.37,80.4,135.72,88.6Z"/><path class="cls-2" d="M18.53,30.44C14.76,27.32,15,53.19,24.39,86,34.47,119,51.67,135.17,55.06,126Z"/><ellipse class="cls-1" cx="71.5" cy="16.5" rx="71.5" ry="16.5"/><ellipse class="cls-3" cx="72" cy="15" rx="63" ry="10"/></svg>
