<svg id="Layer_1" data-name="Layer 1" xmlns="http://www.w3.org/2000/svg" xmlns:xlink="http://www.w3.org/1999/xlink" width="1110" height="755" viewBox="0 0 1110 755"><defs><style>.cls-1{fill:#fcfcfc;opacity:0.62;}.cls-2{fill:url(#linear-gradient);}.cls-3{fill:#fff;}.cls-4{fill:url(#linear-gradient-2);}</style><linearGradient id="linear-gradient" x1="556" y1="25" x2="556" y2="733" gradientUnits="userSpaceOnUse"><stop offset="0.23" stop-color="#fff" stop-opacity="0.5"/><stop offset="0.33" stop-color="#fff4fb" stop-opacity="0.6"/><stop offset="0.5" stop-color="#ffe6f6" stop-opacity="0.74"/><stop offset="0.65" stop-color="#ffdcf3" stop-opacity="0.84"/><stop offset="0.79" stop-color="#ffd6f1" stop-opacity="0.9"/><stop offset="0.91" stop-color="#ffd4f0" stop-opacity="0.92"/></linearGradient><linearGradient id="linear-gradient-2" x1="555.04" y1="595.71" x2="555.04" y2="688.83" gradientUnits="userSpaceOnUse"><stop offset="0.24" stop-color="#dd6285"/><stop offset="1" stop-color="#d4145a"/></linearGradient></defs><title>gameover1</title><rect class="cls-1" x="2" y="1" width="1108" height="755" rx="12"/><rect class="cls-2" x="42" y="25" width="1028" height="708" rx="12"/><path d="M232.38,120.11h2.16V166h-2.16v-.36a39.83,39.83,0,0,1-9.59,1.32A47.71,47.71,0,0,1,174.91,119a47.81,47.81,0,0,1,76.55-38.4l-1.32,1.68a45.6,45.6,0,0,0-59.69,4.32A44.06,44.06,0,0,0,177,119a45.87,45.87,0,0,0,45.84,45.72,62.05,62.05,0,0,0,9.59-1.44V161a49.53,49.53,0,0,1-9.59,1.68A43.62,43.62,0,0,1,179.11,119,43.62,43.62,0,0,1,249,84.11l-1.33,1.8a41.19,41.19,0,0,0-54.17,3.78A40,40,0,0,0,181.27,119a41.59,41.59,0,0,0,41.52,41.52,39.29,39.29,0,0,0,9.59-1.92v-2.28a28.31,28.31,0,0,1-9.59,2A39.33,39.33,0,0,1,183.43,119a39.33,39.33,0,0,1,39.36-39.36,38.85,38.85,0,0,1,23.75,8l-1.32,1.68a36.82,36.82,0,0,0-22.43-7.56A37.3,37.3,0,0,0,185.58,119a37.3,37.3,0,0,0,37.21,37.2q3.71,0,9.59-2.4v-2.76a18,18,0,0,1-9.59,3,35,35,0,0,1-35-35,35,35,0,0,1,35-35A35.7,35.7,0,0,1,244,91.07l-1.2,1.8a32.72,32.72,0,0,0-20-6.72A33,33,0,0,0,189.91,119a33,33,0,0,0,32.88,32.88,16.64,16.64,0,0,0,9.59-3.48v-2.88a12.23,12.23,0,0,1-9.59,4.2A30.73,30.73,0,0,1,192.06,119a30.63,30.63,0,0,1,30.73-30.72,30.76,30.76,0,0,1,18.83,6.36l-1.43,1.92a26,26,0,0,0-17.4-6.12A28.68,28.68,0,0,0,194.22,119a28.68,28.68,0,0,0,28.57,28.56,11.07,11.07,0,0,0,9.59-5.28Zm6.49,0V166h-2.16V120.11Zm4.32,0V166H241V120.11Zm4.32,0V166h-2.16V120.11Zm4.32,0V166h-2.16V120.11Z"/><path d="M297.06,72.11,260.58,166h-2.4l36.6-93.84Zm4.92,0L265.26,166h-2.4l36.6-93.84Zm4.56,0L269.82,166h-2.4l36.84-93.84Zm4.56,0L274.38,166H272l36.84-93.84Zm-25.44,77-6.6,16.8h-2.28L313.5,72.11h2.4L352.5,166h-2.4L314.58,75l-1.08,2.88L347.7,166h-2.28L312.3,81l-1.08,2.88,32,82.08h-2.4L310,86.75l-1.08,3L338.7,166h-2.4L307.74,92.63l-1.08,3.24L333.9,166h-2.28l-6.48-16.8ZM324.3,147l-.84-2H287.34l-.84,2ZM289,140.63l-1,2.16H322.5l-.84-2.16Zm1.56-4.32-.84,2.16h31.08l-.72-2.16Zm1.8-4.32-.84,2.16h27.6l-.72-2.16Zm25.2-2.16L305.34,98.75l-12.12,31.08Z"/><path d="M430.26,166l27.12-62.52-.6-3.84L428.1,166h-2.4l30.48-70.2-.72-4.08-32,74.28H420.9l33.84-78.48-.6-3.6L418.38,166H416.1l37.44-86.28-.72-3.84-39,90.12h-2.4l-25.68-60.48L375.54,166h-2l10.56-64.2-1.44-3.84L371.1,166h-1.92l11.88-71.4-1.56-3.84L366.9,166h-2.16l13.2-79.08-1.56-3.72L362.46,166h-2l14.4-86.28-1.68-3.84-15,90.12H356L371.7,72.11H374l38.64,91.32,1.2-2.52-37.56-88.8h2.28L414.9,158l1.2-2.64-35-83.28h2.52l33.72,80.4,1.32-2.88-33-77.52H388l31.68,74.76,1.2-2.64L390.3,72.11h2.28L422,141.59l30.24-69.48h2.16L470.1,166h-2.16l-9.84-58.56L432.66,166Zm28.56-93.84L474.42,166h-2L456.66,72.11Zm4.32,0L478.86,166H476.7L461,72.11Zm4.32,0L483.18,166H481l-15.6-93.84Zm4.44,0L487.62,166h-2.16L469.74,72.11Z"/><path d="M495.9,72.11V166h-2.16V72.11Zm4.32,0V166h-2.16V72.11Zm4.32,0V166h-2.16V72.11Zm4.32,0V166H506.7V72.11Zm4.32,52.2v2.16h26v2.16h-26v17.88h35v2.16h-35v2.16h35V153h-35v2.16h35v2.16h-35v2.16h35v2.16h-35v2.16h35V166H511V72.11h37.2v2.16h-35v2.16h35v2.16h-35v2.16h35v2.16h-35v2.16h35v2.16h-35v2.16h35v2h-35v17.76h26v2.16h-26v2.16h26v2.16h-26v2.16h26V120h-26v2.16h26v2.16Z"/><path d="M622.14,166.91A47.73,47.73,0,0,1,574.26,119a47.94,47.94,0,1,1,95.88,0,47.83,47.83,0,0,1-48,47.88ZM576.3,119A45.84,45.84,0,0,0,668,119a45.84,45.84,0,0,0-91.68,0Zm45.84,43.68A43.63,43.63,0,0,1,578.46,119a43.68,43.68,0,1,1,87.36,0,43.63,43.63,0,0,1-43.68,43.68ZM580.62,119a41.52,41.52,0,0,0,83,0,41.52,41.52,0,0,0-83,0Zm41.52,39.36A39.33,39.33,0,0,1,582.78,119a39.36,39.36,0,1,1,78.72,0,39.33,39.33,0,0,1-39.36,39.36ZM584.94,119a37.2,37.2,0,1,0,63.48-26.28A37.2,37.2,0,0,0,584.94,119Zm37.2,35a35,35,0,0,1-35-35,35,35,0,1,1,59.82,24.78A33.76,33.76,0,0,1,622.14,154.07Zm-32.88-35a32.88,32.88,0,1,0,56.1-23.22A32.88,32.88,0,0,0,589.26,119Zm32.88,30.72A30.73,30.73,0,0,1,591.42,119a30.72,30.72,0,1,1,52.5,21.72A29.54,29.54,0,0,1,622.14,149.75ZM593.58,119A28.56,28.56,0,1,0,642.3,98.87,28.56,28.56,0,0,0,593.58,119Z"/><path d="M675.66,72.11l34,93.84h-2.28l-34-93.84Zm4.56,0,34,93.84H711.9l-34-93.84Zm4.56,0L718.86,166h-2.28l-34.2-93.84Zm4.56,0L723.42,166H721l-34-93.84ZM721,147.23l1.08,3,28.32-78.12h2.28l-29.4,81.24,1.08,3.24L755,72.11h2.28l-31.68,87.72,1.08,3.12,33-90.84h2.28L727.86,166h-2.28L691.74,72.11H694l23.52,65.4,23.64-65.4h2.4l-24.84,68.76,1.08,3,25.92-71.76H748Z"/><path d="M770.22,72.11V166h-2.16V72.11Zm4.32,0V166h-2.16V72.11Zm4.32,0V166H776.7V72.11Zm4.32,0V166H781V72.11Zm4.32,52.2v2.16h26v2.16h-26v17.88h35v2.16h-35v2.16h35V153h-35v2.16h35v2.16h-35v2.16h35v2.16h-35v2.16h35V166h-37.2V72.11h37.2v2.16h-35v2.16h35v2.16h-35v2.16h35v2.16h-35v2.16h35v2.16h-35v2.16h35v2h-35v17.76h26v2.16h-26v2.16h26v2.16h-26v2.16h26V120h-26v2.16h26v2.16Z"/><path d="M831.77,72.11V166h-2.16V72.11Zm4.32,0V166h-2.16V72.11Zm4.33,0V166h-2.17V72.11Zm4.31,0V166h-2.16V72.11Zm29,55.08L889.38,166h-2.29l-22.55-55.68q4.79-4,4.79-8.76a9.78,9.78,0,0,0-2.94-7.08,9.48,9.48,0,0,0-7-3H849.05v23.4h1.2L870.77,166H868.5l-19.45-48.12V166h-2.16V72.11h12.49a29.5,29.5,0,0,1,29.39,29.4,28.49,28.49,0,0,1-6.12,17.88A25.59,25.59,0,0,1,873.77,127.19Zm-.84-1.92q13.68-8.16,13.68-23.76a27,27,0,0,0-27.23-27.24H849.05v2.16h10.33a25.22,25.22,0,0,1,25.08,25.08q0,14.16-12.25,21.6Zm-1.68-4.08q11-7.32,11-19.68a23,23,0,0,0-22.91-22.92H849.05v2.16h10.33a20.79,20.79,0,0,1,20.75,20.76q0,11.28-9.59,17.52Zm-1.68-4.08q8.4-5.76,8.4-15.6a18.64,18.64,0,0,0-18.59-18.6H849.05v2.16h10.33A15.75,15.75,0,0,1,871,89.93a16.42,16.42,0,0,1-2.16,25Zm-1.56-4.2a14.31,14.31,0,0,0-8.63-25.68H849.05v2.16h10.33a12.09,12.09,0,0,1,12.12,12.12q0,6.36-4.33,9.24Zm-13.44,1.44L875.46,166h-2.29l-20.75-51.24C853,114.63,853.69,114.51,854.57,114.35Zm4.32-1.32L880.13,166h-2.4l-21-52.08Q857.57,113.51,858.89,113Zm3.72-1.8L884.81,166h-2.39l-21.73-53.76A3.65,3.65,0,0,0,862.61,111.23Z"/><path d="M177.78,206.45l-5.72,13.2v11.84a2.13,2.13,0,0,1-.6,1.66,2.37,2.37,0,0,1-1.64.54h-2.2a2.37,2.37,0,0,1-1.64-.54,2.13,2.13,0,0,1-.6-1.66V219.65l-5.64-13.2a2.57,2.57,0,0,1-.24-1.08,2,2,0,0,1,1.28-1.88l2-1a2.7,2.7,0,0,1,1-.28,2.16,2.16,0,0,1,1.92,1.32l3,8.48,3-8.48a2.16,2.16,0,0,1,1.92-1.32,1.46,1.46,0,0,1,.52.08c.16,0,.33.12.52.2l2,1a2,2,0,0,1,1.28,1.88A2.7,2.7,0,0,1,177.78,206.45Z"/><path d="M199.78,225.09a8.86,8.86,0,0,1-.32,2.4,13.53,13.53,0,0,1-.76,2q-2.25,4.44-7.82,4.44t-7.78-4.44a16.08,16.08,0,0,1-.78-2,8.14,8.14,0,0,1-.34-2.4v-9.48a8,8,0,0,1,.34-2.4,15,15,0,0,1,.78-2q2.21-4.44,7.78-4.44t7.82,4.44a12.76,12.76,0,0,1,.76,2,8.76,8.76,0,0,1,.32,2.4Zm-6.68,0v-9.48c0-1.34-.75-2.07-2.24-2.2-1.47.1-2.2.84-2.2,2.2v9.48c0,1.36.73,2.09,2.2,2.2C192.35,227.15,193.1,226.42,193.1,225.09Z"/><path d="M221.54,229.25a4.39,4.39,0,0,1-1.18,3.34,4.64,4.64,0,0,1-3.27,1.1h-4.45q-5.58,0-7.78-4.44a16.08,16.08,0,0,1-.78-2,8.14,8.14,0,0,1-.34-2.4V209.25a2.18,2.18,0,0,1,.6-1.68A2.28,2.28,0,0,1,206,207h2.2a2.28,2.28,0,0,1,1.64.56,2.18,2.18,0,0,1,.6,1.68v15.56a2.3,2.3,0,0,0,.54,1.62,2.19,2.19,0,0,0,1.66.58h1.12a1,1,0,0,0,1.12-1.12V209.25a2.21,2.21,0,0,1,.58-1.68,2.24,2.24,0,0,1,1.63-.56h2.26a2,2,0,0,1,2.21,2.24Z"/><path d="M264.42,224.81a8.86,8.86,0,0,1-.32,2.4,11.71,11.71,0,0,1-.8,2q-2.25,4.44-7.77,4.44a10.12,10.12,0,0,1-5.57-1.8,10,10,0,0,1-5.57,1.8H240a4.64,4.64,0,0,1-3.27-1.1,4.36,4.36,0,0,1-1.18-3.34v-20a2.18,2.18,0,0,1,.6-1.68,2.27,2.27,0,0,1,1.64-.56h2.2a2.28,2.28,0,0,1,1.64.56,2.18,2.18,0,0,1,.6,1.68v16.64a1,1,0,0,0,1.08,1.12h1.12a2,2,0,0,0,2.24-2.2V209.25a2,2,0,0,1,2.21-2.24h2.26a2,2,0,0,1,2.21,2.24v15.56c0,1.33.74,2.06,2.22,2.2,1.48-.14,2.22-.87,2.22-2.2V209.25A2,2,0,0,1,260,207h2.26a2,2,0,0,1,2.21,2.24Z"/><path d="M286.18,220.37a4.36,4.36,0,0,1-1.19,3.34,4.64,4.64,0,0,1-3.27,1.1h-6.66c.11,1.46.84,2.2,2.2,2.2h4.44a2.2,2.2,0,0,1,1.68.6,2.31,2.31,0,0,1,.56,1.64v2.2a2.33,2.33,0,0,1-.56,1.64,2.2,2.2,0,0,1-1.68.6h-4.44q-5.56,0-7.76-4.44a16.08,16.08,0,0,1-.78-2,8.14,8.14,0,0,1-.34-2.4v-9.2a8,8,0,0,1,.34-2.4,15,15,0,0,1,.78-2q2.21-4.44,7.78-4.44t7.82,4.44a13.8,13.8,0,0,1,.76,2,8.76,8.76,0,0,1,.32,2.4ZM279.5,217v-1.4c0-1.34-.75-2.07-2.24-2.2-1.47.1-2.2.84-2.2,2.2v2.52h3.32A1,1,0,0,0,279.5,217Z"/><path d="M307.94,231.45a2,2,0,0,1-2.21,2.24h-2.26a2.27,2.27,0,0,1-1.63-.56,2.24,2.24,0,0,1-.58-1.68V215.89a2,2,0,0,0-2.24-2.2H297.9c-.72,0-1.08.37-1.08,1.12v16.64a2.21,2.21,0,0,1-.6,1.68,2.33,2.33,0,0,1-1.64.56h-2.2a2.31,2.31,0,0,1-1.64-.56,2.21,2.21,0,0,1-.6-1.68v-20a4.33,4.33,0,0,1,1.18-3.34,4.59,4.59,0,0,1,3.27-1.1H299q5.56,0,7.82,4.44a13.8,13.8,0,0,1,.76,2,8.76,8.76,0,0,1,.32,2.4Z"/><path d="M327.46,231.73a2,2,0,0,1-2.24,2.24,8.62,8.62,0,0,1-4.72-1.06,8,8,0,0,1-3-3.38,14.7,14.7,0,0,1-.78-2,8.14,8.14,0,0,1-.34-2.4v-9.2h-2.2a2,2,0,0,1-2.24-2.22v-2.25a2,2,0,0,1,2.24-2.21h2.2V207a2.11,2.11,0,0,1,.6-1.65,2.39,2.39,0,0,1,1.64-.53h2.2a2.41,2.41,0,0,1,1.64.53A2.11,2.11,0,0,1,323,207v2.22h2.2a2.24,2.24,0,0,1,1.68.58,2.27,2.27,0,0,1,.56,1.63v2.25a2,2,0,0,1-2.24,2.22H323v9.2c0,1.33.74,2.06,2.24,2.2a2.05,2.05,0,0,1,2.2,2.24Z"/><path d="M357,231.73a2,2,0,0,1-2.24,2.24,8.62,8.62,0,0,1-4.72-1.06,7.9,7.9,0,0,1-3-3.38,13.53,13.53,0,0,1-.78-2,8.14,8.14,0,0,1-.34-2.4v-9.2h-2.2a2,2,0,0,1-2.24-2.22v-2.25a2,2,0,0,1,2.24-2.21h2.2V207a2.11,2.11,0,0,1,.6-1.65,2.39,2.39,0,0,1,1.64-.53h2.2a2.41,2.41,0,0,1,1.64.53,2.11,2.11,0,0,1,.6,1.65v2.22h2.2a2.24,2.24,0,0,1,1.68.58,2.27,2.27,0,0,1,.56,1.63v2.25a2,2,0,0,1-2.24,2.22h-2.2v9.2c0,1.33.74,2.06,2.24,2.2a2.05,2.05,0,0,1,2.2,2.24Z"/><path d="M378.82,225.09a8.86,8.86,0,0,1-.32,2.4,14.7,14.7,0,0,1-.76,2q-2.25,4.44-7.82,4.44t-7.78-4.44a14.7,14.7,0,0,1-.78-2,8.14,8.14,0,0,1-.34-2.4v-9.48a8,8,0,0,1,.34-2.4,13.78,13.78,0,0,1,.78-2q2.21-4.44,7.78-4.44t7.82,4.44a13.8,13.8,0,0,1,.76,2,8.76,8.76,0,0,1,.32,2.4Zm-6.68,0v-9.48c0-1.34-.75-2.07-2.24-2.2-1.47.1-2.2.84-2.2,2.2v9.48c0,1.36.73,2.09,2.2,2.2C371.39,227.15,372.14,226.42,372.14,225.09Z"/><path d="M410.54,225.37a8.33,8.33,0,0,1-8.32,8.32H395a2.18,2.18,0,0,1-1.68-.6,2.28,2.28,0,0,1-.56-1.64v-2.2a2.27,2.27,0,0,1,.56-1.64A2.18,2.18,0,0,1,395,227h7.2a1.84,1.84,0,0,0,1.2-.48,1.59,1.59,0,0,0,.48-1.16,1.63,1.63,0,0,0-.48-1.2,1.84,1.84,0,0,0-1.2-.48H401.1a8.34,8.34,0,0,1,0-16.68h6.12a2.21,2.21,0,0,1,1.68.6,2.31,2.31,0,0,1,.56,1.64v2.2a2.33,2.33,0,0,1-.56,1.64,2.21,2.21,0,0,1-1.68.6H401.1a1.57,1.57,0,0,0-1.16.48,1.63,1.63,0,0,0-.48,1.2,1.59,1.59,0,0,0,.48,1.16,1.57,1.57,0,0,0,1.16.48h1.12a8.33,8.33,0,0,1,8.32,8.36Z"/><path d="M425.66,231.73a2,2,0,0,1-2.24,2.24,8.62,8.62,0,0,1-4.72-1.06,7.9,7.9,0,0,1-3-3.38,13.53,13.53,0,0,1-.78-2,8.14,8.14,0,0,1-.34-2.4V204.81a2.18,2.18,0,0,1,.6-1.68,2.27,2.27,0,0,1,1.64-.56H419a2.28,2.28,0,0,1,1.64.56,2.18,2.18,0,0,1,.6,1.68v20.28c0,1.33.74,2.06,2.24,2.2a2.05,2.05,0,0,1,2.2,2.24Z"/><path d="M447.46,220.37a4.36,4.36,0,0,1-1.19,3.34,4.64,4.64,0,0,1-3.27,1.1h-6.66c.1,1.46.84,2.2,2.2,2.2H443a2.21,2.21,0,0,1,1.68.6,2.31,2.31,0,0,1,.56,1.64v2.2a2.33,2.33,0,0,1-.56,1.64,2.21,2.21,0,0,1-1.68.6h-4.44q-5.57,0-7.76-4.44a13.53,13.53,0,0,1-.78-2,8.14,8.14,0,0,1-.34-2.4v-9.2a8,8,0,0,1,.34-2.4,12.76,12.76,0,0,1,.78-2q2.21-4.44,7.78-4.44t7.81,4.44a12.76,12.76,0,0,1,.77,2,8.76,8.76,0,0,1,.32,2.4ZM440.78,217v-1.4c0-1.34-.75-2.07-2.24-2.2-1.47.1-2.2.84-2.2,2.2v2.52h3.32A1,1,0,0,0,440.78,217Z"/><path d="M469.22,220.37a4.36,4.36,0,0,1-1.19,3.34,4.64,4.64,0,0,1-3.27,1.1H458.1c.1,1.46.84,2.2,2.2,2.2h4.44a2.21,2.21,0,0,1,1.68.6,2.31,2.31,0,0,1,.56,1.64v2.2a2.33,2.33,0,0,1-.56,1.64,2.21,2.21,0,0,1-1.68.6H460.3q-5.57,0-7.76-4.44a13.53,13.53,0,0,1-.78-2,8.14,8.14,0,0,1-.34-2.4v-9.2a8,8,0,0,1,.34-2.4,12.76,12.76,0,0,1,.78-2q2.2-4.44,7.78-4.44t7.81,4.44a12.76,12.76,0,0,1,.77,2,8.76,8.76,0,0,1,.32,2.4ZM462.54,217v-1.4c0-1.34-.75-2.07-2.24-2.2-1.47.1-2.2.84-2.2,2.2v2.52h3.32A1,1,0,0,0,462.54,217Z"/><path d="M491,215.61v2.52a8.14,8.14,0,0,1-.35,2.4,13.53,13.53,0,0,1-.78,2Q487.6,227,482.06,227a10.77,10.77,0,0,1-2.2-.32l0,4.8a2.2,2.2,0,0,1-.58,1.66,2.3,2.3,0,0,1-1.62.54h-2.2a2.35,2.35,0,0,1-1.64-.54,2.13,2.13,0,0,1-.6-1.66V215.61a8,8,0,0,1,.34-2.4,12.76,12.76,0,0,1,.78-2q2.2-4.44,7.78-4.44t7.81,4.44a12.76,12.76,0,0,1,.77,2A8.76,8.76,0,0,1,491,215.61Zm-6.68,2.52v-2.52c0-1.34-.75-2.07-2.24-2.2-1.47.1-2.2.84-2.2,2.2v2.52a2.06,2.06,0,0,0,2.2,2.24C483.55,220.23,484.3,219.49,484.3,218.13Z"/><path d="M520.5,231.73a2,2,0,0,1-2.24,2.24,8.62,8.62,0,0,1-4.72-1.06,7.9,7.9,0,0,1-3-3.38,13.53,13.53,0,0,1-.78-2,8.14,8.14,0,0,1-.34-2.4v-9.2h-2.2a2,2,0,0,1-2.24-2.22v-2.25a2,2,0,0,1,2.24-2.21h2.2V207a2.11,2.11,0,0,1,.6-1.65,2.39,2.39,0,0,1,1.64-.53h2.2a2.41,2.41,0,0,1,1.64.53,2.11,2.11,0,0,1,.6,1.65v2.22h2.2a2.24,2.24,0,0,1,1.68.58,2.27,2.27,0,0,1,.56,1.63v2.25a2,2,0,0,1-2.24,2.22h-2.2v9.2c0,1.33.74,2.06,2.24,2.2a2.05,2.05,0,0,1,2.2,2.24Z"/><path d="M542.29,231.45a2.24,2.24,0,0,1-.58,1.68,2.27,2.27,0,0,1-1.63.56h-2.25a2.27,2.27,0,0,1-1.63-.56,2.24,2.24,0,0,1-.58-1.68V215.89c0-1.39-.75-2.12-2.24-2.2a2.09,2.09,0,0,0-1.63.52,2.25,2.25,0,0,0-.58,1.68v15.56a2.21,2.21,0,0,1-.59,1.68,2.35,2.35,0,0,1-1.64.56h-2.2a2.36,2.36,0,0,1-1.65-.56,2.24,2.24,0,0,1-.59-1.68V204.81a2.21,2.21,0,0,1,.59-1.68,2.31,2.31,0,0,1,1.65-.56h2.2a2.3,2.3,0,0,1,1.64.56,2.18,2.18,0,0,1,.59,1.68v2.44a9.54,9.54,0,0,1,2.21-.24q5.58,0,7.83,4.44a12.76,12.76,0,0,1,.76,2,8.39,8.39,0,0,1,.32,2.4Z"/><path d="M552.93,205.85a2.17,2.17,0,0,1-.6,1.68,2.3,2.3,0,0,1-1.63.56h-2.2a2.34,2.34,0,0,1-1.65-.56,2.25,2.25,0,0,1-.6-1.68v-1a2.22,2.22,0,0,1,.6-1.68,2.29,2.29,0,0,1,1.65-.56h2.2a2.26,2.26,0,0,1,1.63.56,2.14,2.14,0,0,1,.6,1.68Zm0,25.6a2.17,2.17,0,0,1-.6,1.68,2.3,2.3,0,0,1-1.63.56h-2.2a2.34,2.34,0,0,1-1.65-.56,2.25,2.25,0,0,1-.6-1.68V212.53a2.22,2.22,0,0,1,.6-1.68,2.29,2.29,0,0,1,1.65-.56h2.2a2.26,2.26,0,0,1,1.63.56,2.14,2.14,0,0,1,.6,1.68Z"/><path d="M574.73,231.45a2.24,2.24,0,0,1-.58,1.68,2.27,2.27,0,0,1-1.63.56h-2.25a2.27,2.27,0,0,1-1.63-.56,2.24,2.24,0,0,1-.59-1.68V215.89a2.19,2.19,0,0,0-.56-1.62,2.21,2.21,0,0,0-1.68-.58h-1.12c-.72,0-1.08.37-1.08,1.12v16.64a2.17,2.17,0,0,1-.6,1.68,2.3,2.3,0,0,1-1.63.56h-2.21a2.33,2.33,0,0,1-1.64-.56,2.21,2.21,0,0,1-.6-1.68v-20a4.33,4.33,0,0,1,1.19-3.34,4.56,4.56,0,0,1,3.26-1.1h4.45q5.58,0,7.82,4.44a11.87,11.87,0,0,1,.76,2,8.39,8.39,0,0,1,.32,2.4Z"/><path d="M596.17,228.93a2.35,2.35,0,0,1,.52,1.48,2.18,2.18,0,0,1-.88,1.64l-1.72,1.4a2.19,2.19,0,0,1-1.4.52,2.26,2.26,0,0,1-1.72-.88l-5.6-7.76v6.12a2.21,2.21,0,0,1-.6,1.68,2.31,2.31,0,0,1-1.64.56h-2.2a2.33,2.33,0,0,1-1.64-.56,2.21,2.21,0,0,1-.6-1.68V204.81a2.18,2.18,0,0,1,.6-1.68,2.28,2.28,0,0,1,1.64-.56h2.2a2.27,2.27,0,0,1,1.64.56,2.18,2.18,0,0,1,.6,1.68v10.44l5.6-7.64a2.05,2.05,0,0,1,1.72-.88,2.14,2.14,0,0,1,1.4.52l1.72,1.4a2.15,2.15,0,0,1,.88,1.64,2.39,2.39,0,0,1-.52,1.48l-6.72,8.6Z"/><path d="M607.37,205.85a2.21,2.21,0,0,1-.6,1.68,2.31,2.31,0,0,1-1.64.56h-2.2a2.33,2.33,0,0,1-1.64-.56,2.21,2.21,0,0,1-.6-1.68v-1a2.18,2.18,0,0,1,.6-1.68,2.28,2.28,0,0,1,1.64-.56h2.2a2.27,2.27,0,0,1,1.64.56,2.18,2.18,0,0,1,.6,1.68Zm0,25.6a2.21,2.21,0,0,1-.6,1.68,2.31,2.31,0,0,1-1.64.56h-2.2a2.33,2.33,0,0,1-1.64-.56,2.21,2.21,0,0,1-.6-1.68V212.53a2.18,2.18,0,0,1,.6-1.68,2.28,2.28,0,0,1,1.64-.56h2.2a2.27,2.27,0,0,1,1.64.56,2.18,2.18,0,0,1,.6,1.68Z"/><path d="M629.17,231.45a2.24,2.24,0,0,1-.58,1.68,2.27,2.27,0,0,1-1.63.56h-2.25a2,2,0,0,1-2.22-2.24V215.89a2.19,2.19,0,0,0-.56-1.62,2.21,2.21,0,0,0-1.68-.58h-1.12c-.72,0-1.08.37-1.08,1.12v16.64a2.21,2.21,0,0,1-.6,1.68,2.31,2.31,0,0,1-1.64.56h-2.2a2.33,2.33,0,0,1-1.64-.56,2.21,2.21,0,0,1-.6-1.68v-20a4.33,4.33,0,0,1,1.19-3.34,4.55,4.55,0,0,1,3.26-1.1h4.45q5.58,0,7.82,4.44a12.76,12.76,0,0,1,.76,2,8.39,8.39,0,0,1,.32,2.4Z"/><path d="M650.93,224.81a8.68,8.68,0,0,1-.32,2.42,13,13,0,0,1-.76,2.06q-2.26,4.52-7.84,4.4l-4.44-.08a2.37,2.37,0,0,1-1.66-.6,2.18,2.18,0,0,1-.54-1.56v-2.2a2.35,2.35,0,0,1,.54-1.64,2.13,2.13,0,0,1,1.66-.6H642a2.25,2.25,0,0,0,1.68-.58,2.22,2.22,0,0,0,.56-1.62v-.32c-.45.1-.86.18-1.24.24a7.56,7.56,0,0,1-1,.08q-5.55,0-7.76-4.44a12.11,12.11,0,0,1-.74-2.06,13.16,13.16,0,0,1-.38-2.42,12.55,12.55,0,0,1,.38-2.4,11.87,11.87,0,0,1,.74-2Q636.47,207,642,207h4.45a4.35,4.35,0,0,1,3.35,1.18,4.55,4.55,0,0,1,1.1,3.26Zm-6.68-8.92v-1.08a1,1,0,0,0-1.12-1.12H642a2.16,2.16,0,0,0-1.66.58,2.26,2.26,0,0,0-.54,1.62,2.06,2.06,0,0,0,2.2,2.24C643.51,218,644.25,217.25,644.25,215.89Z"/><path d="M682.73,224.73a8.33,8.33,0,0,1-.34,2.42,15.3,15.3,0,0,1-.78,2.06q-2.22,4.47-7.84,4.48h-4.44a2.13,2.13,0,0,1-1.66-.6,2.37,2.37,0,0,1-.54-1.64v-2.2a2.35,2.35,0,0,1,.54-1.64,2.13,2.13,0,0,1,1.66-.6h4.44a2.15,2.15,0,0,0,1.74-.68,2.44,2.44,0,0,0,.5-1.84c-.45.1-.86.18-1.24.24a7.56,7.56,0,0,1-1,.08q-5.55,0-7.76-4.44a15.3,15.3,0,0,1-.78-2.06,8.68,8.68,0,0,1-.34-2.42v-6.64a2.18,2.18,0,0,1,.6-1.68,2.28,2.28,0,0,1,1.64-.56h2.2a2.27,2.27,0,0,1,1.64.56,2.18,2.18,0,0,1,.6,1.68v6.64a2,2,0,0,0,2.2,2.24,1.92,1.92,0,0,0,1.92-1.08,2.2,2.2,0,0,0,.32-1.12v-6.68a2,2,0,0,1,2.22-2.24h2.25a2,2,0,0,1,2.21,2.24Z"/><path d="M704.49,225.09a8.49,8.49,0,0,1-.32,2.4,13.53,13.53,0,0,1-.76,2q-2.25,4.44-7.82,4.44t-7.78-4.44a16.08,16.08,0,0,1-.78-2,8.49,8.49,0,0,1-.34-2.4v-9.48a8.38,8.38,0,0,1,.34-2.4,15,15,0,0,1,.78-2q2.22-4.44,7.78-4.44t7.82,4.44a12.76,12.76,0,0,1,.76,2,8.39,8.39,0,0,1,.32,2.4Zm-6.68,0v-9.48c0-1.34-.74-2.07-2.24-2.2-1.46.1-2.2.84-2.2,2.2v9.48c0,1.36.74,2.09,2.2,2.2C697.07,227.15,697.81,226.42,697.81,225.09Z"/><path d="M726.25,229.25a4.36,4.36,0,0,1-1.18,3.34,4.64,4.64,0,0,1-3.27,1.1h-4.45q-5.57,0-7.78-4.44a16.08,16.08,0,0,1-.78-2,8.49,8.49,0,0,1-.34-2.4V209.25a2.18,2.18,0,0,1,.6-1.68,2.28,2.28,0,0,1,1.64-.56h2.2a2.28,2.28,0,0,1,1.64.56,2.18,2.18,0,0,1,.6,1.68v15.56a2.3,2.3,0,0,0,.54,1.62,2.19,2.19,0,0,0,1.66.58h1.12a1,1,0,0,0,1.12-1.12V209.25a2,2,0,0,1,2.22-2.24H724a2,2,0,0,1,2.21,2.24Z"/><path d="M769.13,224.81a8.49,8.49,0,0,1-.32,2.4,11,11,0,0,1-.8,2q-2.25,4.44-7.77,4.44a10.12,10.12,0,0,1-5.57-1.8,10,10,0,0,1-5.57,1.8h-4.44a4.64,4.64,0,0,1-3.27-1.1,4.39,4.39,0,0,1-1.18-3.34v-20a2.18,2.18,0,0,1,.6-1.68,2.28,2.28,0,0,1,1.64-.56h2.2a2.28,2.28,0,0,1,1.64.56,2.18,2.18,0,0,1,.6,1.68v16.64A1,1,0,0,0,748,227h1.12a2.25,2.25,0,0,0,1.68-.58,2.22,2.22,0,0,0,.56-1.62V209.25a2,2,0,0,1,2.21-2.24h2.26a2,2,0,0,1,2.21,2.24v15.56c0,1.33.74,2.06,2.22,2.2,1.48-.14,2.22-.87,2.22-2.2V209.25a2,2,0,0,1,2.22-2.24h2.25a2,2,0,0,1,2.21,2.24Z"/><path d="M790.89,220.37a4.36,4.36,0,0,1-1.18,3.34,4.64,4.64,0,0,1-3.27,1.1h-6.67c.11,1.46.84,2.2,2.2,2.2h4.44a2.18,2.18,0,0,1,1.68.6,2.31,2.31,0,0,1,.56,1.64v2.2a2.33,2.33,0,0,1-.56,1.64,2.18,2.18,0,0,1-1.68.6H782q-5.57,0-7.76-4.44a16.08,16.08,0,0,1-.78-2,8.49,8.49,0,0,1-.34-2.4v-9.2a8.38,8.38,0,0,1,.34-2.4,15,15,0,0,1,.78-2q2.2-4.44,7.78-4.44t7.82,4.44a12.76,12.76,0,0,1,.76,2,8.39,8.39,0,0,1,.32,2.4ZM784.21,217v-1.4c0-1.34-.75-2.07-2.24-2.2-1.47.1-2.2.84-2.2,2.2v2.52h3.32A1,1,0,0,0,784.21,217Z"/><path d="M808.17,211.45a2.37,2.37,0,0,1-.54,1.64,2.12,2.12,0,0,1-1.66.6h-2.24a2.15,2.15,0,0,0-1.66.58,2.26,2.26,0,0,0-.54,1.62v15.6a2.13,2.13,0,0,1-.6,1.66,2.37,2.37,0,0,1-1.64.54h-2.2a2.37,2.37,0,0,1-1.64-.54,2.13,2.13,0,0,1-.6-1.66v-15.6a8,8,0,0,1,.34-2.4,15,15,0,0,1,.78-2q2.21-4.44,7.76-4.44H806a2.12,2.12,0,0,1,1.66.6,2.35,2.35,0,0,1,.54,1.64Z"/><path d="M830,220.37a4.36,4.36,0,0,1-1.18,3.34,4.64,4.64,0,0,1-3.27,1.1h-6.67c.11,1.46.84,2.2,2.2,2.2h4.44a2.18,2.18,0,0,1,1.68.6,2.31,2.31,0,0,1,.56,1.64v2.2a2.33,2.33,0,0,1-.56,1.64,2.18,2.18,0,0,1-1.68.6h-4.44q-5.56,0-7.76-4.44a16.08,16.08,0,0,1-.78-2,8.49,8.49,0,0,1-.34-2.4v-9.2a8.38,8.38,0,0,1,.34-2.4,15,15,0,0,1,.78-2q2.21-4.44,7.78-4.44t7.82,4.44a12.76,12.76,0,0,1,.76,2,8.39,8.39,0,0,1,.32,2.4ZM823.29,217v-1.4c0-1.34-.75-2.07-2.24-2.2-1.47.1-2.2.84-2.2,2.2v2.52h3.32A1,1,0,0,0,823.29,217Z"/><path d="M861.73,224.81a9.07,9.07,0,0,1-.32,2.42,14.08,14.08,0,0,1-.76,2.06q-2.26,4.52-7.84,4.4l-4.44-.08a2.36,2.36,0,0,1-1.66-.6,2.18,2.18,0,0,1-.54-1.56v-2.2a2.35,2.35,0,0,1,.54-1.64,2.12,2.12,0,0,1,1.66-.6h4.44a2.25,2.25,0,0,0,1.68-.58,2.22,2.22,0,0,0,.56-1.62v-.32c-.45.1-.87.18-1.24.24a7.7,7.7,0,0,1-1,.08q-5.56,0-7.76-4.44a12.11,12.11,0,0,1-.74-2.06,12.36,12.36,0,0,1-.38-2.42,12.06,12.06,0,0,1,1.12-4.44q2.21-4.44,7.78-4.44h4.45a4.37,4.37,0,0,1,3.35,1.18,4.59,4.59,0,0,1,1.1,3.26Zm-6.68-8.92v-1.08a1,1,0,0,0-1.12-1.12h-1.12a2.15,2.15,0,0,0-1.66.58,2.26,2.26,0,0,0-.54,1.62,2.06,2.06,0,0,0,2.2,2.24C854.3,218,855.05,217.25,855.05,215.89Z"/><path d="M883.49,225.09a8.86,8.86,0,0,1-.32,2.4,13.53,13.53,0,0,1-.76,2q-2.25,4.44-7.82,4.44t-7.78-4.44a16.08,16.08,0,0,1-.78-2,8.14,8.14,0,0,1-.34-2.4v-9.48a8,8,0,0,1,.34-2.4,15,15,0,0,1,.78-2q2.21-4.44,7.78-4.44t7.82,4.44a12.76,12.76,0,0,1,.76,2,8.76,8.76,0,0,1,.32,2.4Zm-6.68,0v-9.48c0-1.34-.75-2.07-2.24-2.2-1.47.1-2.2.84-2.2,2.2v9.48c0,1.36.73,2.09,2.2,2.2C876.06,227.15,876.81,226.42,876.81,225.09Z"/><path d="M894.13,205.85a2.21,2.21,0,0,1-.6,1.68,2.33,2.33,0,0,1-1.64.56h-2.2a2.33,2.33,0,0,1-1.64-.56,2.21,2.21,0,0,1-.6-1.68v-1a2.18,2.18,0,0,1,.6-1.68,2.28,2.28,0,0,1,1.64-.56h2.2a2.28,2.28,0,0,1,1.64.56,2.18,2.18,0,0,1,.6,1.68Zm0,25.6a2.21,2.21,0,0,1-.6,1.68,2.33,2.33,0,0,1-1.64.56h-2.2a2.33,2.33,0,0,1-1.64-.56,2.21,2.21,0,0,1-.6-1.68V212.53a2.18,2.18,0,0,1,.6-1.68,2.28,2.28,0,0,1,1.64-.56h2.2a2.28,2.28,0,0,1,1.64.56,2.18,2.18,0,0,1,.6,1.68Z"/><path d="M915.93,231.45a2.24,2.24,0,0,1-.58,1.68,2.27,2.27,0,0,1-1.63.56h-2.26a2,2,0,0,1-2.21-2.24V215.89a2,2,0,0,0-2.24-2.2h-1.12c-.72,0-1.08.37-1.08,1.12v16.64a2.21,2.21,0,0,1-.6,1.68,2.33,2.33,0,0,1-1.64.56h-2.2a2.33,2.33,0,0,1-1.64-.56,2.21,2.21,0,0,1-.6-1.68v-20a4.33,4.33,0,0,1,1.18-3.34,4.59,4.59,0,0,1,3.27-1.1H907q5.58,0,7.82,4.44a12.76,12.76,0,0,1,.76,2,8.76,8.76,0,0,1,.32,2.4Z"/><path d="M937.69,224.81a9.07,9.07,0,0,1-.32,2.42,13,13,0,0,1-.77,2.06q-2.25,4.52-7.83,4.4l-4.44-.08a2.36,2.36,0,0,1-1.66-.6,2.18,2.18,0,0,1-.54-1.56v-2.2a2.35,2.35,0,0,1,.54-1.64,2.12,2.12,0,0,1,1.66-.6h4.44a2,2,0,0,0,2.24-2.2v-.32c-.45.1-.87.18-1.24.24a7.7,7.7,0,0,1-1,.08q-5.57,0-7.76-4.44a12.11,12.11,0,0,1-.74-2.06,12.36,12.36,0,0,1-.38-2.42,12.06,12.06,0,0,1,1.12-4.44q2.21-4.44,7.78-4.44h4.45a4.37,4.37,0,0,1,3.35,1.18,4.59,4.59,0,0,1,1.1,3.26ZM931,215.89v-1.08a1,1,0,0,0-1.12-1.12h-1.12a2.15,2.15,0,0,0-1.66.58,2.26,2.26,0,0,0-.54,1.62,2.06,2.06,0,0,0,2.2,2.24C930.26,218,931,217.25,931,215.89Z"/><path d="M175.06,279.73a2,2,0,0,1-2.24,2.24,8.62,8.62,0,0,1-4.72-1.06,8,8,0,0,1-3-3.38,16.08,16.08,0,0,1-.78-2,8.14,8.14,0,0,1-.34-2.4v-9.2h-2.2a2.21,2.21,0,0,1-1.68-.59,2.25,2.25,0,0,1-.56-1.63v-2.25a2.27,2.27,0,0,1,.56-1.63,2.21,2.21,0,0,1,1.68-.58h2.2V255a2.11,2.11,0,0,1,.6-1.65,2.41,2.41,0,0,1,1.64-.53h2.2a2.41,2.41,0,0,1,1.64.53,2.11,2.11,0,0,1,.6,1.65v2.22h2.2a2.21,2.21,0,0,1,1.68.58,2.27,2.27,0,0,1,.56,1.63v2.25a2.25,2.25,0,0,1-.56,1.63,2.21,2.21,0,0,1-1.68.59h-2.2v9.2c0,1.33.75,2.06,2.24,2.2a2,2,0,0,1,2.2,2.24Z"/><path d="M196.86,273.09a8.86,8.86,0,0,1-.32,2.4,13.53,13.53,0,0,1-.76,2Q193.53,282,188,282t-7.78-4.44a16.08,16.08,0,0,1-.78-2,8.14,8.14,0,0,1-.34-2.4v-9.48a8,8,0,0,1,.34-2.4,15,15,0,0,1,.78-2q2.2-4.44,7.78-4.44t7.82,4.44a12.76,12.76,0,0,1,.76,2,8.76,8.76,0,0,1,.32,2.4Zm-6.68,0v-9.48c0-1.34-.75-2.07-2.24-2.2-1.47.1-2.2.84-2.2,2.2v9.48c0,1.36.73,2.09,2.2,2.2C189.43,275.15,190.18,274.42,190.18,273.09Z"/><path d="M239.74,272.81a8.86,8.86,0,0,1-.32,2.4,11,11,0,0,1-.8,2q-2.25,4.44-7.77,4.44a10.12,10.12,0,0,1-5.57-1.8,10,10,0,0,1-5.57,1.8h-4.44a4.64,4.64,0,0,1-3.27-1.1,4.36,4.36,0,0,1-1.18-3.34v-20a2.18,2.18,0,0,1,.6-1.68,2.28,2.28,0,0,1,1.64-.56h2.2a2.28,2.28,0,0,1,1.64.56,2.18,2.18,0,0,1,.6,1.68v16.64a1,1,0,0,0,1.08,1.12h1.12a2,2,0,0,0,2.24-2.2V257.25a2.21,2.21,0,0,1,.58-1.68,2.24,2.24,0,0,1,1.63-.56h2.26a2,2,0,0,1,2.21,2.24v15.56c0,1.33.74,2.06,2.22,2.2,1.48-.14,2.22-.87,2.22-2.2V257.25a2.21,2.21,0,0,1,.58-1.68,2.24,2.24,0,0,1,1.63-.56h2.26a2,2,0,0,1,2.21,2.24Z"/><path d="M261.5,277.25a4.39,4.39,0,0,1-1.18,3.34,4.64,4.64,0,0,1-3.27,1.1H252.6q-5.58,0-7.78-4.44a12.52,12.52,0,0,1-.74-2,12,12,0,0,1-.38-2.4,12.06,12.06,0,0,1,1.12-4.44q2.2-4.49,7.76-4.48a6.26,6.26,0,0,1,1,.08,12.14,12.14,0,0,1,1.24.24v-.32a2,2,0,0,0-2.24-2.2h-4.44a2.12,2.12,0,0,1-1.66-.6,2.37,2.37,0,0,1-.54-1.64v-2.2a2.35,2.35,0,0,1,.54-1.64,2.12,2.12,0,0,1,1.66-.6h4.44q5.58,0,7.83,4.44a12.76,12.76,0,0,1,.77,2,8.76,8.76,0,0,1,.32,2.4Zm-6.68-3.36v-1.08c0-1.36-.75-2.11-2.24-2.24a2,2,0,0,0-2.2,2.24,2.3,2.3,0,0,0,.54,1.62,2.19,2.19,0,0,0,1.66.58h1.12A1,1,0,0,0,254.82,273.89Z"/><path d="M282.94,276.93a2.35,2.35,0,0,1,.52,1.48,2.18,2.18,0,0,1-.88,1.64l-1.72,1.4a2.23,2.23,0,0,1-1.4.52,2.26,2.26,0,0,1-1.72-.88l-5.6-7.76v6.12a2.21,2.21,0,0,1-.6,1.68,2.33,2.33,0,0,1-1.64.56h-2.2a2.31,2.31,0,0,1-1.64-.56,2.21,2.21,0,0,1-.6-1.68V252.81a2.18,2.18,0,0,1,.6-1.68,2.27,2.27,0,0,1,1.64-.56h2.2a2.28,2.28,0,0,1,1.64.56,2.18,2.18,0,0,1,.6,1.68v10.44l5.6-7.64a2.05,2.05,0,0,1,1.72-.88,2.17,2.17,0,0,1,1.4.52l1.72,1.4a2.15,2.15,0,0,1,.88,1.64,2.39,2.39,0,0,1-.52,1.48l-6.72,8.6Z"/><path d="M305.26,268.37a4.36,4.36,0,0,1-1.19,3.34,4.64,4.64,0,0,1-3.27,1.1h-6.66c.11,1.46.84,2.2,2.2,2.2h4.44a2.2,2.2,0,0,1,1.68.6,2.31,2.31,0,0,1,.56,1.64v2.2a2.33,2.33,0,0,1-.56,1.64,2.2,2.2,0,0,1-1.68.6h-4.44q-5.56,0-7.76-4.44a16.08,16.08,0,0,1-.78-2,8.14,8.14,0,0,1-.34-2.4v-9.2a8,8,0,0,1,.34-2.4,15,15,0,0,1,.78-2q2.21-4.44,7.78-4.44t7.82,4.44a13.8,13.8,0,0,1,.76,2,8.76,8.76,0,0,1,.32,2.4ZM298.58,265v-1.4c0-1.34-.75-2.07-2.24-2.2-1.47.1-2.2.84-2.2,2.2v2.52h3.32A1,1,0,0,0,298.58,265Z"/><path d="M337,277.25a4.39,4.39,0,0,1-1.18,3.34,4.64,4.64,0,0,1-3.27,1.1h-4.45q-5.58,0-7.78-4.44a16.08,16.08,0,0,1-.78-2,8.14,8.14,0,0,1-.34-2.4V257.25a2.18,2.18,0,0,1,.6-1.68,2.27,2.27,0,0,1,1.64-.56h2.2a2.28,2.28,0,0,1,1.64.56,2.18,2.18,0,0,1,.6,1.68v15.56a2.3,2.3,0,0,0,.54,1.62,2.19,2.19,0,0,0,1.66.58h1.12a1,1,0,0,0,1.12-1.12V257.25a2,2,0,0,1,2.21-2.24h2.26a2,2,0,0,1,2.21,2.24Z"/><path d="M358.78,263.61v2.52a8.14,8.14,0,0,1-.34,2.4,14.7,14.7,0,0,1-.79,2q-2.23,4.44-7.78,4.44a10.76,10.76,0,0,1-2.21-.32l0,4.8a2.2,2.2,0,0,1-.58,1.66,2.3,2.3,0,0,1-1.62.54h-2.2a2.35,2.35,0,0,1-1.64-.54,2.13,2.13,0,0,1-.6-1.66V263.61a8,8,0,0,1,.34-2.4,15,15,0,0,1,.78-2q2.2-4.44,7.78-4.44t7.82,4.44a13.8,13.8,0,0,1,.76,2A8.76,8.76,0,0,1,358.78,263.61Zm-6.68,2.52v-2.52c0-1.34-.75-2.07-2.24-2.2-1.47.1-2.2.84-2.2,2.2v2.52a2.06,2.06,0,0,0,2.2,2.24C351.35,268.23,352.1,267.49,352.1,266.13Z"/><path d="M390.54,268.37a4.36,4.36,0,0,1-1.19,3.34,4.64,4.64,0,0,1-3.27,1.1h-6.66c.1,1.46.84,2.2,2.2,2.2h4.44a2.21,2.21,0,0,1,1.68.6,2.31,2.31,0,0,1,.56,1.64v2.2a2.33,2.33,0,0,1-.56,1.64,2.21,2.21,0,0,1-1.68.6h-4.44q-5.56,0-7.76-4.44a13.53,13.53,0,0,1-.78-2,8.14,8.14,0,0,1-.34-2.4v-9.2a8,8,0,0,1,.34-2.4,15,15,0,0,1,.78-2q2.2-4.44,7.78-4.44t7.82,4.44a13.8,13.8,0,0,1,.76,2,8.76,8.76,0,0,1,.32,2.4ZM383.86,265v-1.4c0-1.34-.75-2.07-2.24-2.2-1.47.1-2.2.84-2.2,2.2v2.52h3.32A1,1,0,0,0,383.86,265Z"/><path d="M412.3,277.25a4.39,4.39,0,0,1-1.18,3.34,4.64,4.64,0,0,1-3.27,1.1H403.4q-5.58,0-7.78-4.44a12.52,12.52,0,0,1-.74-2,12,12,0,0,1-.38-2.4,11.81,11.81,0,0,1,.38-2.4,11.09,11.09,0,0,1,.74-2q2.19-4.49,7.76-4.48a6.35,6.35,0,0,1,1,.08c.37,0,.78.13,1.24.24v-.32a2,2,0,0,0-2.24-2.2h-4.44a2.12,2.12,0,0,1-1.66-.6,2.37,2.37,0,0,1-.54-1.64v-2.2a2.35,2.35,0,0,1,.54-1.64,2.12,2.12,0,0,1,1.66-.6h4.44q5.58,0,7.83,4.44a12.76,12.76,0,0,1,.77,2,8.76,8.76,0,0,1,.32,2.4Zm-6.68-3.36v-1.08c0-1.36-.75-2.11-2.24-2.24a2,2,0,0,0-2.2,2.24,2.3,2.3,0,0,0,.54,1.62,2.19,2.19,0,0,0,1.66.58h1.12A1,1,0,0,0,405.62,273.89Z"/><path d="M429.58,259.45a2.37,2.37,0,0,1-.54,1.64,2.13,2.13,0,0,1-1.66.6h-2.24a2.15,2.15,0,0,0-1.66.58,2.26,2.26,0,0,0-.54,1.62v15.6a2.13,2.13,0,0,1-.6,1.66,2.37,2.37,0,0,1-1.64.54h-2.2a2.35,2.35,0,0,1-1.64-.54,2.13,2.13,0,0,1-.6-1.66v-15.6a8,8,0,0,1,.34-2.4,12.76,12.76,0,0,1,.78-2q2.19-4.44,7.76-4.44h2.24a2.13,2.13,0,0,1,1.66.6,2.35,2.35,0,0,1,.54,1.64Z"/><path d="M444.7,279.73a2,2,0,0,1-2.24,2.24,8.62,8.62,0,0,1-4.72-1.06,7.9,7.9,0,0,1-3-3.38,13.53,13.53,0,0,1-.78-2,8.14,8.14,0,0,1-.34-2.4V252.81a2.18,2.18,0,0,1,.6-1.68,2.27,2.27,0,0,1,1.64-.56H438a2.28,2.28,0,0,1,1.64.56,2.18,2.18,0,0,1,.6,1.68v20.28c0,1.33.74,2.06,2.24,2.2a2.05,2.05,0,0,1,2.2,2.24Z"/><path d="M466.54,272.73a8.68,8.68,0,0,1-.34,2.42,14.05,14.05,0,0,1-.79,2.06q-2.22,4.47-7.83,4.48h-4.44a2.12,2.12,0,0,1-1.66-.6,2.37,2.37,0,0,1-.54-1.64v-2.2a2.35,2.35,0,0,1,.54-1.64,2.12,2.12,0,0,1,1.66-.6h4.44a2.18,2.18,0,0,0,1.74-.68,2.52,2.52,0,0,0,.5-1.84c-.46.1-.87.18-1.24.24a7.83,7.83,0,0,1-1,.08q-5.56,0-7.76-4.44a13,13,0,0,1-.78-2.06,8.33,8.33,0,0,1-.34-2.42v-6.64a2.18,2.18,0,0,1,.6-1.68,2.27,2.27,0,0,1,1.64-.56h2.2a2.28,2.28,0,0,1,1.64.56,2.18,2.18,0,0,1,.6,1.68v6.64a2,2,0,0,0,2.2,2.24,1.93,1.93,0,0,0,1.92-1.08,2.3,2.3,0,0,0,.32-1.12v-6.68A2,2,0,0,1,462,255h2.25a2,2,0,0,1,2.22,2.24Z"/><path d="M487.18,253.85a2.21,2.21,0,0,1-.6,1.68,2.33,2.33,0,0,1-1.64.56h-2.2a2.31,2.31,0,0,1-1.64-.56,2.21,2.21,0,0,1-.6-1.68v-1a2.18,2.18,0,0,1,.6-1.68,2.27,2.27,0,0,1,1.64-.56h2.2a2.28,2.28,0,0,1,1.64.56,2.18,2.18,0,0,1,.6,1.68Zm0,25.6a2.21,2.21,0,0,1-.6,1.68,2.33,2.33,0,0,1-1.64.56h-2.2a2.31,2.31,0,0,1-1.64-.56,2.21,2.21,0,0,1-.6-1.68V260.53a2.18,2.18,0,0,1,.6-1.68,2.27,2.27,0,0,1,1.64-.56h2.2a2.28,2.28,0,0,1,1.64.56,2.18,2.18,0,0,1,.6,1.68Z"/><path d="M509,279.45a2.24,2.24,0,0,1-.59,1.68,2.27,2.27,0,0,1-1.63.56h-2.25a2.27,2.27,0,0,1-1.63-.56,2.24,2.24,0,0,1-.58-1.68V263.89a2,2,0,0,0-2.24-2.2h-1.12c-.72,0-1.08.37-1.08,1.12v16.64a2.21,2.21,0,0,1-.6,1.68,2.33,2.33,0,0,1-1.64.56h-2.2a2.31,2.31,0,0,1-1.64-.56,2.21,2.21,0,0,1-.6-1.68v-20a4.33,4.33,0,0,1,1.18-3.34,4.59,4.59,0,0,1,3.27-1.1h4.45q5.57,0,7.81,4.44a12.76,12.76,0,0,1,.77,2,8.76,8.76,0,0,1,.32,2.4Z"/><path d="M538.5,279.73a2,2,0,0,1-2.24,2.24,8.62,8.62,0,0,1-4.72-1.06,7.9,7.9,0,0,1-3-3.38,13.53,13.53,0,0,1-.78-2,8.14,8.14,0,0,1-.34-2.4v-9.2h-2.2a2,2,0,0,1-2.24-2.22v-2.25a2,2,0,0,1,2.24-2.21h2.2V255a2.11,2.11,0,0,1,.6-1.65,2.39,2.39,0,0,1,1.64-.53h2.2a2.41,2.41,0,0,1,1.64.53,2.11,2.11,0,0,1,.6,1.65v2.22h2.2a2.24,2.24,0,0,1,1.68.58,2.27,2.27,0,0,1,.56,1.63v2.25a2,2,0,0,1-2.24,2.22h-2.2v9.2c0,1.33.74,2.06,2.24,2.2a2.05,2.05,0,0,1,2.2,2.24Z"/><path d="M560.3,279.45a2.24,2.24,0,0,1-.59,1.68,2.27,2.27,0,0,1-1.63.56h-2.25a2.27,2.27,0,0,1-1.63-.56,2.24,2.24,0,0,1-.58-1.68V263.89c0-1.39-.75-2.12-2.24-2.2a2.06,2.06,0,0,0-1.62.52,2.21,2.21,0,0,0-.58,1.68v15.56a2.21,2.21,0,0,1-.6,1.68,2.33,2.33,0,0,1-1.64.56h-2.2a2.31,2.31,0,0,1-1.64-.56,2.21,2.21,0,0,1-.6-1.68V252.81a2.18,2.18,0,0,1,.6-1.68,2.27,2.27,0,0,1,1.64-.56h2.2a2.28,2.28,0,0,1,1.64.56,2.18,2.18,0,0,1,.6,1.68v2.44a9.39,9.39,0,0,1,2.2-.24q5.58,0,7.83,4.44a11.87,11.87,0,0,1,.76,2,8.39,8.39,0,0,1,.33,2.4Z"/><path d="M582.06,268.37a4.36,4.36,0,0,1-1.19,3.34,4.64,4.64,0,0,1-3.27,1.1h-6.66c.1,1.46.84,2.2,2.2,2.2h4.44a2.21,2.21,0,0,1,1.68.6,2.31,2.31,0,0,1,.56,1.64v2.2a2.33,2.33,0,0,1-.56,1.64,2.21,2.21,0,0,1-1.68.6h-4.44q-5.57,0-7.76-4.44a13.53,13.53,0,0,1-.78-2,8.14,8.14,0,0,1-.34-2.4v-9.2a8,8,0,0,1,.34-2.4,12.76,12.76,0,0,1,.78-2q2.21-4.44,7.78-4.44t7.81,4.44a12.76,12.76,0,0,1,.77,2,8.76,8.76,0,0,1,.32,2.4ZM575.38,265v-1.4c0-1.34-.75-2.07-2.24-2.2-1.47.1-2.2.84-2.2,2.2v2.52h3.32A1,1,0,0,0,575.38,265Z"/><path d="M624.94,279.45a2.24,2.24,0,0,1-.59,1.68,2.27,2.27,0,0,1-1.63.56h-2.25a2.27,2.27,0,0,1-1.63-.56,2.24,2.24,0,0,1-.58-1.68V263.89c0-1.34-.74-2.07-2.22-2.2-1.48.13-2.22.86-2.22,2.2v15.56a2.24,2.24,0,0,1-.59,1.68,2.27,2.27,0,0,1-1.63.56h-2.25a2.27,2.27,0,0,1-1.63-.56,2.24,2.24,0,0,1-.58-1.68V263.89a2,2,0,0,0-2.24-2.2h-1.12c-.72,0-1.08.37-1.08,1.12v16.64a2.21,2.21,0,0,1-.6,1.68,2.33,2.33,0,0,1-1.64.56h-2.2a2.31,2.31,0,0,1-1.64-.56,2.21,2.21,0,0,1-.6-1.68v-20a4.33,4.33,0,0,1,1.18-3.34,4.55,4.55,0,0,1,3.26-1.1h4.45a10,10,0,0,1,5.57,1.8A10.09,10.09,0,0,1,616,255q5.54,0,7.77,4.44a11.12,11.12,0,0,1,.81,2,8.76,8.76,0,0,1,.32,2.4Z"/><path d="M646.7,273.09a8.86,8.86,0,0,1-.32,2.4,13.53,13.53,0,0,1-.77,2Q643.38,282,637.8,282T630,277.53a13.53,13.53,0,0,1-.78-2,8.14,8.14,0,0,1-.34-2.4v-9.48a8,8,0,0,1,.34-2.4,12.76,12.76,0,0,1,.78-2q2.21-4.44,7.78-4.44t7.81,4.44a12.76,12.76,0,0,1,.77,2,8.76,8.76,0,0,1,.32,2.4Zm-6.68,0v-9.48c0-1.34-.75-2.07-2.24-2.2-1.47.1-2.2.84-2.2,2.2v9.48c0,1.36.73,2.09,2.2,2.2C639.27,275.15,640,274.42,640,273.09Z"/><path d="M664,259.45a2.42,2.42,0,0,1-.54,1.64,2.13,2.13,0,0,1-1.66.6h-2.24a2.15,2.15,0,0,0-1.66.58,2.27,2.27,0,0,0-.55,1.62v15.6a2.13,2.13,0,0,1-.59,1.66,2.38,2.38,0,0,1-1.64.54h-2.2a2.39,2.39,0,0,1-1.65-.54,2.17,2.17,0,0,1-.59-1.66v-15.6a8,8,0,0,1,.34-2.4,12.76,12.76,0,0,1,.78-2Q654,255,659.54,255h2.24a2.13,2.13,0,0,1,1.66.6,2.4,2.4,0,0,1,.54,1.64Z"/><path d="M685.78,279.45a2.24,2.24,0,0,1-.59,1.68,2.27,2.27,0,0,1-1.63.56h-2.25a2.27,2.27,0,0,1-1.63-.56,2.24,2.24,0,0,1-.58-1.68V263.89a2,2,0,0,0-2.24-2.2h-1.12c-.72,0-1.08.37-1.08,1.12v16.64a2.21,2.21,0,0,1-.6,1.68,2.33,2.33,0,0,1-1.64.56h-2.2a2.31,2.31,0,0,1-1.64-.56,2.21,2.21,0,0,1-.6-1.68v-20a4.33,4.33,0,0,1,1.18-3.34,4.59,4.59,0,0,1,3.27-1.1h4.45q5.57,0,7.81,4.44a12.76,12.76,0,0,1,.77,2,8.76,8.76,0,0,1,.32,2.4Z"/><path d="M696.42,253.85a2.21,2.21,0,0,1-.6,1.68,2.33,2.33,0,0,1-1.64.56H692a2.36,2.36,0,0,1-1.65-.56,2.24,2.24,0,0,1-.59-1.68v-1a2.21,2.21,0,0,1,.59-1.68,2.31,2.31,0,0,1,1.65-.56h2.2a2.28,2.28,0,0,1,1.64.56,2.18,2.18,0,0,1,.6,1.68Zm0,25.6a2.21,2.21,0,0,1-.6,1.68,2.33,2.33,0,0,1-1.64.56H692a2.36,2.36,0,0,1-1.65-.56,2.24,2.24,0,0,1-.59-1.68V260.53a2.21,2.21,0,0,1,.59-1.68,2.31,2.31,0,0,1,1.65-.56h2.2a2.28,2.28,0,0,1,1.64.56,2.18,2.18,0,0,1,.6,1.68Z"/><path d="M718.21,279.45a2.24,2.24,0,0,1-.58,1.68,2.27,2.27,0,0,1-1.63.56h-2.25a2.27,2.27,0,0,1-1.63-.56,2.24,2.24,0,0,1-.58-1.68V263.89a2,2,0,0,0-2.25-2.2h-1.12a1,1,0,0,0-1.08,1.12v16.64a2.21,2.21,0,0,1-.59,1.68,2.35,2.35,0,0,1-1.64.56h-2.2a2.36,2.36,0,0,1-1.65-.56,2.24,2.24,0,0,1-.59-1.68v-20a4.33,4.33,0,0,1,1.18-3.34,4.57,4.57,0,0,1,3.27-1.1h4.45q5.56,0,7.81,4.44a11.87,11.87,0,0,1,.76,2,8.39,8.39,0,0,1,.32,2.4Z"/><path d="M740,272.81a8.68,8.68,0,0,1-.32,2.42,13,13,0,0,1-.76,2.06q-2.25,4.51-7.84,4.4l-4.43-.08A2.34,2.34,0,0,1,725,281a2.13,2.13,0,0,1-.54-1.56v-2.2a2.3,2.3,0,0,1,.54-1.64,2.1,2.1,0,0,1,1.66-.6h4.43a2.25,2.25,0,0,0,1.68-.58,2.22,2.22,0,0,0,.56-1.62v-.32c-.45.1-.86.18-1.24.24a7.56,7.56,0,0,1-1,.08q-5.55,0-7.76-4.44a12.11,12.11,0,0,1-.74-2.06,13.16,13.16,0,0,1-.38-2.42,11.8,11.8,0,0,1,.39-2.4,11.09,11.09,0,0,1,.74-2q2.21-4.44,7.78-4.44h4.44a4.35,4.35,0,0,1,3.35,1.18,4.55,4.55,0,0,1,1.1,3.26Zm-6.68-8.92v-1.08a1,1,0,0,0-1.12-1.12h-1.12a2.16,2.16,0,0,0-1.66.58,2.31,2.31,0,0,0-.54,1.62,2.06,2.06,0,0,0,2.2,2.24C732.55,266,733.29,265.25,733.29,263.89Z"/><path d="M771.73,277.25a4.36,4.36,0,0,1-1.18,3.34,4.64,4.64,0,0,1-3.27,1.1h-4.45q-5.57,0-7.77-4.44a11.65,11.65,0,0,1-.74-2,12,12,0,0,1-.39-2.4,12.55,12.55,0,0,1,.38-2.4,11.87,11.87,0,0,1,.74-2q2.21-4.49,7.76-4.48a6.18,6.18,0,0,1,1,.08,11.64,11.64,0,0,1,1.24.24v-.32a2.19,2.19,0,0,0-.56-1.62,2.21,2.21,0,0,0-1.68-.58h-4.43a2.14,2.14,0,0,1-1.67-.6,2.37,2.37,0,0,1-.54-1.64v-2.2a2.35,2.35,0,0,1,.54-1.64,2.14,2.14,0,0,1,1.67-.6h4.43q5.58,0,7.84,4.44a12.76,12.76,0,0,1,.76,2,8.39,8.39,0,0,1,.32,2.4Zm-6.68-3.36v-1.08c0-1.36-.74-2.11-2.24-2.24a2.05,2.05,0,0,0-2.2,2.24,2.3,2.3,0,0,0,.54,1.62,2.2,2.2,0,0,0,1.66.58h1.12A1,1,0,0,0,765.05,273.89Z"/><path d="M793.49,279.45a2.24,2.24,0,0,1-.58,1.68,2.27,2.27,0,0,1-1.63.56H789a2.27,2.27,0,0,1-1.63-.56,2.24,2.24,0,0,1-.59-1.68V263.89a2.19,2.19,0,0,0-.56-1.62,2.21,2.21,0,0,0-1.68-.58h-1.12c-.72,0-1.08.37-1.08,1.12v16.64a2.21,2.21,0,0,1-.6,1.68,2.31,2.31,0,0,1-1.64.56h-2.2a2.33,2.33,0,0,1-1.64-.56,2.21,2.21,0,0,1-.6-1.68v-20a4.33,4.33,0,0,1,1.19-3.34,4.56,4.56,0,0,1,3.26-1.1h4.45q5.58,0,7.82,4.44a11.87,11.87,0,0,1,.76,2,8.39,8.39,0,0,1,.32,2.4Z"/><path d="M815.25,273.09a8.49,8.49,0,0,1-.32,2.4,12.53,12.53,0,0,1-.76,2q-2.25,4.44-7.82,4.44t-7.77-4.44a14.7,14.7,0,0,1-.79-2,8.49,8.49,0,0,1-.34-2.4v-9.2a8.38,8.38,0,0,1,.34-2.4,15,15,0,0,1,.78-2q2.2-4.44,7.76-4.44a6.18,6.18,0,0,1,1,.08,11.64,11.64,0,0,1,1.24.24v-2.52a2,2,0,0,1,2.22-2.24H813a2,2,0,0,1,2.21,2.24Zm-6.68,0v-9.2c0-1.34-.74-2.07-2.24-2.2-1.46.1-2.2.84-2.2,2.2v9.2c0,1.36.74,2.09,2.2,2.2C807.83,275.15,808.57,274.42,808.57,273.09Z"/><path d="M844.77,263.89a2.28,2.28,0,0,1-.56,1.64,2.18,2.18,0,0,1-1.68.6h-2.2v13.32a2.21,2.21,0,0,1-.6,1.68,2.31,2.31,0,0,1-1.64.56h-2.2a2.33,2.33,0,0,1-1.64-.56,2.21,2.21,0,0,1-.6-1.68V266.13h-2.2a2.21,2.21,0,0,1-1.68-.6,2.33,2.33,0,0,1-.56-1.64v-2.2a2.31,2.31,0,0,1,.56-1.64,2.21,2.21,0,0,1,1.68-.6h2.2A13,13,0,0,1,834,257a11.8,11.8,0,0,1,.74-2.06q2.25-4.53,7.76-4.68c1.5.13,2.24.88,2.24,2.24v2.2a2.06,2.06,0,0,1-2.2,2.24,2.21,2.21,0,0,0-2.24,2.48h2.2a2.18,2.18,0,0,1,1.68.6,2.27,2.27,0,0,1,.56,1.64Z"/><path d="M855.45,253.85a2.21,2.21,0,0,1-.6,1.68,2.31,2.31,0,0,1-1.64.56H851a2.33,2.33,0,0,1-1.64-.56,2.21,2.21,0,0,1-.6-1.68v-1a2.18,2.18,0,0,1,.6-1.68,2.28,2.28,0,0,1,1.64-.56h2.2a2.27,2.27,0,0,1,1.64.56,2.18,2.18,0,0,1,.6,1.68Zm0,25.6a2.21,2.21,0,0,1-.6,1.68,2.31,2.31,0,0,1-1.64.56H851a2.33,2.33,0,0,1-1.64-.56,2.21,2.21,0,0,1-.6-1.68V260.53a2.18,2.18,0,0,1,.6-1.68,2.28,2.28,0,0,1,1.64-.56h2.2a2.27,2.27,0,0,1,1.64.56,2.18,2.18,0,0,1,.6,1.68Z"/><path d="M877.25,279.45a2.24,2.24,0,0,1-.58,1.68,2.27,2.27,0,0,1-1.63.56h-2.25a2,2,0,0,1-2.22-2.24V263.89a2.19,2.19,0,0,0-.56-1.62,2.21,2.21,0,0,0-1.68-.58h-1.12c-.72,0-1.08.37-1.08,1.12v16.64a2.21,2.21,0,0,1-.6,1.68,2.31,2.31,0,0,1-1.64.56h-2.2a2.33,2.33,0,0,1-1.64-.56,2.21,2.21,0,0,1-.6-1.68v-20a4.33,4.33,0,0,1,1.19-3.34,4.55,4.55,0,0,1,3.26-1.1h4.45q5.58,0,7.82,4.44a12.76,12.76,0,0,1,.76,2,8.39,8.39,0,0,1,.32,2.4Z"/><path d="M887.89,253.85a2.21,2.21,0,0,1-.6,1.68,2.31,2.31,0,0,1-1.64.56h-2.2a2.33,2.33,0,0,1-1.64-.56,2.21,2.21,0,0,1-.6-1.68v-1a2.18,2.18,0,0,1,.6-1.68,2.28,2.28,0,0,1,1.64-.56h2.2a2.27,2.27,0,0,1,1.64.56,2.18,2.18,0,0,1,.6,1.68Zm0,25.6a2.21,2.21,0,0,1-.6,1.68,2.31,2.31,0,0,1-1.64.56h-2.2a2.33,2.33,0,0,1-1.64-.56,2.21,2.21,0,0,1-.6-1.68V260.53a2.18,2.18,0,0,1,.6-1.68,2.28,2.28,0,0,1,1.64-.56h2.2a2.27,2.27,0,0,1,1.64.56,2.18,2.18,0,0,1,.6,1.68Z"/><path d="M909.65,273.37a8.33,8.33,0,0,1-8.32,8.32h-7.2a2.21,2.21,0,0,1-1.68-.6,2.33,2.33,0,0,1-.56-1.64v-2.2a2.31,2.31,0,0,1,.56-1.64,2.21,2.21,0,0,1,1.68-.6h7.2a1.8,1.8,0,0,0,1.2-.48,1.59,1.59,0,0,0,.48-1.16,1.63,1.63,0,0,0-.48-1.2,1.8,1.8,0,0,0-1.2-.48h-1.12a8.34,8.34,0,0,1,0-16.68h6.12a2.18,2.18,0,0,1,1.68.6,2.27,2.27,0,0,1,.56,1.64v2.2a2.28,2.28,0,0,1-.56,1.64,2.18,2.18,0,0,1-1.68.6h-6.12a1.59,1.59,0,0,0-1.16.48,1.63,1.63,0,0,0-.48,1.2,1.64,1.64,0,0,0,1.64,1.64h1.12a8.33,8.33,0,0,1,8.32,8.36Z"/><path d="M931.45,279.45a2.24,2.24,0,0,1-.58,1.68,2.27,2.27,0,0,1-1.63.56H927a2,2,0,0,1-2.22-2.24V263.89c0-1.39-.74-2.12-2.24-2.2a2.08,2.08,0,0,0-1.62.52,2.25,2.25,0,0,0-.58,1.68v15.56a2.21,2.21,0,0,1-.6,1.68,2.31,2.31,0,0,1-1.64.56h-2.2a2.33,2.33,0,0,1-1.64-.56,2.21,2.21,0,0,1-.6-1.68V252.81a2.18,2.18,0,0,1,.6-1.68,2.28,2.28,0,0,1,1.64-.56h2.2a2.27,2.27,0,0,1,1.64.56,2.18,2.18,0,0,1,.6,1.68v2.44a9.54,9.54,0,0,1,2.21-.24q5.58,0,7.83,4.44a12.76,12.76,0,0,1,.76,2,8.76,8.76,0,0,1,.32,2.4Z"/><path d="M177.34,320.73a8.33,8.33,0,0,1-.34,2.42,14.05,14.05,0,0,1-.79,2.06q-2.21,4.47-7.83,4.48h-4.44a2.12,2.12,0,0,1-1.66-.6,2.37,2.37,0,0,1-.54-1.64v-2.2a2.35,2.35,0,0,1,.54-1.64,2.12,2.12,0,0,1,1.66-.6h4.44a2.18,2.18,0,0,0,1.74-.68,2.48,2.48,0,0,0,.5-1.84c-.45.1-.87.18-1.24.24a7.7,7.7,0,0,1-1,.08q-5.56,0-7.76-4.44a15.3,15.3,0,0,1-.78-2.06,8.33,8.33,0,0,1-.34-2.42v-6.64a2.18,2.18,0,0,1,.6-1.68,2.28,2.28,0,0,1,1.64-.56h2.2a2.28,2.28,0,0,1,1.64.56,2.18,2.18,0,0,1,.6,1.68v6.64a2,2,0,0,0,2.2,2.24,1.92,1.92,0,0,0,1.92-1.08,2.3,2.3,0,0,0,.32-1.12v-6.68a2.21,2.21,0,0,1,.58-1.68,2.24,2.24,0,0,1,1.63-.56h2.26a2.24,2.24,0,0,1,1.63.56,2.21,2.21,0,0,1,.58,1.68Z"/><path d="M199.1,321.09a8.86,8.86,0,0,1-.32,2.4,13.53,13.53,0,0,1-.76,2Q195.77,330,190.2,330t-7.78-4.44a16.08,16.08,0,0,1-.78-2,8.14,8.14,0,0,1-.34-2.4v-9.48a8,8,0,0,1,.34-2.4,15,15,0,0,1,.78-2q2.21-4.44,7.78-4.44t7.82,4.44a12.76,12.76,0,0,1,.76,2,8.76,8.76,0,0,1,.32,2.4Zm-6.68,0v-9.48c0-1.34-.75-2.07-2.24-2.2-1.47.1-2.2.84-2.2,2.2v9.48c0,1.36.73,2.09,2.2,2.2C191.67,323.15,192.42,322.42,192.42,321.09Z"/><path d="M220.86,325.25a4.39,4.39,0,0,1-1.18,3.34,4.64,4.64,0,0,1-3.27,1.1H212q-5.58,0-7.78-4.44a16.08,16.08,0,0,1-.78-2,8.14,8.14,0,0,1-.34-2.4V305.25a2.18,2.18,0,0,1,.6-1.68,2.28,2.28,0,0,1,1.64-.56h2.2a2.28,2.28,0,0,1,1.64.56,2.18,2.18,0,0,1,.6,1.68v15.56a2.3,2.3,0,0,0,.54,1.62,2.19,2.19,0,0,0,1.66.58h1.12a1,1,0,0,0,1.12-1.12V305.25a2.21,2.21,0,0,1,.58-1.68,2.24,2.24,0,0,1,1.63-.56h2.26a2.24,2.24,0,0,1,1.63.56,2.21,2.21,0,0,1,.58,1.68Z"/><path d="M238.14,307.45a2.37,2.37,0,0,1-.54,1.64,2.12,2.12,0,0,1-1.66.6H233.7a2.15,2.15,0,0,0-1.66.58,2.26,2.26,0,0,0-.54,1.62v15.6a2.13,2.13,0,0,1-.6,1.66,2.37,2.37,0,0,1-1.64.54h-2.2a2.37,2.37,0,0,1-1.64-.54,2.13,2.13,0,0,1-.6-1.66v-15.6a8,8,0,0,1,.34-2.4,15,15,0,0,1,.78-2q2.2-4.44,7.76-4.44h2.24a2.12,2.12,0,0,1,1.66.6,2.35,2.35,0,0,1,.54,1.64Z"/><path d="M269.94,325.25a4.39,4.39,0,0,1-1.18,3.34,4.64,4.64,0,0,1-3.27,1.1H261q-5.58,0-7.78-4.44a12.52,12.52,0,0,1-.74-2,12,12,0,0,1-.38-2.4,12.06,12.06,0,0,1,1.12-4.44q2.2-4.49,7.76-4.48a6.26,6.26,0,0,1,1,.08,12.14,12.14,0,0,1,1.24.24v-.32a2,2,0,0,0-2.24-2.2h-4.44a2.12,2.12,0,0,1-1.66-.6,2.37,2.37,0,0,1-.54-1.64v-2.2a2.35,2.35,0,0,1,.54-1.64,2.12,2.12,0,0,1,1.66-.6H261q5.58,0,7.83,4.44a12.76,12.76,0,0,1,.77,2,8.76,8.76,0,0,1,.32,2.4Zm-6.68-3.36v-1.08c0-1.36-.75-2.11-2.24-2.24a2,2,0,0,0-2.2,2.24,2.3,2.3,0,0,0,.54,1.62A2.19,2.19,0,0,0,261,323h1.12A1,1,0,0,0,263.26,321.89Z"/><path d="M291.66,321.37a8.33,8.33,0,0,1-8.32,8.32h-7.2a2.18,2.18,0,0,1-1.68-.6,2.33,2.33,0,0,1-.56-1.64v-2.2a2.31,2.31,0,0,1,.56-1.64,2.18,2.18,0,0,1,1.68-.6h7.2a1.8,1.8,0,0,0,1.2-.48,1.59,1.59,0,0,0,.48-1.16,1.63,1.63,0,0,0-.48-1.2,1.8,1.8,0,0,0-1.2-.48h-1.12a8.34,8.34,0,0,1,0-16.68h6.12a2.18,2.18,0,0,1,1.68.6,2.31,2.31,0,0,1,.56,1.64v2.2a2.33,2.33,0,0,1-.56,1.64,2.18,2.18,0,0,1-1.68.6h-6.12a1.59,1.59,0,0,0-1.16.48,1.63,1.63,0,0,0-.48,1.2,1.64,1.64,0,0,0,1.64,1.64h1.12a8.33,8.33,0,0,1,8.32,8.36Z"/><path d="M313.42,321.37a8.33,8.33,0,0,1-8.32,8.32h-7.2a2.18,2.18,0,0,1-1.68-.6,2.33,2.33,0,0,1-.56-1.64v-2.2a2.31,2.31,0,0,1,.56-1.64,2.18,2.18,0,0,1,1.68-.6h7.2a1.8,1.8,0,0,0,1.2-.48,1.59,1.59,0,0,0,.48-1.16,1.63,1.63,0,0,0-.48-1.2,1.8,1.8,0,0,0-1.2-.48H304A8.34,8.34,0,0,1,304,303h6.12a2.18,2.18,0,0,1,1.68.6,2.31,2.31,0,0,1,.56,1.64v2.2a2.33,2.33,0,0,1-.56,1.64,2.18,2.18,0,0,1-1.68.6H304a1.59,1.59,0,0,0-1.16.48,1.63,1.63,0,0,0-.48,1.2A1.64,1.64,0,0,0,304,313h1.12a8.33,8.33,0,0,1,8.32,8.36Z"/><path d="M324.1,301.85a2.21,2.21,0,0,1-.6,1.68,2.33,2.33,0,0,1-1.64.56h-2.2a2.31,2.31,0,0,1-1.64-.56,2.21,2.21,0,0,1-.6-1.68v-1a2.18,2.18,0,0,1,.6-1.68,2.27,2.27,0,0,1,1.64-.56h2.2a2.28,2.28,0,0,1,1.64.56,2.18,2.18,0,0,1,.6,1.68Zm0,25.6a2.21,2.21,0,0,1-.6,1.68,2.33,2.33,0,0,1-1.64.56h-2.2a2.31,2.31,0,0,1-1.64-.56,2.21,2.21,0,0,1-.6-1.68V308.53a2.18,2.18,0,0,1,.6-1.68,2.27,2.27,0,0,1,1.64-.56h2.2a2.28,2.28,0,0,1,1.64.56,2.18,2.18,0,0,1,.6,1.68Z"/><path d="M345.9,320.81a9.07,9.07,0,0,1-.32,2.42,13,13,0,0,1-.77,2.06q-2.25,4.51-7.83,4.4l-4.44-.08a2.36,2.36,0,0,1-1.66-.6,2.18,2.18,0,0,1-.54-1.56v-2.2a2.35,2.35,0,0,1,.54-1.64,2.12,2.12,0,0,1,1.66-.6H337a2,2,0,0,0,2.24-2.2v-.32c-.46.1-.87.18-1.24.24a7.83,7.83,0,0,1-1,.08q-5.57,0-7.76-4.44a11.31,11.31,0,0,1-.74-2.06,12.36,12.36,0,0,1-.38-2.42,12.06,12.06,0,0,1,1.12-4.44Q331.42,303,337,303h4.45a4.37,4.37,0,0,1,3.35,1.18,4.59,4.59,0,0,1,1.1,3.26Zm-6.68-8.92v-1.08a1,1,0,0,0-1.12-1.12H337a2.15,2.15,0,0,0-1.66.58,2.26,2.26,0,0,0-.54,1.62,2.06,2.06,0,0,0,2.2,2.24C338.47,314,339.22,313.25,339.22,311.89Z"/><path d="M367.66,327.45a2,2,0,0,1-2.21,2.24h-2.26a2.27,2.27,0,0,1-1.63-.56,2.24,2.24,0,0,1-.58-1.68V311.89a2,2,0,0,0-2.24-2.2h-1.12c-.72,0-1.08.37-1.08,1.12v16.64a2.21,2.21,0,0,1-.6,1.68,2.33,2.33,0,0,1-1.64.56h-2.2a2.31,2.31,0,0,1-1.64-.56,2.21,2.21,0,0,1-.6-1.68v-20a4.33,4.33,0,0,1,1.18-3.34,4.59,4.59,0,0,1,3.27-1.1h4.45q5.57,0,7.82,4.44a13.8,13.8,0,0,1,.76,2,8.76,8.76,0,0,1,.32,2.4Z"/><path d="M400.54,327.45a2,2,0,0,1-2.21,2.24h-2.26a2.27,2.27,0,0,1-1.63-.56,2.24,2.24,0,0,1-.58-1.68V311.89c0-1.34-.74-2.07-2.22-2.2-1.48.13-2.22.86-2.22,2.2v15.56a2,2,0,0,1-2.21,2.24H385a2.27,2.27,0,0,1-1.63-.56,2.24,2.24,0,0,1-.58-1.68V311.89a2,2,0,0,0-2.24-2.2h-1.12c-.72,0-1.08.37-1.08,1.12v16.64a2.21,2.21,0,0,1-.6,1.68,2.33,2.33,0,0,1-1.64.56h-2.2a2.31,2.31,0,0,1-1.64-.56,2.21,2.21,0,0,1-.6-1.68v-20a4.33,4.33,0,0,1,1.18-3.34,4.58,4.58,0,0,1,3.26-1.1h4.45a10,10,0,0,1,5.57,1.8,10.12,10.12,0,0,1,5.57-1.8q5.52,0,7.77,4.44a11.11,11.11,0,0,1,.8,2,8.76,8.76,0,0,1,.32,2.4Z"/><path d="M422.3,316.37a4.36,4.36,0,0,1-1.19,3.34,4.64,4.64,0,0,1-3.27,1.1h-6.66c.1,1.46.84,2.2,2.2,2.2h4.44a2.21,2.21,0,0,1,1.68.6,2.31,2.31,0,0,1,.56,1.64v2.2a2.33,2.33,0,0,1-.56,1.64,2.21,2.21,0,0,1-1.68.6h-4.44q-5.56,0-7.76-4.44a13.53,13.53,0,0,1-.78-2,8.14,8.14,0,0,1-.34-2.4v-9.2a8,8,0,0,1,.34-2.4,15,15,0,0,1,.78-2q2.2-4.44,7.78-4.44t7.82,4.44a13.8,13.8,0,0,1,.76,2,8.76,8.76,0,0,1,.32,2.4ZM415.62,313v-1.4c0-1.34-.75-2.07-2.24-2.2-1.47.1-2.2.84-2.2,2.2v2.52h3.32A1,1,0,0,0,415.62,313Z"/><path d="M444.06,327.45a2.24,2.24,0,0,1-.59,1.68,2.27,2.27,0,0,1-1.63.56h-2.25a2.27,2.27,0,0,1-1.63-.56,2.24,2.24,0,0,1-.58-1.68V311.89a2,2,0,0,0-2.24-2.2H434c-.72,0-1.08.37-1.08,1.12v16.64a2.21,2.21,0,0,1-.6,1.68,2.33,2.33,0,0,1-1.64.56h-2.2a2.31,2.31,0,0,1-1.64-.56,2.21,2.21,0,0,1-.6-1.68v-20a4.33,4.33,0,0,1,1.18-3.34,4.59,4.59,0,0,1,3.27-1.1h4.45q5.56,0,7.82,4.44a13.8,13.8,0,0,1,.76,2,8.76,8.76,0,0,1,.32,2.4Z"/><path d="M463.58,327.73a2,2,0,0,1-2.24,2.24,8.62,8.62,0,0,1-4.72-1.06,7.9,7.9,0,0,1-3-3.38,13.53,13.53,0,0,1-.78-2,8.14,8.14,0,0,1-.34-2.4v-9.2h-2.2a2,2,0,0,1-2.24-2.22v-2.25a2,2,0,0,1,2.24-2.21h2.2V303a2.11,2.11,0,0,1,.6-1.65,2.39,2.39,0,0,1,1.64-.53h2.2a2.41,2.41,0,0,1,1.64.53,2.11,2.11,0,0,1,.6,1.65v2.22h2.2a2.24,2.24,0,0,1,1.68.58,2.27,2.27,0,0,1,.56,1.63v2.25a2,2,0,0,1-2.24,2.22h-2.2v9.2c0,1.33.74,2.06,2.24,2.2a2.05,2.05,0,0,1,2.2,2.24Z"/><path d="M474.26,327.45a2.21,2.21,0,0,1-.6,1.68,2.33,2.33,0,0,1-1.64.56h-2.2a2.31,2.31,0,0,1-1.64-.56,2.21,2.21,0,0,1-.6-1.68v-2.2a2.18,2.18,0,0,1,.6-1.68,2.27,2.27,0,0,1,1.64-.56H472a2.28,2.28,0,0,1,1.64.56,2.18,2.18,0,0,1,.6,1.68Z"/><path d="M177.78,398.45l-5.72,13.2v11.84a2.13,2.13,0,0,1-.6,1.66,2.37,2.37,0,0,1-1.64.54h-2.2a2.37,2.37,0,0,1-1.64-.54,2.13,2.13,0,0,1-.6-1.66V411.65l-5.64-13.2a2.57,2.57,0,0,1-.24-1.08,2,2,0,0,1,1.28-1.88l2-1a2.7,2.7,0,0,1,1-.28,2.16,2.16,0,0,1,1.92,1.32l3,8.48,3-8.48a2.16,2.16,0,0,1,1.92-1.32,1.46,1.46,0,0,1,.52.08c.16.05.33.12.52.2l2,1a2,2,0,0,1,1.28,1.88A2.7,2.7,0,0,1,177.78,398.45Z"/><path d="M199.78,417.09a8.86,8.86,0,0,1-.32,2.4,13.53,13.53,0,0,1-.76,2q-2.25,4.44-7.82,4.44t-7.78-4.44a16.08,16.08,0,0,1-.78-2,8.14,8.14,0,0,1-.34-2.4v-9.48a8,8,0,0,1,.34-2.4,15,15,0,0,1,.78-2q2.21-4.44,7.78-4.44t7.82,4.44a12.76,12.76,0,0,1,.76,2,8.76,8.76,0,0,1,.32,2.4Zm-6.68,0v-9.48c0-1.34-.75-2.07-2.24-2.2-1.47.1-2.2.84-2.2,2.2v9.48c0,1.36.73,2.09,2.2,2.2C192.35,419.15,193.1,418.42,193.1,417.09Z"/><path d="M221.54,421.25a4.39,4.39,0,0,1-1.18,3.34,4.64,4.64,0,0,1-3.27,1.1h-4.45q-5.58,0-7.78-4.44a16.08,16.08,0,0,1-.78-2,8.14,8.14,0,0,1-.34-2.4V401.25a2.18,2.18,0,0,1,.6-1.68A2.28,2.28,0,0,1,206,399h2.2a2.28,2.28,0,0,1,1.64.56,2.18,2.18,0,0,1,.6,1.68v15.56a2.3,2.3,0,0,0,.54,1.62,2.19,2.19,0,0,0,1.66.58h1.12a1,1,0,0,0,1.12-1.12V401.25a2.21,2.21,0,0,1,.58-1.68,2.24,2.24,0,0,1,1.63-.56h2.26a2,2,0,0,1,2.21,2.24Z"/><path d="M251.06,407.89a2.33,2.33,0,0,1-.56,1.64,2.2,2.2,0,0,1-1.68.6h-2.2v13.32a2.21,2.21,0,0,1-.6,1.68,2.33,2.33,0,0,1-1.64.56h-2.2a2.33,2.33,0,0,1-1.64-.56,2.21,2.21,0,0,1-.6-1.68V410.13h-2.2a2.18,2.18,0,0,1-1.68-.6,2.33,2.33,0,0,1-.56-1.64v-2.2a2.31,2.31,0,0,1,.56-1.64,2.18,2.18,0,0,1,1.68-.6h2.2a12.24,12.24,0,0,1,.38-2.42,11.8,11.8,0,0,1,.74-2.06q2.24-4.53,7.76-4.68c1.49.13,2.24.88,2.24,2.24v2.2a2.06,2.06,0,0,1-2.2,2.24,2.21,2.21,0,0,0-2.24,2.48h2.2a2.2,2.2,0,0,1,1.68.6,2.31,2.31,0,0,1,.56,1.64Z"/><path d="M272.86,421.25a4.39,4.39,0,0,1-1.18,3.34,4.64,4.64,0,0,1-3.27,1.1H264q-5.58,0-7.78-4.44a12.52,12.52,0,0,1-.74-2,12,12,0,0,1-.38-2.4,11.81,11.81,0,0,1,.38-2.4,11.09,11.09,0,0,1,.74-2q2.19-4.49,7.76-4.48a6.35,6.35,0,0,1,1,.08c.37,0,.78.13,1.24.24v-.32a2,2,0,0,0-2.24-2.2H259.5a2.12,2.12,0,0,1-1.66-.6,2.37,2.37,0,0,1-.54-1.64v-2.2a2.35,2.35,0,0,1,.54-1.64,2.12,2.12,0,0,1,1.66-.6h4.44q5.58,0,7.83,4.44a12.76,12.76,0,0,1,.77,2,8.76,8.76,0,0,1,.32,2.4Zm-6.68-3.36v-1.08c0-1.36-.75-2.11-2.24-2.24a2,2,0,0,0-2.2,2.24,2.3,2.3,0,0,0,.54,1.62,2.19,2.19,0,0,0,1.66.58h1.12A1,1,0,0,0,266.18,417.89Z"/><path d="M283.5,397.85a2.21,2.21,0,0,1-.6,1.68,2.33,2.33,0,0,1-1.64.56h-2.2a2.31,2.31,0,0,1-1.64-.56,2.21,2.21,0,0,1-.6-1.68v-1a2.18,2.18,0,0,1,.6-1.68,2.27,2.27,0,0,1,1.64-.56h2.2a2.28,2.28,0,0,1,1.64.56,2.18,2.18,0,0,1,.6,1.68Zm0,25.6a2.21,2.21,0,0,1-.6,1.68,2.33,2.33,0,0,1-1.64.56h-2.2a2.31,2.31,0,0,1-1.64-.56,2.21,2.21,0,0,1-.6-1.68V404.53a2.18,2.18,0,0,1,.6-1.68,2.27,2.27,0,0,1,1.64-.56h2.2a2.28,2.28,0,0,1,1.64.56,2.18,2.18,0,0,1,.6,1.68Z"/><path d="M298.62,423.73a2,2,0,0,1-2.24,2.24,8.62,8.62,0,0,1-4.72-1.06,7.9,7.9,0,0,1-3-3.38,13.53,13.53,0,0,1-.78-2,8.14,8.14,0,0,1-.34-2.4V396.81a2.18,2.18,0,0,1,.6-1.68,2.27,2.27,0,0,1,1.64-.56h2.2a2.28,2.28,0,0,1,1.64.56,2.18,2.18,0,0,1,.6,1.68v20.28c0,1.33.74,2.06,2.24,2.2a2.05,2.05,0,0,1,2.2,2.24Z"/><path d="M320.42,412.37a4.36,4.36,0,0,1-1.19,3.34,4.64,4.64,0,0,1-3.27,1.1H309.3c.1,1.46.84,2.2,2.2,2.2h4.44a2.21,2.21,0,0,1,1.68.6,2.31,2.31,0,0,1,.56,1.64v2.2a2.33,2.33,0,0,1-.56,1.64,2.21,2.21,0,0,1-1.68.6H311.5q-5.56,0-7.76-4.44a13.53,13.53,0,0,1-.78-2,8.14,8.14,0,0,1-.34-2.4v-9.2a8,8,0,0,1,.34-2.4,13.78,13.78,0,0,1,.78-2q2.2-4.44,7.78-4.44t7.81,4.44a12.76,12.76,0,0,1,.77,2,8.76,8.76,0,0,1,.32,2.4ZM313.74,409v-1.4c0-1.34-.75-2.07-2.24-2.2-1.47.1-2.2.84-2.2,2.2v2.52h3.32A1,1,0,0,0,313.74,409Z"/><path d="M342.18,417.09a8.86,8.86,0,0,1-.32,2.4,13.53,13.53,0,0,1-.77,2q-2.23,4.44-7.81,4.44t-7.78-4.44a14.7,14.7,0,0,1-.78-2,8.14,8.14,0,0,1-.34-2.4v-9.2a8,8,0,0,1,.34-2.4,12.76,12.76,0,0,1,.78-2q2.19-4.44,7.76-4.44a6.35,6.35,0,0,1,1,.08c.37.05.78.13,1.24.24v-2.52a2,2,0,0,1,2.21-2.24H340a2,2,0,0,1,2.22,2.24Zm-6.68,0v-9.2c0-1.34-.75-2.07-2.24-2.2-1.47.1-2.2.84-2.2,2.2v9.2c0,1.36.73,2.09,2.2,2.2C334.75,419.15,335.5,418.42,335.5,417.09Z"/><path d="M374,416.73a8.33,8.33,0,0,1-.35,2.42,13,13,0,0,1-.78,2.06q-2.22,4.47-7.83,4.48h-4.44a2.12,2.12,0,0,1-1.66-.6,2.37,2.37,0,0,1-.54-1.64v-2.2a2.35,2.35,0,0,1,.54-1.64,2.12,2.12,0,0,1,1.66-.6H365a2.18,2.18,0,0,0,1.74-.68,2.52,2.52,0,0,0,.5-1.84c-.46.1-.87.18-1.24.24a7.83,7.83,0,0,1-1,.08q-5.56,0-7.76-4.44a13,13,0,0,1-.78-2.06,8.33,8.33,0,0,1-.34-2.42v-6.64a2.18,2.18,0,0,1,.6-1.68,2.27,2.27,0,0,1,1.64-.56h2.2a2.28,2.28,0,0,1,1.64.56,2.18,2.18,0,0,1,.6,1.68v6.64a2,2,0,0,0,2.2,2.24,1.93,1.93,0,0,0,1.92-1.08,2.3,2.3,0,0,0,.32-1.12v-6.68a2,2,0,0,1,2.21-2.24h2.25a2,2,0,0,1,2.22,2.24Z"/><path d="M395.74,417.09a8.86,8.86,0,0,1-.32,2.4,13.53,13.53,0,0,1-.77,2q-2.23,4.44-7.81,4.44t-7.78-4.44a13.53,13.53,0,0,1-.78-2,8.14,8.14,0,0,1-.34-2.4v-9.48a8,8,0,0,1,.34-2.4,12.76,12.76,0,0,1,.78-2q2.2-4.44,7.78-4.44t7.81,4.44a12.76,12.76,0,0,1,.77,2,8.76,8.76,0,0,1,.32,2.4Zm-6.68,0v-9.48c0-1.34-.75-2.07-2.24-2.2-1.47.1-2.2.84-2.2,2.2v9.48c0,1.36.73,2.09,2.2,2.2C388.31,419.15,389.06,418.42,389.06,417.09Z"/><path d="M417.5,421.25a4.36,4.36,0,0,1-1.19,3.34,4.61,4.61,0,0,1-3.26,1.1H408.6q-5.58,0-7.78-4.44a13.53,13.53,0,0,1-.78-2,8.14,8.14,0,0,1-.34-2.4V401.25a2.18,2.18,0,0,1,.6-1.68,2.27,2.27,0,0,1,1.64-.56h2.2a2.28,2.28,0,0,1,1.64.56,2.18,2.18,0,0,1,.6,1.68v15.56a2.3,2.3,0,0,0,.54,1.62,2.19,2.19,0,0,0,1.66.58h1.12a1,1,0,0,0,1.12-1.12V401.25A2,2,0,0,1,413,399h2.25a2,2,0,0,1,2.22,2.24Z"/><path d="M434.78,403.45a2.37,2.37,0,0,1-.54,1.64,2.13,2.13,0,0,1-1.66.6h-2.24a2.15,2.15,0,0,0-1.66.58,2.26,2.26,0,0,0-.54,1.62v15.6a2.13,2.13,0,0,1-.6,1.66,2.37,2.37,0,0,1-1.64.54h-2.2a2.35,2.35,0,0,1-1.64-.54,2.13,2.13,0,0,1-.6-1.66v-15.6a8,8,0,0,1,.34-2.4,12.76,12.76,0,0,1,.78-2q2.19-4.44,7.76-4.44h2.24a2.13,2.13,0,0,1,1.66.6,2.35,2.35,0,0,1,.54,1.64Z"/><path d="M466.58,417.09a12.58,12.58,0,0,1-1.09,4.44q-2.24,4.44-7.81,4.44t-7.78-4.44a13.53,13.53,0,0,1-.78-2,8.14,8.14,0,0,1-.34-2.4v-9.48a8,8,0,0,1,.34-2.4,12.76,12.76,0,0,1,.78-2q2.21-4.44,7.78-4.44t7.81,4.44a12.81,12.81,0,0,1,1.09,4.44c-.14,1.49-.88,2.24-2.22,2.24h-2.25c-1.4,0-2.13-.75-2.21-2.24a2.08,2.08,0,0,0-2.24-2.2c-1.47.1-2.2.84-2.2,2.2v9.48c0,1.36.73,2.09,2.2,2.2a2.09,2.09,0,0,0,2.24-2.2c.08-1.5.81-2.24,2.21-2.24h2.25C465.7,414.85,466.44,415.59,466.58,417.09Z"/><path d="M481.66,423.73a2,2,0,0,1-2.24,2.24,8.62,8.62,0,0,1-4.72-1.06,7.9,7.9,0,0,1-3-3.38,13.53,13.53,0,0,1-.78-2,8.14,8.14,0,0,1-.34-2.4V396.81a2.18,2.18,0,0,1,.6-1.68,2.27,2.27,0,0,1,1.64-.56H475a2.28,2.28,0,0,1,1.64.56,2.18,2.18,0,0,1,.6,1.68v20.28c0,1.33.74,2.06,2.24,2.2a2.05,2.05,0,0,1,2.2,2.24Z"/><path d="M503.46,421.25a4.36,4.36,0,0,1-1.19,3.34,4.61,4.61,0,0,1-3.26,1.1h-4.45q-5.58,0-7.78-4.44a11.65,11.65,0,0,1-.74-2,12,12,0,0,1-.38-2.4,11.81,11.81,0,0,1,.38-2.4,11.09,11.09,0,0,1,.74-2q2.19-4.49,7.76-4.48a6.35,6.35,0,0,1,1,.08c.37,0,.78.13,1.24.24v-.32a2,2,0,0,0-2.24-2.2H490.1a2.12,2.12,0,0,1-1.66-.6,2.37,2.37,0,0,1-.54-1.64v-2.2a2.35,2.35,0,0,1,.54-1.64,2.12,2.12,0,0,1,1.66-.6h4.44q5.58,0,7.83,4.44a11.87,11.87,0,0,1,.76,2,8.39,8.39,0,0,1,.33,2.4Zm-6.68-3.36v-1.08c0-1.36-.75-2.11-2.24-2.24a2,2,0,0,0-2.2,2.24,2.3,2.3,0,0,0,.54,1.62,2.19,2.19,0,0,0,1.66.58h1.12A1,1,0,0,0,496.78,417.89Z"/><path d="M525.18,417.37a8.33,8.33,0,0,1-8.32,8.32h-7.2a2.18,2.18,0,0,1-1.68-.6,2.28,2.28,0,0,1-.56-1.64v-2.2a2.27,2.27,0,0,1,.56-1.64,2.18,2.18,0,0,1,1.68-.6h7.2a1.84,1.84,0,0,0,1.2-.48,1.59,1.59,0,0,0,.48-1.16,1.63,1.63,0,0,0-.48-1.2,1.84,1.84,0,0,0-1.2-.48h-1.12a8.34,8.34,0,0,1,0-16.68h6.12a2.21,2.21,0,0,1,1.68.6,2.31,2.31,0,0,1,.56,1.64v2.2a2.33,2.33,0,0,1-.56,1.64,2.21,2.21,0,0,1-1.68.6h-6.12a1.57,1.57,0,0,0-1.16.48,1.63,1.63,0,0,0-.48,1.2,1.59,1.59,0,0,0,.48,1.16,1.57,1.57,0,0,0,1.16.48h1.12a8.33,8.33,0,0,1,8.32,8.36Z"/><path d="M546.94,417.37a8.33,8.33,0,0,1-8.32,8.32h-7.2a2.18,2.18,0,0,1-1.68-.6,2.28,2.28,0,0,1-.56-1.64v-2.2a2.27,2.27,0,0,1,.56-1.64,2.18,2.18,0,0,1,1.68-.6h7.2a1.84,1.84,0,0,0,1.2-.48,1.59,1.59,0,0,0,.48-1.16,1.63,1.63,0,0,0-.48-1.2,1.84,1.84,0,0,0-1.2-.48H537.5a8.34,8.34,0,0,1,0-16.68h6.12a2.21,2.21,0,0,1,1.68.6,2.31,2.31,0,0,1,.56,1.64v2.2a2.33,2.33,0,0,1-.56,1.64,2.21,2.21,0,0,1-1.68.6H537.5a1.57,1.57,0,0,0-1.16.48,1.63,1.63,0,0,0-.48,1.2,1.59,1.59,0,0,0,.48,1.16,1.57,1.57,0,0,0,1.16.48h1.12a8.33,8.33,0,0,1,8.32,8.36Z"/><path d="M578.74,421.25a4.36,4.36,0,0,1-1.19,3.34,4.63,4.63,0,0,1-3.26,1.1h-4.45q-5.58,0-7.78-4.44a11.65,11.65,0,0,1-.74-2,12,12,0,0,1-.38-2.4,11.81,11.81,0,0,1,.38-2.4,11.09,11.09,0,0,1,.74-2q2.19-4.49,7.76-4.48a6.35,6.35,0,0,1,1,.08c.37,0,.78.13,1.24.24v-.32a2,2,0,0,0-2.24-2.2h-4.44a2.12,2.12,0,0,1-1.66-.6,2.37,2.37,0,0,1-.54-1.64v-2.2a2.35,2.35,0,0,1,.54-1.64,2.12,2.12,0,0,1,1.66-.6h4.44q5.58,0,7.83,4.44a12.76,12.76,0,0,1,.76,2,8.39,8.39,0,0,1,.33,2.4Zm-6.68-3.36v-1.08c0-1.36-.75-2.11-2.24-2.24a2,2,0,0,0-2.2,2.24,2.3,2.3,0,0,0,.54,1.62,2.19,2.19,0,0,0,1.66.58h1.12A1,1,0,0,0,572.06,417.89Z"/><path d="M600.5,423.45a2.24,2.24,0,0,1-.59,1.68,2.27,2.27,0,0,1-1.63.56H596a2.27,2.27,0,0,1-1.63-.56,2.24,2.24,0,0,1-.58-1.68V407.89a2,2,0,0,0-2.24-2.2h-1.12c-.72,0-1.08.37-1.08,1.12v16.64a2.21,2.21,0,0,1-.6,1.68,2.33,2.33,0,0,1-1.64.56h-2.2a2.36,2.36,0,0,1-1.65-.56,2.24,2.24,0,0,1-.59-1.68v-20a4.33,4.33,0,0,1,1.18-3.34,4.57,4.57,0,0,1,3.27-1.1h4.45q5.56,0,7.81,4.44a11.87,11.87,0,0,1,.76,2,8.39,8.39,0,0,1,.33,2.4Z"/><path d="M622.25,417.09a8.49,8.49,0,0,1-.32,2.4,12.53,12.53,0,0,1-.76,2q-2.24,4.44-7.81,4.44t-7.78-4.44a13.53,13.53,0,0,1-.78-2,8.14,8.14,0,0,1-.34-2.4v-9.2a8.39,8.39,0,0,1,.33-2.4,13.78,13.78,0,0,1,.79-2q2.19-4.44,7.75-4.44a6.18,6.18,0,0,1,1,.08,12.29,12.29,0,0,1,1.25.24v-2.52a2,2,0,0,1,2.21-2.24H620a2,2,0,0,1,2.21,2.24Zm-6.67,0v-9.2c0-1.34-.75-2.07-2.25-2.2-1.46.1-2.2.84-2.2,2.2v9.2c0,1.36.74,2.09,2.2,2.2C614.83,419.15,615.58,418.42,615.58,417.09Z"/><path d="M654,416.81a8.68,8.68,0,0,1-.32,2.42,13,13,0,0,1-.76,2.06q-2.25,4.51-7.84,4.4l-4.43-.08A2.34,2.34,0,0,1,639,425a2.13,2.13,0,0,1-.54-1.56v-2.2a2.3,2.3,0,0,1,.54-1.64,2.1,2.1,0,0,1,1.66-.6h4.43a2.25,2.25,0,0,0,1.68-.58,2.22,2.22,0,0,0,.56-1.62v-.32c-.45.1-.86.18-1.24.24a7.56,7.56,0,0,1-1,.08q-5.55,0-7.76-4.44a12.11,12.11,0,0,1-.74-2.06,13.16,13.16,0,0,1-.38-2.42,11.8,11.8,0,0,1,.39-2.4,11.09,11.09,0,0,1,.74-2q2.2-4.44,7.78-4.44h4.44a4.35,4.35,0,0,1,3.35,1.18,4.55,4.55,0,0,1,1.1,3.26Zm-6.68-8.92v-1.08a1,1,0,0,0-1.12-1.12h-1.12a2.16,2.16,0,0,0-1.66.58,2.31,2.31,0,0,0-.54,1.62,2.06,2.06,0,0,0,2.2,2.24C646.59,410,647.33,409.25,647.33,407.89Z"/><path d="M675.77,417.09a8.49,8.49,0,0,1-.32,2.4,12.53,12.53,0,0,1-.76,2q-2.24,4.44-7.81,4.44t-7.78-4.44a13.53,13.53,0,0,1-.78-2,8.14,8.14,0,0,1-.35-2.4v-9.48a8,8,0,0,1,.35-2.4,12.76,12.76,0,0,1,.78-2q2.21-4.44,7.78-4.44t7.81,4.44a11.87,11.87,0,0,1,.76,2,8.39,8.39,0,0,1,.32,2.4Zm-6.68,0v-9.48c0-1.34-.74-2.07-2.24-2.2-1.46.1-2.2.84-2.2,2.2v9.48c0,1.36.74,2.09,2.2,2.2C668.35,419.15,669.09,418.42,669.09,417.09Z"/><path d="M695.29,423.73a2,2,0,0,1-2.24,2.24,8.65,8.65,0,0,1-4.72-1.06,8,8,0,0,1-3-3.38,16.08,16.08,0,0,1-.78-2,8.49,8.49,0,0,1-.34-2.4v-9.2H682a2,2,0,0,1-2.24-2.22v-2.25a2.27,2.27,0,0,1,.56-1.63,2.24,2.24,0,0,1,1.68-.58h2.2V399a2.11,2.11,0,0,1,.6-1.65,2.41,2.41,0,0,1,1.64-.53h2.2a2.39,2.39,0,0,1,1.64.53,2.11,2.11,0,0,1,.6,1.65v2.22h2.2a2,2,0,0,1,2.24,2.21v2.25a2,2,0,0,1-2.24,2.22h-2.2v9.2c0,1.33.75,2.06,2.24,2.2a2,2,0,0,1,2.2,2.24Z"/><path d="M726.77,420.93a2.35,2.35,0,0,1,.52,1.48,2.18,2.18,0,0,1-.88,1.64l-1.72,1.4a2.19,2.19,0,0,1-1.4.52,2.26,2.26,0,0,1-1.72-.88l-5.6-7.76v6.12a2.21,2.21,0,0,1-.6,1.68,2.31,2.31,0,0,1-1.64.56h-2.2a2.33,2.33,0,0,1-1.64-.56,2.21,2.21,0,0,1-.6-1.68V396.81a2.18,2.18,0,0,1,.6-1.68,2.28,2.28,0,0,1,1.64-.56h2.2a2.27,2.27,0,0,1,1.64.56,2.18,2.18,0,0,1,.6,1.68v10.44l5.6-7.64a2.05,2.05,0,0,1,1.72-.88,2.14,2.14,0,0,1,1.4.52l1.72,1.4a2.15,2.15,0,0,1,.88,1.64,2.39,2.39,0,0,1-.52,1.48l-6.72,8.6Z"/><path d="M738,397.85a2.21,2.21,0,0,1-.6,1.68,2.31,2.31,0,0,1-1.64.56h-2.2a2.33,2.33,0,0,1-1.64-.56,2.21,2.21,0,0,1-.6-1.68v-1a2.18,2.18,0,0,1,.6-1.68,2.28,2.28,0,0,1,1.64-.56h2.2a2.27,2.27,0,0,1,1.64.56,2.18,2.18,0,0,1,.6,1.68Zm0,25.6a2.21,2.21,0,0,1-.6,1.68,2.31,2.31,0,0,1-1.64.56h-2.2a2.33,2.33,0,0,1-1.64-.56,2.21,2.21,0,0,1-.6-1.68V404.53a2.18,2.18,0,0,1,.6-1.68,2.28,2.28,0,0,1,1.64-.56h2.2a2.27,2.27,0,0,1,1.64.56,2.18,2.18,0,0,1,.6,1.68Z"/><path d="M759.77,417.09a12.38,12.38,0,0,1-1.08,4.44q-2.25,4.44-7.82,4.44t-7.78-4.44a16.08,16.08,0,0,1-.78-2,8.49,8.49,0,0,1-.34-2.4v-9.48a8.38,8.38,0,0,1,.34-2.4,15,15,0,0,1,.78-2q2.22-4.44,7.78-4.44t7.82,4.44a12.59,12.59,0,0,1,1.08,4.44c-.13,1.49-.87,2.24-2.21,2.24h-2.25c-1.4,0-2.14-.75-2.22-2.24s-.77-2.1-2.24-2.2c-1.46.1-2.2.84-2.2,2.2v9.48c0,1.36.74,2.09,2.2,2.2,1.47-.11,2.22-.84,2.24-2.2s.82-2.24,2.22-2.24h2.25C758.9,414.85,759.64,415.59,759.77,417.09Z"/><path d="M781.21,420.93a2.35,2.35,0,0,1,.52,1.48,2.18,2.18,0,0,1-.88,1.64l-1.72,1.4a2.19,2.19,0,0,1-1.4.52,2.26,2.26,0,0,1-1.72-.88l-5.6-7.76v6.12a2.21,2.21,0,0,1-.6,1.68,2.31,2.31,0,0,1-1.64.56H766a2.33,2.33,0,0,1-1.64-.56,2.21,2.21,0,0,1-.6-1.68V396.81a2.18,2.18,0,0,1,.6-1.68,2.28,2.28,0,0,1,1.64-.56h2.2a2.27,2.27,0,0,1,1.64.56,2.18,2.18,0,0,1,.6,1.68v10.44l5.6-7.64a2.05,2.05,0,0,1,1.72-.88,2.14,2.14,0,0,1,1.4.52l1.72,1.4a2.15,2.15,0,0,1,.88,1.64,2.39,2.39,0,0,1-.52,1.48l-6.72,8.6Z"/><path d="M803.53,412.37a4.36,4.36,0,0,1-1.18,3.34,4.64,4.64,0,0,1-3.27,1.1h-6.67c.11,1.46.84,2.2,2.2,2.2h4.44a2.18,2.18,0,0,1,1.68.6,2.27,2.27,0,0,1,.56,1.64v2.2a2.28,2.28,0,0,1-.56,1.64,2.18,2.18,0,0,1-1.68.6h-4.44q-5.55,0-7.76-4.44a16.08,16.08,0,0,1-.78-2,8.49,8.49,0,0,1-.34-2.4v-9.2a8.38,8.38,0,0,1,.34-2.4,15,15,0,0,1,.78-2q2.22-4.44,7.78-4.44t7.82,4.44a12.76,12.76,0,0,1,.76,2,8.39,8.39,0,0,1,.32,2.4ZM796.85,409v-1.4c0-1.34-.74-2.07-2.24-2.2-1.46.1-2.2.84-2.2,2.2v2.52h3.32A1,1,0,0,0,796.85,409Z"/><path d="M825.29,417.09a8.49,8.49,0,0,1-.32,2.4,13.53,13.53,0,0,1-.76,2Q822,426,816.39,426t-7.78-4.44a16.08,16.08,0,0,1-.78-2,8.49,8.49,0,0,1-.34-2.4v-9.2a8.38,8.38,0,0,1,.34-2.4,15,15,0,0,1,.78-2q2.21-4.44,7.76-4.44a6.18,6.18,0,0,1,1,.08,11.64,11.64,0,0,1,1.24.24v-2.52a2,2,0,0,1,2.22-2.24h2.25a2,2,0,0,1,2.21,2.24Zm-6.68,0v-9.2c0-1.34-.74-2.07-2.24-2.2-1.46.1-2.2.84-2.2,2.2v9.2c0,1.36.74,2.09,2.2,2.2C817.87,419.15,818.61,418.42,818.61,417.09Z"/><path d="M857.05,417.09a8.49,8.49,0,0,1-.32,2.4,13.53,13.53,0,0,1-.76,2q-2.25,4.44-7.82,4.44t-7.78-4.44a16.08,16.08,0,0,1-.78-2,8.49,8.49,0,0,1-.34-2.4v-9.48a8.38,8.38,0,0,1,.34-2.4,15,15,0,0,1,.78-2q2.21-4.44,7.78-4.44t7.82,4.44a12.76,12.76,0,0,1,.76,2,8.39,8.39,0,0,1,.32,2.4Zm-6.68,0v-9.48c0-1.34-.75-2.07-2.24-2.2-1.46.1-2.2.84-2.2,2.2v9.48c0,1.36.74,2.09,2.2,2.2C849.62,419.15,850.37,418.42,850.37,417.09Z"/><path d="M878.81,421.25a4.36,4.36,0,0,1-1.18,3.34,4.64,4.64,0,0,1-3.27,1.1h-4.45q-5.56,0-7.78-4.44a16.08,16.08,0,0,1-.78-2,8.14,8.14,0,0,1-.34-2.4V401.25a2.18,2.18,0,0,1,.6-1.68,2.28,2.28,0,0,1,1.64-.56h2.2a2.28,2.28,0,0,1,1.64.56,2.18,2.18,0,0,1,.6,1.68v15.56a2.3,2.3,0,0,0,.54,1.62,2.19,2.19,0,0,0,1.66.58H871a1,1,0,0,0,1.12-1.12V401.25a2,2,0,0,1,2.21-2.24h2.26a2,2,0,0,1,2.21,2.24Z"/><path d="M898.33,423.73a2,2,0,0,1-2.24,2.24,8.62,8.62,0,0,1-4.72-1.06,8,8,0,0,1-3-3.38,16.08,16.08,0,0,1-.78-2,8.14,8.14,0,0,1-.34-2.4v-9.2H885a2.23,2.23,0,0,1-1.68-.59,2.25,2.25,0,0,1-.56-1.63v-2.25a2.27,2.27,0,0,1,.56-1.63,2.23,2.23,0,0,1,1.68-.58h2.2V399a2.11,2.11,0,0,1,.6-1.65,2.41,2.41,0,0,1,1.64-.53h2.2a2.41,2.41,0,0,1,1.64.53,2.11,2.11,0,0,1,.6,1.65v2.22h2.2a2.21,2.21,0,0,1,1.68.58,2.27,2.27,0,0,1,.56,1.63v2.25a2.25,2.25,0,0,1-.56,1.63,2.21,2.21,0,0,1-1.68.59h-2.2v9.2c0,1.33.75,2.06,2.24,2.2a2,2,0,0,1,2.2,2.24Z"/><path d="M930.13,417.09a8.86,8.86,0,0,1-.32,2.4,13.53,13.53,0,0,1-.76,2Q926.8,426,921.23,426t-7.78-4.44a16.08,16.08,0,0,1-.78-2,8.14,8.14,0,0,1-.34-2.4v-9.48a8,8,0,0,1,.34-2.4,15,15,0,0,1,.78-2q2.2-4.44,7.78-4.44t7.82,4.44a12.76,12.76,0,0,1,.76,2,8.76,8.76,0,0,1,.32,2.4Zm-6.68,0v-9.48c0-1.34-.75-2.07-2.24-2.2-1.47.1-2.2.84-2.2,2.2v9.48c0,1.36.73,2.09,2.2,2.2C922.7,419.15,923.45,418.42,923.45,417.09Z"/><path d="M949.65,407.89a2.33,2.33,0,0,1-.56,1.64,2.18,2.18,0,0,1-1.68.6h-2.2v13.32a2.21,2.21,0,0,1-.6,1.68,2.33,2.33,0,0,1-1.64.56h-2.2a2.33,2.33,0,0,1-1.64-.56,2.21,2.21,0,0,1-.6-1.68V410.13h-2.2a2.18,2.18,0,0,1-1.68-.6,2.33,2.33,0,0,1-.56-1.64v-2.2a2.31,2.31,0,0,1,.56-1.64,2.18,2.18,0,0,1,1.68-.6h2.2a12.24,12.24,0,0,1,.38-2.42,11.8,11.8,0,0,1,.74-2.06q2.24-4.53,7.76-4.68c1.49.13,2.24.88,2.24,2.24v2.2a2.06,2.06,0,0,1-2.2,2.24,2.21,2.21,0,0,0-2.24,2.48h2.2a2.18,2.18,0,0,1,1.68.6,2.31,2.31,0,0,1,.56,1.64Z"/><path d="M177.3,469.25a4.36,4.36,0,0,1-1.18,3.34,4.64,4.64,0,0,1-3.27,1.1H168.4q-5.58,0-7.78-4.44a16.08,16.08,0,0,1-.78-2,8.14,8.14,0,0,1-.34-2.4V449.25a2.18,2.18,0,0,1,.6-1.68,2.28,2.28,0,0,1,1.64-.56h2.2a2.28,2.28,0,0,1,1.64.56,2.18,2.18,0,0,1,.6,1.68v15.56a2.3,2.3,0,0,0,.54,1.62,2.19,2.19,0,0,0,1.66.58h1.12a1,1,0,0,0,1.12-1.12V449.25a2.21,2.21,0,0,1,.58-1.68,2.24,2.24,0,0,1,1.63-.56h2.26a2.24,2.24,0,0,1,1.63.56,2.21,2.21,0,0,1,.58,1.68Z"/><path d="M199.06,471.45a2.24,2.24,0,0,1-.58,1.68,2.29,2.29,0,0,1-1.63.56h-2.26a2.29,2.29,0,0,1-1.63-.56,2.24,2.24,0,0,1-.58-1.68V455.89a2,2,0,0,0-2.24-2.2H189c-.72,0-1.08.37-1.08,1.12v16.64a2.21,2.21,0,0,1-.6,1.68,2.33,2.33,0,0,1-1.64.56h-2.2a2.33,2.33,0,0,1-1.64-.56,2.21,2.21,0,0,1-.6-1.68v-20a4.33,4.33,0,0,1,1.18-3.34,4.59,4.59,0,0,1,3.27-1.1h4.45q5.58,0,7.82,4.44a12.76,12.76,0,0,1,.76,2,8.76,8.76,0,0,1,.32,2.4Z"/><path d="M209.7,445.85a2.21,2.21,0,0,1-.6,1.68,2.33,2.33,0,0,1-1.64.56h-2.2a2.33,2.33,0,0,1-1.64-.56,2.21,2.21,0,0,1-.6-1.68v-1a2.18,2.18,0,0,1,.6-1.68,2.28,2.28,0,0,1,1.64-.56h2.2a2.28,2.28,0,0,1,1.64.56,2.18,2.18,0,0,1,.6,1.68Zm0,25.6a2.21,2.21,0,0,1-.6,1.68,2.33,2.33,0,0,1-1.64.56h-2.2a2.33,2.33,0,0,1-1.64-.56,2.21,2.21,0,0,1-.6-1.68V452.53a2.18,2.18,0,0,1,.6-1.68,2.28,2.28,0,0,1,1.64-.56h2.2a2.28,2.28,0,0,1,1.64.56,2.18,2.18,0,0,1,.6,1.68Z"/><path d="M231.5,464.81a8.86,8.86,0,0,1-.32,2.4,14.7,14.7,0,0,1-.76,2q-2.25,4.44-7.82,4.44h-4.45a4.64,4.64,0,0,1-3.27-1.1,4.36,4.36,0,0,1-1.18-3.34v-20a2.18,2.18,0,0,1,.6-1.68,2.28,2.28,0,0,1,1.64-.56h2.2a2.28,2.28,0,0,1,1.64.56,2.18,2.18,0,0,1,.6,1.68v16.64a1,1,0,0,0,1.08,1.12h1.12a2,2,0,0,0,2.24-2.2V449.25A2,2,0,0,1,227,447h2.26a2,2,0,0,1,2.21,2.24Z"/><path d="M253.26,460.37a4.36,4.36,0,0,1-1.19,3.34,4.64,4.64,0,0,1-3.27,1.1h-6.66c.11,1.46.84,2.2,2.2,2.2h4.44a2.2,2.2,0,0,1,1.68.6,2.31,2.31,0,0,1,.56,1.64v2.2a2.33,2.33,0,0,1-.56,1.64,2.2,2.2,0,0,1-1.68.6h-4.44q-5.57,0-7.76-4.44a16.08,16.08,0,0,1-.78-2,8.14,8.14,0,0,1-.34-2.4v-9.2a8,8,0,0,1,.34-2.4,15,15,0,0,1,.78-2q2.21-4.44,7.78-4.44t7.82,4.44a13.8,13.8,0,0,1,.76,2,8.76,8.76,0,0,1,.32,2.4ZM246.58,457v-1.4c0-1.34-.75-2.07-2.24-2.2-1.47.1-2.2.84-2.2,2.2v2.52h3.32A1,1,0,0,0,246.58,457Z"/><path d="M270.54,451.45a2.37,2.37,0,0,1-.54,1.64,2.13,2.13,0,0,1-1.66.6H266.1a2.15,2.15,0,0,0-1.66.58,2.26,2.26,0,0,0-.54,1.62v15.6a2.13,2.13,0,0,1-.6,1.66,2.37,2.37,0,0,1-1.64.54h-2.2a2.35,2.35,0,0,1-1.64-.54,2.13,2.13,0,0,1-.6-1.66v-15.6a8,8,0,0,1,.34-2.4,13.78,13.78,0,0,1,.78-2q2.19-4.44,7.76-4.44h2.24a2.13,2.13,0,0,1,1.66.6,2.35,2.35,0,0,1,.54,1.64Z"/><path d="M292.3,465.37a8.33,8.33,0,0,1-8.32,8.32h-7.2a2.18,2.18,0,0,1-1.68-.6,2.33,2.33,0,0,1-.56-1.64v-2.2a2.31,2.31,0,0,1,.56-1.64,2.18,2.18,0,0,1,1.68-.6H284a1.8,1.8,0,0,0,1.2-.48,1.59,1.59,0,0,0,.48-1.16,1.63,1.63,0,0,0-.48-1.2,1.8,1.8,0,0,0-1.2-.48h-1.12a8.34,8.34,0,0,1,0-16.68H289a2.18,2.18,0,0,1,1.68.6,2.31,2.31,0,0,1,.56,1.64v2.2a2.33,2.33,0,0,1-.56,1.64,2.18,2.18,0,0,1-1.68.6h-6.12a1.59,1.59,0,0,0-1.16.48,1.63,1.63,0,0,0-.48,1.2,1.64,1.64,0,0,0,1.64,1.64H284a8.33,8.33,0,0,1,8.32,8.36Z"/><path d="M303,445.85a2.21,2.21,0,0,1-.6,1.68,2.33,2.33,0,0,1-1.64.56h-2.2a2.31,2.31,0,0,1-1.64-.56,2.21,2.21,0,0,1-.6-1.68v-1a2.18,2.18,0,0,1,.6-1.68,2.27,2.27,0,0,1,1.64-.56h2.2a2.28,2.28,0,0,1,1.64.56,2.18,2.18,0,0,1,.6,1.68Zm0,25.6a2.21,2.21,0,0,1-.6,1.68,2.33,2.33,0,0,1-1.64.56h-2.2a2.31,2.31,0,0,1-1.64-.56,2.21,2.21,0,0,1-.6-1.68V452.53a2.18,2.18,0,0,1,.6-1.68,2.27,2.27,0,0,1,1.64-.56h2.2a2.28,2.28,0,0,1,1.64.56,2.18,2.18,0,0,1,.6,1.68Z"/><path d="M322.54,471.73A2,2,0,0,1,320.3,474a8.62,8.62,0,0,1-4.72-1.06,8,8,0,0,1-3-3.38,14.7,14.7,0,0,1-.78-2,8.14,8.14,0,0,1-.34-2.4v-9.2h-2.2a2.21,2.21,0,0,1-1.68-.59,2.25,2.25,0,0,1-.56-1.63v-2.25a2.27,2.27,0,0,1,.56-1.63,2.21,2.21,0,0,1,1.68-.58h2.2V447a2.11,2.11,0,0,1,.6-1.65,2.39,2.39,0,0,1,1.64-.53h2.2a2.41,2.41,0,0,1,1.64.53,2.11,2.11,0,0,1,.6,1.65v2.22h2.2a2.24,2.24,0,0,1,1.68.58,2.27,2.27,0,0,1,.56,1.63v2.25a2,2,0,0,1-2.24,2.22h-2.2v9.2c0,1.33.74,2.06,2.24,2.2a2.05,2.05,0,0,1,2.2,2.24Z"/><path d="M344.38,464.73a8.68,8.68,0,0,1-.34,2.42,14.05,14.05,0,0,1-.79,2.06c-1.47,3-4.09,4.48-7.83,4.48H331a2.12,2.12,0,0,1-1.66-.6,2.37,2.37,0,0,1-.54-1.64v-2.2a2.35,2.35,0,0,1,.54-1.64A2.12,2.12,0,0,1,331,467h4.44a2.18,2.18,0,0,0,1.74-.68,2.52,2.52,0,0,0,.5-1.84c-.46.1-.87.18-1.24.24a7.83,7.83,0,0,1-1,.08q-5.57,0-7.76-4.44a13,13,0,0,1-.78-2.06,8.33,8.33,0,0,1-.34-2.42v-6.64a2.18,2.18,0,0,1,.6-1.68,2.27,2.27,0,0,1,1.64-.56H331a2.28,2.28,0,0,1,1.64.56,2.18,2.18,0,0,1,.6,1.68v6.64a2,2,0,0,0,2.2,2.24,1.93,1.93,0,0,0,1.92-1.08,2.3,2.3,0,0,0,.32-1.12v-6.68a2,2,0,0,1,2.21-2.24h2.25a2,2,0,0,1,2.22,2.24Z"/><path d="M355,473.69a2.13,2.13,0,0,1-.6,1.66,2.37,2.37,0,0,1-1.64.54h-2.2a2.35,2.35,0,0,1-1.64-.54,2.13,2.13,0,0,1-.6-1.66v-4.44a2.18,2.18,0,0,1,.6-1.68,2.27,2.27,0,0,1,1.64-.56h2.2a2.28,2.28,0,0,1,1.64.56,2.18,2.18,0,0,1,.6,1.68Z"/><path d="M386.78,465.37a8.33,8.33,0,0,1-8.32,8.32h-7.2a2.18,2.18,0,0,1-1.68-.6,2.28,2.28,0,0,1-.56-1.64v-2.2a2.27,2.27,0,0,1,.56-1.64,2.18,2.18,0,0,1,1.68-.6h7.2a1.84,1.84,0,0,0,1.2-.48,1.59,1.59,0,0,0,.48-1.16,1.63,1.63,0,0,0-.48-1.2,1.84,1.84,0,0,0-1.2-.48h-1.12a8.34,8.34,0,0,1,0-16.68h6.12a2.21,2.21,0,0,1,1.68.6,2.31,2.31,0,0,1,.56,1.64v2.2a2.33,2.33,0,0,1-.56,1.64,2.21,2.21,0,0,1-1.68.6h-6.12a1.57,1.57,0,0,0-1.16.48,1.63,1.63,0,0,0-.48,1.2,1.59,1.59,0,0,0,.48,1.16,1.57,1.57,0,0,0,1.16.48h1.12a8.33,8.33,0,0,1,8.32,8.36Z"/><path d="M408.58,465.09a8.86,8.86,0,0,1-.32,2.4,14.7,14.7,0,0,1-.76,2q-2.25,4.44-7.82,4.44t-7.78-4.44a14.7,14.7,0,0,1-.78-2,8.14,8.14,0,0,1-.34-2.4v-9.48a8,8,0,0,1,.34-2.4,13.78,13.78,0,0,1,.78-2q2.21-4.44,7.78-4.44t7.82,4.44a13.8,13.8,0,0,1,.76,2,8.76,8.76,0,0,1,.32,2.4Zm-6.68,0v-9.48c0-1.34-.75-2.07-2.24-2.2-1.47.1-2.2.84-2.2,2.2v9.48c0,1.36.73,2.09,2.2,2.2C401.15,467.15,401.9,466.42,401.9,465.09Z"/><path d="M430.34,465.09a8.86,8.86,0,0,1-.32,2.4,13.53,13.53,0,0,1-.77,2Q427,474,421.44,474t-7.78-4.44a14.7,14.7,0,0,1-.78-2,8.14,8.14,0,0,1-.34-2.4v-9.48a8,8,0,0,1,.34-2.4,13.78,13.78,0,0,1,.78-2q2.2-4.44,7.78-4.44t7.81,4.44a12.76,12.76,0,0,1,.77,2,8.76,8.76,0,0,1,.32,2.4Zm-6.68,0v-9.48c0-1.34-.75-2.07-2.24-2.2-1.47.1-2.2.84-2.2,2.2v9.48c0,1.36.73,2.09,2.2,2.2C422.91,467.15,423.66,466.42,423.66,465.09Z"/><path d="M452.1,471.45a2.24,2.24,0,0,1-.59,1.68,2.27,2.27,0,0,1-1.63.56h-2.25a2.27,2.27,0,0,1-1.63-.56,2.24,2.24,0,0,1-.58-1.68V455.89a2,2,0,0,0-2.24-2.2h-1.12c-.72,0-1.08.37-1.08,1.12v16.64a2.21,2.21,0,0,1-.6,1.68,2.33,2.33,0,0,1-1.64.56h-2.2a2.31,2.31,0,0,1-1.64-.56,2.21,2.21,0,0,1-.6-1.68v-20a4.33,4.33,0,0,1,1.18-3.34,4.59,4.59,0,0,1,3.27-1.1h4.45q5.57,0,7.81,4.44a12.76,12.76,0,0,1,.77,2,8.76,8.76,0,0,1,.32,2.4Z"/><path d="M483.9,464.73a8.33,8.33,0,0,1-.35,2.42,13,13,0,0,1-.78,2.06q-2.22,4.47-7.83,4.48H470.5a2.12,2.12,0,0,1-1.66-.6,2.37,2.37,0,0,1-.54-1.64v-2.2a2.35,2.35,0,0,1,.54-1.64,2.12,2.12,0,0,1,1.66-.6h4.44a2.18,2.18,0,0,0,1.74-.68,2.52,2.52,0,0,0,.5-1.84c-.46.1-.87.18-1.24.24a7.83,7.83,0,0,1-1,.08q-5.56,0-7.76-4.44a13,13,0,0,1-.78-2.06,8.33,8.33,0,0,1-.34-2.42v-6.64a2.18,2.18,0,0,1,.6-1.68,2.27,2.27,0,0,1,1.64-.56h2.2a2.28,2.28,0,0,1,1.64.56,2.18,2.18,0,0,1,.6,1.68v6.64a2,2,0,0,0,2.2,2.24,1.93,1.93,0,0,0,1.92-1.08,2.3,2.3,0,0,0,.32-1.12v-6.68a2,2,0,0,1,2.21-2.24h2.25a2,2,0,0,1,2.22,2.24Z"/><path d="M505.66,465.09a8.86,8.86,0,0,1-.32,2.4,13.53,13.53,0,0,1-.77,2q-2.24,4.44-7.81,4.44T489,469.53a13.53,13.53,0,0,1-.78-2,8.14,8.14,0,0,1-.34-2.4v-9.48a8,8,0,0,1,.34-2.4,12.76,12.76,0,0,1,.78-2q2.2-4.44,7.78-4.44t7.81,4.44a12.76,12.76,0,0,1,.77,2,8.76,8.76,0,0,1,.32,2.4Zm-6.68,0v-9.48c0-1.34-.75-2.07-2.24-2.2-1.47.1-2.2.84-2.2,2.2v9.48c0,1.36.73,2.09,2.2,2.2C498.23,467.15,499,466.42,499,465.09Z"/><path d="M527.42,469.25a4.36,4.36,0,0,1-1.19,3.34,4.61,4.61,0,0,1-3.26,1.1h-4.45q-5.58,0-7.78-4.44a13.53,13.53,0,0,1-.78-2,8.14,8.14,0,0,1-.34-2.4V449.25a2.18,2.18,0,0,1,.6-1.68,2.27,2.27,0,0,1,1.64-.56h2.2a2.28,2.28,0,0,1,1.64.56,2.18,2.18,0,0,1,.6,1.68v15.56a2.3,2.3,0,0,0,.54,1.62,2.19,2.19,0,0,0,1.66.58h1.12a1,1,0,0,0,1.12-1.12V449.25A2,2,0,0,1,523,447h2.25a2,2,0,0,1,2.22,2.24Z"/><path d="M570.3,464.81a8.86,8.86,0,0,1-.32,2.4,11,11,0,0,1-.81,2q-2.24,4.44-7.77,4.44a10.09,10.09,0,0,1-5.56-1.8,10,10,0,0,1-5.57,1.8h-4.45a4.59,4.59,0,0,1-3.26-1.1,4.36,4.36,0,0,1-1.18-3.34v-20a2.18,2.18,0,0,1,.6-1.68,2.27,2.27,0,0,1,1.64-.56h2.2a2.28,2.28,0,0,1,1.64.56,2.18,2.18,0,0,1,.6,1.68v16.64a1,1,0,0,0,1.08,1.12h1.12a2,2,0,0,0,2.24-2.2V449.25a2,2,0,0,1,2.21-2.24H557a2,2,0,0,1,2.22,2.24v15.56c0,1.33.74,2.06,2.22,2.2,1.48-.14,2.22-.87,2.22-2.2V449.25a2,2,0,0,1,2.21-2.24h2.25a2,2,0,0,1,2.22,2.24Z"/><path d="M580.94,445.85a2.21,2.21,0,0,1-.6,1.68,2.33,2.33,0,0,1-1.64.56h-2.2a2.31,2.31,0,0,1-1.64-.56,2.21,2.21,0,0,1-.6-1.68v-1a2.18,2.18,0,0,1,.6-1.68,2.27,2.27,0,0,1,1.64-.56h2.2a2.28,2.28,0,0,1,1.64.56,2.18,2.18,0,0,1,.6,1.68Zm0,25.6a2.21,2.21,0,0,1-.6,1.68,2.33,2.33,0,0,1-1.64.56h-2.2a2.31,2.31,0,0,1-1.64-.56,2.21,2.21,0,0,1-.6-1.68V452.53a2.18,2.18,0,0,1,.6-1.68,2.27,2.27,0,0,1,1.64-.56h2.2a2.28,2.28,0,0,1,1.64.56,2.18,2.18,0,0,1,.6,1.68Z"/><path d="M596.06,471.73a2,2,0,0,1-2.24,2.24,8.62,8.62,0,0,1-4.72-1.06,7.9,7.9,0,0,1-3-3.38,13.53,13.53,0,0,1-.78-2,8.14,8.14,0,0,1-.34-2.4V444.81a2.18,2.18,0,0,1,.6-1.68,2.27,2.27,0,0,1,1.64-.56h2.2a2.28,2.28,0,0,1,1.64.56,2.18,2.18,0,0,1,.6,1.68v20.28c0,1.33.74,2.06,2.24,2.2a2.05,2.05,0,0,1,2.2,2.24Z"/><path d="M611.17,471.73a2,2,0,0,1-2.24,2.24,8.67,8.67,0,0,1-4.72-1.06,8,8,0,0,1-3-3.38,16.08,16.08,0,0,1-.78-2,8.49,8.49,0,0,1-.34-2.4V444.81a2.18,2.18,0,0,1,.6-1.68,2.28,2.28,0,0,1,1.64-.56h2.21a2.26,2.26,0,0,1,1.63.56,2.14,2.14,0,0,1,.6,1.68v20.28c0,1.33.75,2.06,2.24,2.2a2,2,0,0,1,2.2,2.24Z"/><path d="M643,465.09a8.14,8.14,0,0,1-.34,2.4,13.53,13.53,0,0,1-.78,2q-2.24,4.44-7.76,4.44t-7.8-4.44a16.08,16.08,0,0,1-.78-2,8.49,8.49,0,0,1-.34-2.4V444.77a2.12,2.12,0,0,1,.6-1.66,2.37,2.37,0,0,1,1.64-.54h2.24a2.3,2.3,0,0,1,1.6.54,2.12,2.12,0,0,1,.6,1.66v2.48a9.68,9.68,0,0,1,2.24-.24q5.52,0,7.76,4.44a12.76,12.76,0,0,1,.78,2,8,8,0,0,1,.34,2.4Zm-6.68,0v-9.2c0-1.39-.73-2.12-2.2-2.2a2.14,2.14,0,0,0-1.64.52,2.18,2.18,0,0,0-.6,1.68v9.2c0,1.33.75,2.06,2.24,2.2C635.56,467.18,636.29,466.45,636.29,465.09Z"/><path d="M664.77,460.37a4.36,4.36,0,0,1-1.18,3.34,4.64,4.64,0,0,1-3.27,1.1h-6.67c.11,1.46.84,2.2,2.2,2.2h4.44a2.18,2.18,0,0,1,1.68.6,2.27,2.27,0,0,1,.56,1.64v2.2a2.28,2.28,0,0,1-.56,1.64,2.18,2.18,0,0,1-1.68.6h-4.44q-5.55,0-7.76-4.44a16.08,16.08,0,0,1-.78-2,8.49,8.49,0,0,1-.34-2.4v-9.2a8.38,8.38,0,0,1,.34-2.4,13.78,13.78,0,0,1,.79-2q2.21-4.44,7.77-4.44t7.82,4.44a11.87,11.87,0,0,1,.76,2,8.39,8.39,0,0,1,.32,2.4ZM658.09,457v-1.4c0-1.34-.74-2.07-2.24-2.2-1.46.1-2.2.84-2.2,2.2v2.52H657A1,1,0,0,0,658.09,457Z"/><path d="M696.53,455.61v2.52a8.14,8.14,0,0,1-.34,2.4,16.08,16.08,0,0,1-.78,2q-2.25,4.44-7.79,4.44a10.94,10.94,0,0,1-2.21-.32l0,4.8a2.16,2.16,0,0,1-.58,1.66,2.26,2.26,0,0,1-1.62.54H681a2.37,2.37,0,0,1-1.64-.54,2.13,2.13,0,0,1-.6-1.66V455.61a8.38,8.38,0,0,1,.34-2.4,13.78,13.78,0,0,1,.79-2q2.21-4.44,7.77-4.44t7.82,4.44a11.87,11.87,0,0,1,.76,2A8.39,8.39,0,0,1,696.53,455.61Zm-6.68,2.52v-2.52c0-1.34-.74-2.07-2.24-2.2-1.46.1-2.2.84-2.2,2.2v2.52a2.06,2.06,0,0,0,2.2,2.24C689.11,460.23,689.85,459.49,689.85,458.13Z"/><path d="M718.29,465.09a8.49,8.49,0,0,1-.32,2.4,13.53,13.53,0,0,1-.76,2Q715,474,709.39,474t-7.77-4.44a14.7,14.7,0,0,1-.79-2,8.49,8.49,0,0,1-.34-2.4v-9.48a8.38,8.38,0,0,1,.34-2.4,13.78,13.78,0,0,1,.79-2q2.21-4.44,7.77-4.44t7.82,4.44a12.76,12.76,0,0,1,.76,2,8.39,8.39,0,0,1,.32,2.4Zm-6.68,0v-9.48c0-1.34-.74-2.07-2.24-2.2-1.46.1-2.2.84-2.2,2.2v9.48c0,1.36.74,2.09,2.2,2.2C710.87,467.15,711.61,466.42,711.61,465.09Z"/><path d="M740.05,465.09a8.49,8.49,0,0,1-.32,2.4,13.53,13.53,0,0,1-.76,2q-2.25,4.44-7.82,4.44t-7.77-4.44a14.7,14.7,0,0,1-.79-2,8.49,8.49,0,0,1-.34-2.4v-9.48a8.38,8.38,0,0,1,.34-2.4,13.78,13.78,0,0,1,.79-2q2.21-4.44,7.77-4.44t7.82,4.44a12.76,12.76,0,0,1,.76,2,8.39,8.39,0,0,1,.32,2.4Zm-6.68,0v-9.48c0-1.34-.74-2.07-2.24-2.2-1.46.1-2.2.84-2.2,2.2v9.48c0,1.36.74,2.09,2.2,2.2C732.63,467.15,733.37,466.42,733.37,465.09Z"/><path d="M757.33,451.45a2.37,2.37,0,0,1-.54,1.64,2.12,2.12,0,0,1-1.66.6h-2.24a2.16,2.16,0,0,0-1.66.58,2.26,2.26,0,0,0-.54,1.62v15.6a2.13,2.13,0,0,1-.6,1.66,2.35,2.35,0,0,1-1.64.54h-2.2a2.37,2.37,0,0,1-1.64-.54,2.13,2.13,0,0,1-.6-1.66v-15.6a8.38,8.38,0,0,1,.34-2.4,15,15,0,0,1,.78-2q2.21-4.44,7.76-4.44h2.24a2.12,2.12,0,0,1,1.66.6,2.35,2.35,0,0,1,.54,1.64Z"/><path d="M789.13,469.25a4.36,4.36,0,0,1-1.18,3.34,4.64,4.64,0,0,1-3.27,1.1h-4.45q-5.57,0-7.77-4.44a11.66,11.66,0,0,1-.75-2,12.81,12.81,0,0,1-.38-2.4,12.55,12.55,0,0,1,.38-2.4,11.87,11.87,0,0,1,.74-2q2.2-4.49,7.76-4.48a6.18,6.18,0,0,1,1,.08,11.64,11.64,0,0,1,1.24.24v-.32a2.19,2.19,0,0,0-.56-1.62,2.21,2.21,0,0,0-1.68-.58h-4.44a2.13,2.13,0,0,1-1.66-.6,2.37,2.37,0,0,1-.54-1.64v-2.2a2.35,2.35,0,0,1,.54-1.64,2.13,2.13,0,0,1,1.66-.6h4.44q5.58,0,7.84,4.44a12.76,12.76,0,0,1,.76,2,8.39,8.39,0,0,1,.32,2.4Zm-6.68-3.36v-1.08c0-1.36-.74-2.11-2.24-2.24a2.05,2.05,0,0,0-2.2,2.24,2.3,2.3,0,0,0,.54,1.62,2.2,2.2,0,0,0,1.66.58h1.12A1,1,0,0,0,782.45,465.89Z"/><path d="M810.89,471.45a2.24,2.24,0,0,1-.58,1.68,2.27,2.27,0,0,1-1.63.56h-2.25a2,2,0,0,1-2.22-2.24V455.89a2.19,2.19,0,0,0-.56-1.62,2.21,2.21,0,0,0-1.68-.58h-1.12c-.72,0-1.08.37-1.08,1.12v16.64a2.21,2.21,0,0,1-.6,1.68,2.31,2.31,0,0,1-1.64.56h-2.2a2.33,2.33,0,0,1-1.64-.56,2.21,2.21,0,0,1-.6-1.68v-20a4.33,4.33,0,0,1,1.19-3.34,4.55,4.55,0,0,1,3.26-1.1H802q5.58,0,7.82,4.44a12.76,12.76,0,0,1,.76,2,8.39,8.39,0,0,1,.32,2.4Z"/><path d="M832.65,465.09a8.49,8.49,0,0,1-.32,2.4,13.53,13.53,0,0,1-.76,2q-2.25,4.44-7.82,4.44T816,469.53a16.08,16.08,0,0,1-.78-2,8.49,8.49,0,0,1-.34-2.4v-9.2a8.38,8.38,0,0,1,.34-2.4,15,15,0,0,1,.78-2q2.21-4.44,7.76-4.44a6.18,6.18,0,0,1,1,.08,11.64,11.64,0,0,1,1.24.24v-2.52a2,2,0,0,1,2.22-2.24h2.25a2,2,0,0,1,2.21,2.24Zm-6.68,0v-9.2c0-1.34-.74-2.07-2.24-2.2-1.46.1-2.2.84-2.2,2.2v9.2c0,1.36.74,2.09,2.2,2.2C825.23,467.15,826,466.42,826,465.09Z"/><path d="M177.3,519.45a2.24,2.24,0,0,1-.58,1.68,2.29,2.29,0,0,1-1.63.56h-2.26a2.29,2.29,0,0,1-1.63-.56,2.24,2.24,0,0,1-.58-1.68V503.89c0-1.39-.75-2.12-2.24-2.2a2.08,2.08,0,0,0-1.62.52,2.21,2.21,0,0,0-.58,1.68v15.56a2.21,2.21,0,0,1-.6,1.68,2.33,2.33,0,0,1-1.64.56h-2.2a2.33,2.33,0,0,1-1.64-.56,2.21,2.21,0,0,1-.6-1.68V492.81a2.18,2.18,0,0,1,.6-1.68,2.28,2.28,0,0,1,1.64-.56h2.2a2.28,2.28,0,0,1,1.64.56,2.18,2.18,0,0,1,.6,1.68v2.44a9.47,9.47,0,0,1,2.21-.24q5.58,0,7.83,4.44a13.8,13.8,0,0,1,.76,2,8.76,8.76,0,0,1,.32,2.4Z"/><path d="M199.06,513.09a8.86,8.86,0,0,1-.32,2.4,13.53,13.53,0,0,1-.76,2q-2.25,4.44-7.82,4.44t-7.78-4.44a16.08,16.08,0,0,1-.78-2,8.14,8.14,0,0,1-.34-2.4v-9.48a8,8,0,0,1,.34-2.4,15,15,0,0,1,.78-2q2.2-4.44,7.78-4.44t7.82,4.44a12.76,12.76,0,0,1,.76,2,8.76,8.76,0,0,1,.32,2.4Zm-6.68,0v-9.48c0-1.34-.75-2.07-2.24-2.2-1.47.1-2.2.84-2.2,2.2v9.48c0,1.36.73,2.09,2.2,2.2C191.63,515.15,192.38,514.42,192.38,513.09Z"/><path d="M231.94,519.45a2,2,0,0,1-2.21,2.24h-2.26a2.29,2.29,0,0,1-1.63-.56,2.24,2.24,0,0,1-.58-1.68V503.89c0-1.34-.74-2.07-2.22-2.2-1.48.13-2.22.86-2.22,2.2v15.56a2,2,0,0,1-2.21,2.24h-2.26a2.29,2.29,0,0,1-1.63-.56,2.24,2.24,0,0,1-.58-1.68V503.89a2,2,0,0,0-2.24-2.2h-1.12c-.72,0-1.08.37-1.08,1.12v16.64a2.21,2.21,0,0,1-.6,1.68,2.33,2.33,0,0,1-1.64.56h-2.2a2.33,2.33,0,0,1-1.64-.56,2.21,2.21,0,0,1-.6-1.68v-20a4.33,4.33,0,0,1,1.18-3.34,4.59,4.59,0,0,1,3.27-1.1h4.44a10,10,0,0,1,5.57,1.8,10.12,10.12,0,0,1,5.57-1.8q5.52,0,7.77,4.44a10.44,10.44,0,0,1,.8,2,8.76,8.76,0,0,1,.32,2.4Z"/><path d="M253.7,508.37a4.36,4.36,0,0,1-1.19,3.34,4.64,4.64,0,0,1-3.27,1.1h-6.66c.11,1.46.84,2.2,2.2,2.2h4.44a2.18,2.18,0,0,1,1.68.6,2.31,2.31,0,0,1,.56,1.64v2.2a2.33,2.33,0,0,1-.56,1.64,2.18,2.18,0,0,1-1.68.6h-4.44q-5.57,0-7.76-4.44a16.08,16.08,0,0,1-.78-2,8.14,8.14,0,0,1-.34-2.4v-9.2a8,8,0,0,1,.34-2.4,15,15,0,0,1,.78-2q2.21-4.44,7.78-4.44t7.82,4.44a12.76,12.76,0,0,1,.76,2,8.76,8.76,0,0,1,.32,2.4ZM247,505v-1.4c0-1.34-.75-2.07-2.24-2.2-1.47.1-2.2.84-2.2,2.2v2.52h3.32A1,1,0,0,0,247,505Z"/><path d="M268.78,519.73a2,2,0,0,1-2.24,2.24,8.62,8.62,0,0,1-4.72-1.06,8,8,0,0,1-3-3.38,16.08,16.08,0,0,1-.78-2,8.14,8.14,0,0,1-.34-2.4V492.81a2.18,2.18,0,0,1,.6-1.68,2.28,2.28,0,0,1,1.64-.56h2.2a2.28,2.28,0,0,1,1.64.56,2.18,2.18,0,0,1,.6,1.68v20.28c0,1.33.74,2.06,2.24,2.2a2,2,0,0,1,2.2,2.24Z"/><path d="M290.58,508.37a4.36,4.36,0,0,1-1.19,3.34,4.64,4.64,0,0,1-3.27,1.1h-6.66c.11,1.46.84,2.2,2.2,2.2h4.44a2.18,2.18,0,0,1,1.68.6,2.31,2.31,0,0,1,.56,1.64v2.2a2.33,2.33,0,0,1-.56,1.64,2.18,2.18,0,0,1-1.68.6h-4.44q-5.57,0-7.76-4.44a16.08,16.08,0,0,1-.78-2,8.14,8.14,0,0,1-.34-2.4v-9.2a8,8,0,0,1,.34-2.4,15,15,0,0,1,.78-2q2.21-4.44,7.78-4.44t7.82,4.44a13.8,13.8,0,0,1,.76,2,8.76,8.76,0,0,1,.32,2.4ZM283.9,505v-1.4c0-1.34-.75-2.07-2.24-2.2-1.47.1-2.2.84-2.2,2.2v2.52h3.32A1,1,0,0,0,283.9,505Z"/><path d="M312.3,513.37a8.33,8.33,0,0,1-8.32,8.32h-7.2a2.18,2.18,0,0,1-1.68-.6,2.33,2.33,0,0,1-.56-1.64v-2.2a2.31,2.31,0,0,1,.56-1.64,2.18,2.18,0,0,1,1.68-.6H304a1.8,1.8,0,0,0,1.2-.48,1.59,1.59,0,0,0,.48-1.16,1.63,1.63,0,0,0-.48-1.2,1.8,1.8,0,0,0-1.2-.48h-1.12a8.34,8.34,0,0,1,0-16.68H309a2.18,2.18,0,0,1,1.68.6,2.31,2.31,0,0,1,.56,1.64v2.2a2.33,2.33,0,0,1-.56,1.64,2.18,2.18,0,0,1-1.68.6h-6.12a1.59,1.59,0,0,0-1.16.48,1.63,1.63,0,0,0-.48,1.2,1.64,1.64,0,0,0,1.64,1.64H304a8.33,8.33,0,0,1,8.32,8.36Z"/><path d="M334.06,513.37a8.33,8.33,0,0,1-8.32,8.32h-7.2a2.18,2.18,0,0,1-1.68-.6,2.33,2.33,0,0,1-.56-1.64v-2.2a2.31,2.31,0,0,1,.56-1.64,2.18,2.18,0,0,1,1.68-.6h7.2a1.8,1.8,0,0,0,1.2-.48,1.59,1.59,0,0,0,.48-1.16,1.63,1.63,0,0,0-.48-1.2,1.8,1.8,0,0,0-1.2-.48h-1.12a8.34,8.34,0,0,1,0-16.68h6.12a2.2,2.2,0,0,1,1.68.6,2.31,2.31,0,0,1,.56,1.64v2.2a2.33,2.33,0,0,1-.56,1.64,2.2,2.2,0,0,1-1.68.6h-6.12a1.59,1.59,0,0,0-1.16.48,1.63,1.63,0,0,0-.48,1.2,1.64,1.64,0,0,0,1.64,1.64h1.12a8.33,8.33,0,0,1,8.32,8.36Z"/><path d="M365.86,517.25a4.39,4.39,0,0,1-1.18,3.34,4.64,4.64,0,0,1-3.27,1.1H357q-5.58,0-7.78-4.44a12.52,12.52,0,0,1-.74-2,12,12,0,0,1-.38-2.4,11.81,11.81,0,0,1,.38-2.4,11.09,11.09,0,0,1,.74-2q2.19-4.49,7.76-4.48a6.35,6.35,0,0,1,1,.08c.37,0,.78.13,1.24.24v-.32a2,2,0,0,0-2.24-2.2H352.5a2.12,2.12,0,0,1-1.66-.6,2.37,2.37,0,0,1-.54-1.64v-2.2a2.35,2.35,0,0,1,.54-1.64,2.12,2.12,0,0,1,1.66-.6h4.44q5.58,0,7.83,4.44a12.76,12.76,0,0,1,.77,2,8.76,8.76,0,0,1,.32,2.4Zm-6.68-3.36v-1.08c0-1.36-.75-2.11-2.24-2.24a2,2,0,0,0-2.2,2.24,2.3,2.3,0,0,0,.54,1.62,2.19,2.19,0,0,0,1.66.58h1.12A1,1,0,0,0,359.18,513.89Z"/><path d="M387.62,519.45a2,2,0,0,1-2.21,2.24h-2.26a2.27,2.27,0,0,1-1.63-.56,2.24,2.24,0,0,1-.58-1.68V503.89a2,2,0,0,0-2.24-2.2h-1.12c-.72,0-1.08.37-1.08,1.12v16.64a2.21,2.21,0,0,1-.6,1.68,2.33,2.33,0,0,1-1.64.56h-2.2a2.31,2.31,0,0,1-1.64-.56,2.21,2.21,0,0,1-.6-1.68v-20a4.33,4.33,0,0,1,1.18-3.34,4.59,4.59,0,0,1,3.27-1.1h4.45q5.56,0,7.82,4.44a13.8,13.8,0,0,1,.76,2,8.76,8.76,0,0,1,.32,2.4Z"/><path d="M409.38,513.09a8.86,8.86,0,0,1-.32,2.4,14.7,14.7,0,0,1-.76,2q-2.25,4.44-7.82,4.44t-7.78-4.44a16.08,16.08,0,0,1-.78-2,8.14,8.14,0,0,1-.34-2.4v-9.2a8,8,0,0,1,.34-2.4,12.76,12.76,0,0,1,.78-2q2.19-4.44,7.76-4.44a6.35,6.35,0,0,1,1,.08c.37.05.78.13,1.24.24v-2.52a2,2,0,0,1,2.21-2.24h2.26a2,2,0,0,1,2.21,2.24Zm-6.68,0v-9.2c0-1.34-.75-2.07-2.24-2.2-1.47.1-2.2.84-2.2,2.2v9.2c0,1.36.73,2.09,2.2,2.2C402,515.15,402.7,514.42,402.7,513.09Z"/><path d="M441.14,508.37a4.36,4.36,0,0,1-1.19,3.34,4.64,4.64,0,0,1-3.27,1.1H430c.1,1.46.84,2.2,2.2,2.2h4.44a2.21,2.21,0,0,1,1.68.6,2.31,2.31,0,0,1,.56,1.64v2.2a2.33,2.33,0,0,1-.56,1.64,2.21,2.21,0,0,1-1.68.6h-4.44q-5.57,0-7.76-4.44a13.53,13.53,0,0,1-.78-2,8.14,8.14,0,0,1-.34-2.4v-9.2a8,8,0,0,1,.34-2.4,15,15,0,0,1,.78-2q2.21-4.44,7.78-4.44t7.82,4.44a13.8,13.8,0,0,1,.76,2,8.76,8.76,0,0,1,.32,2.4ZM434.46,505v-1.4c0-1.34-.75-2.07-2.24-2.2-1.47.1-2.2.84-2.2,2.2v2.52h3.32A1,1,0,0,0,434.46,505Z"/><path d="M462.9,512.81a8.86,8.86,0,0,1-.32,2.4,14.7,14.7,0,0,1-.76,2q-2.25,4.44-7.82,4.44h-4.45a4.64,4.64,0,0,1-3.27-1.1,4.36,4.36,0,0,1-1.18-3.34v-20a2.18,2.18,0,0,1,.6-1.68,2.27,2.27,0,0,1,1.64-.56h2.2a2.28,2.28,0,0,1,1.64.56,2.18,2.18,0,0,1,.6,1.68v16.64a1,1,0,0,0,1.08,1.12H454a2,2,0,0,0,2.24-2.2V497.25a2,2,0,0,1,2.21-2.24h2.25a2,2,0,0,1,2.22,2.24Z"/><path d="M484.66,508.37a4.36,4.36,0,0,1-1.19,3.34,4.64,4.64,0,0,1-3.27,1.1h-6.66c.1,1.46.84,2.2,2.2,2.2h4.44a2.21,2.21,0,0,1,1.68.6,2.31,2.31,0,0,1,.56,1.64v2.2a2.33,2.33,0,0,1-.56,1.64,2.21,2.21,0,0,1-1.68.6h-4.44q-5.57,0-7.76-4.44a13.53,13.53,0,0,1-.78-2,8.14,8.14,0,0,1-.34-2.4v-9.2a8,8,0,0,1,.34-2.4,13.78,13.78,0,0,1,.78-2q2.2-4.44,7.78-4.44t7.82,4.44a13.8,13.8,0,0,1,.76,2,8.76,8.76,0,0,1,.32,2.4ZM478,505v-1.4c0-1.34-.75-2.07-2.24-2.2-1.47.1-2.2.84-2.2,2.2v2.52h3.32A1,1,0,0,0,478,505Z"/><path d="M506.42,519.45a2.24,2.24,0,0,1-.59,1.68,2.27,2.27,0,0,1-1.63.56H502a2.27,2.27,0,0,1-1.63-.56,2.24,2.24,0,0,1-.58-1.68V503.89a2,2,0,0,0-2.24-2.2h-1.12c-.72,0-1.08.37-1.08,1.12v16.64a2.21,2.21,0,0,1-.6,1.68,2.33,2.33,0,0,1-1.64.56h-2.2a2.31,2.31,0,0,1-1.64-.56,2.21,2.21,0,0,1-.6-1.68v-20a4.33,4.33,0,0,1,1.18-3.34,4.59,4.59,0,0,1,3.27-1.1h4.45q5.57,0,7.81,4.44a12.76,12.76,0,0,1,.77,2,8.76,8.76,0,0,1,.32,2.4Z"/><path d="M525.94,519.73A2,2,0,0,1,523.7,522a8.62,8.62,0,0,1-4.72-1.06,7.9,7.9,0,0,1-3-3.38,13.53,13.53,0,0,1-.78-2,8.14,8.14,0,0,1-.34-2.4v-9.2h-2.2a2,2,0,0,1-2.24-2.22v-2.25a2,2,0,0,1,2.24-2.21h2.2V495a2.11,2.11,0,0,1,.6-1.65,2.39,2.39,0,0,1,1.64-.53h2.2a2.41,2.41,0,0,1,1.64.53,2.11,2.11,0,0,1,.6,1.65v2.22h2.2a2.24,2.24,0,0,1,1.68.58,2.27,2.27,0,0,1,.56,1.63v2.25a2,2,0,0,1-2.24,2.22h-2.2v9.2c0,1.33.74,2.06,2.24,2.2a2.05,2.05,0,0,1,2.2,2.24Z"/><path d="M547.74,517.25a4.36,4.36,0,0,1-1.19,3.34,4.61,4.61,0,0,1-3.26,1.1h-4.45q-5.58,0-7.78-4.44a13.53,13.53,0,0,1-.78-2,8.14,8.14,0,0,1-.34-2.4V497.25a2.18,2.18,0,0,1,.6-1.68,2.27,2.27,0,0,1,1.64-.56h2.2a2.28,2.28,0,0,1,1.64.56,2.18,2.18,0,0,1,.6,1.68v15.56a2.3,2.3,0,0,0,.54,1.62,2.19,2.19,0,0,0,1.66.58h1.12a1,1,0,0,0,1.12-1.12V497.25a2,2,0,0,1,2.21-2.24h2.25a2,2,0,0,1,2.22,2.24Z"/><path d="M569.5,517.25a4.36,4.36,0,0,1-1.19,3.34,4.61,4.61,0,0,1-3.26,1.1H560.6q-5.58,0-7.78-4.44a11.65,11.65,0,0,1-.74-2,12,12,0,0,1-.38-2.4,11.81,11.81,0,0,1,.38-2.4,11.09,11.09,0,0,1,.74-2q2.19-4.49,7.76-4.48a6.35,6.35,0,0,1,1,.08c.37,0,.78.13,1.24.24v-.32a2,2,0,0,0-2.24-2.2h-4.44a2.12,2.12,0,0,1-1.66-.6,2.37,2.37,0,0,1-.54-1.64v-2.2a2.35,2.35,0,0,1,.54-1.64,2.12,2.12,0,0,1,1.66-.6h4.44q5.58,0,7.83,4.44a11.87,11.87,0,0,1,.76,2,8.39,8.39,0,0,1,.33,2.4Zm-6.68-3.36v-1.08c0-1.36-.75-2.11-2.24-2.24a2,2,0,0,0-2.2,2.24,2.3,2.3,0,0,0,.54,1.62,2.19,2.19,0,0,0,1.66.58h1.12A1,1,0,0,0,562.82,513.89Z"/><path d="M584.58,519.73a2,2,0,0,1-2.24,2.24,8.62,8.62,0,0,1-4.72-1.06,7.9,7.9,0,0,1-3-3.38,13.53,13.53,0,0,1-.78-2,8.14,8.14,0,0,1-.34-2.4V492.81a2.18,2.18,0,0,1,.6-1.68,2.27,2.27,0,0,1,1.64-.56h2.2a2.28,2.28,0,0,1,1.64.56,2.18,2.18,0,0,1,.6,1.68v20.28c0,1.33.74,2.06,2.24,2.2a2.05,2.05,0,0,1,2.2,2.24Z"/><path d="M599.7,519.73a2,2,0,0,1-2.24,2.24,8.62,8.62,0,0,1-4.72-1.06,7.9,7.9,0,0,1-3-3.38,13.53,13.53,0,0,1-.78-2,8.14,8.14,0,0,1-.34-2.4V492.81a2.18,2.18,0,0,1,.6-1.68,2.27,2.27,0,0,1,1.64-.56H593a2.28,2.28,0,0,1,1.64.56,2.18,2.18,0,0,1,.6,1.68v20.28c0,1.33.74,2.06,2.24,2.2a2.05,2.05,0,0,1,2.2,2.24Z"/><path d="M621.54,512.73a8.33,8.33,0,0,1-.35,2.42,15.3,15.3,0,0,1-.78,2.06q-2.22,4.47-7.83,4.48h-4.44a2.1,2.1,0,0,1-1.66-.6,2.37,2.37,0,0,1-.54-1.64v-2.2a2.35,2.35,0,0,1,.54-1.64,2.1,2.1,0,0,1,1.66-.6h4.44a2.18,2.18,0,0,0,1.74-.68,2.52,2.52,0,0,0,.5-1.84c-.46.1-.87.18-1.24.24a7.83,7.83,0,0,1-1,.08q-5.57,0-7.76-4.44a13,13,0,0,1-.78-2.06,8.33,8.33,0,0,1-.34-2.42v-6.64a2.21,2.21,0,0,1,.59-1.68,2.31,2.31,0,0,1,1.65-.56h2.2a2.28,2.28,0,0,1,1.64.56,2.18,2.18,0,0,1,.6,1.68v6.64a2,2,0,0,0,2.2,2.24,1.93,1.93,0,0,0,1.92-1.08,2.3,2.3,0,0,0,.32-1.12v-6.68A2,2,0,0,1,617,495h2.25a2,2,0,0,1,2.22,2.24Z"/><path d="M653.29,513.09a8.49,8.49,0,0,1-.32,2.4,12.53,12.53,0,0,1-.76,2Q650,522,644.4,522t-7.78-4.44a13.53,13.53,0,0,1-.78-2,8.14,8.14,0,0,1-.34-2.4v-9.2a8.39,8.39,0,0,1,.33-2.4,13.78,13.78,0,0,1,.79-2q2.19-4.44,7.76-4.44a6.35,6.35,0,0,1,1,.08c.37.05.78.13,1.24.24v-2.52a2,2,0,0,1,2.21-2.24h2.25a2,2,0,0,1,2.21,2.24Zm-6.67,0v-9.2c0-1.34-.75-2.07-2.24-2.2-1.47.1-2.21.84-2.21,2.2v9.2c0,1.36.74,2.09,2.21,2.2C645.87,515.15,646.62,514.42,646.62,513.09Z"/><path d="M663.93,493.85a2.17,2.17,0,0,1-.6,1.68,2.3,2.3,0,0,1-1.63.56h-2.2a2.34,2.34,0,0,1-1.65-.56,2.25,2.25,0,0,1-.6-1.68v-1a2.22,2.22,0,0,1,.6-1.68,2.29,2.29,0,0,1,1.65-.56h2.2a2.26,2.26,0,0,1,1.63.56,2.14,2.14,0,0,1,.6,1.68Zm0,25.6a2.17,2.17,0,0,1-.6,1.68,2.3,2.3,0,0,1-1.63.56h-2.2a2.34,2.34,0,0,1-1.65-.56,2.25,2.25,0,0,1-.6-1.68V500.53a2.22,2.22,0,0,1,.6-1.68,2.29,2.29,0,0,1,1.65-.56h2.2a2.26,2.26,0,0,1,1.63.56,2.14,2.14,0,0,1,.6,1.68Z"/><path d="M685.73,508.37a4.36,4.36,0,0,1-1.18,3.34,4.64,4.64,0,0,1-3.27,1.1h-6.67c.11,1.46.84,2.2,2.2,2.2h4.44a2.18,2.18,0,0,1,1.68.6,2.27,2.27,0,0,1,.56,1.64v2.2a2.28,2.28,0,0,1-.56,1.64,2.18,2.18,0,0,1-1.68.6h-4.44q-5.55,0-7.76-4.44a16.08,16.08,0,0,1-.78-2,8.49,8.49,0,0,1-.34-2.4v-9.2a8,8,0,0,1,.35-2.4,12.76,12.76,0,0,1,.78-2q2.21-4.44,7.77-4.44t7.82,4.44a11.87,11.87,0,0,1,.76,2,8.39,8.39,0,0,1,.32,2.4ZM679.05,505v-1.4c0-1.34-.74-2.07-2.24-2.2-1.46.1-2.2.84-2.2,2.2v2.52h3.32A1,1,0,0,0,679.05,505Z"/><path d="M717.49,517.25a4.36,4.36,0,0,1-1.18,3.34,4.64,4.64,0,0,1-3.27,1.1h-4.45q-5.57,0-7.77-4.44a11.65,11.65,0,0,1-.74-2,12,12,0,0,1-.39-2.4,12.55,12.55,0,0,1,.38-2.4,11.87,11.87,0,0,1,.74-2q2.21-4.49,7.76-4.48a6.18,6.18,0,0,1,1,.08,11.64,11.64,0,0,1,1.24.24v-.32a2.19,2.19,0,0,0-.56-1.62,2.21,2.21,0,0,0-1.68-.58h-4.44a2.13,2.13,0,0,1-1.66-.6,2.37,2.37,0,0,1-.54-1.64v-2.2a2.35,2.35,0,0,1,.54-1.64,2.13,2.13,0,0,1,1.66-.6h4.44q5.58,0,7.84,4.44a12.76,12.76,0,0,1,.76,2,8.39,8.39,0,0,1,.32,2.4Zm-6.68-3.36v-1.08c0-1.36-.74-2.11-2.24-2.24a2.05,2.05,0,0,0-2.2,2.24,2.3,2.3,0,0,0,.54,1.62,2.2,2.2,0,0,0,1.66.58h1.12A1,1,0,0,0,710.81,513.89Z"/><path d="M732.57,519.73a2,2,0,0,1-2.24,2.24,8.65,8.65,0,0,1-4.72-1.06,8,8,0,0,1-3-3.38,16.08,16.08,0,0,1-.78-2,8.49,8.49,0,0,1-.34-2.4V492.81a2.18,2.18,0,0,1,.6-1.68,2.28,2.28,0,0,1,1.64-.56h2.2a2.27,2.27,0,0,1,1.64.56,2.18,2.18,0,0,1,.6,1.68v20.28c0,1.33.75,2.06,2.24,2.2a2,2,0,0,1,2.2,2.24Z"/><path d="M754.37,513.09a8.49,8.49,0,0,1-.32,2.4,12.53,12.53,0,0,1-.76,2Q751,522,745.47,522t-7.77-4.44a13.53,13.53,0,0,1-.78-2,8.14,8.14,0,0,1-.35-2.4v-9.48a8,8,0,0,1,.35-2.4,12.76,12.76,0,0,1,.78-2q2.2-4.44,7.77-4.44t7.82,4.44a11.87,11.87,0,0,1,.76,2,8.39,8.39,0,0,1,.32,2.4Zm-6.68,0v-9.48c0-1.34-.74-2.07-2.24-2.2-1.46.1-2.2.84-2.2,2.2v9.48c0,1.36.74,2.09,2.2,2.2C747,515.15,747.69,514.42,747.69,513.09Z"/><path d="M776.13,519.45a2.24,2.24,0,0,1-.58,1.68,2.27,2.27,0,0,1-1.63.56h-2.25a2.27,2.27,0,0,1-1.63-.56,2.24,2.24,0,0,1-.59-1.68V503.89a2.19,2.19,0,0,0-.56-1.62,2.21,2.21,0,0,0-1.68-.58h-1.12c-.72,0-1.08.37-1.08,1.12v16.64a2.21,2.21,0,0,1-.6,1.68,2.31,2.31,0,0,1-1.64.56h-2.2a2.33,2.33,0,0,1-1.64-.56,2.21,2.21,0,0,1-.6-1.68v-20a4.33,4.33,0,0,1,1.19-3.34,4.56,4.56,0,0,1,3.26-1.1h4.45q5.58,0,7.82,4.44a11.87,11.87,0,0,1,.76,2,8.39,8.39,0,0,1,.32,2.4Z"/><path d="M797.89,508.37a4.36,4.36,0,0,1-1.18,3.34,4.64,4.64,0,0,1-3.27,1.1h-6.67c.11,1.46.84,2.2,2.2,2.2h4.44a2.18,2.18,0,0,1,1.68.6,2.27,2.27,0,0,1,.56,1.64v2.2a2.28,2.28,0,0,1-.56,1.64,2.18,2.18,0,0,1-1.68.6H789q-5.55,0-7.76-4.44a16.08,16.08,0,0,1-.78-2,8.49,8.49,0,0,1-.34-2.4v-9.2a8.38,8.38,0,0,1,.34-2.4,13.78,13.78,0,0,1,.79-2q2.21-4.44,7.77-4.44t7.82,4.44a11.87,11.87,0,0,1,.76,2,8.39,8.39,0,0,1,.32,2.4ZM791.21,505v-1.4c0-1.34-.74-2.07-2.24-2.2-1.46.1-2.2.84-2.2,2.2v2.52h3.32A1,1,0,0,0,791.21,505Z"/><path d="M808.53,519.45a2.21,2.21,0,0,1-.6,1.68,2.31,2.31,0,0,1-1.64.56h-2.2a2.33,2.33,0,0,1-1.64-.56,2.21,2.21,0,0,1-.6-1.68v-2.2a2.18,2.18,0,0,1,.6-1.68,2.28,2.28,0,0,1,1.64-.56h2.2a2.27,2.27,0,0,1,1.64.56,2.18,2.18,0,0,1,.6,1.68Z"/><rect class="cls-3" x="312.38" y="593" width="486.59" height="98" rx="39.37"/><rect class="cls-4" x="317.46" y="595.71" width="475.16" height="93.13" rx="39.37"/><path class="cls-3" d="M394.52,614.71a4.78,4.78,0,0,1-1.1,3.32,4.36,4.36,0,0,1-3.37,1.21h-6.74v45.07a4.45,4.45,0,0,1-1.22,3.41,4.67,4.67,0,0,1-3.33,1.14h-4.55a4,4,0,0,1-4.46-4.55V619.24l-6.83.08q-4.46-.33-4.46-4.6v-4.44a4.74,4.74,0,0,1,1.09-3.31,4.33,4.33,0,0,1,3.37-1.22h27.13a4.33,4.33,0,0,1,3.37,1.22,4.74,4.74,0,0,1,1.1,3.31Z"/><path class="cls-3" d="M429.68,623.7a4.79,4.79,0,0,1-1.09,3.33,4.33,4.33,0,0,1-3.37,1.22h-4.55a4.37,4.37,0,0,0-3.37,1.18,4.64,4.64,0,0,0-1.1,3.29v31.67a4.31,4.31,0,0,1-1.22,3.37,4.79,4.79,0,0,1-3.33,1.1h-4.46a4.79,4.79,0,0,1-3.33-1.1,4.28,4.28,0,0,1-1.22-3.37V632.72a16.78,16.78,0,0,1,.69-4.88,30.57,30.57,0,0,1,1.58-4.14q4.47-9,15.76-9h4.55a4.29,4.29,0,0,1,3.37,1.22,4.79,4.79,0,0,1,1.09,3.33Z"/><path class="cls-3" d="M474,650.67a17.09,17.09,0,0,1-.7,4.91,28.07,28.07,0,0,1-1.59,4.18q-4.5,9.11-15.91,9.1h-9a4.31,4.31,0,0,1-3.37-1.22,4.79,4.79,0,0,1-1.1-3.33v-4.47a4.83,4.83,0,0,1,1.1-3.33,4.31,4.31,0,0,1,3.37-1.22h9a4.41,4.41,0,0,0,3.54-1.37,5,5,0,0,0,1-3.74c-.92.22-1.76.38-2.52.49a14.09,14.09,0,0,1-2,.16q-11.28,0-15.75-9a28.07,28.07,0,0,1-1.59-4.18,17.09,17.09,0,0,1-.69-4.91V619.24a4.47,4.47,0,0,1,1.22-3.42,4.71,4.71,0,0,1,3.33-1.13h4.47a4.71,4.71,0,0,1,3.33,1.13,4.47,4.47,0,0,1,1.22,3.42v13.48c0,2.87,1.49,4.38,4.46,4.55a3.87,3.87,0,0,0,3.9-2.2,4.54,4.54,0,0,0,.65-2.27V619.24a4.54,4.54,0,0,1,1.19-3.42,4.61,4.61,0,0,1,3.31-1.13h4.57a4.61,4.61,0,0,1,3.31,1.13,4.54,4.54,0,0,1,1.19,3.42Z"/><path class="cls-3" d="M538.51,659.84q0,4.56-2.4,6.78a9.36,9.36,0,0,1-6.64,2.24h-9q-11.31,0-15.79-9a23.61,23.61,0,0,1-1.51-4.14,15.79,15.79,0,0,1,0-9.74,24.89,24.89,0,0,1,1.5-4.15q4.47-9.09,15.76-9.09a14.31,14.31,0,0,1,2,.16c.76.11,1.6.27,2.52.49v-.65a4.06,4.06,0,0,0-4.55-4.47h-9A4.34,4.34,0,0,1,508,627a4.79,4.79,0,0,1-1.09-3.33v-4.46a4.79,4.79,0,0,1,1.09-3.33,4.31,4.31,0,0,1,3.37-1.22h9q11.33,0,15.9,9a27,27,0,0,1,1.56,4.14,17.87,17.87,0,0,1,.65,4.88ZM525,653v-2.19q0-4.14-4.55-4.55c-3,.22-4.47,1.73-4.47,4.55a4.65,4.65,0,0,0,1.1,3.29,4.4,4.4,0,0,0,3.37,1.17h2.27A2,2,0,0,0,525,653Z"/><path class="cls-3" d="M582.69,650.83a18.2,18.2,0,0,1-.65,4.91,26.67,26.67,0,0,1-1.55,4.18q-4.57,9.18-15.91,8.94l-9-.16a4.74,4.74,0,0,1-3.37-1.22,4.35,4.35,0,0,1-1.1-3.17v-4.47a4.78,4.78,0,0,1,1.1-3.33,4.31,4.31,0,0,1,3.37-1.22h9a4,4,0,0,0,4.55-4.46v-.65c-.92.22-1.76.38-2.52.49a14.2,14.2,0,0,1-2,.16q-11.3,0-15.76-9a24.3,24.3,0,0,1-1.5-4.18,26.11,26.11,0,0,1-.77-4.91,25.53,25.53,0,0,1,.77-4.88,24.22,24.22,0,0,1,1.51-4.14q4.47-9,15.79-9h9c3,0,5.3.8,6.79,2.39a9.3,9.3,0,0,1,2.24,6.62Zm-13.56-18.11v-2.2a2,2,0,0,0-2.28-2.27h-2.27a4.37,4.37,0,0,0-3.37,1.18,4.64,4.64,0,0,0-1.1,3.29q0,4.21,4.47,4.55Q569.13,636.87,569.13,632.72Z"/><path class="cls-3" d="M626.87,659.84q0,4.56-2.4,6.78a9.35,9.35,0,0,1-6.63,2.24h-9q-11.31,0-15.79-9a23.61,23.61,0,0,1-1.51-4.14,15.79,15.79,0,0,1,0-9.74,24.89,24.89,0,0,1,1.5-4.15q4.47-9.09,15.76-9.09a14.2,14.2,0,0,1,2,.16c.76.11,1.6.27,2.52.49v-.65a4.06,4.06,0,0,0-4.55-4.47h-9a4.31,4.31,0,0,1-3.37-1.22,4.75,4.75,0,0,1-1.1-3.33v-4.46a4.75,4.75,0,0,1,1.1-3.33,4.28,4.28,0,0,1,3.37-1.22h9q11.32,0,15.91,9a27,27,0,0,1,1.55,4.14,17.87,17.87,0,0,1,.65,4.88ZM613.31,653v-2.19q0-4.14-4.55-4.55c-3,.22-4.47,1.73-4.47,4.55a4.65,4.65,0,0,0,1.1,3.29,4.4,4.4,0,0,0,3.37,1.17H611A2,2,0,0,0,613.31,653Z"/><path class="cls-3" d="M648.47,612.33a4.43,4.43,0,0,1-1.21,3.41,4.71,4.71,0,0,1-3.33,1.14h-4.47a4.67,4.67,0,0,1-3.33-1.14,4.44,4.44,0,0,1-1.22-3.41v-2.11a4.46,4.46,0,0,1,1.22-3.41,4.67,4.67,0,0,1,3.33-1.14h4.47a4.71,4.71,0,0,1,3.33,1.14,4.46,4.46,0,0,1,1.21,3.41Zm0,52a4.45,4.45,0,0,1-1.21,3.41,4.71,4.71,0,0,1-3.33,1.14h-4.47a4.67,4.67,0,0,1-3.33-1.14,4.45,4.45,0,0,1-1.22-3.41V625.9a4.47,4.47,0,0,1,1.22-3.42,4.71,4.71,0,0,1,3.33-1.13h4.47a4.75,4.75,0,0,1,3.33,1.13,4.47,4.47,0,0,1,1.21,3.42Z"/><path class="cls-3" d="M692.74,664.31a4.51,4.51,0,0,1-1.19,3.41,4.57,4.57,0,0,1-3.31,1.14h-4.57a4.57,4.57,0,0,1-3.31-1.14,4.51,4.51,0,0,1-1.19-3.41V632.72a4,4,0,0,0-4.54-4.47h-2.28a2,2,0,0,0-2.19,2.27v33.79a4.45,4.45,0,0,1-1.22,3.41,4.67,4.67,0,0,1-3.33,1.14h-4.47a4.71,4.71,0,0,1-3.33-1.14,4.45,4.45,0,0,1-1.21-3.41V623.7q0-4.55,2.4-6.78a9.35,9.35,0,0,1,6.63-2.23h9q11.31,0,15.87,9a28.14,28.14,0,0,1,1.55,4.14,17.87,17.87,0,0,1,.65,4.88Z"/><path class="cls-3" d="M749.5,628.29q0,14-13.48,17.35v.65a4.49,4.49,0,0,1-1.18,3.4,4.57,4.57,0,0,1-3.31,1.14H727a4.59,4.59,0,0,1-3.31-1.14,4.51,4.51,0,0,1-1.18-3.41v-4.47q0-8.44,9-9.09,4.47-.33,4.47-4.47V623.7q0-4.14-4.47-4.46l-4.54.08a4.7,4.7,0,0,0-3.37,1.22,4.35,4.35,0,0,0-1.1,3.16v4.55a4.31,4.31,0,0,1-1.22,3.37,4.79,4.79,0,0,1-3.33,1.1h-4.47a4.83,4.83,0,0,1-3.33-1.1,4.27,4.27,0,0,1-1.21-3.36v-4.53a16.6,16.6,0,0,1,.69-4.86,28.69,28.69,0,0,1,1.58-4.13q4.47-9,15.76-9h4.54q11.22,0,15.76,9a29.3,29.3,0,0,1,1.58,4.14,16.6,16.6,0,0,1,.69,4.86Zm-13.48,36a4.51,4.51,0,0,1-1.18,3.41,4.57,4.57,0,0,1-3.31,1.14H727a4.59,4.59,0,0,1-3.31-1.14,4.51,4.51,0,0,1-1.18-3.41v-4.47a4.53,4.53,0,0,1,1.18-3.41,4.59,4.59,0,0,1,3.31-1.14h4.58a4.57,4.57,0,0,1,3.31,1.14,4.53,4.53,0,0,1,1.18,3.41Z"/></svg>
