<svg id="Layer_1" data-name="Layer 1" xmlns="http://www.w3.org/2000/svg" xmlns:xlink="http://www.w3.org/1999/xlink" width="1920" height="1080" viewBox="0 0 1920 1080"><defs><style>.cls-1,.cls-19,.cls-20,.cls-25{fill:none;}.cls-2{fill:url(#linear-gradient);}.cls-3{fill:url(#linear-gradient-2);}.cls-4{fill:#b5b5b5;}.cls-5{fill:url(#linear-gradient-3);}.cls-6{fill:#171a23;}.cls-7{fill:#121214;}.cls-8{fill:#26282d;}.cls-9{fill:#fff;}.cls-10{fill:#c6c2c2;}.cls-11{fill:#e2e2e2;}.cls-12{fill:#302020;}.cls-13{fill:#44312a;}.cls-14{fill:#2d1f1b;}.cls-15{fill:#e8c0af;}.cls-16{fill:#c69487;}.cls-17{fill:url(#radial-gradient);}.cls-18{fill:url(#radial-gradient-2);}.cls-19{stroke:#4f3116;stroke-width:6px;}.cls-19,.cls-20,.cls-25{stroke-miterlimit:10;}.cls-20{stroke:#000;stroke-width:2px;}.cls-21{fill:#3f676d;}.cls-22{fill:#0b0c0c;}.cls-23{fill:#28201b;}.cls-24{fill:#ba3d3a;}.cls-25{stroke:#940c00;stroke-width:4px;}.cls-26{clip-path:url(#clip-path);}.cls-27{clip-path:url(#clip-path-2);}.cls-28{fill:#cc7db7;}.cls-29{fill:#b26fa4;}.cls-30{fill:#e2b7a8;}.cls-31{fill:#f9eee4;}.cls-32{fill:#e2d6cc;}.cls-33{fill:#d86a0f;}.cls-34{fill:url(#radial-gradient-3);}.cls-35{fill:url(#radial-gradient-4);}.cls-36{fill:#686564;}.cls-37{fill:url(#radial-gradient-5);}</style><linearGradient id="linear-gradient" x1="957" y1="1082" x2="957" y2="778" gradientUnits="userSpaceOnUse"><stop offset="0.24" stop-color="#302720"/><stop offset="0.58" stop-color="#3e2f24"/><stop offset="1" stop-color="#543c2b"/></linearGradient><linearGradient id="linear-gradient-2" x1="960" y1="779" x2="960" gradientUnits="userSpaceOnUse"><stop offset="0" stop-color="#dd6285"/><stop offset="0.62" stop-color="#d72e69"/><stop offset="1" stop-color="#d4145a"/></linearGradient><linearGradient id="linear-gradient-3" x1="1424" y1="624" x2="1424" y2="80" gradientUnits="userSpaceOnUse"><stop offset="0.24" stop-color="#130039"/><stop offset="0.53" stop-color="#0d0847"/><stop offset="1" stop-color="#001a65"/></linearGradient><radialGradient id="radial-gradient" cx="468.04" cy="434.37" r="38.32" gradientTransform="translate(898.93 -43.57) rotate(90)" gradientUnits="userSpaceOnUse"><stop offset="0" stop-color="#f0567f" stop-opacity="0.3"/><stop offset="1" stop-color="#ee3278" stop-opacity="0"/></radialGradient><radialGradient id="radial-gradient-2" cx="309.6" cy="468.89" r="38.32" gradientTransform="matrix(-1, 0, 0, 1, 936.17, -51.42)" xlink:href="#radial-gradient"/><clipPath id="clip-path"><rect class="cls-1" x="532.74" y="257.08" width="165.95" height="278.16"/></clipPath><clipPath id="clip-path-2"><rect class="cls-1" x="541.17" y="249.38" width="156.78" height="262.78"/></clipPath><radialGradient id="radial-gradient-3" cx="522.5" cy="661" r="182.36" gradientUnits="userSpaceOnUse"><stop offset="0" stop-color="#fff" stop-opacity="0.6"/><stop offset="1" stop-color="#fff" stop-opacity="0"/></radialGradient><radialGradient id="radial-gradient-4" cx="522.69" cy="778" r="395.74" gradientUnits="userSpaceOnUse"><stop offset="0" stop-color="#fff" stop-opacity="0"/><stop offset="0.94" stop-opacity="0.55"/></radialGradient><radialGradient id="radial-gradient-5" cx="1534.29" cy="312.9" r="59.53" gradientTransform="matrix(0.82, -0.02, -0.02, 0.77, 433.23, -17.1)" gradientUnits="userSpaceOnUse"><stop offset="0.4" stop-color="#fff" stop-opacity="0.9"/><stop offset="0.49" stop-color="#fff" stop-opacity="0.89"/><stop offset="0.57" stop-color="#fff" stop-opacity="0.84"/><stop offset="0.65" stop-color="#fff" stop-opacity="0.77"/><stop offset="0.72" stop-color="#fff" stop-opacity="0.67"/><stop offset="0.8" stop-color="#fff" stop-opacity="0.54"/><stop offset="0.87" stop-color="#fff" stop-opacity="0.38"/><stop offset="0.94" stop-color="#fff" stop-opacity="0.19"/><stop offset="1" stop-color="#fff" stop-opacity="0"/></radialGradient></defs><title>gamescreen</title><rect class="cls-2" x="-3" y="778" width="1920" height="304"/><rect class="cls-3" width="1920" height="779"/><path class="cls-4" d="M970,90.75v544h926v-544ZM1412,598H1010V127h402Zm431.5,0h-402V127h402Z"/><rect class="cls-5" x="961" y="80" width="926" height="544"/><rect class="cls-6" x="1001" y="356.38" width="117.62" height="257.62"/><rect class="cls-7" x="1488.96" y="332.23" width="86.51" height="281.77"/><rect class="cls-8" x="1371.34" y="356.38" width="117.62" height="257.62"/><rect class="cls-6" x="1236.23" y="393.95" width="135.11" height="220.05"/><rect class="cls-7" x="1118.62" y="310.76" width="117.62" height="303.24"/><rect class="cls-8" x="1575.47" y="385.9" width="86.51" height="228.1"/><rect class="cls-7" x="1661.98" y="296" width="86.51" height="318"/><rect class="cls-6" x="1748.49" y="356.38" width="86.51" height="257.62"/><path class="cls-9" d="M961,79.75v544h926v-544ZM1403,587H1001V116h402Zm431.5,0h-402V116h402Z"/><path class="cls-9" d="M1712,220.25c-18.31,5.09-36.74-3.67-41.16-19.58s6.82-32.93,25.13-38a38.69,38.69,0,0,1,13.48-1.33A38.76,38.76,0,1,0,1724.8,214,38.6,38.6,0,0,1,1712,220.25Z"/><path class="cls-10" d="M270.87,890.71c-5-11.52-27.5-14-59-8.64q.11-4,.11-8.07H70c0,64.9,21.54,118,47.87,118h46.26c10.9,0,21-9.11,29.05-24.39C245.25,939.2,278.26,907.72,270.87,890.71ZM204.72,942.6A228.61,228.61,0,0,0,213,897.31c17.6-.07,30.47,4.41,32.41,12.57C247.94,920.71,230.37,934.4,204.72,942.6Z"/><path class="cls-11" d="M87.53,884.44C83.76,881.32,84,907.19,93.39,940c10.08,33.07,27.28,49.22,30.67,40Z"/><ellipse class="cls-10" cx="140.5" cy="870.5" rx="71.5" ry="16.5"/><ellipse class="cls-12" cx="141" cy="869" rx="63" ry="10"/><path class="cls-13" d="M374.32,300.1c-10.91,16.25-17.64,34.95-26.78,52.27-2.47,4.68-7.32,13.8-5.44,24.52.32,1.8,1.15,2.66,1.43,4.76,1.15,8.7-6.12,16.16-8.46,18.82-9.6,10.91-5.78,20-13.36,41-12.8,35.44-32.74,32.22-31.18,51.67,1,12.22,9.62,26.19,4.46,48.07v0c-8.42,34.93-31.18,76.61-31.18,76.61-26.31,47.79-16.16,123.27.89,128.27,8.7,2.55,14-14.76,40.09-20.49,6.65-1.46,12.46-1.69,29.5-5.17,7.21-1.47,13.12-2.86,17.08-3.82,12.54-5.52,15.93-14.08,21.25-18.36,23.5-18.91,85,45.13,122.79,26.46,14-6.92,12-18.91,32.35-28.13,15.93-7.23,30.79-6.05,44.26-4.83,33,3,72.06,18.3,85.68,12.3a33.73,33.73,0,0,0,4.67-2.57c1.81-4.39,5.3-11,12-14.92C711,665.1,784,754.46,808.07,738.07c16.35-11.14,5.43-68-11.58-104.22-8.78-18.7-17.1-27.4-19.59-48.1-3-25.14,6.66-33.58-.89-51.67-6.08-14.56-13.85-13.2-29.4-35.63C734,480.27,729.9,465.2,729.52,465.37c-.58.25,11,34.25,17.09,33.08,4.07-.78-.43-16.13,7.13-38.3,6.44-18.92,15-23.36,13.36-35.63-1.32-9.6-6.88-9.06-13-21.76-11-22.79.65-37.62-11.05-50.39-6.71-7.33-11.38-3.89-20.49-11.58-12.2-10.31-8.75-20.89-16.92-41C695.12,274,674.37,254.52,653.57,235a162.87,162.87,0,0,1-11.89-12c-6.44-7.23-7.83-10.46-17.11-17.66-2.51-1.95-33.29-24.83-77.31-28.83-45.06-4.09-104.47,11.54-136.47,52.88C393.33,252,401.34,259.82,374.32,300.1Z"/><path class="cls-14" d="M416.28,302.29c22.84-29.74,66.88-54.47,117.65-55.58,50.77-2.1,94.82,20.1,117.66,49.38"/><rect class="cls-15" x="702.96" y="625.54" width="63.25" height="236.06" rx="31.62" transform="translate(-310.63 737.22) rotate(-45)"/><rect class="cls-15" x="485.61" y="500" width="94.39" height="154.05" rx="34.06"/><rect class="cls-15" x="296.99" y="625.54" width="63.25" height="236.06" rx="31.62" transform="translate(574.95 -31.15) rotate(41.48)"/><rect class="cls-15" x="485.61" y="495" width="94.39" height="126" rx="34.06"/><rect class="cls-16" x="475.41" y="503.86" width="117.98" height="67.13" transform="matrix(0.97, 0.25, -0.25, 0.97, 154.63, -118.46)"/><rect class="cls-14" x="581" y="460" width="75" height="147"/><rect class="cls-14" x="428" y="491" width="57" height="109"/><path class="cls-15" d="M661.1,409.61c-14.57,36.19-40.37,69.73-63.34,96.43-23.68,26.31-44.54,45.78-65.83,44.69-21.29-.33-42.14-20.74-65.83-46.4-23-26.17-48.76-57.59-63.33-91.62s-12.1-69.17,11.51-99.42c22.84-29.74,66.88-54.47,117.65-55.58,50.77-2.1,94.82,20.1,117.66,49.38C673.2,336.77,675.6,373.54,661.1,409.61Z"/><ellipse class="cls-17" cx="464.56" cy="424.47" rx="30.83" ry="44.57" transform="translate(-64.29 765.49) rotate(-75.23)"/><ellipse class="cls-18" cx="626.56" cy="417.47" rx="44.57" ry="30.83" transform="translate(-85.71 173.49) rotate(-14.77)"/><path class="cls-19" d="M549.11,324.36c49.09-15.57,95.32-7.91,103.26,17.11"/><path class="cls-19" d="M520.15,323.34c-49.39-14.6-95.46-6-102.9,19.16"/><path class="cls-20" d="M601.79,345.24c2.78-8.12,8.67-13.74,13.15-12.56"/><path class="cls-20" d="M592.72,344.63c1.94-8.31,7.22-14.38,11.81-13.56"/><path class="cls-20" d="M621.22,349.5c5.14-7.18,12.52-11.23,16.49-9"/><path class="cls-20" d="M627.9,353.36c6.38-6.37,14.39-9.34,17.91-6.63"/><path class="cls-20" d="M631.88,356.05c8.88-4.8,18.33-5.47,21.12-1.49"/><path class="cls-20" d="M582.16,346c1.4-8.39,6.29-14.71,10.93-14.12"/><path class="cls-20" d="M568.62,349.12c1.21-8.41,6-14.82,10.6-14.3"/><path class="cls-20" d="M558.76,353.56c.52-8.47,4.72-15.16,9.4-14.94"/><path class="cls-20" d="M612.13,346.7c3.91-7.76,10.55-12.7,14.83-11"/><ellipse class="cls-9" cx="592.92" cy="359.36" rx="39.56" ry="15.75"/><ellipse class="cls-9" cx="592.92" cy="359.36" rx="39.56" ry="15.75"/><ellipse class="cls-21" cx="592.92" cy="359.36" rx="39.56" ry="15.75"/><ellipse class="cls-22" cx="593.02" cy="359.5" rx="9.41" ry="11.2" transform="translate(232.42 951.86) rotate(-89.89)"/><ellipse class="cls-9" cx="595.2" cy="356.35" rx="3.11" ry="2.66" transform="translate(-39.38 76.08) rotate(-7.08)"/><ellipse class="cls-9" cx="588.22" cy="365.79" rx="3.11" ry="2.66" transform="translate(-40.6 75.29) rotate(-7.08)"/><path class="cls-9" d="M614.53,359.39c0-6.34-3.93-11.9-9.86-15.08,16.11,2,27.82,8,27.82,15.05s-11.63,13-27.67,15C610.67,371.19,614.53,365.67,614.53,359.39Z"/><path class="cls-9" d="M581.83,344.23c-6,3.16-10,8.77-10,15.16s3.93,11.89,9.86,15.07c-16.38-1.93-28.32-8-28.32-15.1S565.38,346.14,581.83,344.23Z"/><path class="cls-14" d="M663.86,267.24a203.53,203.53,0,0,1,33,80c8.66,49.85,35.25,78.39-8.91,129.92-15.14,17.67,9.8,87.3-7.12,121.6s-20.49,40.53-37.42-67.56c-13.14-84-6.94-78.24-2.68-90.51a53.76,53.76,0,0,0,2.68-17.58c.49-36-5.34-88.34-5.34-88.34-5.92-53.11-3.2-62,1.78-66.52C646.32,262.4,656.26,264.44,663.86,267.24Z"/><path class="cls-13" d="M670.86,267.32a212.41,212.41,0,0,1,33,82.27c8.66,51.25,35.25,80.59-8.91,133.56-15.14,18.17,9.8,89.75-7.12,125s-20.49,41.67-37.42-69.45c-13.14-86.31-6.94-80.44-2.68-93a56.79,56.79,0,0,0,2.68-18.08c.49-37-5.34-90.82-5.34-90.82-5.92-54.6-3.2-63.76,1.78-68.38C653.32,262.35,663.26,264.44,670.86,267.32Z"/><path class="cls-20" d="M473.57,346.24c-2.78-8.12-8.67-13.74-13.16-12.56"/><path class="cls-20" d="M482.63,345.63c-1.93-8.31-7.22-14.38-11.81-13.56"/><path class="cls-20" d="M454.13,350.5c-5.14-7.18-12.52-11.23-16.48-9"/><path class="cls-20" d="M447.45,354.36c-6.37-6.37-14.39-9.34-17.91-6.63"/><path class="cls-20" d="M443.48,357.05c-8.88-4.8-18.34-5.47-21.12-1.49"/><path class="cls-20" d="M493.19,347c-1.4-8.39-6.29-14.71-10.92-14.12"/><path class="cls-20" d="M506.74,350.12c-1.21-8.41-6-14.82-10.6-14.3"/><path class="cls-20" d="M516.6,354.56c-.52-8.47-4.73-15.16-9.4-14.94"/><path class="cls-20" d="M463.22,347.7c-3.9-7.76-10.54-12.7-14.82-11"/><ellipse class="cls-9" cx="482.44" cy="360.36" rx="39.56" ry="15.75"/><ellipse class="cls-9" cx="482.44" cy="360.36" rx="39.56" ry="15.75"/><ellipse class="cls-21" cx="482.44" cy="360.36" rx="39.56" ry="15.75"/><ellipse class="cls-22" cx="482.33" cy="360.5" rx="11.2" ry="9.41" transform="translate(-0.67 0.89) rotate(-0.11)"/><ellipse class="cls-9" cx="480.16" cy="357.35" rx="2.66" ry="3.11" transform="translate(66.35 789.8) rotate(-82.92)"/><ellipse class="cls-9" cx="487.14" cy="366.79" rx="2.66" ry="3.11" transform="translate(63.09 805) rotate(-82.92)"/><path class="cls-9" d="M460.83,360.39c0-6.34,3.92-11.9,9.85-15.08-16.11,2-27.81,8-27.81,15.05s11.63,13,27.66,15C464.69,372.19,460.83,366.67,460.83,360.39Z"/><path class="cls-9" d="M493.52,345.23c6,3.16,10,8.77,10,15.16s-3.92,11.89-9.85,15.07c16.37-1.93,28.32-8,28.32-15.1S510,347.14,493.52,345.23Z"/><ellipse class="cls-23" cx="528.68" cy="428.83" rx="4.76" ry="5.29"/><ellipse class="cls-23" cx="542.32" cy="428.83" rx="4.76" ry="5.29"/><path class="cls-24" d="M567.5,479.53c1.09,4.19-10.79,20.17-34.26,19.79-23.46,0-35.3-16-34.19-19.77"/><path class="cls-24" d="M499,479.64c.29-2.75,5.77.57,15.56,3.64s18.74,5.12,18.67,8.15"/><path class="cls-24" d="M533.27,491.43c-.06-3,9-5.06,18.69-8.38s15.26-6.44,15.55-3.43"/><path class="cls-24" d="M501.15,479.82c0-6.93,7.15-12.54,16-12.54s16,5.61,16,12.54"/><path class="cls-24" d="M532.75,480.82c0-6.93,7.1-12.59,15.92-12.65s16,5.51,16,12.44"/><path class="cls-25" d="M567.51,479.62c-6.6,5-19.55,7.84-34.33,7.47-14.37-.36-26.93-3.44-33.67-8.09"/><path class="cls-14" d="M428.37,264c-11.28,15.51-26.63,40.92-33,75.12-8.66,46.79-35.26,73.57,8.91,121.94,15.14,16.59-9.8,82,7.12,114.14s20.49,38.05,37.42-63.41c13.14-78.81,6.94-73.45,2.68-85a47.38,47.38,0,0,1-2.68-16.5c-.49-33.77,5.34-82.92,5.34-82.92,5.92-49.86,3.2-58.21-1.78-62.43C445.91,259.41,436,261.32,428.37,264Z"/><path class="cls-13" d="M421.37,260.17a209.8,209.8,0,0,0-33,81.63c-8.66,50.84-35.26,79.95,8.91,132.51,15.14,18-9.8,89.05,7.12,124s20.49,41.35,37.42-68.9c13.14-85.64,6.94-79.81,2.68-92.32a55.65,55.65,0,0,1-2.68-17.93c-.49-36.7,5.34-90.11,5.34-90.11,5.92-54.18,3.2-63.26-1.78-67.85C438.91,255.24,429,257.31,421.37,260.17Z"/><g class="cls-26"><path class="cls-14" d="M606.19,488.1S633.62,473,622,394.75c-4-26.71-4.87-31.28-3.5-43.37,0,0,9-34,5-42.07,0-.06-.09-.18-.16-.36-2.64-6.32,4.11-17.92,4.11-17.92h0s-8.33-31.58-11.66-43.37a449.82,449.82,0,0,0-26.74-70.72c-12.48,64.59-7.53,110.52,0,141.43,8.74,35.91,24.21,64.85,24,114.1A239.23,239.23,0,0,1,606.19,488.1Z"/></g><g class="cls-27"><path class="cls-13" d="M610.56,467.62s25.91-14.25,14.9-88.19c-3.76-25.23-4.61-29.54-3.31-41,0,0,8.47-32.16,4.76-39.74a3.44,3.44,0,0,1-.16-.35c-2.49-6,3.89-16.92,3.89-16.92h0s-7.87-29.83-11-41a425.26,425.26,0,0,0-25.27-66.81c-11.79,61-7.11,104.42,0,133.62,8.26,33.92,22.87,61.26,22.67,107.79A226,226,0,0,1,610.56,467.62Z"/></g><rect class="cls-28" x="390.3" y="586.35" width="286.83" height="255.65" rx="73.06"/><path class="cls-15" d="M578.25,583.67c0,20.67-20.73,37.42-46.32,37.42s-46.32-16.75-46.32-37.42"/><path class="cls-28" d="M337.37,681.45l89.35-85.55c7.85-7.51,21.87-5.72,31.16,4l21.56,22.52c9.29,9.7,10.47,23.79,2.62,31.31l-89.34,85.54"/><path class="cls-28" d="M745.27,692.58,655.93,607c-7.85-7.52-21.87-5.73-31.17,4L603.2,633.52c-9.29,9.71-10.47,23.8-2.62,31.31l89.35,85.55"/><path class="cls-29" d="M396,790.66c0,13.55,31,25,67.77,25s67.77-11.45,67.77-25m3.48,0c0,16-31.3,28.46-71.25,28.46s-71.25-12.5-71.25-28.46"/><rect class="cls-30" x="324.99" y="707.54" width="63.25" height="236.06" rx="31.62" transform="translate(1227.29 600.51) rotate(98.87)"/><path class="cls-29" d="M533,792.66c0,13.55,31,25,67.77,25s67.77-11.45,67.77-25m3.48,0c0,16-31.3,28.46-71.25,28.46s-71.25-12.5-71.25-28.46"/><rect class="cls-30" x="681.99" y="698.54" width="63.25" height="236.06" rx="31.62" transform="translate(1442.51 13.62) rotate(83.38)"/><path class="cls-14" d="M348.14,467.57c1.08.38-13.86,37.9-27.07,69.4-13.54,33.1-25.36,60.18-25.89,76.93-2.36,16.82-6.58,34.57-6.9,50.24-.8,15.6,2.28,29.11,3.55,35.74,2.05,2.74-.82-8.08.18-25.66.62-17.74,5.1-42.25,13-70.39,7.67-28,18.73-59.56,27.82-87.17C341.86,489.58,349,466.47,348.14,467.57Z"/><path class="cls-14" d="M534.06,217.65c-.19-1.41,18.9-8.16,41.16,2.52C598.84,231.49,613,256.19,613,257h0c-.19.51-23.22-24.08-48.48-34.1C546.44,215.72,534.21,218.77,534.06,217.65Z"/><path class="cls-14" d="M539.64,210c.1-3.1-37-11.84-77,18-42.46,31.63-64.83,89.26-64.59,91h0c.44,1.06,41.32-72.36,87.1-101.7C517.86,196.31,539.55,212.48,539.64,210Z"/><path class="cls-14" d="M534.78,211.92c-.36-.9-26.48,1.07-49.16,14.38-24.06,14.12-31,33.23-30.61,33.69h0c.44.24,18.22-21.57,44.83-35.43C518.87,214.65,535.07,212.64,534.78,211.92Z"/><path class="cls-14" d="M531.13,198.9c-.26-1.89,24.08-10.58,52.8,4.11C614.4,218.59,633,251.91,633,253h0c-.23.68-30.18-32.65-62.74-46.53C547,196.55,531.35,200.41,531.13,198.9Z"/><path class="cls-14" d="M530.7,200.05c.25-2-28.87-12.16-62.33,2.46C432.88,218,412,252.84,412.13,254h0c.29.73,34.52-33.7,72.55-47.31C511.88,197,530.5,201.64,530.7,200.05Z"/><path class="cls-14" d="M438.1,320.79c-1.33-1.35-26.48,14.55-36,48-10.09,35.53,3,71.31,3.89,71.9h0c.72.21-8.85-51.89,4.17-88.21C419.5,326.54,439.16,321.86,438.1,320.79Z"/><path class="cls-14" d="M382.19,606.49c-1.21,3-17.06.63-18.37-39.67-1.4-42.75,14.33-104.64,15.09-106.23h0c.57-.88-10.61,68.21-7.19,109.72C374.18,600,383.16,604.09,382.19,606.49Z"/><path class="cls-14" d="M387.46,348.27c-.87-.42-18.9,18.58-26.76,43.68-8.34,26.62-.65,45.44-.05,45.52h0c.49-.11-1-28.21,9.41-56.36C377.51,361,388.15,348.61,387.46,348.27Z"/><path class="cls-14" d="M729.94,433.54c-1.79-.65-17.67,24.51-11.88,58.84,6.16,36.42,33.33,63.12,34.4,63.26h0c.74-.12-30.28-43.06-34.12-81.45C715.6,446.73,731.35,434.05,729.94,433.54Z"/><path class="cls-14" d="M670.87,532.27c.88-.42,18.9,18.58,26.76,43.68,8.34,26.62.66,45.44,0,45.52h0c-.5-.11,1-28.21-9.41-56.36C680.83,545,670.18,532.61,670.87,532.27Z"/><path class="cls-14" d="M660.11,321.12c1.81-1.93,31.76,16.56,40.24,60,9,46.1-11.15,95-12.35,95.83h0c-.93.35,16.49-69.78,3.9-116.64C682.89,326.83,658.67,322.65,660.11,321.12Z"/><path class="cls-14" d="M727.77,602c-.9.37,1.27,26.47,14.76,49,14.31,24,33.47,30.75,33.93,30.35h0c.24-.44-21.71-18-35.78-44.55C730.62,617.87,728.48,601.69,727.77,602Z"/><path class="cls-10" d="M1388.94,211.35c2.93-27.08-20.75-52.15-53.83-58.3.3-.92.57-1.86.81-2.81,7.74-30.7-18.17-62.56-57.86-71.16-18.43-4-36.59-2.27-51.53,3.8-8.25-20-32-34.36-59.34-34.07a72.45,72.45,0,0,0-18.88,2.67c-11.66-17.08-31.94-29.52-56-32.13-38.3-4.14-72.47,18-79.24,50.3-18.7-8.76-42.61-8.65-62.4,2-28.79,15.56-38,47.6-20.47,71.57a51.47,51.47,0,0,0,7.8,8.48C916,161,901,176.56,899,195.44c-3.75,34.74,37.52,67.68,92.18,73.59a152.42,152.42,0,0,0,30.07.32,31.67,31.67,0,0,0-6.81,16.14c-3.24,30,40.66,59.3,98.06,65.51,54.28,5.86,101.18-11.06,108.85-38.26a190.57,190.57,0,0,0,37.62,7.89c64.5,7,120.17-18.62,124.34-57.16,1-9.32-1.1-18.55-5.78-27.28A44.06,44.06,0,0,0,1388.94,211.35Z"/><ellipse class="cls-10" cx="837.49" cy="239.26" rx="29.97" ry="34.43" transform="translate(509.63 1046.19) rotate(-83.83)"/><ellipse class="cls-10" cx="774.28" cy="302.53" rx="21.6" ry="24.82" transform="translate(390.31 1039.82) rotate(-83.83)"/><path class="cls-9" d="M1381.94,204.35c2.93-27.08-20.75-52.15-53.83-58.3.3-.92.57-1.86.81-2.81,7.74-30.7-18.17-62.56-57.86-71.16-18.43-4-36.59-2.27-51.53,3.8-8.25-20-32-34.36-59.34-34.07a72.45,72.45,0,0,0-18.88,2.67c-11.66-17.08-31.94-29.52-56-32.13-38.3-4.14-72.47,18-79.24,50.3-18.7-8.76-42.61-8.65-62.4,2.05-28.79,15.56-38,47.6-20.47,71.57a51.47,51.47,0,0,0,7.8,8.48C909,154,894,169.56,892,188.44c-3.75,34.74,37.52,67.68,92.18,73.59a152.42,152.42,0,0,0,30.07.32,31.67,31.67,0,0,0-6.81,16.14c-3.24,30,40.66,59.3,98.06,65.51,54.28,5.86,101.18-11.06,108.85-38.26a190.57,190.57,0,0,0,37.62,7.89c64.5,7,120.17-18.62,124.34-57.16,1-9.32-1.1-18.55-5.78-27.28A44.06,44.06,0,0,0,1381.94,204.35Z"/><ellipse class="cls-9" cx="830.49" cy="232.26" rx="29.97" ry="34.43" transform="translate(510.34 1032.99) rotate(-83.83)"/><ellipse class="cls-9" cx="767.28" cy="295.53" rx="21.6" ry="24.82" transform="translate(391.02 1026.61) rotate(-83.83)"/><path class="cls-31" d="M1075.35,877.61,923.92,860c-12.33-1.43-21.31-13.32-20-26.42l1.85-18c1.35-13.1,12.54-22.65,24.87-21.22L1082.11,812"/><path class="cls-31" d="M1210.78,789.53a123.28,123.28,0,0,1,2.28-23.93l-143.45,57.26c-13.87,5.54-22.13,18.82-18.35,29.5l5.2,14.71c3.77,10.69,18.22,14.9,32.09,9.36l127.68-51A114.52,114.52,0,0,1,1210.78,789.53Z"/><path class="cls-32" d="M1089.72,815.67l-3.47-2.37c-15.54,25.71-18,52.5-5.56,61l1.92-3.16C1072.47,864.2,1075.73,838.81,1089.72,815.67Z"/><path class="cls-32" d="M1044.7,814.39l-132.9-17-1,8.5,131.38,16.82a97.15,97.15,0,0,1,6.51-7.79Z"/><path d="M935.89,800.5l152.47,17.72.87-8.52-19.4-2.25L936.77,792c-19-2.21-36,10.57-37.83,28.47l-.7,6.79c-1.84,17.91,12.13,34.28,31.14,36.49l152.47,17.72.88-8.52-19.41-2.25L930.26,855.21c-14-1.63-24.34-13.7-23-26.92l.7-6.79C909.34,808.29,921.86,798.87,935.89,800.5Z"/><path d="M1214.46,822,1203,826.32l-126.13,47.61,2.7,8.07L1217,830.11C1216.06,827.54,1215.21,824.82,1214.46,822Z"/><path d="M1211.52,760.38,1086,809.69l2.79,8L1212.88,769a100.61,100.61,0,0,1,2.45-10.09Z"/><polygon points="1047.64 739.39 915.83 795.57 1088.04 810.3 1214.4 759.15 1047.64 739.39"/><path class="cls-32" d="M1209.79,770.16l-125.55,49.31,2.79,8,124.13-48.75a102.05,102.05,0,0,1,2.44-10.09Z"/><path class="cls-32" d="M1087.87,819.89l-132.9-17-1,8.5,131.38,16.83a95.42,95.42,0,0,1,6.51-7.79Z"/><path class="cls-31" d="M1067.76,810.78l117.55-15.43c9.57-1.26,16.43-10.61,15.25-20.78l-1.63-14c-1.18-10.17-10-17.46-19.55-16.2l-117.55,15.43"/><path class="cls-31" d="M961.57,743.86a96.11,96.11,0,0,0-2-18.58l112.12,42.87c10.84,4.14,17.4,14.37,14.57,22.72l-3.89,11.49c-2.83,8.36-14,11.8-24.85,7.65L957.7,771.86A89.25,89.25,0,0,0,961.57,743.86Z"/><path class="cls-32" d="M1056,762.79l2.67-1.88c12.35,19.81,14.53,40.6,5,47.34l-1.52-2.43C1069.86,800.32,1067.07,780.61,1056,762.79Z"/><path class="cls-32" d="M1090.94,761.27l103.15-14.77.83,6.6-102,14.6a73.45,73.45,0,0,0-5.14-6Z"/><path class="cls-33" d="M1175.39,749.21,1057,764.75l-.77-6.61,15.06-2,103.29-13.57c14.77-1.93,28.09,7.8,29.71,21.7l.61,5.27c1.62,13.9-9.08,26.79-23.84,28.73l-118.36,15.54-.76-6.61,15.06-2,103.29-13.56c10.89-1.43,18.79-10.94,17.59-21.2l-.61-5.27C1196.12,755,1186.28,747.78,1175.39,749.21Z"/><path class="cls-33" d="M959,769.14l9,3.24,98.56,35.56-2,6.3-107.4-38.75Q958.21,772.48,959,769.14Z"/><path class="cls-33" d="M960.69,721.21l98.12,36.88-2.09,6.28-97-36.46a77.55,77.55,0,0,0-2-7.82Z"/><polygon class="cls-33" points="1087.88 703 1190.94 745.15 1057.21 758.59 958.44 720.29 1087.88 703"/><path class="cls-32" d="M962.13,728.8l98.12,36.88-2.09,6.28-97-36.47c-.56-2.73-1.23-5.34-2-7.81Z"/><path class="cls-32" d="M1057.43,766.05l103.15-14.77.84,6.6-102,14.6a73.45,73.45,0,0,0-5.14-6Z"/><path class="cls-34" d="M729,517H316c-6.6,0-9.3,8.89-6.09,19.46l79.31,261.22c1.23,4.06,5.46,7.32,9.42,7.32H646.36c4,0,8.19-3.26,9.42-7.32l79.31-261.22C738.3,525.89,735.6,517,729,517Z"/><path class="cls-31" d="M848.53,974.14,712.26,962.66c-11.1-.93-19.18-8.69-18-17.23L696,933.67c1.21-8.54,11.28-14.76,22.38-13.83l136.27,11.48"/><path class="cls-31" d="M970.4,916.69a58.81,58.81,0,0,1,2.06-15.6l-129.1,37.34c-12.48,3.62-19.91,12.27-16.51,19.24l4.68,9.59c3.4,7,16.39,9.72,28.87,6.11l114.9-33.24A56.22,56.22,0,0,1,970.4,916.69Z"/><path class="cls-32" d="M861.46,933.74l-3.12-1.54c-14,16.77-16.19,34.23-5,39.77l1.72-2.06C845.94,965.39,848.87,948.83,861.46,933.74Z"/><path class="cls-32" d="M820.94,932.91l-119.59-11.1-.86,5.54,118.23,11a70.62,70.62,0,0,1,5.85-5.08Z"/><path d="M723,923.85l137.2,11.55.79-5.55-17.46-1.47L723.82,918.3c-17.11-1.45-32.39,6.88-34,18.56l-.63,4.43c-1.66,11.68,10.91,22.35,28,23.79l137.21,11.56.79-5.55-17.47-1.47L718,959.53c-12.63-1.06-21.9-8.94-20.68-17.56l.63-4.42C699.13,928.93,710.4,922.78,723,923.85Z"/><path d="M973.72,937.86l-10.34,2.83-113.5,31L852.3,977,976,943.16A47.76,47.76,0,0,1,973.72,937.86Z"/><path d="M971.07,897.68l-113,32.16,2.52,5.24,111.7-31.79a52.32,52.32,0,0,1,2.19-6.58Z"/><polygon points="823.6 884 704.97 920.63 859.94 930.24 973.66 896.89 823.6 884"/><path class="cls-32" d="M969.51,904.07l-113,32.15,2.51,5.24,111.7-31.79a50.77,50.77,0,0,1,2.2-6.58Z"/><path class="cls-32" d="M859.79,936.5,740.2,925.4l-.87,5.54,118.23,11a72.4,72.4,0,0,1,5.86-5.08Z"/><rect class="cls-9" x="341" y="663" width="363.38" height="230" rx="12"/><rect class="cls-35" x="341" y="663" width="363.38" height="230" rx="12"/><path class="cls-36" d="M526.74,796.8c-.94-6,3.63-11.89,10.52-14,5.88-20.37,6-37.6-.15-42.46,5.72-6.05,7.62-14.37,4.17-19.36l-5.11,18.74-.13-.07c-7.31-3.71-19.55,8.28-29.82,28-9.64,2.59-15.88,12.88-14.16,23.94,1.69,10.83,10.43,18.62,20.15,18.5a16.84,16.84,0,0,0,26.2-3.31C532.39,806,527.57,802.1,526.74,796.8Z"/><path class="cls-37" d="M1715.53,227.7c-24,6.68-47.74-3.52-53.09-22.76s9.73-40.26,33.7-46.93a54.53,54.53,0,0,1,17.58-2,52.24,52.24,0,0,0-37.44-3.39c-26.82,7.47-42.94,33.75-36,58.7s34.32,39.13,61.14,31.66a52.15,52.15,0,0,0,30.94-23.26A54.4,54.4,0,0,1,1715.53,227.7Z"/></svg>
