<svg id="Layer_1" data-name="Layer 1" xmlns="http://www.w3.org/2000/svg" xmlns:xlink="http://www.w3.org/1999/xlink" width="1110" height="755" viewBox="0 0 1110 755"><defs><style>.cls-1{fill:#fcfcfc;opacity:0.62;}.cls-2{fill:url(#linear-gradient);}.cls-3{fill:#fff;}.cls-4{fill:url(#linear-gradient-2);}</style><linearGradient id="linear-gradient" x1="555" y1="24" x2="555" y2="732" gradientUnits="userSpaceOnUse"><stop offset="0.23" stop-color="#fff" stop-opacity="0.5"/><stop offset="0.33" stop-color="#fff4fb" stop-opacity="0.6"/><stop offset="0.5" stop-color="#ffe6f6" stop-opacity="0.74"/><stop offset="0.65" stop-color="#ffdcf3" stop-opacity="0.84"/><stop offset="0.79" stop-color="#ffd6f1" stop-opacity="0.9"/><stop offset="0.91" stop-color="#ffd4f0" stop-opacity="0.92"/></linearGradient><linearGradient id="linear-gradient-2" x1="554.04" y1="594.71" x2="554.04" y2="687.83" gradientUnits="userSpaceOnUse"><stop offset="0.24" stop-color="#dd6285"/><stop offset="1" stop-color="#d4145a"/></linearGradient></defs><title>levelcomplete</title><rect class="cls-1" x="1" width="1108" height="755" rx="12"/><rect class="cls-2" x="41" y="24" width="1028" height="708" rx="12"/><path d="M74,71.11V165H71.83V71.11Zm4.31,0V165H76.14V71.11Zm4.32,0V165H80.46V71.11Zm4.33,0V165H84.79V71.11Zm4.32,74.4h38.27v2.16H91.27v2.16h38.27V152H91.27v2.16h38.27v2.16H91.27v2.16h38.27v2.16H91.27v2.16h38.27V165H89.11V71.11h2.16Z"/><path d="M138.3,71.11V165h-2.16V71.11Zm4.32,0V165h-2.16V71.11Zm4.32,0V165h-2.15V71.11Zm4.32,0V165H149.1V71.11Zm4.32,52.2v2.16h26v2.16h-26v17.88h35v2.16h-35v2.16h35V152h-35v2.16h35v2.16h-35v2.16h35v2.16h-35v2.16h35V165h-37.2V71.11h37.2v2.16h-35v2.16h35v2.16h-35v2.16h35v2.16h-35v2.16h35v2.16h-35v2.16h35v2h-35v17.76h26v2.16h-26v2.16h26v2.16h-26v2.16h26V119h-26v2.16h26v2.16Z"/><path d="M197.46,71.11l34,93.84h-2.28l-34-93.84Zm4.56,0L236,165H233.7l-34-93.84Zm4.56,0L240.66,165h-2.28l-34.2-93.84Zm4.56,0L245.22,165h-2.4l-34-93.84Zm31.68,75.12,1.08,3,28.32-78.12h2.28l-29.4,81.24,1.08,3.24,30.6-84.48h2.28l-31.68,87.72,1.08,3.12,33-90.84h2.28L249.66,165h-2.28L213.54,71.11h2.28l23.52,65.4L263,71.11h2.4l-24.84,68.76,1.08,3,25.92-71.76h2.28Z"/><path d="M292,71.11V165h-2.16V71.11Zm4.32,0V165h-2.16V71.11Zm4.32,0V165H298.5V71.11Zm4.32,0V165h-2.16V71.11Zm4.32,52.2v2.16h26v2.16h-26v17.88h35v2.16h-35v2.16h35V152h-35v2.16h35v2.16h-35v2.16h35v2.16h-35v2.16h35V165h-37.2V71.11h37.2v2.16h-35v2.16h35v2.16h-35v2.16h35v2.16h-35v2.16h35v2.16h-35v2.16h35v2h-35v17.76h26v2.16h-26v2.16h26v2.16h-26v2.16h26V119h-26v2.16h26v2.16Z"/><path d="M353.58,71.11V165h-2.16V71.11Zm4.32,0V165h-2.16V71.11Zm4.32,0V165h-2.16V71.11Zm4.32,0V165h-2.16V71.11Zm4.32,74.4h38.28v2.16H370.86v2.16h38.28V152H370.86v2.16h38.28v2.16H370.86v2.16h38.28v2.16H370.86v2.16h38.28V165H368.7V71.11h2.16Z"/><path d="M488.34,72.55a46.4,46.4,0,0,0-5.76-.36A46,46,0,0,0,436.74,118a45.89,45.89,0,0,0,45.84,45.72,46.4,46.4,0,0,0,5.76-.36v2.16A47.74,47.74,0,0,1,434.7,118a46.36,46.36,0,0,1,14-34,47.73,47.73,0,0,1,39.66-13.68Zm0,4.32a46.4,46.4,0,0,0-5.76-.36A41.59,41.59,0,0,0,441.06,118a41.59,41.59,0,0,0,41.52,41.52,50.93,50.93,0,0,0,5.76-.48v2.16a50.93,50.93,0,0,1-5.76.48A43.63,43.63,0,0,1,438.9,118a43.63,43.63,0,0,1,43.68-43.68,46.4,46.4,0,0,1,5.76.36Zm0,4.44a28.68,28.68,0,0,0-5.76-.48,37.28,37.28,0,0,0-37.2,37.2,37.28,37.28,0,0,0,37.2,37.2,31,31,0,0,0,5.76-.48v2.16a31,31,0,0,1-5.76.48A39.33,39.33,0,0,1,443.22,118a39.33,39.33,0,0,1,39.36-39.36,46.4,46.4,0,0,1,5.76.36Zm0,4.32a31,31,0,0,0-5.76-.48A33,33,0,0,0,449.7,118a33,33,0,0,0,32.88,32.88,24,24,0,0,0,5.76-.6v2.16a23.53,23.53,0,0,1-5.76.6,35,35,0,0,1-35-35,35,35,0,0,1,35-35,31,31,0,0,1,5.76.48Zm0,4.32a45.85,45.85,0,0,0-5.76-.48A28.68,28.68,0,0,0,454,118a28.68,28.68,0,0,0,28.56,28.56,23.67,23.67,0,0,0,5.76-.72v2.28a24,24,0,0,1-5.76.6A30.73,30.73,0,0,1,451.86,118a30.63,30.63,0,0,1,30.72-30.72,31,31,0,0,1,5.76.48Z"/><path d="M541.74,165.91A47.73,47.73,0,0,1,493.86,118a46.36,46.36,0,0,1,14-34,48,48,0,0,1,67.86,0,46.26,46.26,0,0,1,14,34,47.83,47.83,0,0,1-48,47.88ZM495.9,118a45.84,45.84,0,0,0,91.68,0,45.84,45.84,0,0,0-91.68,0Zm45.84,43.68A43.63,43.63,0,0,1,498.06,118a43.68,43.68,0,1,1,87.36,0,43.63,43.63,0,0,1-43.68,43.68ZM500.22,118a41.52,41.52,0,0,0,83,0,41.52,41.52,0,0,0-83,0Zm41.52,39.36A39.33,39.33,0,0,1,502.38,118a39.36,39.36,0,1,1,78.72,0,39.33,39.33,0,0,1-39.36,39.36ZM504.54,118A37.2,37.2,0,1,0,568,91.75,37.2,37.2,0,0,0,504.54,118Zm37.2,35a35,35,0,0,1-35-35,35,35,0,1,1,59.82,24.78A33.76,33.76,0,0,1,541.74,153.07Zm-32.88-35A32.88,32.88,0,1,0,565,94.81,32.88,32.88,0,0,0,508.86,118Zm32.88,30.72A30.73,30.73,0,0,1,511,118a30.72,30.72,0,1,1,52.5,21.72A29.54,29.54,0,0,1,541.74,148.75ZM513.18,118A28.56,28.56,0,1,0,561.9,97.87,28.56,28.56,0,0,0,513.18,118Z"/><path d="M668.1,165l27.12-62.52-.6-3.84L665.94,165h-2.4L694,94.75l-.72-4.08-32,74.28h-2.52l33.84-78.48-.6-3.6L656.22,165h-2.28l37.44-86.28-.72-3.84-39,90.12h-2.4l-25.68-60.48L613.38,165h-2l10.56-64.2-1.44-3.84-11.52,68H607l11.88-71.4-1.56-3.84L604.74,165h-2.16l13.2-79.08-1.56-3.72L600.3,165h-2l14.4-86.28L611,74.83,596,165h-2.16l15.72-93.84h2.28l38.64,91.32,1.2-2.52L614.1,71.11h2.28L652.74,157l1.2-2.64-35-83.28h2.52l33.72,80.4,1.32-2.88-33-77.52h2.4l31.68,74.76,1.2-2.64-30.6-72.12h2.28l29.4,69.48,30.24-69.48h2.16L707.94,165h-2.16l-9.84-58.56L670.5,165Zm28.56-93.84L712.26,165h-2L694.5,71.11Zm4.32,0L716.7,165h-2.16L698.82,71.11Zm4.32,0L721,165h-2.16l-15.6-93.84Zm4.44,0L725.46,165H723.3L707.58,71.11Z"/><path d="M733.74,71.11V165h-2.16V71.11Zm4.32,0V165H735.9V71.11Zm4.32,0V165h-2.16V71.11Zm4.32,0V165h-2.16V71.11Zm12.6,0a29.5,29.5,0,0,1,29.4,29.4,29.5,29.5,0,0,1-29.4,29.4H751v35h-2.16V71.11ZM751,73.27v2.16h8.28a25.2,25.2,0,0,1,25.08,25.08,25.2,25.2,0,0,1-25.08,25.08H751v2.16h8.28a27.14,27.14,0,0,0,27.24-27.24A27,27,0,0,0,759.3,73.27Zm0,4.32v2.16h8.28a20.79,20.79,0,0,1,20.76,20.76,20.9,20.9,0,0,1-20.76,20.76H751v2.16h8.28a22.94,22.94,0,0,0,22.92-22.92A22.94,22.94,0,0,0,759.3,77.59Zm0,4.32v2.16h8.28a15.75,15.75,0,0,1,11.64,4.86,16.47,16.47,0,0,1-11.64,28H751v2.16h8.28a18.58,18.58,0,0,0,13.14-31.74,18,18,0,0,0-13.14-5.46Zm0,4.32v2.16h8.28a12.12,12.12,0,1,1,0,24.24H751v2.16h8.28a14.28,14.28,0,0,0,0-28.56Zm0,4.2v20.16h8.28a9.52,9.52,0,0,0,7-3,10,10,0,0,0,0-14.16,9.52,9.52,0,0,0-7-3Z"/><path d="M796.61,71.11V165h-2.16V71.11Zm4.32,0V165h-2.16V71.11Zm4.32,0V165h-2.16V71.11Zm4.32,0V165h-2.16V71.11Zm4.32,74.4h38.28v2.16H813.89v2.16h38.28V152H813.89v2.16h38.28v2.16H813.89v2.16h38.28v2.16H813.89v2.16h38.28V165H811.73V71.11h2.16Z"/><path d="M860.93,71.11V165h-2.16V71.11Zm4.32,0V165h-2.16V71.11Zm4.32,0V165h-2.16V71.11Zm4.32,0V165h-2.16V71.11Zm4.32,52.2v2.16h26v2.16h-26v17.88h35v2.16h-35v2.16h35V152h-35v2.16h35v2.16h-35v2.16h35v2.16h-35v2.16h35V165h-37.2V71.11h37.2v2.16h-35v2.16h35v2.16h-35v2.16h35v2.16h-35v2.16h35v2.16h-35v2.16h35v2h-35v17.76h26v2.16h-26v2.16h26v2.16h-26v2.16h26V119h-26v2.16h26v2.16Z"/><path d="M919.37,71.11h57.36v2.16H919.37Zm0,4.32h57.36v2.16H919.37Zm0,4.32h57.36v2.16H919.37Zm0,4.32h57.36v2.16H919.37Zm23.28,6.36h-2V165h-2.16V90.43H919.37v-2h57.36v2h-19V165h-2.16V90.43h-2.16V165h-2.16V90.43h-2.16V165H947V90.43h-2.16V165h-2.16Z"/><path d="M986.21,71.11V165h-2.16V71.11Zm4.32,0V165h-2.16V71.11Zm4.32,0V165h-2.16V71.11Zm4.32,0V165H997V71.11Zm4.32,52.2v2.16h26v2.16h-26v17.88h35v2.16h-35v2.16h35V152h-35v2.16h35v2.16h-35v2.16h35v2.16h-35v2.16h35V165h-37.2V71.11h37.2v2.16h-35v2.16h35v2.16h-35v2.16h35v2.16h-35v2.16h35v2.16h-35v2.16h35v2h-35v17.76h26v2.16h-26v2.16h26v2.16h-26v2.16h26V119h-26v2.16h26v2.16Z"/><path d="M176.78,216l-5.72,13.2V241a2.14,2.14,0,0,1-.6,1.67,2.42,2.42,0,0,1-1.64.54h-2.2a2.42,2.42,0,0,1-1.64-.54,2.14,2.14,0,0,1-.6-1.67V229.21L158.74,216a2.57,2.57,0,0,1-.24-1.08,2,2,0,0,1,1.28-1.89l2-1a2.89,2.89,0,0,1,1-.28,2.17,2.17,0,0,1,1.92,1.32l3,8.49,3-8.49a2.17,2.17,0,0,1,1.92-1.32,1.72,1.72,0,0,1,.52.08l.52.2,2,1a2,2,0,0,1,1.28,1.89A2.7,2.7,0,0,1,176.78,216Z"/><path d="M199.67,234.21a8.87,8.87,0,0,1-.34,2.52,13.18,13.18,0,0,1-.8,2.15q-2.35,4.65-8.21,4.66t-8.16-4.66a15.31,15.31,0,0,1-.82-2.15,8.53,8.53,0,0,1-.36-2.52v-10a8.53,8.53,0,0,1,.36-2.52,15.17,15.17,0,0,1,.82-2.14q2.31-4.66,8.16-4.66t8.21,4.66a13.06,13.06,0,0,1,.8,2.14,8.87,8.87,0,0,1,.34,2.52Zm-7,0v-10c0-1.4-.79-2.17-2.36-2.31q-2.31.17-2.31,2.31v10q0,2.14,2.31,2.31C191.87,236.38,192.66,235.61,192.66,234.21Z"/><path d="M222.52,238.58a4.57,4.57,0,0,1-1.25,3.51,4.82,4.82,0,0,1-3.43,1.15h-4.67q-5.85,0-8.16-4.66a15.16,15.16,0,0,1-.83-2.14,8.87,8.87,0,0,1-.35-2.52V217.58a2.29,2.29,0,0,1,.63-1.76,2.43,2.43,0,0,1,1.72-.59h2.31a2.43,2.43,0,0,1,1.72.59,2.29,2.29,0,0,1,.63,1.76v16.34a2.39,2.39,0,0,0,.57,1.7,2.26,2.26,0,0,0,1.74.61h1.18a1,1,0,0,0,1.17-1.18V217.58a2.33,2.33,0,0,1,.62-1.76,2.35,2.35,0,0,1,1.71-.59h2.36a2.35,2.35,0,0,1,1.71.59,2.33,2.33,0,0,1,.62,1.76Z"/><path d="M255.87,240.89a2.35,2.35,0,0,1-.62,1.77,2.38,2.38,0,0,1-1.71.58h-2.37a2.38,2.38,0,0,1-1.71-.58,2.35,2.35,0,0,1-.61-1.77V224.55c0-1.45-.78-2.22-2.35-2.31a2.24,2.24,0,0,0-1.7.55,2.32,2.32,0,0,0-.61,1.76v16.34a2.32,2.32,0,0,1-.63,1.77,2.44,2.44,0,0,1-1.72.58h-2.31a2.45,2.45,0,0,1-1.73-.58,2.32,2.32,0,0,1-.63-1.77v-28a2.29,2.29,0,0,1,.63-1.76,2.41,2.41,0,0,1,1.73-.59h2.31a2.4,2.4,0,0,1,1.72.59,2.29,2.29,0,0,1,.63,1.76v2.56a9.82,9.82,0,0,1,2.32-.25q5.85,0,8.22,4.66a14.45,14.45,0,0,1,.8,2.14,9.35,9.35,0,0,1,.34,2.52Z"/><path d="M278.71,238.58a4.56,4.56,0,0,1-1.24,3.51,4.84,4.84,0,0,1-3.43,1.15h-4.67q-5.85,0-8.17-4.66a12.2,12.2,0,0,1-.78-2.14,8.14,8.14,0,0,1,0-5,12.2,12.2,0,0,1,.78-2.14q2.31-4.71,8.15-4.71a7.19,7.19,0,0,1,1,.09c.39.05.82.14,1.3.25v-.34a2.1,2.1,0,0,0-2.35-2.31h-4.67a2.23,2.23,0,0,1-1.74-.63,2.46,2.46,0,0,1-.57-1.72v-2.31a2.46,2.46,0,0,1,.57-1.72,2.23,2.23,0,0,1,1.74-.63h4.67q5.85,0,8.22,4.66a13.41,13.41,0,0,1,.8,2.14,9,9,0,0,1,.34,2.52Zm-7-3.53v-1.13c0-1.43-.79-2.21-2.35-2.35a2.15,2.15,0,0,0-2.31,2.35,2.44,2.44,0,0,0,.56,1.7,2.27,2.27,0,0,0,1.75.61h1.17A1,1,0,0,0,271.7,235.05Z"/><path d="M301.56,240.89a2.35,2.35,0,0,1-.61,1.77,2.38,2.38,0,0,1-1.71.58h-2.37a2.38,2.38,0,0,1-1.71-.58,2.35,2.35,0,0,1-.61-1.77V224.55a2.1,2.1,0,0,0-2.36-2.31H291a1,1,0,0,0-1.14,1.18v17.47a2.32,2.32,0,0,1-.63,1.77,2.42,2.42,0,0,1-1.72.58h-2.31a2.42,2.42,0,0,1-1.72-.58,2.32,2.32,0,0,1-.63-1.77v-21a4.56,4.56,0,0,1,1.24-3.51,4.84,4.84,0,0,1,3.43-1.15h4.67q5.87,0,8.21,4.66a13.41,13.41,0,0,1,.8,2.14,9,9,0,0,1,.34,2.52Z"/><path d="M324.41,234.21a8.87,8.87,0,0,1-.34,2.52,13.18,13.18,0,0,1-.8,2.15q-2.36,4.65-8.21,4.66t-8.16-4.66a14.17,14.17,0,0,1-.82-2.15,8.53,8.53,0,0,1-.36-2.52v-9.66a8.62,8.62,0,0,1,.36-2.52,14.45,14.45,0,0,1,.81-2.14q2.31-4.66,8.15-4.66a8.42,8.42,0,0,1,1,.08c.39.06.83.14,1.3.25v-2.64a2.11,2.11,0,0,1,2.33-2.35h2.36a2.11,2.11,0,0,1,2.33,2.35Zm-7,0v-9.66c0-1.4-.78-2.17-2.35-2.31-1.54.12-2.31.88-2.31,2.31v9.66q0,2.14,2.31,2.31C316.61,236.38,317.39,235.61,317.39,234.21Z"/><path d="M347.26,229.26a4.54,4.54,0,0,1-1.25,3.5,4.8,4.8,0,0,1-3.43,1.16h-7q.17,2.31,2.31,2.31h4.66a2.33,2.33,0,0,1,1.77.63,2.42,2.42,0,0,1,.58,1.72v2.31a2.42,2.42,0,0,1-.58,1.72,2.33,2.33,0,0,1-1.77.63h-4.66q-5.83,0-8.15-4.66a15.17,15.17,0,0,1-.82-2.14,8.53,8.53,0,0,1-.35-2.52v-9.66a8.53,8.53,0,0,1,.35-2.52,15.17,15.17,0,0,1,.82-2.14q2.33-4.66,8.17-4.66t8.21,4.66a14,14,0,0,1,.8,2.14,9.25,9.25,0,0,1,.34,2.52Zm-7-3.53v-1.47c0-1.4-.78-2.17-2.35-2.31q-2.31.17-2.31,2.31v2.65h3.49A1,1,0,0,0,340.24,225.73Z"/><path d="M370.1,234.21a9.25,9.25,0,0,1-.33,2.52,15.33,15.33,0,0,1-.8,2.15q-2.37,4.65-8.21,4.66t-8.17-4.66a15.31,15.31,0,0,1-.82-2.15,8.53,8.53,0,0,1-.36-2.52v-9.66a8.62,8.62,0,0,1,.36-2.52,15.65,15.65,0,0,1,.82-2.14q2.31-4.66,8.15-4.66a8.71,8.71,0,0,1,1.05.08c.39.06.82.14,1.3.25v-2.64a2.1,2.1,0,0,1,2.32-2.35h2.37a2.1,2.1,0,0,1,2.32,2.35Zm-7,0v-9.66c0-1.4-.79-2.17-2.35-2.31-1.54.12-2.31.88-2.31,2.31v9.66q0,2.14,2.31,2.31C362.3,236.38,363.09,235.61,363.09,234.21Z"/><path d="M391.77,214a2.33,2.33,0,0,1-.63,1.77,2.42,2.42,0,0,1-1.72.58h-2.31a2.42,2.42,0,0,1-1.72-.58,2.33,2.33,0,0,1-.63-1.77v-1.09a2.29,2.29,0,0,1,.63-1.76,2.38,2.38,0,0,1,1.72-.59h2.31a2.38,2.38,0,0,1,1.72.59,2.29,2.29,0,0,1,.63,1.76Zm0,26.88a2.32,2.32,0,0,1-.63,1.77,2.42,2.42,0,0,1-1.72.58h-2.31a2.42,2.42,0,0,1-1.72-.58,2.32,2.32,0,0,1-.63-1.77V221a2.3,2.3,0,0,1,.63-1.77,2.43,2.43,0,0,1,1.72-.59h2.31a2.43,2.43,0,0,1,1.72.59,2.3,2.3,0,0,1,.63,1.77Z"/><path d="M414.67,240.89a2.35,2.35,0,0,1-.62,1.77,2.38,2.38,0,0,1-1.71.58H410a2.38,2.38,0,0,1-1.71-.58,2.35,2.35,0,0,1-.61-1.77V224.55a2.1,2.1,0,0,0-2.35-2.31h-1.18c-.75,0-1.13.4-1.13,1.18v17.47a2.32,2.32,0,0,1-.63,1.77,2.44,2.44,0,0,1-1.72.58h-2.31a2.45,2.45,0,0,1-1.73-.58,2.32,2.32,0,0,1-.63-1.77v-21a4.57,4.57,0,0,1,1.25-3.51,4.82,4.82,0,0,1,3.43-1.15h4.67q5.85,0,8.21,4.66a14.45,14.45,0,0,1,.8,2.14,9.35,9.35,0,0,1,.34,2.52Z"/><path d="M459.69,233.92a8.87,8.87,0,0,1-.34,2.52,10.84,10.84,0,0,1-.84,2.14q-2.36,4.66-8.16,4.66a10.66,10.66,0,0,1-5.85-1.89,10.46,10.46,0,0,1-5.84,1.89H434a4.84,4.84,0,0,1-3.43-1.15,4.6,4.6,0,0,1-1.24-3.51v-21a2.29,2.29,0,0,1,.63-1.76,2.44,2.44,0,0,1,1.72-.59H434a2.45,2.45,0,0,1,1.73.59,2.29,2.29,0,0,1,.63,1.76v17.47c0,.79.37,1.18,1.13,1.18h1.18a2.32,2.32,0,0,0,1.76-.61,2.36,2.36,0,0,0,.59-1.7V217.58a2.32,2.32,0,0,1,.61-1.76,2.38,2.38,0,0,1,1.71-.59h2.37a2.38,2.38,0,0,1,1.71.59,2.32,2.32,0,0,1,.61,1.76v16.34c0,1.4.78,2.17,2.33,2.31,1.56-.14,2.33-.91,2.33-2.31V217.58a2.33,2.33,0,0,1,.62-1.76,2.37,2.37,0,0,1,1.71-.59h2.36a2.39,2.39,0,0,1,1.72.59,2.36,2.36,0,0,1,.61,1.76Z"/><path d="M470.86,214a2.33,2.33,0,0,1-.63,1.77,2.42,2.42,0,0,1-1.72.58H466.2a2.42,2.42,0,0,1-1.72-.58,2.33,2.33,0,0,1-.63-1.77v-1.09a2.29,2.29,0,0,1,.63-1.76,2.38,2.38,0,0,1,1.72-.59h2.31a2.38,2.38,0,0,1,1.72.59,2.29,2.29,0,0,1,.63,1.76Zm0,26.88a2.32,2.32,0,0,1-.63,1.77,2.42,2.42,0,0,1-1.72.58H466.2a2.42,2.42,0,0,1-1.72-.58,2.32,2.32,0,0,1-.63-1.77V221a2.3,2.3,0,0,1,.63-1.77,2.43,2.43,0,0,1,1.72-.59h2.31a2.43,2.43,0,0,1,1.72.59,2.3,2.3,0,0,1,.63,1.77Z"/><path d="M491.4,241.19a2.13,2.13,0,0,1-2.35,2.35,9.05,9.05,0,0,1-5-1.12,8.29,8.29,0,0,1-3.19-3.54,15.31,15.31,0,0,1-.82-2.15,8.53,8.53,0,0,1-.36-2.52v-9.66h-2.31a2.1,2.1,0,0,1-2.35-2.32v-2.37a2.1,2.1,0,0,1,2.35-2.32h2.31v-2.33a2.21,2.21,0,0,1,.63-1.73,2.51,2.51,0,0,1,1.72-.56h2.31a2.53,2.53,0,0,1,1.73.56,2.21,2.21,0,0,1,.63,1.73v2.33h2.31a2.32,2.32,0,0,1,1.76.61,2.38,2.38,0,0,1,.59,1.71v2.37a2.38,2.38,0,0,1-.59,1.71,2.32,2.32,0,0,1-1.76.61h-2.31v9.66c0,1.4.78,2.17,2.35,2.31a2.16,2.16,0,0,1,2.31,2.36Z"/><path d="M514.29,240.89a2.1,2.1,0,0,1-2.33,2.35H509.6a2.1,2.1,0,0,1-2.33-2.35V224.55c0-1.45-.78-2.22-2.35-2.31a2.26,2.26,0,0,0-1.7.55,2.32,2.32,0,0,0-.61,1.76v16.34a2.32,2.32,0,0,1-.63,1.77,2.42,2.42,0,0,1-1.72.58H498a2.42,2.42,0,0,1-1.72-.58,2.32,2.32,0,0,1-.63-1.77v-28a2.29,2.29,0,0,1,.63-1.76,2.38,2.38,0,0,1,1.72-.59h2.31a2.38,2.38,0,0,1,1.72.59,2.29,2.29,0,0,1,.63,1.76v2.56a9.88,9.88,0,0,1,2.32-.25q5.86,0,8.22,4.66A13.41,13.41,0,0,1,514,222a9.35,9.35,0,0,1,.34,2.52Z"/><path d="M525.46,214a2.33,2.33,0,0,1-.63,1.77,2.44,2.44,0,0,1-1.72.58H520.8a2.42,2.42,0,0,1-1.72-.58,2.33,2.33,0,0,1-.63-1.77v-1.09a2.29,2.29,0,0,1,.63-1.76,2.38,2.38,0,0,1,1.72-.59h2.31a2.4,2.4,0,0,1,1.72.59,2.29,2.29,0,0,1,.63,1.76Zm0,26.88a2.32,2.32,0,0,1-.63,1.77,2.44,2.44,0,0,1-1.72.58H520.8a2.42,2.42,0,0,1-1.72-.58,2.32,2.32,0,0,1-.63-1.77V221a2.3,2.3,0,0,1,.63-1.77,2.43,2.43,0,0,1,1.72-.59h2.31a2.44,2.44,0,0,1,1.72.59,2.3,2.3,0,0,1,.63,1.77Z"/><path d="M548.35,240.89a2.09,2.09,0,0,1-2.32,2.35h-2.37a2.38,2.38,0,0,1-1.71-.58,2.35,2.35,0,0,1-.62-1.77V224.55a2.09,2.09,0,0,0-2.35-2.31h-1.17a1,1,0,0,0-1.14,1.18v17.47a2.32,2.32,0,0,1-.63,1.77,2.42,2.42,0,0,1-1.72.58H532a2.42,2.42,0,0,1-1.72-.58,2.32,2.32,0,0,1-.63-1.77v-21a4.56,4.56,0,0,1,1.24-3.51,4.84,4.84,0,0,1,3.43-1.15H539q5.87,0,8.21,4.66A13.41,13.41,0,0,1,548,222a9,9,0,0,1,.34,2.52Z"/><path d="M579.34,241.19a2.12,2.12,0,0,1-2.35,2.35,9,9,0,0,1-5-1.12,8.31,8.31,0,0,1-3.2-3.54,15.32,15.32,0,0,1-.81-2.15,8.53,8.53,0,0,1-.36-2.52v-9.66h-2.31a2.35,2.35,0,0,1-1.77-.61,2.38,2.38,0,0,1-.58-1.71v-2.37a2.38,2.38,0,0,1,.58-1.71,2.35,2.35,0,0,1,1.77-.61h2.31v-2.33a2.21,2.21,0,0,1,.63-1.73,2.51,2.51,0,0,1,1.72-.56h2.31a2.51,2.51,0,0,1,1.72.56,2.21,2.21,0,0,1,.63,1.73v2.33H577a2.35,2.35,0,0,1,1.77.61,2.38,2.38,0,0,1,.58,1.71v2.37a2.38,2.38,0,0,1-.58,1.71,2.35,2.35,0,0,1-1.77.61h-2.31v9.66c0,1.4.79,2.17,2.36,2.31a2.16,2.16,0,0,1,2.3,2.36Z"/><path d="M602.24,240.89a2.35,2.35,0,0,1-.62,1.77,2.38,2.38,0,0,1-1.71.58h-2.37a2.38,2.38,0,0,1-1.71-.58,2.35,2.35,0,0,1-.61-1.77V224.55c0-1.45-.78-2.22-2.35-2.31a2.24,2.24,0,0,0-1.7.55,2.32,2.32,0,0,0-.61,1.76v16.34a2.32,2.32,0,0,1-.63,1.77,2.44,2.44,0,0,1-1.72.58H585.9a2.45,2.45,0,0,1-1.73-.58,2.32,2.32,0,0,1-.63-1.77v-28a2.29,2.29,0,0,1,.63-1.76,2.41,2.41,0,0,1,1.73-.59h2.31a2.4,2.4,0,0,1,1.72.59,2.29,2.29,0,0,1,.63,1.76v2.56a9.82,9.82,0,0,1,2.32-.25q5.85,0,8.22,4.66a14.45,14.45,0,0,1,.8,2.14,9.35,9.35,0,0,1,.34,2.52Z"/><path d="M625.08,229.26a4.54,4.54,0,0,1-1.24,3.5,4.83,4.83,0,0,1-3.44,1.16h-7q.17,2.31,2.31,2.31h4.66a2.29,2.29,0,0,1,1.76.63,2.43,2.43,0,0,1,.59,1.72v2.31a2.43,2.43,0,0,1-.59,1.72,2.29,2.29,0,0,1-1.76.63h-4.66q-5.85,0-8.15-4.66a15.17,15.17,0,0,1-.82-2.14,8.53,8.53,0,0,1-.36-2.52v-9.66a8.53,8.53,0,0,1,.36-2.52,15.17,15.17,0,0,1,.82-2.14q2.31-4.66,8.17-4.66T624,219.6a15.19,15.19,0,0,1,.8,2.14,9.25,9.25,0,0,1,.33,2.52Zm-7-3.53v-1.47c0-1.4-.79-2.17-2.35-2.31q-2.31.17-2.31,2.31v2.65h3.48A1,1,0,0,0,618.07,225.73Z"/><path d="M658.43,234.21a8.87,8.87,0,0,1-.34,2.52,13.18,13.18,0,0,1-.8,2.15q-2.35,4.65-8.21,4.66t-8.16-4.66a15.31,15.31,0,0,1-.82-2.15,8.53,8.53,0,0,1-.36-2.52v-9.66a8.62,8.62,0,0,1,.36-2.52,14.45,14.45,0,0,1,.82-2.14q2.31-4.66,8.14-4.66a8.42,8.42,0,0,1,1.05.08c.4.06.83.14,1.31.25v-2.64a2.1,2.1,0,0,1,2.32-2.35h2.37a2.1,2.1,0,0,1,2.32,2.35Zm-7,0v-9.66c0-1.4-.79-2.17-2.36-2.31-1.54.12-2.31.88-2.31,2.31v9.66q0,2.14,2.31,2.31C650.63,236.38,651.42,235.61,651.42,234.21Z"/><path d="M681.28,229.26a4.54,4.54,0,0,1-1.25,3.5,4.78,4.78,0,0,1-3.43,1.16h-7q.17,2.31,2.31,2.31h4.66a2.3,2.3,0,0,1,1.77.63,2.43,2.43,0,0,1,.59,1.72v2.31a2.43,2.43,0,0,1-.59,1.72,2.3,2.3,0,0,1-1.77.63h-4.66q-5.83,0-8.15-4.66a15.18,15.18,0,0,1-.81-2.14,8.53,8.53,0,0,1-.36-2.52v-9.66a8.53,8.53,0,0,1,.36-2.52,14,14,0,0,1,.82-2.14q2.31-4.66,8.16-4.66t8.21,4.66a13.06,13.06,0,0,1,.8,2.14,8.87,8.87,0,0,1,.34,2.52Zm-7-3.53v-1.47c0-1.4-.78-2.17-2.35-2.31q-2.31.17-2.31,2.31v2.65h3.49A1,1,0,0,0,674.26,225.73Z"/><path d="M704.13,238.58a4.57,4.57,0,0,1-1.25,3.51,4.84,4.84,0,0,1-3.43,1.15h-4.67q-5.85,0-8.17-4.66a10.55,10.55,0,0,1,0-9.32q2.31-4.71,8.15-4.71a7,7,0,0,1,1,.09c.39.05.82.14,1.3.25v-.34a2.33,2.33,0,0,0-.59-1.7,2.36,2.36,0,0,0-1.76-.61H690.1a2.24,2.24,0,0,1-1.75-.63,2.51,2.51,0,0,1-.56-1.72v-2.31a2.51,2.51,0,0,1,.56-1.72,2.24,2.24,0,0,1,1.75-.63h4.66q5.87,0,8.23,4.66a15.67,15.67,0,0,1,.8,2.14,9.35,9.35,0,0,1,.34,2.52Zm-7-3.53v-1.13c0-1.43-.78-2.21-2.35-2.35a2.15,2.15,0,0,0-2.31,2.35,2.39,2.39,0,0,0,.57,1.7,2.25,2.25,0,0,0,1.74.61h1.18A1,1,0,0,0,697.11,235.05Z"/><path d="M727,234.21a9.25,9.25,0,0,1-.33,2.52,15.33,15.33,0,0,1-.8,2.15q-2.37,4.65-8.21,4.66t-8.17-4.66a15.31,15.31,0,0,1-.82-2.15,8.53,8.53,0,0,1-.36-2.52v-9.66a8.62,8.62,0,0,1,.36-2.52,15.65,15.65,0,0,1,.82-2.14q2.31-4.66,8.15-4.66a8.56,8.56,0,0,1,1,.08c.39.06.82.14,1.3.25v-2.64a2.1,2.1,0,0,1,2.32-2.35h2.37a2.1,2.1,0,0,1,2.32,2.35Zm-7,0v-9.66c0-1.4-.79-2.17-2.35-2.31-1.54.12-2.31.88-2.31,2.31v9.66q0,2.14,2.31,2.31C719.17,236.38,720,235.61,720,234.21Z"/><path d="M742.81,241.19a2.13,2.13,0,0,1-2.35,2.35,9.07,9.07,0,0,1-5-1.12,8.29,8.29,0,0,1-3.19-3.54,15.31,15.31,0,0,1-.82-2.15,8.53,8.53,0,0,1-.36-2.52V212.92a2.29,2.29,0,0,1,.63-1.76,2.38,2.38,0,0,1,1.72-.59h2.31a2.38,2.38,0,0,1,1.72.59,2.29,2.29,0,0,1,.63,1.76v21.29c0,1.4.79,2.17,2.36,2.31a2.16,2.16,0,0,1,2.31,2.36Z"/><path d="M754,214a2.33,2.33,0,0,1-.63,1.77,2.42,2.42,0,0,1-1.72.58h-2.31a2.42,2.42,0,0,1-1.72-.58A2.33,2.33,0,0,1,747,214v-1.09a2.29,2.29,0,0,1,.63-1.76,2.38,2.38,0,0,1,1.72-.59h2.31a2.38,2.38,0,0,1,1.72.59,2.29,2.29,0,0,1,.63,1.76Zm0,26.88a2.32,2.32,0,0,1-.63,1.77,2.42,2.42,0,0,1-1.72.58h-2.31a2.42,2.42,0,0,1-1.72-.58,2.32,2.32,0,0,1-.63-1.77V221a2.3,2.3,0,0,1,.63-1.77,2.43,2.43,0,0,1,1.72-.59h2.31a2.43,2.43,0,0,1,1.72.59A2.3,2.3,0,0,1,754,221Z"/><path d="M776.91,240.89a2.35,2.35,0,0,1-.61,1.77,2.38,2.38,0,0,1-1.71.58h-2.37a2.38,2.38,0,0,1-1.71-.58,2.35,2.35,0,0,1-.61-1.77V224.55a2.1,2.1,0,0,0-2.36-2.31h-1.17a1,1,0,0,0-1.14,1.18v17.47a2.32,2.32,0,0,1-.63,1.77,2.42,2.42,0,0,1-1.72.58h-2.31a2.42,2.42,0,0,1-1.72-.58,2.32,2.32,0,0,1-.63-1.77v-21a4.56,4.56,0,0,1,1.24-3.51,4.84,4.84,0,0,1,3.43-1.15h4.68q5.85,0,8.2,4.66a13.41,13.41,0,0,1,.8,2.14,9,9,0,0,1,.34,2.52Z"/><path d="M799.76,229.26a4.54,4.54,0,0,1-1.25,3.5,4.78,4.78,0,0,1-3.43,1.16h-7q.17,2.31,2.31,2.31h4.66a2.3,2.3,0,0,1,1.77.63,2.43,2.43,0,0,1,.59,1.72v2.31a2.43,2.43,0,0,1-.59,1.72,2.3,2.3,0,0,1-1.77.63h-4.66q-5.83,0-8.15-4.66a15.18,15.18,0,0,1-.81-2.14,8.53,8.53,0,0,1-.36-2.52v-9.66a8.53,8.53,0,0,1,.36-2.52,14,14,0,0,1,.82-2.14q2.31-4.66,8.16-4.66t8.21,4.66a13.06,13.06,0,0,1,.8,2.14,8.87,8.87,0,0,1,.34,2.52Zm-7-3.53v-1.47c0-1.4-.78-2.17-2.35-2.31q-2.31.17-2.31,2.31v2.65h3.49A1,1,0,0,0,792.74,225.73Z"/><path d="M810.93,231.57a2.29,2.29,0,0,1-.63,1.76,2.43,2.43,0,0,1-1.72.59h-2.31a2.43,2.43,0,0,1-1.72-.59,2.29,2.29,0,0,1-.63-1.76V212.92a2.29,2.29,0,0,1,.63-1.76,2.38,2.38,0,0,1,1.72-.59h2.31a2.38,2.38,0,0,1,1.72.59,2.29,2.29,0,0,1,.63,1.76Zm0,9.32a2.32,2.32,0,0,1-.63,1.77,2.42,2.42,0,0,1-1.72.58h-2.31a2.42,2.42,0,0,1-1.72-.58,2.32,2.32,0,0,1-.63-1.77v-2.31a2.29,2.29,0,0,1,.63-1.76,2.43,2.43,0,0,1,1.72-.59h2.31a2.43,2.43,0,0,1,1.72.59,2.29,2.29,0,0,1,.63,1.76Z"/><path d="M177.69,315.44l-6,13.86v12.43a2.24,2.24,0,0,1-.63,1.75,2.52,2.52,0,0,1-1.72.56H167a2.53,2.53,0,0,1-1.73-.56,2.24,2.24,0,0,1-.63-1.75V329.3l-5.92-13.86a2.62,2.62,0,0,1-.25-1.13,2.08,2.08,0,0,1,1.34-2l2.1-1a2.89,2.89,0,0,1,1.1-.3,2.25,2.25,0,0,1,2,1.39l3.15,8.9,3.15-8.9a2.27,2.27,0,0,1,2-1.39,1.57,1.57,0,0,1,.54.09,4.32,4.32,0,0,1,.55.21l2.1,1a2.07,2.07,0,0,1,1.34,2A2.71,2.71,0,0,1,177.69,315.44Z"/><path d="M200.79,335a9.25,9.25,0,0,1-.33,2.52,14.73,14.73,0,0,1-.8,2.14q-2.37,4.66-8.21,4.67t-8.17-4.67a14.71,14.71,0,0,1-.82-2.14,8.53,8.53,0,0,1-.36-2.52v-9.95a8.53,8.53,0,0,1,.36-2.52,15.17,15.17,0,0,1,.82-2.14q2.33-4.66,8.17-4.67t8.21,4.67a15.19,15.19,0,0,1,.8,2.14,9.25,9.25,0,0,1,.33,2.52Zm-7,0v-9.95c0-1.4-.78-2.17-2.35-2.31q-2.31.17-2.31,2.31V335q0,2.14,2.31,2.31C193,337.18,193.78,336.41,193.78,335Z"/><path d="M223.64,339.38a4.56,4.56,0,0,1-1.24,3.51A4.84,4.84,0,0,1,219,344H214.3q-5.85,0-8.17-4.66a15.17,15.17,0,0,1-.82-2.14,8.53,8.53,0,0,1-.36-2.52V318.38a2.29,2.29,0,0,1,.63-1.76,2.4,2.4,0,0,1,1.72-.59h2.31a2.37,2.37,0,0,1,1.72.59,2.29,2.29,0,0,1,.63,1.76v16.34a2.39,2.39,0,0,0,.57,1.7,2.27,2.27,0,0,0,1.75.61h1.17a1,1,0,0,0,1.18-1.18V318.38A2.1,2.1,0,0,1,219,316h2.37a2.1,2.1,0,0,1,2.32,2.35Z"/><path d="M257,335.31a8.76,8.76,0,0,1-8.74,8.73h-7.56a2.29,2.29,0,0,1-1.76-.63,2.38,2.38,0,0,1-.59-1.72v-2.31a2.38,2.38,0,0,1,.59-1.72,2.29,2.29,0,0,1,1.76-.63h7.56a1.92,1.92,0,0,0,1.26-.5,1.79,1.79,0,0,0,0-2.48,1.88,1.88,0,0,0-1.26-.51H247A8.76,8.76,0,0,1,247,316h6.42a2.29,2.29,0,0,1,1.76.63,2.38,2.38,0,0,1,.59,1.72v2.31a2.38,2.38,0,0,1-.59,1.72,2.29,2.29,0,0,1-1.76.63H247a1.64,1.64,0,0,0-1.22.51,1.74,1.74,0,0,0,1.22,3h1.17a8.38,8.38,0,0,1,6.17,2.56A8.47,8.47,0,0,1,257,335.31Z"/><path d="M279.84,341.69a2.1,2.1,0,0,1-2.33,2.35h-2.36a2.09,2.09,0,0,1-2.33-2.35V325.35c0-1.45-.78-2.22-2.35-2.31a2.24,2.24,0,0,0-1.7.55,2.32,2.32,0,0,0-.61,1.76v16.34a2.33,2.33,0,0,1-.63,1.77,2.42,2.42,0,0,1-1.72.58H263.5a2.42,2.42,0,0,1-1.72-.58,2.33,2.33,0,0,1-.63-1.77v-28a2.29,2.29,0,0,1,.63-1.76,2.38,2.38,0,0,1,1.72-.59h2.31a2.38,2.38,0,0,1,1.72.59,2.29,2.29,0,0,1,.63,1.76v2.56a9.88,9.88,0,0,1,2.32-.25q5.85,0,8.22,4.66a14.45,14.45,0,0,1,.8,2.14,9.35,9.35,0,0,1,.34,2.52Z"/><path d="M302.68,335a9.25,9.25,0,0,1-.33,2.52,13.66,13.66,0,0,1-.8,2.14q-2.35,4.66-8.21,4.67t-8.17-4.67a14.71,14.71,0,0,1-.82-2.14A8.53,8.53,0,0,1,284,335v-9.95a8.53,8.53,0,0,1,.36-2.52,15.17,15.17,0,0,1,.82-2.14q2.32-4.66,8.17-4.67t8.21,4.67a14,14,0,0,1,.8,2.14,9.25,9.25,0,0,1,.33,2.52Zm-7,0v-9.95c0-1.4-.78-2.17-2.35-2.31q-2.31.17-2.31,2.31V335q0,2.14,2.31,2.31C294.89,337.18,295.67,336.41,295.67,335Z"/><path d="M325.53,339.38a4.56,4.56,0,0,1-1.24,3.51,4.84,4.84,0,0,1-3.43,1.15h-4.67q-5.85,0-8.17-4.66a15.17,15.17,0,0,1-.82-2.14,8.53,8.53,0,0,1-.36-2.52V318.38a2.29,2.29,0,0,1,.63-1.76,2.4,2.4,0,0,1,1.72-.59h2.31a2.41,2.41,0,0,1,1.73.59,2.29,2.29,0,0,1,.63,1.76v16.34a2.39,2.39,0,0,0,.56,1.7,2.27,2.27,0,0,0,1.75.61h1.17a1,1,0,0,0,1.18-1.18V318.38a2.1,2.1,0,0,1,2.32-2.35h2.37a2.1,2.1,0,0,1,2.32,2.35Z"/><path d="M341.37,342a2.13,2.13,0,0,1-2.36,2.36,9,9,0,0,1-4.95-1.12,8.2,8.2,0,0,1-3.19-3.55,13.64,13.64,0,0,1-.82-2.14,8.53,8.53,0,0,1-.36-2.52V313.72a2.29,2.29,0,0,1,.63-1.76,2.38,2.38,0,0,1,1.72-.59h2.31a2.38,2.38,0,0,1,1.72.59,2.29,2.29,0,0,1,.63,1.76V335c0,1.4.79,2.17,2.36,2.31a2.17,2.17,0,0,1,2.31,2.35Z"/><path d="M364.26,335a9.25,9.25,0,0,1-.34,2.52,13.66,13.66,0,0,1-.8,2.14q-2.36,4.66-8.21,4.67t-8.17-4.67a14.71,14.71,0,0,1-.82-2.14,8.53,8.53,0,0,1-.35-2.52v-9.66a8.62,8.62,0,0,1,.35-2.52,15.65,15.65,0,0,1,.82-2.14Q349,316,354.89,316a8.42,8.42,0,0,1,1.05.08c.39.06.82.14,1.3.26v-2.65a2.1,2.1,0,0,1,2.33-2.35h2.36a2.11,2.11,0,0,1,2.33,2.35Zm-7,0v-9.66c0-1.4-.78-2.17-2.35-2.31-1.54.12-2.31.88-2.31,2.31V335q0,2.14,2.31,2.31C356.46,337.18,357.24,336.41,357.24,335Z"/><path d="M397.6,335a8.87,8.87,0,0,1-.35,2.52,14.71,14.71,0,0,1-.82,2.14q-2.35,4.66-8.15,4.67t-8.19-4.67a14.71,14.71,0,0,1-.82-2.14,8.53,8.53,0,0,1-.36-2.52V313.68a2.24,2.24,0,0,1,.63-1.75,2.52,2.52,0,0,1,1.72-.56h2.36a2.45,2.45,0,0,1,1.68.56,2.24,2.24,0,0,1,.63,1.75v2.6a10,10,0,0,1,2.35-.25q5.79,0,8.15,4.66a15.65,15.65,0,0,1,.82,2.14,9,9,0,0,1,.35,2.52Zm-7,0v-9.66q0-2.18-2.31-2.31a2.32,2.32,0,0,0-1.72.55,2.29,2.29,0,0,0-.63,1.76V335c0,1.4.78,2.17,2.35,2.31Q390.59,337.16,390.59,335Z"/><path d="M420.49,330.06a4.55,4.55,0,0,1-1.24,3.5,4.87,4.87,0,0,1-3.44,1.16h-7Q409,337,411.13,337h4.66a2.29,2.29,0,0,1,1.76.63,2.43,2.43,0,0,1,.59,1.72v2.31a2.43,2.43,0,0,1-.59,1.72,2.29,2.29,0,0,1-1.76.63h-4.66q-5.85,0-8.15-4.66a15.17,15.17,0,0,1-.82-2.14,8.53,8.53,0,0,1-.36-2.52v-9.66a8.53,8.53,0,0,1,.36-2.52,15.17,15.17,0,0,1,.82-2.14q2.31-4.66,8.17-4.67t8.21,4.67a15.19,15.19,0,0,1,.8,2.14,9.25,9.25,0,0,1,.33,2.52Zm-7-3.53v-1.47c0-1.4-.79-2.17-2.35-2.31q-2.31.17-2.31,2.31v2.65h3.48A1,1,0,0,0,413.48,326.53Z"/><path d="M453.84,325.06v2.65a8.51,8.51,0,0,1-.36,2.51,15.31,15.31,0,0,1-.82,2.15Q450.3,337,444.48,337a10.89,10.89,0,0,1-2.32-.34l0,5a2.27,2.27,0,0,1-.61,1.75,2.42,2.42,0,0,1-1.7.56H437.5a2.51,2.51,0,0,1-1.72-.56,2.24,2.24,0,0,1-.63-1.75V325.06a8.53,8.53,0,0,1,.36-2.52,15.17,15.17,0,0,1,.82-2.14q2.31-4.66,8.17-4.67t8.2,4.67a13.06,13.06,0,0,1,.8,2.14A8.87,8.87,0,0,1,453.84,325.06Zm-7,2.65v-2.65c0-1.4-.79-2.17-2.36-2.31q-2.31.17-2.31,2.31v2.65a2.16,2.16,0,0,0,2.31,2.35C446,329.92,446.83,329.13,446.83,327.71Z"/><path d="M472,320.69a2.51,2.51,0,0,1-.56,1.72,2.24,2.24,0,0,1-1.75.63h-2.35a2.3,2.3,0,0,0-1.74.61,2.39,2.39,0,0,0-.57,1.7v16.38a2.24,2.24,0,0,1-.63,1.75,2.51,2.51,0,0,1-1.72.56h-2.31a2.51,2.51,0,0,1-1.72-.56,2.24,2.24,0,0,1-.63-1.75V325.35a8.62,8.62,0,0,1,.36-2.52,15.66,15.66,0,0,1,.81-2.14q2.31-4.67,8.15-4.66h2.35a2.24,2.24,0,0,1,1.75.63,2.51,2.51,0,0,1,.56,1.72Z"/><path d="M494.87,335a9.25,9.25,0,0,1-.33,2.52,14.73,14.73,0,0,1-.8,2.14q-2.36,4.66-8.21,4.67t-8.17-4.67a14.71,14.71,0,0,1-.82-2.14,8.53,8.53,0,0,1-.36-2.52v-9.95a8.53,8.53,0,0,1,.36-2.52,15.17,15.17,0,0,1,.82-2.14q2.33-4.66,8.17-4.67t8.21,4.67a15.19,15.19,0,0,1,.8,2.14,9.25,9.25,0,0,1,.33,2.52Zm-7,0v-9.95c0-1.4-.78-2.17-2.35-2.31q-2.31.17-2.31,2.31V335q0,2.14,2.31,2.31C487.08,337.18,487.86,336.41,487.86,335Z"/><path d="M517.72,339.38a4.56,4.56,0,0,1-1.24,3.51,4.84,4.84,0,0,1-3.43,1.15h-4.67q-5.85,0-8.17-4.66a15.17,15.17,0,0,1-.82-2.14,8.53,8.53,0,0,1-.36-2.52V318.38a2.29,2.29,0,0,1,.63-1.76,2.4,2.4,0,0,1,1.72-.59h2.31a2.41,2.41,0,0,1,1.73.59,2.33,2.33,0,0,1,.62,1.76v16.34a2.39,2.39,0,0,0,.57,1.7,2.27,2.27,0,0,0,1.75.61h1.17a1,1,0,0,0,1.18-1.18V318.38A2.1,2.1,0,0,1,513,316h2.37a2.1,2.1,0,0,1,2.32,2.35Z"/><path d="M540.57,335a8.87,8.87,0,0,1-.34,2.52,12.73,12.73,0,0,1-.8,2.14q-2.35,4.66-8.21,4.67t-8.16-4.67a13.64,13.64,0,0,1-.82-2.14,8.53,8.53,0,0,1-.36-2.52v-9.66a8.62,8.62,0,0,1,.36-2.52,15.66,15.66,0,0,1,.81-2.14q2.31-4.67,8.15-4.66a8.42,8.42,0,0,1,1,.08c.39.06.83.14,1.3.26v-2.65a2.11,2.11,0,0,1,2.33-2.35h2.37a2.1,2.1,0,0,1,2.32,2.35Zm-7,0v-9.66c0-1.4-.78-2.17-2.35-2.31-1.54.12-2.31.88-2.31,2.31V335q0,2.14,2.31,2.31C532.77,337.18,533.55,336.41,533.55,335Z"/><path d="M573.92,330.06a4.56,4.56,0,0,1-1.25,3.5,4.84,4.84,0,0,1-3.43,1.16h-7q.16,2.31,2.31,2.31h4.66a2.32,2.32,0,0,1,1.77.63,2.42,2.42,0,0,1,.58,1.72v2.31a2.42,2.42,0,0,1-.58,1.72,2.32,2.32,0,0,1-1.77.63h-4.66q-5.84,0-8.15-4.66a15.17,15.17,0,0,1-.82-2.14,8.87,8.87,0,0,1-.35-2.52v-9.66a8.87,8.87,0,0,1,.35-2.52,15.16,15.16,0,0,1,.83-2.14q2.31-4.66,8.16-4.67t8.21,4.67a13.06,13.06,0,0,1,.8,2.14,9.25,9.25,0,0,1,.34,2.52Zm-7-3.53v-1.47c0-1.4-.78-2.17-2.35-2.31q-2.31.17-2.31,2.31v2.65h3.49A1,1,0,0,0,566.9,326.53Z"/><path d="M596.76,334.72a9.25,9.25,0,0,1-.33,2.52,14,14,0,0,1-.8,2.14q-2.36,4.67-8.21,4.66h-4.67a4.82,4.82,0,0,1-3.43-1.15,4.57,4.57,0,0,1-1.25-3.51v-21a2.29,2.29,0,0,1,.63-1.76,2.41,2.41,0,0,1,1.73-.59h2.31a2.4,2.4,0,0,1,1.72.59,2.29,2.29,0,0,1,.63,1.76v17.47c0,.79.38,1.18,1.13,1.18h1.18a2.32,2.32,0,0,0,1.76-.61,2.36,2.36,0,0,0,.59-1.7V318.38a2.1,2.1,0,0,1,2.32-2.35h2.37a2.1,2.1,0,0,1,2.32,2.35Z"/><path d="M619.61,330.06a4.55,4.55,0,0,1-1.24,3.5,4.87,4.87,0,0,1-3.44,1.16h-7q.16,2.31,2.31,2.31h4.66a2.29,2.29,0,0,1,1.76.63,2.43,2.43,0,0,1,.59,1.72v2.31a2.43,2.43,0,0,1-.59,1.72,2.29,2.29,0,0,1-1.76.63h-4.66q-5.85,0-8.15-4.66a15.17,15.17,0,0,1-.82-2.14,8.53,8.53,0,0,1-.36-2.52v-9.66a8.53,8.53,0,0,1,.36-2.52,15.17,15.17,0,0,1,.82-2.14q2.31-4.66,8.17-4.67t8.21,4.67a15.19,15.19,0,0,1,.8,2.14,9.25,9.25,0,0,1,.33,2.52Zm-7-3.53v-1.47c0-1.4-.79-2.17-2.35-2.31q-2.31.17-2.31,2.31v2.65h3.48A1,1,0,0,0,612.6,326.53Z"/><path d="M642.46,341.69a2.4,2.4,0,0,1-.61,1.77,2.38,2.38,0,0,1-1.71.58h-2.37a2.09,2.09,0,0,1-2.32-2.35V325.35a2.36,2.36,0,0,0-.59-1.7,2.39,2.39,0,0,0-1.77-.61h-1.17a1,1,0,0,0-1.14,1.18v17.47a2.33,2.33,0,0,1-.63,1.77,2.42,2.42,0,0,1-1.72.58h-2.31a2.42,2.42,0,0,1-1.72-.58,2.33,2.33,0,0,1-.63-1.77v-21a4.58,4.58,0,0,1,1.24-3.51,4.84,4.84,0,0,1,3.43-1.15h4.67q5.86,0,8.21,4.66a13.41,13.41,0,0,1,.8,2.14,9,9,0,0,1,.34,2.52Z"/><path d="M673.46,342a2.13,2.13,0,0,1-2.36,2.36,9,9,0,0,1-5-1.12,8.2,8.2,0,0,1-3.19-3.55,13.64,13.64,0,0,1-.82-2.14,8.53,8.53,0,0,1-.36-2.52v-9.66h-2.31a2.31,2.31,0,0,1-1.76-.61,2.34,2.34,0,0,1-.59-1.71v-2.37a2.34,2.34,0,0,1,.59-1.71,2.31,2.31,0,0,1,1.76-.61h2.31V316a2.21,2.21,0,0,1,.63-1.73,2.51,2.51,0,0,1,1.72-.56h2.31a2.51,2.51,0,0,1,1.72.56,2.21,2.21,0,0,1,.63,1.73v2.33h2.31a2.35,2.35,0,0,1,1.77.61,2.38,2.38,0,0,1,.59,1.71V323a2.38,2.38,0,0,1-.59,1.71,2.35,2.35,0,0,1-1.77.61h-2.31V335c0,1.4.79,2.17,2.36,2.31a2.17,2.17,0,0,1,2.31,2.35Z"/><path d="M696.35,341.69A2.1,2.1,0,0,1,694,344h-2.36a2.09,2.09,0,0,1-2.33-2.35V325.35c0-1.45-.78-2.22-2.35-2.31a2.24,2.24,0,0,0-1.7.55,2.32,2.32,0,0,0-.61,1.76v16.34a2.33,2.33,0,0,1-.63,1.77,2.44,2.44,0,0,1-1.72.58H680a2.42,2.42,0,0,1-1.72-.58,2.33,2.33,0,0,1-.63-1.77v-28a2.29,2.29,0,0,1,.63-1.76,2.38,2.38,0,0,1,1.72-.59h2.31A2.4,2.4,0,0,1,684,312a2.29,2.29,0,0,1,.63,1.76v2.56A9.82,9.82,0,0,1,687,316q5.85,0,8.22,4.66a14.45,14.45,0,0,1,.8,2.14,9.35,9.35,0,0,1,.34,2.52Z"/><path d="M719.19,335a9.25,9.25,0,0,1-.33,2.52,14.73,14.73,0,0,1-.8,2.14q-2.37,4.66-8.21,4.67t-8.17-4.67a14.71,14.71,0,0,1-.82-2.14,8.53,8.53,0,0,1-.36-2.52v-9.95a8.53,8.53,0,0,1,.36-2.52,15.17,15.17,0,0,1,.82-2.14q2.31-4.66,8.17-4.67t8.21,4.67a15.19,15.19,0,0,1,.8,2.14,9.25,9.25,0,0,1,.33,2.52Zm-7,0v-9.95c0-1.4-.79-2.17-2.35-2.31q-2.31.17-2.31,2.31V335q0,2.14,2.31,2.31C711.39,337.18,712.18,336.41,712.18,335Z"/><path d="M742,339.38a4.56,4.56,0,0,1-1.24,3.51,4.84,4.84,0,0,1-3.43,1.15H732.7q-5.87,0-8.17-4.66a15.17,15.17,0,0,1-.82-2.14,8.53,8.53,0,0,1-.36-2.52V318.38a2.29,2.29,0,0,1,.63-1.76,2.38,2.38,0,0,1,1.72-.59H728a2.38,2.38,0,0,1,1.72.59,2.29,2.29,0,0,1,.63,1.76v16.34a2.39,2.39,0,0,0,.57,1.7,2.26,2.26,0,0,0,1.74.61h1.18a1,1,0,0,0,1.18-1.18V318.38a2.1,2.1,0,0,1,2.32-2.35h2.37a2.1,2.1,0,0,1,2.32,2.35Z"/><path d="M764.89,334.72a9.12,9.12,0,0,1-.34,2.54,13.55,13.55,0,0,1-.8,2.16q-2.37,4.75-8.23,4.62l-4.66-.08a2.47,2.47,0,0,1-1.74-.63,2.26,2.26,0,0,1-.57-1.64v-2.31a2.46,2.46,0,0,1,.57-1.72,2.23,2.23,0,0,1,1.74-.63h4.66a2.09,2.09,0,0,0,2.35-2.31v-.34a10.87,10.87,0,0,1-1.3.25,7,7,0,0,1-1.05.09q-5.84,0-8.15-4.66a13.1,13.1,0,0,1-.77-2.17,10.57,10.57,0,0,1,.78-7.2q2.31-4.67,8.16-4.66h4.68a4.56,4.56,0,0,1,3.51,1.24,4.82,4.82,0,0,1,1.16,3.42Zm-7-9.37v-1.13A1,1,0,0,0,756.7,323h-1.18a2.3,2.3,0,0,0-1.74.61,2.39,2.39,0,0,0-.57,1.7,2.17,2.17,0,0,0,2.31,2.36C757.09,327.56,757.87,326.78,757.87,325.35Z"/><path d="M787.74,341.69a2.1,2.1,0,0,1-2.33,2.35h-2.36a2.09,2.09,0,0,1-2.33-2.35V325.35c0-1.45-.78-2.22-2.35-2.31a2.24,2.24,0,0,0-1.7.55,2.32,2.32,0,0,0-.61,1.76v16.34a2.33,2.33,0,0,1-.63,1.77,2.42,2.42,0,0,1-1.72.58H771.4a2.42,2.42,0,0,1-1.72-.58,2.33,2.33,0,0,1-.63-1.77v-28a2.29,2.29,0,0,1,.63-1.76,2.38,2.38,0,0,1,1.72-.59h2.31a2.38,2.38,0,0,1,1.72.59,2.29,2.29,0,0,1,.63,1.76v2.56a9.88,9.88,0,0,1,2.32-.25q5.85,0,8.22,4.66a14.45,14.45,0,0,1,.8,2.14,9.35,9.35,0,0,1,.34,2.52Z"/><path d="M821.13,334.63a8.83,8.83,0,0,1-.36,2.55,15,15,0,0,1-.83,2.16q-2.33,4.7-8.22,4.7h-4.66a2.24,2.24,0,0,1-1.75-.63,2.46,2.46,0,0,1-.56-1.72v-2.31a2.46,2.46,0,0,1,.56-1.72,2.24,2.24,0,0,1,1.75-.63h4.66a2.24,2.24,0,0,0,1.82-.72,2.53,2.53,0,0,0,.53-1.93,11.26,11.26,0,0,1-1.3.25,7,7,0,0,1-1,.09q-5.84,0-8.15-4.66a15.14,15.14,0,0,1-.82-2.17,8.71,8.71,0,0,1-.36-2.54v-7a2.29,2.29,0,0,1,.63-1.76,2.41,2.41,0,0,1,1.73-.59h2.31a2.4,2.4,0,0,1,1.72.59,2.29,2.29,0,0,1,.63,1.76v7a2.14,2.14,0,0,0,2.31,2.36,2,2,0,0,0,2-1.14,2.29,2.29,0,0,0,.34-1.18v-7a2.1,2.1,0,0,1,2.32-2.35h2.37a2.1,2.1,0,0,1,2.32,2.35Z"/><path d="M844,335a9.25,9.25,0,0,1-.33,2.52,14.73,14.73,0,0,1-.8,2.14q-2.37,4.66-8.21,4.67t-8.17-4.67a14.71,14.71,0,0,1-.82-2.14,8.53,8.53,0,0,1-.36-2.52v-9.95a8.53,8.53,0,0,1,.36-2.52,15.17,15.17,0,0,1,.82-2.14q2.31-4.66,8.17-4.67t8.21,4.67a15.19,15.19,0,0,1,.8,2.14,9.25,9.25,0,0,1,.33,2.52Zm-7,0v-9.95c0-1.4-.79-2.17-2.35-2.31q-2.31.17-2.31,2.31V335q0,2.14,2.31,2.31C836.17,337.18,837,336.41,837,335Z"/><path d="M866.82,339.38a4.56,4.56,0,0,1-1.24,3.51,4.84,4.84,0,0,1-3.43,1.15h-4.67q-5.85,0-8.17-4.66a15.17,15.17,0,0,1-.82-2.14,8.53,8.53,0,0,1-.36-2.52V318.38a2.29,2.29,0,0,1,.63-1.76,2.38,2.38,0,0,1,1.72-.59h2.31a2.38,2.38,0,0,1,1.72.59,2.29,2.29,0,0,1,.63,1.76v16.34a2.39,2.39,0,0,0,.57,1.7,2.27,2.27,0,0,0,1.75.61h1.17a1,1,0,0,0,1.18-1.18V318.38a2.1,2.1,0,0,1,2.32-2.35h2.37a2.1,2.1,0,0,1,2.32,2.35Z"/><path d="M176.85,389.45a2.45,2.45,0,0,1,.55,1.55,2.28,2.28,0,0,1-.92,1.72l-1.81,1.47a2.32,2.32,0,0,1-1.47.55,2.37,2.37,0,0,1-1.81-.93l-5.88-8.14v6.42a2.32,2.32,0,0,1-.63,1.77,2.42,2.42,0,0,1-1.72.58h-2.31a2.42,2.42,0,0,1-1.72-.58,2.32,2.32,0,0,1-.63-1.77v-28a2.29,2.29,0,0,1,.63-1.76,2.38,2.38,0,0,1,1.72-.59h2.31a2.38,2.38,0,0,1,1.72.59,2.29,2.29,0,0,1,.63,1.76v11l5.88-8a2.28,2.28,0,0,1,.84-.71,2.24,2.24,0,0,1,2.44.33l1.81,1.47a2.3,2.3,0,0,1,.92,1.72,2.5,2.5,0,0,1-.55,1.56l-7,9Z"/><path d="M200.29,392.09a2.09,2.09,0,0,1-2.32,2.35H195.6a2.38,2.38,0,0,1-1.71-.58,2.35,2.35,0,0,1-.61-1.77V375.75a2.1,2.1,0,0,0-2.36-2.31h-1.17a1,1,0,0,0-1.14,1.18v17.47a2.32,2.32,0,0,1-.63,1.77,2.42,2.42,0,0,1-1.72.58H184a2.42,2.42,0,0,1-1.72-.58,2.32,2.32,0,0,1-.63-1.77v-21a4.58,4.58,0,0,1,1.24-3.51,4.84,4.84,0,0,1,3.43-1.15h4.67q5.87,0,8.21,4.66a13.41,13.41,0,0,1,.8,2.14,9,9,0,0,1,.34,2.52Z"/><path d="M223.14,385.41a8.87,8.87,0,0,1-.34,2.52,13.18,13.18,0,0,1-.8,2.15q-2.35,4.65-8.21,4.66t-8.16-4.66a15.3,15.3,0,0,1-.83-2.15,8.87,8.87,0,0,1-.35-2.52v-10a8.87,8.87,0,0,1,.35-2.52,15.16,15.16,0,0,1,.83-2.14q2.31-4.67,8.16-4.67T222,370.8a13.06,13.06,0,0,1,.8,2.14,8.87,8.87,0,0,1,.34,2.52Zm-7,0v-10c0-1.4-.78-2.17-2.35-2.31q-2.31.17-2.31,2.31v10q0,2.14,2.31,2.31C215.34,387.58,216.12,386.81,216.12,385.41Z"/><path d="M257.66,385.12a8.87,8.87,0,0,1-.34,2.52,10.84,10.84,0,0,1-.84,2.14q-2.36,4.67-8.16,4.66a10.6,10.6,0,0,1-5.84-1.89,10.51,10.51,0,0,1-5.85,1.89H232a4.8,4.8,0,0,1-3.42-1.15,4.57,4.57,0,0,1-1.25-3.51v-21a2.29,2.29,0,0,1,.63-1.76,2.41,2.41,0,0,1,1.73-.59H232a2.4,2.4,0,0,1,1.72.59,2.29,2.29,0,0,1,.63,1.76v17.47c0,.79.38,1.18,1.13,1.18h1.18a2.1,2.1,0,0,0,2.35-2.31V368.78a2.1,2.1,0,0,1,2.32-2.35h2.37a2.11,2.11,0,0,1,2.33,2.35v16.34c0,1.4.77,2.17,2.33,2.31,1.55-.14,2.33-.91,2.33-2.31V368.78a2.1,2.1,0,0,1,2.32-2.35h2.37a2.1,2.1,0,0,1,2.32,2.35Z"/><path d="M288.66,392.39a2.13,2.13,0,0,1-2.36,2.35,9,9,0,0,1-4.95-1.12,8.23,8.23,0,0,1-3.19-3.54,15.31,15.31,0,0,1-.82-2.15,8.53,8.53,0,0,1-.36-2.52v-9.66h-2.31a2.1,2.1,0,0,1-2.35-2.32v-2.37a2.1,2.1,0,0,1,2.35-2.32H277v-2.33a2.21,2.21,0,0,1,.63-1.73,2.51,2.51,0,0,1,1.72-.56h2.31a2.51,2.51,0,0,1,1.72.56,2.21,2.21,0,0,1,.63,1.73v2.33h2.31a2.33,2.33,0,0,1,1.77.61,2.38,2.38,0,0,1,.59,1.71v2.37a2.38,2.38,0,0,1-.59,1.71,2.33,2.33,0,0,1-1.77.61H284v9.66c0,1.4.79,2.17,2.36,2.31a2.17,2.17,0,0,1,2.31,2.36Z"/><path d="M311.55,392.09a2.1,2.1,0,0,1-2.33,2.35h-2.36a2.09,2.09,0,0,1-2.33-2.35V375.75c0-1.45-.78-2.22-2.35-2.31a2.24,2.24,0,0,0-1.7.55,2.32,2.32,0,0,0-.61,1.76v16.34a2.32,2.32,0,0,1-.63,1.77,2.42,2.42,0,0,1-1.72.58h-2.31a2.42,2.42,0,0,1-1.72-.58,2.32,2.32,0,0,1-.63-1.77v-28a2.29,2.29,0,0,1,.63-1.76,2.38,2.38,0,0,1,1.72-.59h2.31a2.38,2.38,0,0,1,1.72.59,2.29,2.29,0,0,1,.63,1.76v2.56a9.88,9.88,0,0,1,2.32-.25q5.85,0,8.22,4.66a14.45,14.45,0,0,1,.8,2.14,9.35,9.35,0,0,1,.34,2.52Z"/><path d="M322.72,365.21a2.32,2.32,0,0,1-.63,1.77,2.44,2.44,0,0,1-1.72.58h-2.31a2.45,2.45,0,0,1-1.73-.58,2.32,2.32,0,0,1-.63-1.77v-1.09a2.29,2.29,0,0,1,.63-1.76,2.41,2.41,0,0,1,1.73-.59h2.31a2.4,2.4,0,0,1,1.72.59,2.29,2.29,0,0,1,.63,1.76Zm0,26.88a2.32,2.32,0,0,1-.63,1.77,2.44,2.44,0,0,1-1.72.58h-2.31a2.45,2.45,0,0,1-1.73-.58,2.32,2.32,0,0,1-.63-1.77V372.23a2.3,2.3,0,0,1,.63-1.77,2.45,2.45,0,0,1,1.73-.59h2.31a2.44,2.44,0,0,1,1.72.59,2.3,2.3,0,0,1,.63,1.77Z"/><path d="M345.57,385.71a8.76,8.76,0,0,1-8.74,8.73h-7.56a2.29,2.29,0,0,1-1.76-.63,2.38,2.38,0,0,1-.59-1.72v-2.31a2.38,2.38,0,0,1,.59-1.72,2.29,2.29,0,0,1,1.76-.63h7.56a1.92,1.92,0,0,0,1.26-.5,1.79,1.79,0,0,0,0-2.48,1.88,1.88,0,0,0-1.26-.51h-1.18a8.76,8.76,0,0,1,0-17.51h6.43a2.29,2.29,0,0,1,1.76.63,2.38,2.38,0,0,1,.59,1.72v2.31a2.38,2.38,0,0,1-.59,1.72,2.29,2.29,0,0,1-1.76.63h-6.43a1.63,1.63,0,0,0-1.21.51,1.76,1.76,0,0,0,0,2.48,1.66,1.66,0,0,0,1.21.5h1.18a8.38,8.38,0,0,1,6.17,2.56A8.47,8.47,0,0,1,345.57,385.71Z"/><path d="M379,389.78a4.57,4.57,0,0,1-1.25,3.51,4.84,4.84,0,0,1-3.43,1.15h-4.67q-5.85,0-8.17-4.66a10.66,10.66,0,0,1,0-9.32q2.31-4.71,8.15-4.71a7,7,0,0,1,1.05.09c.39.05.82.14,1.3.25v-.34a2.33,2.33,0,0,0-.59-1.7,2.36,2.36,0,0,0-1.76-.61h-4.66a2.24,2.24,0,0,1-1.75-.63,2.51,2.51,0,0,1-.56-1.72v-2.31a2.51,2.51,0,0,1,.56-1.72,2.24,2.24,0,0,1,1.75-.63h4.66q5.87,0,8.23,4.66a15.67,15.67,0,0,1,.8,2.14,9.35,9.35,0,0,1,.34,2.52Zm-7-3.53v-1.13c0-1.43-.78-2.21-2.35-2.35a2.15,2.15,0,0,0-2.31,2.35,2.38,2.38,0,0,0,.57,1.7,2.25,2.25,0,0,0,1.74.61h1.18A1,1,0,0,0,371.94,386.25Z"/><path d="M401.76,385.71a8.74,8.74,0,0,1-8.73,8.73h-7.57a2.29,2.29,0,0,1-1.76-.63,2.43,2.43,0,0,1-.59-1.72v-2.31a2.43,2.43,0,0,1,.59-1.72,2.29,2.29,0,0,1,1.76-.63H393a2,2,0,0,0,1.26-.5,1.79,1.79,0,0,0,0-2.48,1.92,1.92,0,0,0-1.26-.51h-1.18a8.76,8.76,0,0,1,0-17.51h6.43a2.29,2.29,0,0,1,1.76.63,2.43,2.43,0,0,1,.59,1.72v2.31a2.43,2.43,0,0,1-.59,1.72,2.29,2.29,0,0,1-1.76.63h-6.43a1.65,1.65,0,0,0-1.22.51,1.74,1.74,0,0,0,1.22,3H393a8.74,8.74,0,0,1,8.73,8.78Z"/><path d="M424.61,385.71a8.74,8.74,0,0,1-8.74,8.73h-7.56a2.29,2.29,0,0,1-1.76-.63,2.43,2.43,0,0,1-.59-1.72v-2.31a2.43,2.43,0,0,1,.59-1.72,2.29,2.29,0,0,1,1.76-.63h7.56a1.92,1.92,0,0,0,1.26-.5,1.76,1.76,0,0,0,0-2.48,1.88,1.88,0,0,0-1.26-.51H414.7a8.76,8.76,0,0,1,0-17.51h6.42a2.32,2.32,0,0,1,1.77.63,2.42,2.42,0,0,1,.58,1.72v2.31a2.42,2.42,0,0,1-.58,1.72,2.32,2.32,0,0,1-1.77.63H414.7a1.64,1.64,0,0,0-1.22.51,1.74,1.74,0,0,0,1.22,3h1.17a8.74,8.74,0,0,1,8.74,8.78Z"/><path d="M435.82,365.21a2.32,2.32,0,0,1-.63,1.77,2.42,2.42,0,0,1-1.72.58h-2.31a2.42,2.42,0,0,1-1.72-.58,2.32,2.32,0,0,1-.63-1.77v-1.09a2.29,2.29,0,0,1,.63-1.76,2.38,2.38,0,0,1,1.72-.59h2.31a2.38,2.38,0,0,1,1.72.59,2.29,2.29,0,0,1,.63,1.76Zm0,26.88a2.32,2.32,0,0,1-.63,1.77,2.42,2.42,0,0,1-1.72.58h-2.31a2.42,2.42,0,0,1-1.72-.58,2.32,2.32,0,0,1-.63-1.77V372.23a2.3,2.3,0,0,1,.63-1.77,2.43,2.43,0,0,1,1.72-.59h2.31a2.43,2.43,0,0,1,1.72.59,2.3,2.3,0,0,1,.63,1.77Z"/><path d="M458.71,385.12a9.12,9.12,0,0,1-.34,2.54,12.64,12.64,0,0,1-.8,2.16q-2.37,4.76-8.22,4.62l-4.67-.08a2.47,2.47,0,0,1-1.74-.63,2.26,2.26,0,0,1-.57-1.64v-2.31a2.46,2.46,0,0,1,.57-1.72,2.23,2.23,0,0,1,1.74-.63h4.67a2.1,2.1,0,0,0,2.35-2.31v-.34c-.48.12-.91.2-1.3.26a8.71,8.71,0,0,1-1,.08q-5.85,0-8.15-4.66a12.25,12.25,0,0,1-.78-2.17,8.2,8.2,0,0,1,0-5.06,12.5,12.5,0,0,1,.78-2.14q2.31-4.66,8.17-4.66H454a4.56,4.56,0,0,1,3.51,1.24,4.77,4.77,0,0,1,1.16,3.42Zm-7-9.37v-1.13a1,1,0,0,0-1.18-1.18h-1.17a2.31,2.31,0,0,0-1.75.61,2.45,2.45,0,0,0-.56,1.7,2.17,2.17,0,0,0,2.31,2.36C450.91,378,451.7,377.18,451.7,375.75Z"/><path d="M481.56,392.09a2.35,2.35,0,0,1-.61,1.77,2.38,2.38,0,0,1-1.71.58h-2.37a2.38,2.38,0,0,1-1.71-.58,2.35,2.35,0,0,1-.61-1.77V375.75a2.1,2.1,0,0,0-2.36-2.31H471a1,1,0,0,0-1.14,1.18v17.47a2.32,2.32,0,0,1-.63,1.77,2.42,2.42,0,0,1-1.72.58h-2.31a2.42,2.42,0,0,1-1.72-.58,2.32,2.32,0,0,1-.63-1.77v-21a4.58,4.58,0,0,1,1.24-3.51,4.84,4.84,0,0,1,3.43-1.15h4.67q5.87,0,8.21,4.66a13.41,13.41,0,0,1,.8,2.14,9,9,0,0,1,.34,2.52Z"/><path d="M516.08,392.09a2.35,2.35,0,0,1-.61,1.77,2.38,2.38,0,0,1-1.71.58h-2.37a2.38,2.38,0,0,1-1.71-.58,2.35,2.35,0,0,1-.61-1.77V375.75c0-1.4-.78-2.17-2.33-2.31-1.56.14-2.33.91-2.33,2.31v16.34a2.1,2.1,0,0,1-2.33,2.35h-2.36a2.1,2.1,0,0,1-2.33-2.35V375.75a2.09,2.09,0,0,0-2.35-2.31h-1.17a1,1,0,0,0-1.14,1.18v17.47a2.32,2.32,0,0,1-.63,1.77,2.42,2.42,0,0,1-1.72.58h-2.31a2.42,2.42,0,0,1-1.72-.58,2.32,2.32,0,0,1-.63-1.77v-21a4.58,4.58,0,0,1,1.24-3.51,4.84,4.84,0,0,1,3.43-1.15h4.66a10.51,10.51,0,0,1,5.85,1.89,10.61,10.61,0,0,1,5.85-1.89q5.81,0,8.16,4.66a12.55,12.55,0,0,1,.84,2.14,9.36,9.36,0,0,1,.33,2.52Z"/><path d="M538.93,380.46a4.54,4.54,0,0,1-1.24,3.5,4.87,4.87,0,0,1-3.44,1.16h-7c.12,1.54.89,2.31,2.32,2.31h4.66a2.29,2.29,0,0,1,1.76.63,2.43,2.43,0,0,1,.59,1.72v2.31a2.43,2.43,0,0,1-.59,1.72,2.29,2.29,0,0,1-1.76.63h-4.66q-5.85,0-8.15-4.66a15.17,15.17,0,0,1-.82-2.14,8.53,8.53,0,0,1-.36-2.52v-9.66a8.53,8.53,0,0,1,.36-2.52,15.17,15.17,0,0,1,.82-2.14q2.31-4.67,8.17-4.67t8.2,4.67a13.06,13.06,0,0,1,.8,2.14,8.87,8.87,0,0,1,.34,2.52Zm-7-3.53v-1.47c0-1.4-.79-2.17-2.35-2.31-1.54.11-2.32.88-2.32,2.31v2.65h3.49A1,1,0,0,0,531.92,376.93Z"/><path d="M561.78,392.09a2.09,2.09,0,0,1-2.32,2.35h-2.37a2.38,2.38,0,0,1-1.71-.58,2.35,2.35,0,0,1-.62-1.77V375.75a2.09,2.09,0,0,0-2.35-2.31h-1.17a1,1,0,0,0-1.14,1.18v17.47a2.32,2.32,0,0,1-.63,1.77,2.42,2.42,0,0,1-1.72.58h-2.31a2.42,2.42,0,0,1-1.72-.58,2.32,2.32,0,0,1-.63-1.77v-21a4.58,4.58,0,0,1,1.24-3.51,4.84,4.84,0,0,1,3.43-1.15h4.67q5.85,0,8.21,4.66a13.41,13.41,0,0,1,.8,2.14,9,9,0,0,1,.34,2.52Z"/><path d="M582.27,392.39a2.12,2.12,0,0,1-2.35,2.35,9,9,0,0,1-4.95-1.12,8.31,8.31,0,0,1-3.2-3.54,15.32,15.32,0,0,1-.81-2.15,8.53,8.53,0,0,1-.36-2.52v-9.66h-2.31a2.35,2.35,0,0,1-1.77-.61,2.38,2.38,0,0,1-.58-1.71v-2.37a2.38,2.38,0,0,1,.58-1.71,2.35,2.35,0,0,1,1.77-.61h2.31v-2.33a2.21,2.21,0,0,1,.63-1.73,2.51,2.51,0,0,1,1.72-.56h2.31a2.51,2.51,0,0,1,1.72.56,2.21,2.21,0,0,1,.63,1.73v2.33h2.31a2.35,2.35,0,0,1,1.77.61,2.38,2.38,0,0,1,.58,1.71v2.37a2.38,2.38,0,0,1-.58,1.71,2.35,2.35,0,0,1-1.77.61h-2.31v9.66c0,1.4.79,2.17,2.35,2.31a2.17,2.17,0,0,1,2.31,2.36Z"/><path d="M615.67,385.41a9.25,9.25,0,0,1-.34,2.52,14.18,14.18,0,0,1-.8,2.15q-2.35,4.65-8.21,4.66t-8.17-4.66a15.31,15.31,0,0,1-.82-2.15,8.53,8.53,0,0,1-.36-2.52v-9.66a8.62,8.62,0,0,1,.36-2.52,15.65,15.65,0,0,1,.82-2.14q2.31-4.66,8.15-4.66a8.42,8.42,0,0,1,1.05.08c.39.06.82.14,1.3.26v-2.65a2.1,2.1,0,0,1,2.32-2.35h2.37a2.11,2.11,0,0,1,2.33,2.35Zm-7,0v-9.66c0-1.4-.78-2.17-2.35-2.31q-2.31.18-2.31,2.31v9.66q0,2.14,2.31,2.31C607.87,387.58,608.65,386.81,608.65,385.41Z"/><path d="M626.84,365.21a2.32,2.32,0,0,1-.63,1.77,2.45,2.45,0,0,1-1.73.58h-2.31a2.44,2.44,0,0,1-1.72-.58,2.32,2.32,0,0,1-.63-1.77v-1.09a2.29,2.29,0,0,1,.63-1.76,2.4,2.4,0,0,1,1.72-.59h2.31a2.41,2.41,0,0,1,1.73.59,2.29,2.29,0,0,1,.63,1.76Zm0,26.88a2.32,2.32,0,0,1-.63,1.77,2.45,2.45,0,0,1-1.73.58h-2.31a2.44,2.44,0,0,1-1.72-.58,2.32,2.32,0,0,1-.63-1.77V372.23a2.3,2.3,0,0,1,.63-1.77,2.44,2.44,0,0,1,1.72-.59h2.31a2.45,2.45,0,0,1,1.73.59,2.3,2.3,0,0,1,.63,1.77Z"/><path d="M649.73,385.41a9.25,9.25,0,0,1-.34,2.52,13.18,13.18,0,0,1-.8,2.15q-2.36,4.65-8.21,4.66t-8.17-4.66a16.66,16.66,0,0,1-.82-2.15,8.87,8.87,0,0,1-.35-2.52v-9.66a9,9,0,0,1,.35-2.52,15.65,15.65,0,0,1,.82-2.14q2.31-4.66,8.15-4.66a8.42,8.42,0,0,1,1,.08c.39.06.83.14,1.3.26v-2.65a2.1,2.1,0,0,1,2.33-2.35h2.36a2.11,2.11,0,0,1,2.33,2.35Zm-7,0v-9.66c0-1.4-.78-2.17-2.35-2.31q-2.31.18-2.31,2.31v9.66q0,2.14,2.31,2.31C641.93,387.58,642.71,386.81,642.71,385.41Z"/><path d="M683.07,392.09a2.35,2.35,0,0,1-.61,1.77,2.38,2.38,0,0,1-1.71.58h-2.37a2.38,2.38,0,0,1-1.71-.58,2.35,2.35,0,0,1-.61-1.77V375.75a2.1,2.1,0,0,0-2.35-2.31h-1.18c-.75,0-1.13.4-1.13,1.18v17.47a2.32,2.32,0,0,1-.63,1.77,2.44,2.44,0,0,1-1.72.58h-2.31a2.45,2.45,0,0,1-1.73-.58,2.32,2.32,0,0,1-.63-1.77v-21a4.61,4.61,0,0,1,1.24-3.51,4.87,4.87,0,0,1,3.44-1.15h4.67q5.85,0,8.21,4.66a14.45,14.45,0,0,1,.8,2.14,9.36,9.36,0,0,1,.33,2.52Z"/><path d="M705.92,385.41a8.87,8.87,0,0,1-.34,2.52,14.18,14.18,0,0,1-.79,2.15q-2.37,4.65-8.21,4.66t-8.17-4.66a15.31,15.31,0,0,1-.82-2.15,8.53,8.53,0,0,1-.36-2.52v-10a8.53,8.53,0,0,1,.36-2.52,15.17,15.17,0,0,1,.82-2.14q2.31-4.67,8.17-4.67t8.21,4.67a14,14,0,0,1,.79,2.14,8.87,8.87,0,0,1,.34,2.52Zm-7,0v-10c0-1.4-.79-2.17-2.35-2.31q-2.31.17-2.31,2.31v10q0,2.14,2.31,2.31C698.12,387.58,698.91,386.81,698.91,385.41Z"/><path d="M726.42,392.39a2.13,2.13,0,0,1-2.35,2.35,9.05,9.05,0,0,1-5-1.12,8.23,8.23,0,0,1-3.19-3.54,15.31,15.31,0,0,1-.82-2.15,8.53,8.53,0,0,1-.36-2.52v-9.66h-2.31a2.1,2.1,0,0,1-2.35-2.32v-2.37a2.1,2.1,0,0,1,2.35-2.32h2.31v-2.33a2.21,2.21,0,0,1,.63-1.73,2.51,2.51,0,0,1,1.72-.56h2.31a2.49,2.49,0,0,1,1.72.56,2.21,2.21,0,0,1,.63,1.73v2.33h2.32a2.32,2.32,0,0,1,1.76.61,2.38,2.38,0,0,1,.59,1.71v2.37a2.38,2.38,0,0,1-.59,1.71,2.32,2.32,0,0,1-1.76.61h-2.32v9.66c0,1.4.79,2.17,2.36,2.31a2.17,2.17,0,0,1,2.31,2.36Z"/><path d="M755.1,371.09a2.51,2.51,0,0,1-.56,1.72,2.24,2.24,0,0,1-1.75.63h-2.35a2.3,2.3,0,0,0-1.74.61,2.41,2.41,0,0,0-.57,1.7v16.38a2.24,2.24,0,0,1-.63,1.75,2.51,2.51,0,0,1-1.72.56h-2.31a2.51,2.51,0,0,1-1.72-.56,2.24,2.24,0,0,1-.63-1.75V375.75a9,9,0,0,1,.35-2.52,15.65,15.65,0,0,1,.82-2.14q2.31-4.66,8.15-4.66h2.35a2.24,2.24,0,0,1,1.75.63,2.51,2.51,0,0,1,.56,1.72Z"/><path d="M778,380.46a4.54,4.54,0,0,1-1.24,3.5,4.87,4.87,0,0,1-3.44,1.16h-7q.16,2.31,2.31,2.31h4.66a2.29,2.29,0,0,1,1.76.63,2.43,2.43,0,0,1,.59,1.72v2.31a2.43,2.43,0,0,1-.59,1.72,2.29,2.29,0,0,1-1.76.63h-4.66q-5.85,0-8.15-4.66a15.17,15.17,0,0,1-.82-2.14,8.53,8.53,0,0,1-.36-2.52v-9.66a8.53,8.53,0,0,1,.36-2.52,15.17,15.17,0,0,1,.82-2.14q2.31-4.67,8.17-4.67t8.21,4.67a15.19,15.19,0,0,1,.8,2.14,9.25,9.25,0,0,1,.33,2.52Zm-7-3.53v-1.47c0-1.4-.79-2.17-2.35-2.31q-2.31.17-2.31,2.31v2.65h3.48A1,1,0,0,0,771,376.93Z"/><path d="M800.84,375.46v2.65a8.51,8.51,0,0,1-.36,2.51,15.31,15.31,0,0,1-.82,2.15q-2.35,4.67-8.18,4.66a10.89,10.89,0,0,1-2.32-.34l0,5a2.27,2.27,0,0,1-.61,1.75,2.42,2.42,0,0,1-1.7.56H784.5a2.51,2.51,0,0,1-1.72-.56,2.24,2.24,0,0,1-.63-1.75V375.46a8.53,8.53,0,0,1,.36-2.52,15.17,15.17,0,0,1,.82-2.14q2.31-4.67,8.17-4.67t8.2,4.67a13.06,13.06,0,0,1,.8,2.14A8.87,8.87,0,0,1,800.84,375.46Zm-7,2.65v-2.65c0-1.4-.79-2.17-2.36-2.31q-2.31.17-2.31,2.31v2.65a2.16,2.16,0,0,0,2.31,2.35C793,380.32,793.83,379.53,793.83,378.11Z"/><path d="M819,371.09a2.51,2.51,0,0,1-.56,1.72,2.24,2.24,0,0,1-1.75.63h-2.35a2.3,2.3,0,0,0-1.74.61,2.41,2.41,0,0,0-.57,1.7v16.38a2.24,2.24,0,0,1-.63,1.75,2.51,2.51,0,0,1-1.72.56h-2.31a2.51,2.51,0,0,1-1.72-.56,2.24,2.24,0,0,1-.63-1.75V375.75a8.62,8.62,0,0,1,.36-2.52,15.66,15.66,0,0,1,.81-2.14q2.31-4.66,8.15-4.66h2.35a2.24,2.24,0,0,1,1.75.63,2.51,2.51,0,0,1,.56,1.72Z"/><path d="M841.87,380.46a4.54,4.54,0,0,1-1.24,3.5,4.85,4.85,0,0,1-3.44,1.16h-7q.16,2.31,2.31,2.31h4.66a2.29,2.29,0,0,1,1.76.63,2.38,2.38,0,0,1,.59,1.72v2.31a2.38,2.38,0,0,1-.59,1.72,2.29,2.29,0,0,1-1.76.63h-4.66q-5.84,0-8.15-4.66a15.17,15.17,0,0,1-.82-2.14,8.53,8.53,0,0,1-.36-2.52v-9.66a8.53,8.53,0,0,1,.36-2.52,15.17,15.17,0,0,1,.82-2.14q2.32-4.67,8.17-4.67t8.21,4.67a15.19,15.19,0,0,1,.8,2.14,9.25,9.25,0,0,1,.33,2.52Zm-7-3.53v-1.47c0-1.4-.78-2.17-2.35-2.31q-2.31.17-2.31,2.31v2.65h3.48A1,1,0,0,0,834.86,376.93Z"/><path d="M864.68,385.71a8.74,8.74,0,0,1-8.74,8.73h-7.56a2.29,2.29,0,0,1-1.76-.63,2.43,2.43,0,0,1-.59-1.72v-2.31a2.43,2.43,0,0,1,.59-1.72,2.29,2.29,0,0,1,1.76-.63h7.56a1.92,1.92,0,0,0,1.26-.5,1.76,1.76,0,0,0,0-2.48,1.88,1.88,0,0,0-1.26-.51h-1.17a8.76,8.76,0,0,1,0-17.51h6.42a2.32,2.32,0,0,1,1.77.63,2.42,2.42,0,0,1,.58,1.72v2.31a2.42,2.42,0,0,1-.58,1.72,2.32,2.32,0,0,1-1.77.63h-6.42a1.64,1.64,0,0,0-1.22.51,1.74,1.74,0,0,0,1.22,3h1.17a8.74,8.74,0,0,1,8.74,8.78Z"/><path d="M887.57,380.46a4.58,4.58,0,0,1-1.24,3.5,4.87,4.87,0,0,1-3.44,1.16h-7c.11,1.54.89,2.31,2.31,2.31h4.67a2.29,2.29,0,0,1,1.76.63,2.43,2.43,0,0,1,.59,1.72v2.31a2.43,2.43,0,0,1-.59,1.72,2.29,2.29,0,0,1-1.76.63H878.2q-5.84,0-8.15-4.66a15.18,15.18,0,0,1-.81-2.14,8.53,8.53,0,0,1-.36-2.52v-9.66a8.53,8.53,0,0,1,.36-2.52,14,14,0,0,1,.82-2.14q2.31-4.67,8.16-4.67t8.21,4.67a13.06,13.06,0,0,1,.8,2.14,8.87,8.87,0,0,1,.34,2.52Zm-7-3.53v-1.47c0-1.4-.78-2.17-2.35-2.31q-2.31.17-2.31,2.31v2.65h3.49A1,1,0,0,0,880.55,376.93Z"/><path d="M910.42,392.09a2.1,2.1,0,0,1-2.33,2.35h-2.36a2.09,2.09,0,0,1-2.33-2.35V375.75a2.33,2.33,0,0,0-.59-1.7,2.36,2.36,0,0,0-1.76-.61h-1.17a1,1,0,0,0-1.14,1.18v17.47a2.32,2.32,0,0,1-.63,1.77,2.42,2.42,0,0,1-1.72.58h-2.31a2.42,2.42,0,0,1-1.72-.58,2.32,2.32,0,0,1-.63-1.77v-21a4.58,4.58,0,0,1,1.24-3.51,4.84,4.84,0,0,1,3.43-1.15h4.67q5.85,0,8.21,4.66a13.41,13.41,0,0,1,.8,2.14,9.35,9.35,0,0,1,.34,2.52Z"/><path d="M930.91,392.39a2.12,2.12,0,0,1-2.35,2.35,9.09,9.09,0,0,1-5-1.12,8.36,8.36,0,0,1-3.19-3.54,15.31,15.31,0,0,1-.82-2.15,8.87,8.87,0,0,1-.35-2.52v-9.66h-2.31a2.33,2.33,0,0,1-1.77-.61,2.38,2.38,0,0,1-.59-1.71v-2.37a2.38,2.38,0,0,1,.59-1.71,2.33,2.33,0,0,1,1.77-.61h2.31v-2.33a2.21,2.21,0,0,1,.63-1.73,2.51,2.51,0,0,1,1.72-.56h2.31a2.51,2.51,0,0,1,1.72.56,2.21,2.21,0,0,1,.63,1.73v2.33h2.31a2.1,2.1,0,0,1,2.35,2.32v2.37a2.1,2.1,0,0,1-2.35,2.32h-2.31v9.66c0,1.4.78,2.17,2.35,2.31a2.17,2.17,0,0,1,2.31,2.36Z"/><path d="M177.23,435.43a8.83,8.83,0,0,1-.36,2.55,15,15,0,0,1-.82,2.16q-2.33,4.71-8.23,4.7h-4.66a2.23,2.23,0,0,1-1.74-.63,2.46,2.46,0,0,1-.57-1.72v-2.31a2.46,2.46,0,0,1,.57-1.72,2.23,2.23,0,0,1,1.74-.63h4.66a2.27,2.27,0,0,0,1.83-.71,2.61,2.61,0,0,0,.53-1.94c-.48.11-.91.2-1.31.25a7,7,0,0,1-1.05.09q-5.83,0-8.14-4.66a14,14,0,0,1-.82-2.17,8.71,8.71,0,0,1-.36-2.54v-7a2.29,2.29,0,0,1,.63-1.76,2.43,2.43,0,0,1,1.72-.59h2.31a2.43,2.43,0,0,1,1.72.59,2.29,2.29,0,0,1,.63,1.76v7a2.13,2.13,0,0,0,2.31,2.35,2,2,0,0,0,2-1.13,2.38,2.38,0,0,0,.34-1.18v-7a2.32,2.32,0,0,1,.61-1.76,2.38,2.38,0,0,1,1.71-.59h2.37a2.38,2.38,0,0,1,1.71.59,2.32,2.32,0,0,1,.61,1.76Z"/><path d="M200.08,435.81a8.87,8.87,0,0,1-.34,2.52,12.73,12.73,0,0,1-.8,2.14q-2.35,4.66-8.21,4.67t-8.16-4.67a14.71,14.71,0,0,1-.82-2.14,8.53,8.53,0,0,1-.36-2.52v-9.95a8.53,8.53,0,0,1,.36-2.52,15.17,15.17,0,0,1,.82-2.14q2.31-4.67,8.16-4.66t8.21,4.66a13.06,13.06,0,0,1,.8,2.14,8.87,8.87,0,0,1,.34,2.52Zm-7,0v-9.95c0-1.4-.79-2.17-2.36-2.31q-2.31.17-2.31,2.31v9.95q0,2.15,2.31,2.31C192.28,438,193.07,437.21,193.07,435.81Z"/><path d="M222.93,440.18a4.57,4.57,0,0,1-1.25,3.51,4.82,4.82,0,0,1-3.43,1.15h-4.67q-5.85,0-8.16-4.66a15.16,15.16,0,0,1-.83-2.14,8.92,8.92,0,0,1-.35-2.52V419.18a2.29,2.29,0,0,1,.63-1.76,2.43,2.43,0,0,1,1.72-.59h2.31a2.43,2.43,0,0,1,1.72.59,2.29,2.29,0,0,1,.63,1.76v16.34a2.39,2.39,0,0,0,.57,1.7,2.26,2.26,0,0,0,1.74.61h1.18a1,1,0,0,0,1.17-1.18V419.18a2.33,2.33,0,0,1,.62-1.76,2.35,2.35,0,0,1,1.71-.59h2.36a2.35,2.35,0,0,1,1.71.59,2.33,2.33,0,0,1,.62,1.76Z"/><path d="M241.07,421.49a2.46,2.46,0,0,1-.57,1.72,2.22,2.22,0,0,1-1.74.63h-2.35a2.27,2.27,0,0,0-1.74.61,2.39,2.39,0,0,0-.57,1.7v16.38a2.24,2.24,0,0,1-.63,1.75,2.52,2.52,0,0,1-1.72.56h-2.31a2.53,2.53,0,0,1-1.73-.56,2.24,2.24,0,0,1-.63-1.75V426.15a8.62,8.62,0,0,1,.36-2.52,15.17,15.17,0,0,1,.82-2.14q2.31-4.67,8.15-4.66h2.35a2.22,2.22,0,0,1,1.74.63,2.46,2.46,0,0,1,.57,1.72Z"/><path d="M274.46,435.81a8.53,8.53,0,0,1-.36,2.52,13.64,13.64,0,0,1-.82,2.14q-2.34,4.66-8.14,4.67T257,440.47a14.71,14.71,0,0,1-.82-2.14,8.53,8.53,0,0,1-.36-2.52V414.48a2.24,2.24,0,0,1,.63-1.75,2.51,2.51,0,0,1,1.72-.56h2.35a2.45,2.45,0,0,1,1.68.56,2.24,2.24,0,0,1,.63,1.75v2.6a10.05,10.05,0,0,1,2.36-.25q5.79,0,8.14,4.66a14,14,0,0,1,.82,2.14,8.62,8.62,0,0,1,.36,2.52Zm-7,0v-9.66q0-2.17-2.31-2.31a2.35,2.35,0,0,0-1.73.55,2.29,2.29,0,0,0-.63,1.76v9.66c0,1.4.79,2.17,2.36,2.31Q267.45,438,267.45,435.81Z"/><path d="M297.35,430.86a4.55,4.55,0,0,1-1.24,3.5,4.87,4.87,0,0,1-3.44,1.16h-7q.18,2.31,2.31,2.31h4.67a2.29,2.29,0,0,1,1.76.63,2.43,2.43,0,0,1,.59,1.72v2.31a2.43,2.43,0,0,1-.59,1.72,2.29,2.29,0,0,1-1.76.63H288q-5.84,0-8.14-4.66A14,14,0,0,1,279,438a8.58,8.58,0,0,1-.36-2.52v-9.66a8.53,8.53,0,0,1,.36-2.52,15.17,15.17,0,0,1,.82-2.14q2.31-4.67,8.16-4.66t8.21,4.66a13.06,13.06,0,0,1,.8,2.14,8.87,8.87,0,0,1,.34,2.52Zm-7-3.53v-1.47c0-1.4-.79-2.17-2.36-2.31q-2.31.17-2.31,2.31v2.64h3.49A1,1,0,0,0,290.34,427.33Z"/><path d="M320.16,436.11a8.76,8.76,0,0,1-8.74,8.73h-7.56a2.29,2.29,0,0,1-1.76-.63,2.38,2.38,0,0,1-.59-1.72v-2.31a2.38,2.38,0,0,1,.59-1.72,2.29,2.29,0,0,1,1.76-.63h7.56a1.92,1.92,0,0,0,1.26-.5,1.79,1.79,0,0,0,0-2.48,1.88,1.88,0,0,0-1.26-.51h-1.18a8.76,8.76,0,0,1,0-17.51h6.43a2.29,2.29,0,0,1,1.76.63,2.38,2.38,0,0,1,.59,1.72v2.31a2.38,2.38,0,0,1-.59,1.72,2.29,2.29,0,0,1-1.76.63h-6.43a1.63,1.63,0,0,0-1.21.51,1.76,1.76,0,0,0,0,2.48,1.66,1.66,0,0,0,1.21.5h1.18a8.38,8.38,0,0,1,6.17,2.56A8.47,8.47,0,0,1,320.16,436.11Z"/><path d="M340.69,442.79a2.12,2.12,0,0,1-2.35,2.35,9,9,0,0,1-4.95-1.12,8.28,8.28,0,0,1-3.2-3.55,14.71,14.71,0,0,1-.82-2.14,8.87,8.87,0,0,1-.35-2.52v-9.66h-2.31a2.33,2.33,0,0,1-1.77-.61,2.38,2.38,0,0,1-.58-1.71v-2.37a2.38,2.38,0,0,1,.58-1.71,2.33,2.33,0,0,1,1.77-.61H329v-2.33a2.21,2.21,0,0,1,.63-1.73,2.51,2.51,0,0,1,1.72-.56h2.31a2.51,2.51,0,0,1,1.72.56,2.21,2.21,0,0,1,.63,1.73v2.33h2.31a2.09,2.09,0,0,1,2.35,2.32v2.37a2.09,2.09,0,0,1-2.35,2.32H336v9.66c0,1.4.79,2.17,2.35,2.31a2.16,2.16,0,0,1,2.31,2.35Z"/><path d="M385.76,435.52a8.92,8.92,0,0,1-.34,2.52,10.84,10.84,0,0,1-.84,2.14q-2.35,4.67-8.16,4.66a10.6,10.6,0,0,1-5.84-1.89,10.51,10.51,0,0,1-5.85,1.89h-4.67a4.84,4.84,0,0,1-3.43-1.15,4.6,4.6,0,0,1-1.24-3.51v-21a2.29,2.29,0,0,1,.63-1.76,2.45,2.45,0,0,1,1.73-.59h2.31a2.44,2.44,0,0,1,1.72.59,2.29,2.29,0,0,1,.63,1.76v17.47c0,.79.38,1.18,1.13,1.18h1.18a2.32,2.32,0,0,0,1.76-.61,2.36,2.36,0,0,0,.59-1.7V419.18a2.32,2.32,0,0,1,.61-1.76,2.38,2.38,0,0,1,1.71-.59h2.37a2.38,2.38,0,0,1,1.71.59,2.32,2.32,0,0,1,.61,1.76v16.34q0,2.1,2.34,2.31c1.55-.14,2.33-.91,2.33-2.31V419.18a2.32,2.32,0,0,1,.61-1.76,2.38,2.38,0,0,1,1.71-.59h2.37a2.1,2.1,0,0,1,2.32,2.35Z"/><path d="M408.61,435.81a8.87,8.87,0,0,1-.34,2.52,12.73,12.73,0,0,1-.8,2.14q-2.36,4.66-8.21,4.67t-8.16-4.67a14.7,14.7,0,0,1-.83-2.14,8.87,8.87,0,0,1-.35-2.52v-9.95a8.87,8.87,0,0,1,.35-2.52,15.16,15.16,0,0,1,.83-2.14q2.31-4.67,8.16-4.66t8.21,4.66a13.06,13.06,0,0,1,.8,2.14,8.87,8.87,0,0,1,.34,2.52Zm-7,0v-9.95c0-1.4-.78-2.17-2.35-2.31q-2.31.17-2.31,2.31v9.95q0,2.15,2.31,2.31C400.81,438,401.59,437.21,401.59,435.81Z"/><path d="M426.75,421.49a2.46,2.46,0,0,1-.57,1.72,2.22,2.22,0,0,1-1.74.63h-2.35a2.27,2.27,0,0,0-1.74.61,2.39,2.39,0,0,0-.57,1.7v16.38a2.24,2.24,0,0,1-.63,1.75,2.52,2.52,0,0,1-1.72.56h-2.31a2.53,2.53,0,0,1-1.73-.56,2.24,2.24,0,0,1-.63-1.75V426.15a8.62,8.62,0,0,1,.36-2.52,15.17,15.17,0,0,1,.82-2.14q2.31-4.67,8.15-4.66h2.35a2.22,2.22,0,0,1,1.74.63,2.46,2.46,0,0,1,.57,1.72Z"/><path d="M449.3,439.84a2.5,2.5,0,0,1,.55,1.56,2.3,2.3,0,0,1-.92,1.72l-1.81,1.47a2.32,2.32,0,0,1-1.47.55,2.37,2.37,0,0,1-1.81-.93L438,436.06v6.43a2.28,2.28,0,0,1-.63,1.76,2.38,2.38,0,0,1-1.72.59H433.3a2.38,2.38,0,0,1-1.72-.59,2.28,2.28,0,0,1-.63-1.76v-28a2.33,2.33,0,0,1,.63-1.77,2.42,2.42,0,0,1,1.72-.58h2.31a2.42,2.42,0,0,1,1.72.58,2.33,2.33,0,0,1,.63,1.77v11l5.88-8a2.19,2.19,0,0,1,.84-.71,2.3,2.3,0,0,1,2.44.33l1.81,1.47a2.3,2.3,0,0,1,.92,1.72,2.5,2.5,0,0,1-.55,1.56l-7.05,9Z"/><path d="M461.06,444.84a2.24,2.24,0,0,1-.63,1.75,2.51,2.51,0,0,1-1.72.56H456.4a2.51,2.51,0,0,1-1.72-.56,2.24,2.24,0,0,1-.63-1.75v-4.66a2.29,2.29,0,0,1,.63-1.76,2.43,2.43,0,0,1,1.72-.59h2.31a2.43,2.43,0,0,1,1.72.59,2.29,2.29,0,0,1,.63,1.76Z"/><path d="M494.45,440.18a4.56,4.56,0,0,1-1.24,3.51,4.84,4.84,0,0,1-3.43,1.15h-4.67q-5.85,0-8.17-4.66a12.2,12.2,0,0,1-.78-2.14,8.14,8.14,0,0,1,0-5,11.91,11.91,0,0,1,.78-2.14q2.31-4.71,8.15-4.71a7,7,0,0,1,1.05.09c.39.05.82.14,1.3.25v-.34a2.1,2.1,0,0,0-2.35-2.31h-4.66a2.24,2.24,0,0,1-1.75-.63,2.46,2.46,0,0,1-.56-1.72v-2.31a2.46,2.46,0,0,1,.56-1.72,2.24,2.24,0,0,1,1.75-.63h4.66c3.9,0,6.65,1.55,8.22,4.66a14,14,0,0,1,.81,2.14,9.36,9.36,0,0,1,.33,2.52Zm-7-3.53v-1.13c0-1.43-.78-2.21-2.35-2.35a2.15,2.15,0,0,0-2.31,2.35,2.44,2.44,0,0,0,.56,1.7,2.27,2.27,0,0,0,1.75.61h1.17A1,1,0,0,0,487.44,436.65Z"/><path d="M517.3,435.81a13.18,13.18,0,0,1-1.13,4.66q-2.37,4.66-8.21,4.67t-8.17-4.67a14.71,14.71,0,0,1-.82-2.14,8.53,8.53,0,0,1-.36-2.52v-9.95a8.53,8.53,0,0,1,.36-2.52,15.17,15.17,0,0,1,.82-2.14q2.31-4.67,8.17-4.66t8.21,4.66a13.51,13.51,0,0,1,1.13,4.66c-.14,1.57-.91,2.35-2.32,2.35h-2.37c-1.46,0-2.24-.78-2.32-2.35a2.19,2.19,0,0,0-2.35-2.31c-1.54.11-2.32.88-2.32,2.31v9.95c0,1.43.78,2.2,2.32,2.31a2.19,2.19,0,0,0,2.35-2.31c.08-1.56.86-2.35,2.32-2.35H515C516.39,433.46,517.16,434.25,517.3,435.81Z"/><path d="M537.8,442.79a2.13,2.13,0,0,1-2.35,2.35,9.05,9.05,0,0,1-5-1.12,8.2,8.2,0,0,1-3.19-3.55,14.71,14.71,0,0,1-.82-2.14,8.53,8.53,0,0,1-.36-2.52v-9.66h-2.31a2.1,2.1,0,0,1-2.35-2.32v-2.37a2.1,2.1,0,0,1,2.35-2.32h2.31v-2.33a2.21,2.21,0,0,1,.63-1.73,2.51,2.51,0,0,1,1.72-.56h2.31a2.51,2.51,0,0,1,1.72.56,2.21,2.21,0,0,1,.63,1.73v2.33h2.32a2.32,2.32,0,0,1,1.76.61,2.38,2.38,0,0,1,.59,1.71v2.37a2.38,2.38,0,0,1-.59,1.71,2.32,2.32,0,0,1-1.76.61h-2.32v9.66c0,1.4.79,2.17,2.36,2.31a2.16,2.16,0,0,1,2.31,2.35Z"/><path d="M560.69,440.18a4.57,4.57,0,0,1-1.25,3.51,4.82,4.82,0,0,1-3.43,1.15h-4.67q-5.85,0-8.16-4.66a15.16,15.16,0,0,1-.83-2.14,8.92,8.92,0,0,1-.35-2.52V419.18a2.29,2.29,0,0,1,.63-1.76,2.43,2.43,0,0,1,1.72-.59h2.31a2.43,2.43,0,0,1,1.72.59,2.29,2.29,0,0,1,.63,1.76v16.34a2.39,2.39,0,0,0,.57,1.7,2.26,2.26,0,0,0,1.74.61h1.18a1,1,0,0,0,1.17-1.18V419.18a2.33,2.33,0,0,1,.62-1.76,2.35,2.35,0,0,1,1.71-.59h2.36a2.35,2.35,0,0,1,1.71.59,2.33,2.33,0,0,1,.62,1.76Z"/><path d="M583.54,440.18a4.57,4.57,0,0,1-1.25,3.51,4.84,4.84,0,0,1-3.43,1.15h-4.67q-5.85,0-8.17-4.66a12.2,12.2,0,0,1-.78-2.14,8.14,8.14,0,0,1,0-5,11.91,11.91,0,0,1,.78-2.14q2.31-4.71,8.15-4.71a7,7,0,0,1,1.05.09c.39.05.82.14,1.3.25v-.34a2.1,2.1,0,0,0-2.35-2.31h-4.66a2.24,2.24,0,0,1-1.75-.63,2.51,2.51,0,0,1-.56-1.72v-2.31a2.51,2.51,0,0,1,.56-1.72,2.24,2.24,0,0,1,1.75-.63h4.66q5.87,0,8.22,4.66a14,14,0,0,1,.81,2.14,9.35,9.35,0,0,1,.34,2.52Zm-7-3.53v-1.13c0-1.43-.78-2.21-2.35-2.35a2.15,2.15,0,0,0-2.31,2.35,2.39,2.39,0,0,0,.57,1.7,2.23,2.23,0,0,0,1.74.61h1.17A1,1,0,0,0,576.52,436.65Z"/><path d="M599.37,442.79a2.13,2.13,0,0,1-2.35,2.35,9.07,9.07,0,0,1-5-1.12,8.26,8.26,0,0,1-3.19-3.55,14.71,14.71,0,0,1-.82-2.14,8.53,8.53,0,0,1-.36-2.52V414.52a2.33,2.33,0,0,1,.63-1.77,2.44,2.44,0,0,1,1.72-.58h2.31a2.45,2.45,0,0,1,1.73.58,2.33,2.33,0,0,1,.63,1.77v21.29c0,1.4.78,2.17,2.35,2.31a2.16,2.16,0,0,1,2.31,2.35Z"/><path d="M615.24,442.79a2.12,2.12,0,0,1-2.35,2.35,9,9,0,0,1-4.95-1.12,8.28,8.28,0,0,1-3.2-3.55,14.72,14.72,0,0,1-.81-2.14,8.53,8.53,0,0,1-.36-2.52V414.52a2.33,2.33,0,0,1,.63-1.77,2.42,2.42,0,0,1,1.72-.58h2.31a2.42,2.42,0,0,1,1.72.58,2.33,2.33,0,0,1,.63,1.77v21.29c0,1.4.79,2.17,2.35,2.31a2.16,2.16,0,0,1,2.31,2.35Z"/><path d="M638.18,435.43a8.83,8.83,0,0,1-.36,2.55,15,15,0,0,1-.83,2.16q-2.32,4.71-8.22,4.7h-4.66a2.24,2.24,0,0,1-1.75-.63,2.51,2.51,0,0,1-.56-1.72v-2.31a2.51,2.51,0,0,1,.56-1.72,2.24,2.24,0,0,1,1.75-.63h4.66a2.3,2.3,0,0,0,1.83-.71,2.61,2.61,0,0,0,.52-1.94c-.48.11-.91.2-1.3.25a7,7,0,0,1-1.05.09q-5.84,0-8.15-4.66a15.14,15.14,0,0,1-.82-2.17,8.71,8.71,0,0,1-.36-2.54v-7a2.29,2.29,0,0,1,.63-1.76,2.45,2.45,0,0,1,1.73-.59h2.31a2.44,2.44,0,0,1,1.72.59,2.29,2.29,0,0,1,.63,1.76v7a2.13,2.13,0,0,0,2.31,2.35,2,2,0,0,0,2-1.13,2.29,2.29,0,0,0,.34-1.18v-7a2.32,2.32,0,0,1,.61-1.76,2.38,2.38,0,0,1,1.71-.59h2.37a2.38,2.38,0,0,1,1.71.59,2.32,2.32,0,0,1,.61,1.76Z"/><path d="M683.2,435.52a8.92,8.92,0,0,1-.34,2.52,10.84,10.84,0,0,1-.84,2.14q-2.35,4.67-8.16,4.66A10.6,10.6,0,0,1,668,443a10.51,10.51,0,0,1-5.85,1.89H657.5a4.84,4.84,0,0,1-3.43-1.15,4.6,4.6,0,0,1-1.24-3.51v-21a2.29,2.29,0,0,1,.63-1.76,2.45,2.45,0,0,1,1.73-.59h2.31a2.44,2.44,0,0,1,1.72.59,2.29,2.29,0,0,1,.63,1.76v17.47c0,.79.38,1.18,1.13,1.18h1.18a2.32,2.32,0,0,0,1.76-.61,2.36,2.36,0,0,0,.59-1.7V419.18a2.32,2.32,0,0,1,.61-1.76,2.38,2.38,0,0,1,1.71-.59h2.37a2.38,2.38,0,0,1,1.71.59,2.32,2.32,0,0,1,.61,1.76v16.34q0,2.1,2.34,2.31c1.55-.14,2.33-.91,2.33-2.31V419.18a2.32,2.32,0,0,1,.61-1.76,2.38,2.38,0,0,1,1.71-.59h2.37a2.38,2.38,0,0,1,1.71.59,2.32,2.32,0,0,1,.61,1.76Z"/><path d="M706.05,442.49a2.11,2.11,0,0,1-2.33,2.35h-2.36a2.11,2.11,0,0,1-2.33-2.35V426.15c0-1.45-.78-2.22-2.35-2.31a2.26,2.26,0,0,0-1.7.55,2.32,2.32,0,0,0-.61,1.76v16.34a2.28,2.28,0,0,1-.63,1.76,2.38,2.38,0,0,1-1.72.59h-2.31a2.38,2.38,0,0,1-1.72-.59,2.28,2.28,0,0,1-.63-1.76v-28a2.33,2.33,0,0,1,.63-1.77,2.42,2.42,0,0,1,1.72-.58H692a2.42,2.42,0,0,1,1.72.58,2.33,2.33,0,0,1,.63,1.77v2.56a9.88,9.88,0,0,1,2.32-.25q5.87,0,8.22,4.66a13.06,13.06,0,0,1,.8,2.14,9.35,9.35,0,0,1,.34,2.52Z"/><path d="M728.94,435.43a8.83,8.83,0,0,1-.36,2.55,15,15,0,0,1-.83,2.16q-2.32,4.71-8.22,4.7h-4.66a2.24,2.24,0,0,1-1.75-.63,2.51,2.51,0,0,1-.56-1.72v-2.31a2.51,2.51,0,0,1,.56-1.72,2.24,2.24,0,0,1,1.75-.63h4.66a2.3,2.3,0,0,0,1.83-.71,2.61,2.61,0,0,0,.52-1.94c-.48.11-.91.2-1.3.25a7,7,0,0,1-1.05.09q-5.84,0-8.15-4.66a15.14,15.14,0,0,1-.82-2.17,8.71,8.71,0,0,1-.35-2.54v-7a2.33,2.33,0,0,1,.62-1.76,2.45,2.45,0,0,1,1.73-.59h2.31a2.44,2.44,0,0,1,1.72.59,2.29,2.29,0,0,1,.63,1.76v7a2.13,2.13,0,0,0,2.31,2.35,2,2,0,0,0,2-1.13,2.29,2.29,0,0,0,.34-1.18v-7a2.32,2.32,0,0,1,.61-1.76,2.39,2.39,0,0,1,1.72-.59h2.36a2.38,2.38,0,0,1,1.71.59,2.33,2.33,0,0,1,.62,1.76Z"/><path d="M762.29,435.81a9.25,9.25,0,0,1-.34,2.52,13.66,13.66,0,0,1-.8,2.14q-2.35,4.66-8.21,4.67t-8.17-4.67a14.71,14.71,0,0,1-.82-2.14,8.53,8.53,0,0,1-.36-2.52v-9.66a8.62,8.62,0,0,1,.36-2.52,15.17,15.17,0,0,1,.82-2.14q2.31-4.67,8.15-4.66a8.42,8.42,0,0,1,1.05.08c.39.06.82.14,1.3.26v-2.65a2.09,2.09,0,0,1,2.32-2.35H760a2.1,2.1,0,0,1,2.33,2.35Zm-7,0v-9.66c0-1.4-.78-2.17-2.35-2.31-1.54.12-2.31.88-2.31,2.31v9.66q0,2.15,2.31,2.31C754.49,438,755.27,437.21,755.27,435.81Z"/><path d="M785.13,435.81a9.25,9.25,0,0,1-.33,2.52,14.73,14.73,0,0,1-.8,2.14q-2.37,4.66-8.21,4.67t-8.17-4.67a14.71,14.71,0,0,1-.82-2.14,8.53,8.53,0,0,1-.36-2.52v-9.95a8.53,8.53,0,0,1,.36-2.52,15.17,15.17,0,0,1,.82-2.14q2.31-4.67,8.17-4.66T784,421.2a15.19,15.19,0,0,1,.8,2.14,9.25,9.25,0,0,1,.33,2.52Zm-7,0v-9.95c0-1.4-.79-2.17-2.35-2.31q-2.31.17-2.31,2.31v9.95q0,2.15,2.31,2.31C777.33,438,778.12,437.21,778.12,435.81Z"/><path d="M808,442.49a2.31,2.31,0,0,1-.61,1.76,2.34,2.34,0,0,1-1.71.59h-2.37a2.34,2.34,0,0,1-1.71-.59,2.31,2.31,0,0,1-.61-1.76V426.15a2.1,2.1,0,0,0-2.36-2.31h-1.17A1,1,0,0,0,796.3,425v17.47a2.28,2.28,0,0,1-.63,1.76,2.38,2.38,0,0,1-1.72.59h-2.31a2.38,2.38,0,0,1-1.72-.59,2.28,2.28,0,0,1-.63-1.76v-21a4.56,4.56,0,0,1,1.24-3.51,4.84,4.84,0,0,1,3.43-1.15h4.67q5.86,0,8.21,4.66a13.06,13.06,0,0,1,.8,2.14,9,9,0,0,1,.34,2.52Z"/><path d="M819.15,419.18a2.22,2.22,0,0,1-.63,1.74,2.46,2.46,0,0,1-1.72.57h-2.31a2.46,2.46,0,0,1-1.72-.57,2.22,2.22,0,0,1-.63-1.74v-7a2.24,2.24,0,0,1,.63-1.75,2.51,2.51,0,0,1,1.72-.56h2.31a2.51,2.51,0,0,1,1.72.56,2.24,2.24,0,0,1,.63,1.75Z"/><path d="M839.69,442.79a2.12,2.12,0,0,1-2.35,2.35,9.09,9.09,0,0,1-5-1.12,8.26,8.26,0,0,1-3.19-3.55,14.71,14.71,0,0,1-.82-2.14,8.53,8.53,0,0,1-.36-2.52v-9.66H825.7a2.32,2.32,0,0,1-1.76-.61,2.38,2.38,0,0,1-.59-1.71v-2.37a2.38,2.38,0,0,1,.59-1.71,2.32,2.32,0,0,1,1.76-.61H828v-2.33a2.21,2.21,0,0,1,.63-1.73,2.53,2.53,0,0,1,1.73-.56h2.31a2.52,2.52,0,0,1,1.72.56,2.21,2.21,0,0,1,.63,1.73v2.33h2.31a2.32,2.32,0,0,1,1.76.61,2.38,2.38,0,0,1,.59,1.71v2.37a2.38,2.38,0,0,1-.59,1.71,2.32,2.32,0,0,1-1.76.61H835v9.66c0,1.4.78,2.17,2.35,2.31a2.16,2.16,0,0,1,2.31,2.35Z"/><path d="M873.12,435.43a8.83,8.83,0,0,1-.36,2.55,15,15,0,0,1-.82,2.16q-2.33,4.71-8.23,4.7h-4.66a2.23,2.23,0,0,1-1.74-.63,2.46,2.46,0,0,1-.57-1.72v-2.31a2.46,2.46,0,0,1,.57-1.72,2.23,2.23,0,0,1,1.74-.63h4.66a2.29,2.29,0,0,0,1.83-.71,2.61,2.61,0,0,0,.53-1.94c-.48.11-.91.2-1.31.25a7,7,0,0,1-1,.09q-5.84,0-8.14-4.66a14,14,0,0,1-.82-2.17,8.71,8.71,0,0,1-.36-2.54v-7a2.29,2.29,0,0,1,.63-1.76,2.43,2.43,0,0,1,1.72-.59h2.31a2.43,2.43,0,0,1,1.72.59,2.29,2.29,0,0,1,.63,1.76v7a2.13,2.13,0,0,0,2.31,2.35,2,2,0,0,0,2-1.13,2.38,2.38,0,0,0,.34-1.18v-7a2.32,2.32,0,0,1,.61-1.76,2.38,2.38,0,0,1,1.71-.59h2.37a2.38,2.38,0,0,1,1.71.59,2.32,2.32,0,0,1,.61,1.76Z"/><path d="M896,435.81a8.87,8.87,0,0,1-.34,2.52,12.73,12.73,0,0,1-.8,2.14q-2.36,4.66-8.21,4.67t-8.16-4.67a14.71,14.71,0,0,1-.82-2.14,8.53,8.53,0,0,1-.36-2.52v-9.95a8.53,8.53,0,0,1,.36-2.52,15.17,15.17,0,0,1,.82-2.14q2.31-4.67,8.16-4.66t8.21,4.66a13.06,13.06,0,0,1,.8,2.14,8.87,8.87,0,0,1,.34,2.52Zm-7,0v-9.95c0-1.4-.79-2.17-2.36-2.31q-2.31.17-2.31,2.31v9.95q0,2.15,2.31,2.31C888.17,438,889,437.21,889,435.81Z"/><path d="M918.82,440.18a4.57,4.57,0,0,1-1.25,3.51,4.82,4.82,0,0,1-3.43,1.15h-4.67q-5.85,0-8.16-4.66a15.16,15.16,0,0,1-.83-2.14,8.92,8.92,0,0,1-.35-2.52V419.18a2.29,2.29,0,0,1,.63-1.76,2.43,2.43,0,0,1,1.72-.59h2.31a2.43,2.43,0,0,1,1.72.59,2.29,2.29,0,0,1,.63,1.76v16.34a2.39,2.39,0,0,0,.57,1.7,2.26,2.26,0,0,0,1.74.61h1.18a1,1,0,0,0,1.17-1.18V419.18a2.33,2.33,0,0,1,.62-1.76,2.35,2.35,0,0,1,1.71-.59h2.36a2.35,2.35,0,0,1,1.71.59,2.33,2.33,0,0,1,.62,1.76Z"/><path d="M177.19,486.21a8.53,8.53,0,0,1-.36,2.52,15.31,15.31,0,0,1-.82,2.15q-2.34,4.65-8.14,4.66t-8.19-4.66a14.17,14.17,0,0,1-.82-2.15,8.53,8.53,0,0,1-.36-2.52V464.88a2.24,2.24,0,0,1,.63-1.75,2.51,2.51,0,0,1,1.72-.56h2.35a2.45,2.45,0,0,1,1.68.56,2.24,2.24,0,0,1,.63,1.75v2.6a10.05,10.05,0,0,1,2.36-.25q5.79,0,8.14,4.66a15.65,15.65,0,0,1,.82,2.14,8.62,8.62,0,0,1,.36,2.52Zm-7,0v-9.66q0-2.18-2.31-2.31a2.35,2.35,0,0,0-1.73.55,2.29,2.29,0,0,0-.63,1.76v9.66c0,1.4.79,2.17,2.36,2.31Q170.18,488.36,170.18,486.21Z"/><path d="M200.08,481.26a4.54,4.54,0,0,1-1.24,3.5,4.87,4.87,0,0,1-3.44,1.16h-7q.18,2.31,2.31,2.31h4.67a2.29,2.29,0,0,1,1.76.63,2.43,2.43,0,0,1,.59,1.72v2.31a2.43,2.43,0,0,1-.59,1.72,2.29,2.29,0,0,1-1.76.63h-4.67q-5.84,0-8.14-4.66a14,14,0,0,1-.82-2.14,8.53,8.53,0,0,1-.36-2.52v-9.66a8.53,8.53,0,0,1,.36-2.52,15.17,15.17,0,0,1,.82-2.14q2.31-4.67,8.16-4.66t8.21,4.66a13.06,13.06,0,0,1,.8,2.14,8.87,8.87,0,0,1,.34,2.52Zm-7-3.53v-1.47c0-1.4-.79-2.17-2.36-2.31q-2.31.17-2.31,2.31v2.65h3.49A1,1,0,0,0,193.07,477.73Z"/><path d="M222.93,490.58a4.57,4.57,0,0,1-1.25,3.51,4.82,4.82,0,0,1-3.43,1.15h-4.67q-5.85,0-8.16-4.66a10.63,10.63,0,0,1,0-9.32q2.31-4.71,8.15-4.71a7,7,0,0,1,1.05.09c.39.05.83.14,1.3.25v-.34a2.37,2.37,0,0,0-.58-1.7,2.4,2.4,0,0,0-1.77-.61H208.9a2.22,2.22,0,0,1-1.74-.63,2.46,2.46,0,0,1-.57-1.72v-2.31a2.46,2.46,0,0,1,.57-1.72,2.22,2.22,0,0,1,1.74-.63h4.66q5.87,0,8.23,4.66a14.45,14.45,0,0,1,.8,2.14,9.35,9.35,0,0,1,.34,2.52Zm-7-3.53v-1.13c0-1.43-.78-2.21-2.35-2.35a2.15,2.15,0,0,0-2.31,2.35,2.39,2.39,0,0,0,.57,1.7,2.26,2.26,0,0,0,1.74.61h1.18A1,1,0,0,0,215.91,487.05Z"/><path d="M243.42,493.19a2.12,2.12,0,0,1-2.35,2.35,9,9,0,0,1-4.95-1.12,8.31,8.31,0,0,1-3.2-3.54,15.31,15.31,0,0,1-.82-2.15,8.87,8.87,0,0,1-.35-2.52v-9.66h-2.31a2.33,2.33,0,0,1-1.77-.61,2.38,2.38,0,0,1-.59-1.71v-2.37a2.38,2.38,0,0,1,.59-1.71,2.33,2.33,0,0,1,1.77-.61h2.31v-2.33a2.21,2.21,0,0,1,.63-1.73,2.51,2.51,0,0,1,1.72-.56h2.31a2.51,2.51,0,0,1,1.72.56,2.21,2.21,0,0,1,.63,1.73v2.33h2.31a2.1,2.1,0,0,1,2.35,2.32v2.37a2.1,2.1,0,0,1-2.35,2.32h-2.31v9.66c0,1.4.78,2.17,2.35,2.31a2.17,2.17,0,0,1,2.31,2.36Z"/><path d="M276.86,485.83a8.83,8.83,0,0,1-.36,2.55,15,15,0,0,1-.83,2.16q-2.32,4.71-8.22,4.7h-4.66a2.24,2.24,0,0,1-1.75-.63,2.46,2.46,0,0,1-.57-1.72v-2.31a2.46,2.46,0,0,1,.57-1.72,2.24,2.24,0,0,1,1.75-.63h4.66a2.26,2.26,0,0,0,1.82-.71,2.57,2.57,0,0,0,.53-1.94,11.26,11.26,0,0,1-1.3.25,7.19,7.19,0,0,1-1.05.09q-5.85,0-8.15-4.66a15.14,15.14,0,0,1-.82-2.17,8.71,8.71,0,0,1-.36-2.54v-7a2.29,2.29,0,0,1,.63-1.76,2.44,2.44,0,0,1,1.72-.59h2.32a2.44,2.44,0,0,1,1.72.59,2.29,2.29,0,0,1,.63,1.76v7a2.14,2.14,0,0,0,2.31,2.36,2,2,0,0,0,2-1.14,2.29,2.29,0,0,0,.34-1.18v-7a2.32,2.32,0,0,1,.61-1.76,2.38,2.38,0,0,1,1.71-.59h2.37a2.38,2.38,0,0,1,1.71.59,2.32,2.32,0,0,1,.61,1.76Z"/><path d="M299.7,486.21a9.25,9.25,0,0,1-.33,2.52,15.33,15.33,0,0,1-.8,2.15q-2.37,4.65-8.21,4.66t-8.17-4.66a15.31,15.31,0,0,1-.82-2.15,8.53,8.53,0,0,1-.36-2.52v-9.95a8.53,8.53,0,0,1,.36-2.52,15.17,15.17,0,0,1,.82-2.14q2.31-4.67,8.17-4.66t8.21,4.66a15.19,15.19,0,0,1,.8,2.14,9.25,9.25,0,0,1,.33,2.52Zm-7,0v-9.95c0-1.4-.79-2.17-2.35-2.31q-2.31.17-2.31,2.31v9.95q0,2.15,2.31,2.31C291.9,488.38,292.69,487.61,292.69,486.21Z"/><path d="M322.55,490.58a4.56,4.56,0,0,1-1.24,3.51,4.84,4.84,0,0,1-3.43,1.15h-4.67q-5.86,0-8.17-4.66a15.17,15.17,0,0,1-.82-2.14,8.53,8.53,0,0,1-.36-2.52V469.58a2.29,2.29,0,0,1,.63-1.76,2.43,2.43,0,0,1,1.72-.59h2.31a2.43,2.43,0,0,1,1.72.59,2.29,2.29,0,0,1,.63,1.76v16.34a2.39,2.39,0,0,0,.57,1.7,2.26,2.26,0,0,0,1.74.61h1.18a1,1,0,0,0,1.18-1.18V469.58a2.32,2.32,0,0,1,.61-1.76,2.38,2.38,0,0,1,1.71-.59h2.37a2.38,2.38,0,0,1,1.71.59,2.32,2.32,0,0,1,.61,1.76Z"/><path d="M340.69,471.89a2.51,2.51,0,0,1-.56,1.72,2.24,2.24,0,0,1-1.75.63H336a2.3,2.3,0,0,0-1.74.61,2.41,2.41,0,0,0-.57,1.7v16.38a2.24,2.24,0,0,1-.63,1.75,2.51,2.51,0,0,1-1.72.56h-2.31a2.51,2.51,0,0,1-1.72-.56,2.24,2.24,0,0,1-.63-1.75V476.55a8.62,8.62,0,0,1,.36-2.52,15.66,15.66,0,0,1,.81-2.14q2.31-4.67,8.15-4.66h2.35a2.24,2.24,0,0,1,1.75.63,2.51,2.51,0,0,1,.56,1.72Z"/><path d="M363.54,486.51a8.74,8.74,0,0,1-8.73,8.73h-7.56a2.3,2.3,0,0,1-1.77-.63,2.43,2.43,0,0,1-.59-1.72v-2.31a2.43,2.43,0,0,1,.59-1.72,2.3,2.3,0,0,1,1.77-.63h7.56a2,2,0,0,0,1.26-.5,1.79,1.79,0,0,0,0-2.48,1.92,1.92,0,0,0-1.26-.51h-1.18a8.76,8.76,0,0,1-8.74-8.73,8.47,8.47,0,0,1,2.57-6.22,8.38,8.38,0,0,1,6.17-2.56h6.43a2.29,2.29,0,0,1,1.76.63,2.43,2.43,0,0,1,.59,1.72v2.31a2.43,2.43,0,0,1-.59,1.72,2.29,2.29,0,0,1-1.76.63h-6.43a1.65,1.65,0,0,0-1.22.51,1.79,1.79,0,0,0,0,2.48,1.68,1.68,0,0,0,1.22.5h1.18a8.74,8.74,0,0,1,8.73,8.78Z"/><path d="M386.43,481.26a4.54,4.54,0,0,1-1.24,3.5,4.87,4.87,0,0,1-3.44,1.16h-7c.12,1.54.89,2.31,2.32,2.31h4.66a2.29,2.29,0,0,1,1.76.63,2.43,2.43,0,0,1,.59,1.72v2.31a2.43,2.43,0,0,1-.59,1.72,2.29,2.29,0,0,1-1.76.63h-4.66q-5.85,0-8.15-4.66a15.17,15.17,0,0,1-.82-2.14,8.53,8.53,0,0,1-.36-2.52v-9.66a8.53,8.53,0,0,1,.36-2.52,15.17,15.17,0,0,1,.82-2.14q2.31-4.67,8.17-4.66t8.2,4.66a13.06,13.06,0,0,1,.8,2.14,8.87,8.87,0,0,1,.34,2.52Zm-7-3.53v-1.47c0-1.4-.79-2.17-2.35-2.31-1.54.11-2.32.88-2.32,2.31v2.65h3.49A1,1,0,0,0,379.42,477.73Z"/><path d="M402.26,493.19a2.12,2.12,0,0,1-2.35,2.35,9,9,0,0,1-5-1.12,8.31,8.31,0,0,1-3.2-3.54,15.32,15.32,0,0,1-.81-2.15,8.53,8.53,0,0,1-.36-2.52V464.92a2.29,2.29,0,0,1,.63-1.76,2.38,2.38,0,0,1,1.72-.59h2.31a2.38,2.38,0,0,1,1.72.59,2.29,2.29,0,0,1,.63,1.76v21.29c0,1.4.79,2.17,2.36,2.31a2.16,2.16,0,0,1,2.3,2.36Z"/><path d="M422.8,476.55a2.41,2.41,0,0,1-.59,1.73,2.29,2.29,0,0,1-1.76.63h-2.31v14a2.32,2.32,0,0,1-.63,1.77,2.42,2.42,0,0,1-1.72.58h-2.31a2.42,2.42,0,0,1-1.72-.58,2.32,2.32,0,0,1-.63-1.77v-14h-2.31a2.3,2.3,0,0,1-1.77-.63,2.45,2.45,0,0,1-.59-1.73v-2.31a2.44,2.44,0,0,1,.59-1.72,2.3,2.3,0,0,1,1.77-.63h2.31a12.84,12.84,0,0,1,.4-2.54,11.86,11.86,0,0,1,.77-2.16c1.57-3.17,4.29-4.8,8.15-4.92,1.57.14,2.35.93,2.35,2.35v2.32a2.16,2.16,0,0,1-2.31,2.35,2.31,2.31,0,0,0-2.35,2.6h2.31a2.29,2.29,0,0,1,1.76.63,2.4,2.4,0,0,1,.59,1.72Z"/><path d="M456.19,490.58a4.56,4.56,0,0,1-1.24,3.51,4.84,4.84,0,0,1-3.43,1.15h-4.67q-5.85,0-8.17-4.66a15.17,15.17,0,0,1-.82-2.14,8.53,8.53,0,0,1-.36-2.52V469.58a2.29,2.29,0,0,1,.63-1.76,2.44,2.44,0,0,1,1.72-.59h2.32a2.44,2.44,0,0,1,1.72.59,2.29,2.29,0,0,1,.63,1.76v16.34a2.44,2.44,0,0,0,.56,1.7,2.27,2.27,0,0,0,1.75.61H448a1,1,0,0,0,1.18-1.18V469.58a2.32,2.32,0,0,1,.61-1.76,2.38,2.38,0,0,1,1.71-.59h2.37a2.38,2.38,0,0,1,1.71.59,2.32,2.32,0,0,1,.61,1.76Z"/><path d="M479,476.26v2.65a8.51,8.51,0,0,1-.36,2.51,15.31,15.31,0,0,1-.82,2.15q-2.36,4.65-8.18,4.66a10.89,10.89,0,0,1-2.32-.34l0,5a2.27,2.27,0,0,1-.61,1.75,2.42,2.42,0,0,1-1.7.56H462.7a2.51,2.51,0,0,1-1.72-.56,2.24,2.24,0,0,1-.63-1.75V476.26a8.53,8.53,0,0,1,.36-2.52,15.17,15.17,0,0,1,.82-2.14q2.31-4.67,8.17-4.66t8.2,4.66a13.06,13.06,0,0,1,.8,2.14A8.87,8.87,0,0,1,479,476.26Zm-7,2.65v-2.65c0-1.4-.79-2.17-2.36-2.31q-2.31.17-2.31,2.31v2.65a2.16,2.16,0,0,0,2.31,2.35C471.24,481.12,472,480.33,472,478.91Z"/><path d="M512.39,490.58a4.6,4.6,0,0,1-1.24,3.51,4.86,4.86,0,0,1-3.43,1.15H503q-5.85,0-8.16-4.66a9.16,9.16,0,0,1-.78-7.18,13.06,13.06,0,0,1,.77-2.14q2.31-4.71,8.15-4.71a7,7,0,0,1,1.05.09c.39.05.83.14,1.3.25v-.34a2.09,2.09,0,0,0-2.35-2.31h-4.66a2.23,2.23,0,0,1-1.74-.63,2.46,2.46,0,0,1-.57-1.72v-2.31a2.46,2.46,0,0,1,.57-1.72,2.23,2.23,0,0,1,1.74-.63H503q5.87,0,8.23,4.66a14.45,14.45,0,0,1,.8,2.14,9,9,0,0,1,.34,2.52Zm-7-3.53v-1.13c0-1.43-.78-2.21-2.35-2.35a2.15,2.15,0,0,0-2.31,2.35,2.39,2.39,0,0,0,.57,1.7,2.26,2.26,0,0,0,1.74.61h1.18A1,1,0,0,0,505.37,487.05Z"/><path d="M538.72,493.19a2.12,2.12,0,0,1-2.35,2.35,9.09,9.09,0,0,1-5-1.12,8.36,8.36,0,0,1-3.19-3.54,15.31,15.31,0,0,1-.82-2.15,8.87,8.87,0,0,1-.35-2.52V464.92a2.29,2.29,0,0,1,.63-1.76,2.38,2.38,0,0,1,1.72-.59h2.31a2.38,2.38,0,0,1,1.72.59,2.29,2.29,0,0,1,.63,1.76v21.29c0,1.4.78,2.17,2.35,2.31a2.17,2.17,0,0,1,2.31,2.36Z"/><path d="M549.94,466a2.33,2.33,0,0,1-.63,1.77,2.45,2.45,0,0,1-1.73.58h-2.31a2.44,2.44,0,0,1-1.72-.58,2.33,2.33,0,0,1-.63-1.77v-1.09a2.29,2.29,0,0,1,.63-1.76,2.4,2.4,0,0,1,1.72-.59h2.31a2.41,2.41,0,0,1,1.73.59,2.29,2.29,0,0,1,.63,1.76Zm0,26.88a2.32,2.32,0,0,1-.63,1.77,2.45,2.45,0,0,1-1.73.58h-2.31a2.44,2.44,0,0,1-1.72-.58,2.32,2.32,0,0,1-.63-1.77V473a2.3,2.3,0,0,1,.63-1.77,2.44,2.44,0,0,1,1.72-.59h2.31a2.45,2.45,0,0,1,1.73.59,2.3,2.3,0,0,1,.63,1.77Z"/><path d="M570.47,493.19a2.12,2.12,0,0,1-2.35,2.35,9,9,0,0,1-5-1.12,8.31,8.31,0,0,1-3.2-3.54,16.66,16.66,0,0,1-.82-2.15,8.87,8.87,0,0,1-.35-2.52v-9.66h-2.31a2.35,2.35,0,0,1-1.77-.61,2.38,2.38,0,0,1-.58-1.71v-2.37a2.38,2.38,0,0,1,.58-1.71,2.35,2.35,0,0,1,1.77-.61h2.31v-2.33a2.21,2.21,0,0,1,.63-1.73,2.51,2.51,0,0,1,1.72-.56h2.31a2.51,2.51,0,0,1,1.72.56,2.21,2.21,0,0,1,.63,1.73v2.33h2.31a2.35,2.35,0,0,1,1.77.61,2.38,2.38,0,0,1,.58,1.71v2.37a2.38,2.38,0,0,1-.58,1.71,2.35,2.35,0,0,1-1.77.61h-2.31v9.66c0,1.4.79,2.17,2.35,2.31a2.17,2.17,0,0,1,2.31,2.36Z"/><path d="M591,493.19a2.12,2.12,0,0,1-2.35,2.35,9.09,9.09,0,0,1-5-1.12,8.29,8.29,0,0,1-3.19-3.54,15.31,15.31,0,0,1-.82-2.15,8.87,8.87,0,0,1-.35-2.52v-9.66H577a2.33,2.33,0,0,1-1.77-.61,2.38,2.38,0,0,1-.59-1.71v-2.37a2.38,2.38,0,0,1,.59-1.71,2.33,2.33,0,0,1,1.77-.61h2.31v-2.33a2.21,2.21,0,0,1,.63-1.73,2.51,2.51,0,0,1,1.72-.56H584a2.51,2.51,0,0,1,1.72.56,2.21,2.21,0,0,1,.63,1.73v2.33h2.31a2.1,2.1,0,0,1,2.35,2.32v2.37a2.1,2.1,0,0,1-2.35,2.32h-2.31v9.66c0,1.4.78,2.17,2.35,2.31a2.17,2.17,0,0,1,2.31,2.36Z"/><path d="M606.89,493.19a2.13,2.13,0,0,1-2.35,2.35,9.07,9.07,0,0,1-5-1.12,8.29,8.29,0,0,1-3.19-3.54,15.31,15.31,0,0,1-.82-2.15,8.53,8.53,0,0,1-.36-2.52V464.92a2.29,2.29,0,0,1,.63-1.76,2.4,2.4,0,0,1,1.72-.59h2.31a2.41,2.41,0,0,1,1.73.59,2.29,2.29,0,0,1,.63,1.76v21.29c0,1.4.78,2.17,2.35,2.31a2.17,2.17,0,0,1,2.31,2.36Z"/><path d="M629.78,481.26a4.54,4.54,0,0,1-1.25,3.5,4.83,4.83,0,0,1-3.43,1.16h-7q.17,2.31,2.31,2.31h4.66a2.3,2.3,0,0,1,1.77.63,2.43,2.43,0,0,1,.59,1.72v2.31a2.43,2.43,0,0,1-.59,1.72,2.3,2.3,0,0,1-1.77.63h-4.66q-5.83,0-8.15-4.66a15.18,15.18,0,0,1-.81-2.14,8.53,8.53,0,0,1-.36-2.52v-9.66a8.53,8.53,0,0,1,.36-2.52,14,14,0,0,1,.82-2.14q2.31-4.67,8.16-4.66t8.21,4.66a13.06,13.06,0,0,1,.8,2.14,8.87,8.87,0,0,1,.34,2.52Zm-7-3.53v-1.47c0-1.4-.78-2.17-2.35-2.31q-2.31.17-2.31,2.31v2.65h3.49A1,1,0,0,0,622.76,477.73Z"/><path d="M663.13,490.58a4.57,4.57,0,0,1-1.25,3.51,4.84,4.84,0,0,1-3.43,1.15h-4.67q-5.85,0-8.17-4.66a10.55,10.55,0,0,1,0-9.32q2.31-4.71,8.15-4.71a7,7,0,0,1,1,.09c.39.05.82.14,1.3.25v-.34a2.33,2.33,0,0,0-.59-1.7,2.36,2.36,0,0,0-1.76-.61H649.1a2.24,2.24,0,0,1-1.75-.63,2.51,2.51,0,0,1-.56-1.72v-2.31a2.51,2.51,0,0,1,.56-1.72,2.24,2.24,0,0,1,1.75-.63h4.66q5.87,0,8.23,4.66a15.67,15.67,0,0,1,.8,2.14,9.35,9.35,0,0,1,.34,2.52Zm-7-3.53v-1.13c0-1.43-.78-2.21-2.35-2.35a2.15,2.15,0,0,0-2.31,2.35,2.39,2.39,0,0,0,.57,1.7,2.25,2.25,0,0,0,1.74.61h1.18A1,1,0,0,0,656.11,487.05Z"/><path d="M686,486.21a8.87,8.87,0,0,1-.35,2.52,15.31,15.31,0,0,1-.82,2.15q-2.35,4.65-8.15,4.66t-8.19-4.66a15.31,15.31,0,0,1-.82-2.15,8.53,8.53,0,0,1-.36-2.52V464.88a2.24,2.24,0,0,1,.63-1.75,2.52,2.52,0,0,1,1.72-.56H672a2.45,2.45,0,0,1,1.68.56,2.24,2.24,0,0,1,.63,1.75v2.6a10,10,0,0,1,2.35-.25q5.79,0,8.15,4.66a15.65,15.65,0,0,1,.82,2.14,9,9,0,0,1,.35,2.52Zm-7,0v-9.66q0-2.18-2.31-2.31a2.32,2.32,0,0,0-1.72.55,2.29,2.29,0,0,0-.63,1.76v9.66c0,1.4.78,2.17,2.35,2.31Q679,488.36,679,486.21Z"/><path d="M708.86,486.21a9.25,9.25,0,0,1-.33,2.52,15.33,15.33,0,0,1-.8,2.15q-2.37,4.65-8.21,4.66t-8.17-4.66a15.31,15.31,0,0,1-.82-2.15,8.53,8.53,0,0,1-.36-2.52v-9.95a8.53,8.53,0,0,1,.36-2.52,15.17,15.17,0,0,1,.82-2.14q2.31-4.67,8.17-4.66t8.21,4.66a15.19,15.19,0,0,1,.8,2.14,9.25,9.25,0,0,1,.33,2.52Zm-7,0v-9.95c0-1.4-.79-2.17-2.35-2.31q-2.31.17-2.31,2.31v9.95q0,2.15,2.31,2.31C701.06,488.38,701.85,487.61,701.85,486.21Z"/><path d="M731.71,490.58a4.56,4.56,0,0,1-1.24,3.51,4.84,4.84,0,0,1-3.43,1.15h-4.67q-5.86,0-8.17-4.66a15.17,15.17,0,0,1-.82-2.14,8.53,8.53,0,0,1-.36-2.52V469.58a2.29,2.29,0,0,1,.63-1.76,2.43,2.43,0,0,1,1.72-.59h2.31a2.43,2.43,0,0,1,1.72.59,2.29,2.29,0,0,1,.63,1.76v16.34a2.39,2.39,0,0,0,.57,1.7,2.26,2.26,0,0,0,1.74.61h1.18a1,1,0,0,0,1.18-1.18V469.58a2.32,2.32,0,0,1,.61-1.76,2.38,2.38,0,0,1,1.71-.59h2.37a2.38,2.38,0,0,1,1.71.59,2.32,2.32,0,0,1,.61,1.76Z"/><path d="M752.21,493.19a2.13,2.13,0,0,1-2.36,2.35,9,9,0,0,1-5-1.12,8.23,8.23,0,0,1-3.19-3.54,14.17,14.17,0,0,1-.82-2.15,8.53,8.53,0,0,1-.36-2.52v-9.66h-2.31a2.1,2.1,0,0,1-2.35-2.32v-2.37a2.1,2.1,0,0,1,2.35-2.32h2.31v-2.33a2.21,2.21,0,0,1,.63-1.73,2.51,2.51,0,0,1,1.72-.56h2.31a2.51,2.51,0,0,1,1.72.56,2.21,2.21,0,0,1,.63,1.73v2.33h2.31a2.33,2.33,0,0,1,1.77.61,2.38,2.38,0,0,1,.59,1.71v2.37a2.38,2.38,0,0,1-.59,1.71,2.33,2.33,0,0,1-1.77.61h-2.31v9.66c0,1.4.79,2.17,2.36,2.31a2.17,2.17,0,0,1,2.31,2.36Z"/><path d="M783.24,493.19a2.12,2.12,0,0,1-2.35,2.35,9,9,0,0,1-4.95-1.12,8.31,8.31,0,0,1-3.2-3.54,16.66,16.66,0,0,1-.82-2.15,8.87,8.87,0,0,1-.35-2.52v-9.66h-2.31a2.35,2.35,0,0,1-1.77-.61,2.38,2.38,0,0,1-.58-1.71v-2.37a2.38,2.38,0,0,1,.58-1.71,2.35,2.35,0,0,1,1.77-.61h2.31v-2.33a2.21,2.21,0,0,1,.63-1.73,2.51,2.51,0,0,1,1.72-.56h2.31a2.51,2.51,0,0,1,1.72.56,2.21,2.21,0,0,1,.63,1.73v2.33h2.31a2.35,2.35,0,0,1,1.77.61,2.38,2.38,0,0,1,.58,1.71v2.37a2.38,2.38,0,0,1-.58,1.71,2.35,2.35,0,0,1-1.77.61h-2.31v9.66c0,1.4.79,2.17,2.35,2.31a2.17,2.17,0,0,1,2.31,2.36Z"/><path d="M806.13,492.89a2.35,2.35,0,0,1-.61,1.77,2.38,2.38,0,0,1-1.71.58h-2.37a2.38,2.38,0,0,1-1.71-.58,2.35,2.35,0,0,1-.61-1.77V476.55c0-1.45-.78-2.22-2.35-2.31a2.24,2.24,0,0,0-1.7.55,2.32,2.32,0,0,0-.61,1.76v16.34a2.32,2.32,0,0,1-.63,1.77,2.44,2.44,0,0,1-1.72.58H789.8a2.45,2.45,0,0,1-1.73-.58,2.32,2.32,0,0,1-.63-1.77v-28a2.29,2.29,0,0,1,.63-1.76,2.41,2.41,0,0,1,1.73-.59h2.31a2.4,2.4,0,0,1,1.72.59,2.29,2.29,0,0,1,.63,1.76v2.56a9.82,9.82,0,0,1,2.32-.25q5.85,0,8.22,4.66a15.67,15.67,0,0,1,.8,2.14,9.36,9.36,0,0,1,.33,2.52Z"/><path d="M829,490.58a4.56,4.56,0,0,1-1.24,3.51,4.84,4.84,0,0,1-3.43,1.15h-4.67q-5.85,0-8.17-4.66a12.2,12.2,0,0,1-.78-2.14,8.14,8.14,0,0,1,0-5,12.2,12.2,0,0,1,.78-2.14q2.31-4.71,8.15-4.71a7.19,7.19,0,0,1,1,.09c.39.05.82.14,1.3.25v-.34a2.1,2.1,0,0,0-2.35-2.31H815a2.23,2.23,0,0,1-1.74-.63,2.46,2.46,0,0,1-.57-1.72v-2.31a2.46,2.46,0,0,1,.57-1.72,2.23,2.23,0,0,1,1.74-.63h4.67q5.85,0,8.22,4.66a13.41,13.41,0,0,1,.8,2.14,9,9,0,0,1,.34,2.52Zm-7-3.53v-1.13c0-1.43-.79-2.21-2.35-2.35a2.15,2.15,0,0,0-2.31,2.35,2.44,2.44,0,0,0,.56,1.7,2.27,2.27,0,0,0,1.75.61h1.17A1,1,0,0,0,822,487.05Z"/><path d="M849.48,493.19a2.13,2.13,0,0,1-2.35,2.35,9.07,9.07,0,0,1-5-1.12,8.29,8.29,0,0,1-3.19-3.54,15.31,15.31,0,0,1-.82-2.15,8.53,8.53,0,0,1-.36-2.52v-9.66h-2.31a2.1,2.1,0,0,1-2.35-2.32v-2.37a2.1,2.1,0,0,1,2.35-2.32h2.31v-2.33a2.21,2.21,0,0,1,.63-1.73,2.51,2.51,0,0,1,1.72-.56h2.31a2.53,2.53,0,0,1,1.73.56,2.21,2.21,0,0,1,.63,1.73v2.33h2.31a2.32,2.32,0,0,1,1.76.61,2.38,2.38,0,0,1,.59,1.71v2.37a2.38,2.38,0,0,1-.59,1.71,2.32,2.32,0,0,1-1.76.61h-2.31v9.66c0,1.4.78,2.17,2.35,2.31a2.17,2.17,0,0,1,2.31,2.36Z"/><path d="M874.68,474.26q0,7.26-7,9v.33a2.33,2.33,0,0,1-.62,1.76,2.38,2.38,0,0,1-1.71.59H863a2.39,2.39,0,0,1-1.72-.59,2.36,2.36,0,0,1-.61-1.76v-2.31c0-2.91,1.56-4.48,4.66-4.71q2.31-.17,2.31-2.31v-2.35q0-2.14-2.31-2.31l-2.35,0a2.47,2.47,0,0,0-1.74.63,2.27,2.27,0,0,0-.57,1.64v2.35a2.24,2.24,0,0,1-.63,1.75,2.51,2.51,0,0,1-1.72.56H856a2.46,2.46,0,0,1-1.72-.56,2.23,2.23,0,0,1-.63-1.74v-2.34a8.53,8.53,0,0,1,.36-2.52,13.91,13.91,0,0,1,.81-2.13q2.31-4.65,8.15-4.65h2.35q5.8,0,8.15,4.65a15.65,15.65,0,0,1,.82,2.14,8.53,8.53,0,0,1,.36,2.52Zm-7,18.63a2.35,2.35,0,0,1-.62,1.77,2.38,2.38,0,0,1-1.71.58H863a2.09,2.09,0,0,1-2.33-2.35v-2.31a2.36,2.36,0,0,1,.61-1.76,2.39,2.39,0,0,1,1.72-.59h2.36a2.38,2.38,0,0,1,1.71.59,2.33,2.33,0,0,1,.62,1.76Z"/><rect class="cls-3" x="311.38" y="592" width="486.59" height="98" rx="39.37"/><rect class="cls-4" x="316.46" y="594.71" width="475.16" height="93.13" rx="39.37"/><path class="cls-3" d="M393.52,613.71a4.78,4.78,0,0,1-1.1,3.32,4.36,4.36,0,0,1-3.37,1.21h-6.74v45.07a4.45,4.45,0,0,1-1.22,3.41,4.67,4.67,0,0,1-3.33,1.14h-4.55a4,4,0,0,1-4.46-4.55V618.24l-6.83.08q-4.46-.33-4.46-4.6v-4.44a4.74,4.74,0,0,1,1.09-3.31,4.33,4.33,0,0,1,3.37-1.22h27.13a4.33,4.33,0,0,1,3.37,1.22,4.74,4.74,0,0,1,1.1,3.31Z"/><path class="cls-3" d="M428.68,622.7a4.79,4.79,0,0,1-1.09,3.33,4.33,4.33,0,0,1-3.37,1.22h-4.55a4.37,4.37,0,0,0-3.37,1.18,4.64,4.64,0,0,0-1.1,3.29v31.67a4.31,4.31,0,0,1-1.22,3.37,4.79,4.79,0,0,1-3.33,1.1h-4.46a4.79,4.79,0,0,1-3.33-1.1,4.28,4.28,0,0,1-1.22-3.37V631.72a16.78,16.78,0,0,1,.69-4.88,30.57,30.57,0,0,1,1.58-4.14q4.47-9,15.76-9h4.55a4.29,4.29,0,0,1,3.37,1.22,4.79,4.79,0,0,1,1.09,3.33Z"/><path class="cls-3" d="M473,649.67a17.09,17.09,0,0,1-.7,4.91,28.07,28.07,0,0,1-1.59,4.18q-4.5,9.11-15.91,9.1h-9a4.31,4.31,0,0,1-3.37-1.22,4.79,4.79,0,0,1-1.1-3.33v-4.47a4.83,4.83,0,0,1,1.1-3.33,4.31,4.31,0,0,1,3.37-1.22h9a4.41,4.41,0,0,0,3.54-1.37,5,5,0,0,0,1-3.74c-.92.22-1.76.38-2.52.49a14.09,14.09,0,0,1-2,.16q-11.28,0-15.75-9a28.07,28.07,0,0,1-1.59-4.18,17.09,17.09,0,0,1-.69-4.91V618.24a4.47,4.47,0,0,1,1.22-3.42,4.71,4.71,0,0,1,3.33-1.13h4.47a4.71,4.71,0,0,1,3.33,1.13,4.47,4.47,0,0,1,1.22,3.42v13.48c0,2.87,1.49,4.38,4.46,4.55a3.87,3.87,0,0,0,3.9-2.2,4.54,4.54,0,0,0,.65-2.27V618.24a4.54,4.54,0,0,1,1.19-3.42,4.61,4.61,0,0,1,3.31-1.13h4.57a4.61,4.61,0,0,1,3.31,1.13,4.54,4.54,0,0,1,1.19,3.42Z"/><path class="cls-3" d="M537.51,658.84q0,4.56-2.4,6.78a9.36,9.36,0,0,1-6.64,2.24h-9q-11.31,0-15.79-9a23.61,23.61,0,0,1-1.51-4.14,15.79,15.79,0,0,1,0-9.74,24.89,24.89,0,0,1,1.5-4.15q4.47-9.09,15.76-9.09a14.31,14.31,0,0,1,2,.16c.76.11,1.6.27,2.52.49v-.65a4.06,4.06,0,0,0-4.55-4.47h-9A4.34,4.34,0,0,1,507,626a4.79,4.79,0,0,1-1.09-3.33v-4.46a4.79,4.79,0,0,1,1.09-3.33,4.31,4.31,0,0,1,3.37-1.22h9q11.33,0,15.9,9a27,27,0,0,1,1.56,4.14,17.87,17.87,0,0,1,.65,4.88ZM524,652v-2.19q0-4.14-4.55-4.55c-3,.22-4.47,1.73-4.47,4.55a4.65,4.65,0,0,0,1.1,3.29,4.4,4.4,0,0,0,3.37,1.17h2.27A2,2,0,0,0,524,652Z"/><path class="cls-3" d="M581.69,649.83a18.2,18.2,0,0,1-.65,4.91,26.67,26.67,0,0,1-1.55,4.18q-4.57,9.18-15.91,8.94l-9-.16a4.74,4.74,0,0,1-3.37-1.22,4.35,4.35,0,0,1-1.1-3.17v-4.47a4.78,4.78,0,0,1,1.1-3.33,4.31,4.31,0,0,1,3.37-1.22h9a4,4,0,0,0,4.55-4.46v-.65c-.92.22-1.76.38-2.52.49a14.2,14.2,0,0,1-2,.16q-11.3,0-15.76-9a24.3,24.3,0,0,1-1.5-4.18,26.11,26.11,0,0,1-.77-4.91,25.53,25.53,0,0,1,.77-4.88,24.22,24.22,0,0,1,1.51-4.14q4.47-9,15.79-9h9c3,0,5.3.8,6.79,2.39a9.3,9.3,0,0,1,2.24,6.62Zm-13.56-18.11v-2.2a2,2,0,0,0-2.28-2.27h-2.27a4.37,4.37,0,0,0-3.37,1.18,4.64,4.64,0,0,0-1.1,3.29q0,4.21,4.47,4.55Q568.13,635.87,568.13,631.72Z"/><path class="cls-3" d="M625.87,658.84q0,4.56-2.4,6.78a9.35,9.35,0,0,1-6.63,2.24h-9q-11.31,0-15.79-9a23.61,23.61,0,0,1-1.51-4.14,15.79,15.79,0,0,1,0-9.74,24.89,24.89,0,0,1,1.5-4.15q4.47-9.09,15.76-9.09a14.2,14.2,0,0,1,2,.16c.76.11,1.6.27,2.52.49v-.65a4.06,4.06,0,0,0-4.55-4.47h-9a4.31,4.31,0,0,1-3.37-1.22,4.75,4.75,0,0,1-1.1-3.33v-4.46a4.75,4.75,0,0,1,1.1-3.33,4.28,4.28,0,0,1,3.37-1.22h9q11.32,0,15.91,9a27,27,0,0,1,1.55,4.14,17.87,17.87,0,0,1,.65,4.88ZM612.31,652v-2.19q0-4.14-4.55-4.55c-3,.22-4.47,1.73-4.47,4.55a4.65,4.65,0,0,0,1.1,3.29,4.4,4.4,0,0,0,3.37,1.17H610A2,2,0,0,0,612.31,652Z"/><path class="cls-3" d="M647.47,611.33a4.43,4.43,0,0,1-1.21,3.41,4.71,4.71,0,0,1-3.33,1.14h-4.47a4.67,4.67,0,0,1-3.33-1.14,4.44,4.44,0,0,1-1.22-3.41v-2.11a4.46,4.46,0,0,1,1.22-3.41,4.67,4.67,0,0,1,3.33-1.14h4.47a4.71,4.71,0,0,1,3.33,1.14,4.46,4.46,0,0,1,1.21,3.41Zm0,52a4.45,4.45,0,0,1-1.21,3.41,4.71,4.71,0,0,1-3.33,1.14h-4.47a4.67,4.67,0,0,1-3.33-1.14,4.45,4.45,0,0,1-1.22-3.41V624.9a4.47,4.47,0,0,1,1.22-3.42,4.71,4.71,0,0,1,3.33-1.13h4.47a4.75,4.75,0,0,1,3.33,1.13,4.47,4.47,0,0,1,1.21,3.42Z"/><path class="cls-3" d="M691.74,663.31a4.51,4.51,0,0,1-1.19,3.41,4.57,4.57,0,0,1-3.31,1.14h-4.57a4.57,4.57,0,0,1-3.31-1.14,4.51,4.51,0,0,1-1.19-3.41V631.72a4,4,0,0,0-4.54-4.47h-2.28a2,2,0,0,0-2.19,2.27v33.79a4.45,4.45,0,0,1-1.22,3.41,4.67,4.67,0,0,1-3.33,1.14h-4.47a4.71,4.71,0,0,1-3.33-1.14,4.45,4.45,0,0,1-1.21-3.41V622.7q0-4.55,2.4-6.78a9.35,9.35,0,0,1,6.63-2.23h9q11.31,0,15.87,9a28.14,28.14,0,0,1,1.55,4.14,17.87,17.87,0,0,1,.65,4.88Z"/><path class="cls-3" d="M748.5,627.29q0,14-13.48,17.35v.65a4.49,4.49,0,0,1-1.18,3.4,4.57,4.57,0,0,1-3.31,1.14H726a4.59,4.59,0,0,1-3.31-1.14,4.51,4.51,0,0,1-1.18-3.41v-4.47q0-8.44,9-9.09,4.47-.33,4.47-4.47V622.7q0-4.14-4.47-4.46l-4.54.08a4.7,4.7,0,0,0-3.37,1.22,4.35,4.35,0,0,0-1.1,3.16v4.55a4.31,4.31,0,0,1-1.22,3.37,4.79,4.79,0,0,1-3.33,1.1h-4.47a4.83,4.83,0,0,1-3.33-1.1,4.27,4.27,0,0,1-1.21-3.36v-4.53a16.6,16.6,0,0,1,.69-4.86,28.69,28.69,0,0,1,1.58-4.13q4.47-9,15.76-9h4.54q11.22,0,15.76,9a29.3,29.3,0,0,1,1.58,4.14,16.6,16.6,0,0,1,.69,4.86Zm-13.48,36a4.51,4.51,0,0,1-1.18,3.41,4.57,4.57,0,0,1-3.31,1.14H726a4.59,4.59,0,0,1-3.31-1.14,4.51,4.51,0,0,1-1.18-3.41v-4.47a4.53,4.53,0,0,1,1.18-3.41,4.59,4.59,0,0,1,3.31-1.14h4.58a4.57,4.57,0,0,1,3.31,1.14,4.53,4.53,0,0,1,1.18,3.41Z"/></svg>
