<svg id="Layer_1" data-name="Layer 1" xmlns="http://www.w3.org/2000/svg" xmlns:xlink="http://www.w3.org/1999/xlink" width="223.62" height="105.68" viewBox="0 0 223.62 105.68"><defs><style>.cls-1{fill:#fff;}.cls-2{fill:url(#linear-gradient);}</style><linearGradient id="linear-gradient" x1="111.52" y1="2.92" x2="111.52" y2="103.34" gradientUnits="userSpaceOnUse"><stop offset="0.24" stop-color="#dd6285"/><stop offset="1" stop-color="#d4145a"/></linearGradient></defs><title>minus1</title><rect class="cls-1" width="223.62" height="105.68" rx="39.37"/><rect class="cls-2" x="2.34" y="2.92" width="218.36" height="100.42" rx="39.37"/><path class="cls-1" d="M83.75,53.69a5,5,0,0,1-1.22,3.59,4.79,4.79,0,0,1-3.68,1.31H54.59a4.79,4.79,0,0,1-3.68-1.31,5,5,0,0,1-1.22-3.59V48.87a5,5,0,0,1,1.22-3.59A4.83,4.83,0,0,1,54.59,44H78.85a4.83,4.83,0,0,1,3.68,1.31,5,5,0,0,1,1.22,3.59Z"/><path class="cls-1" d="M138.75,76.9a4.79,4.79,0,0,1-1.31,3.68,5.09,5.09,0,0,1-3.59,1.22H129a5.09,5.09,0,0,1-3.59-1.22,4.83,4.83,0,0,1-1.31-3.68V30.74a2.17,2.17,0,0,0-2.45-2.45h-2.37A4.83,4.83,0,0,1,115.63,27a5.09,5.09,0,0,1-1.22-3.59V18.57A5.09,5.09,0,0,1,115.63,15a4.79,4.79,0,0,1,3.68-1.31H129q4.91,0,7.32,2.58a10.08,10.08,0,0,1,2.4,7.14Z"/></svg>
