<svg id="Layer_1" data-name="Layer 1" xmlns="http://www.w3.org/2000/svg" xmlns:xlink="http://www.w3.org/1999/xlink" width="383" height="181" viewBox="0 0 383 181"><defs><style>.cls-1{fill:#fff;}.cls-2{fill:url(#linear-gradient);}</style><linearGradient id="linear-gradient" x1="191" y1="5" x2="191" y2="177" gradientUnits="userSpaceOnUse"><stop offset="0.24" stop-color="#dd6285"/><stop offset="1" stop-color="#d4145a"/></linearGradient></defs><title>playbutton</title><rect class="cls-1" width="383" height="181" rx="39.37"/><rect class="cls-2" x="4" y="5" width="374" height="172" rx="39.37"/><path class="cls-1" d="M73.18,48.18v78.2h-1.8V48.18Zm3.6,0v78.2H75V48.18Zm3.6,0v78.2h-1.8V48.18Zm3.6,0v78.2h-1.8V48.18Zm10.5,0A24.58,24.58,0,0,1,119,72.68a24.58,24.58,0,0,1-24.5,24.5h-6.9v29.2h-1.8V48.18ZM87.58,50v1.81h6.9a21,21,0,0,1,20.9,20.89,21,21,0,0,1-20.9,20.9h-6.9v1.8h6.9a22.62,22.62,0,0,0,22.7-22.7A22.54,22.54,0,0,0,94.48,50Zm0,3.6v1.8h6.9a17.33,17.33,0,0,1,17.3,17.3A17.41,17.41,0,0,1,94.48,90h-6.9v1.81h6.9a19.14,19.14,0,0,0,19.1-19.11,19.12,19.12,0,0,0-19.1-19.1Zm0,3.6V59h6.9a13.1,13.1,0,0,1,9.7,4.06,13.72,13.72,0,0,1-9.7,23.34h-6.9v1.8h6.9A15.53,15.53,0,0,0,110,72.68a15.53,15.53,0,0,0-15.5-15.5Zm0,3.61v1.79h6.9a10.11,10.11,0,0,1,7.15,17.25,9.74,9.74,0,0,1-7.15,3h-6.9v1.79h6.9a11.87,11.87,0,0,0,8.4-20.29,11.45,11.45,0,0,0-8.4-3.5Zm0,3.5V81.08h6.9a7.92,7.92,0,0,0,5.85-2.5,8.32,8.32,0,0,0,0-11.79,7.92,7.92,0,0,0-5.85-2.5Z"/><path class="cls-1" d="M125.58,48.18v78.2h-1.8V48.18Zm3.6,0v78.2h-1.8V48.18Zm3.6,0v78.2H131V48.18Zm3.6,0v78.2h-1.8V48.18Zm3.6,62h31.9V112H140v1.81h31.9v1.79H140v1.8h31.9v1.8H140V121h31.9v1.81H140v1.79h31.9v1.8h-33.7V48.18H140Z"/><path class="cls-1" d="M208.78,48.18l-30.4,78.2h-2l30.5-78.2Zm4.1,0-30.6,78.2h-2l30.5-78.2Zm3.79,0-30.59,78.2h-2l30.7-78.2Zm3.81,0-30.6,78.2h-2l30.7-78.2Zm-21.2,64.2-5.5,14h-1.9l30.6-78.2h2l30.5,78.2h-2l-29.6-75.8-.9,2.4,28.5,73.4h-1.9l-27.6-70.8-.9,2.4,26.7,68.4h-2l-25.7-66-.91,2.5,24.81,63.5h-2L217.67,65.29,216.78,68l22.7,58.4h-1.9l-5.41-14Zm32.2-1.8-.7-1.7H200.67l-.69,1.7Zm-29.4-5.29-.8,1.79H230l-.7-1.79Zm1.3-3.61-.71,1.8h25.91l-.6-1.8Zm1.5-3.6-.71,1.8h23l-.59-1.8Zm21-1.79L215.67,70.38,205.58,96.29Z"/><path class="cls-1" d="M284.47,126.38h-1.8V98.29l-24.9-50.11h1.9l24.8,50.11Zm3.6,0h-1.8V98.29l-24.6-50.11h1.9l24.5,50.11Zm3.6,0h-1.8V98.29l-24.4-50.11h1.9l24.3,50.11Zm3.6,0h-1.8V98.29l-24.3-50.11h1.9l24.2,50.11Zm1.8-28.09L273,48.18h1.9l15.9,33.2,15.9-33.2h1.9l-16.9,35.2.9,1.8,17.9-37h1.9l-18.9,38.9.9,1.9,19.8-40.8h1.9l-20.8,42.7.9,1.8L318,48.18h1.9l-22.8,46.4.9,1.8,23.9-48.2h1.9l-24.9,50.11v28.09h-1.8Z"/><path d="M68.18,52.18v78.2h-1.8V52.18Zm3.6,0v78.2H70V52.18Zm3.6,0v78.2h-1.8V52.18Zm3.6,0v78.2h-1.8V52.18Zm10.5,0A24.58,24.58,0,0,1,114,76.68a24.58,24.58,0,0,1-24.5,24.5h-6.9v29.2h-1.8V52.18ZM82.58,54v1.81h6.9a21,21,0,0,1,20.9,20.89,21,21,0,0,1-20.9,20.9h-6.9v1.8h6.9a22.62,22.62,0,0,0,22.7-22.7A22.54,22.54,0,0,0,89.48,54Zm0,3.6v1.8h6.9a17.33,17.33,0,0,1,17.3,17.3A17.41,17.41,0,0,1,89.48,94h-6.9v1.81h6.9a19.14,19.14,0,0,0,19.1-19.11,19.12,19.12,0,0,0-19.1-19.1Zm0,3.6V63h6.9A13.1,13.1,0,0,1,99.18,67a13.72,13.72,0,0,1-9.7,23.34h-6.9v1.8h6.9A15.53,15.53,0,0,0,105,76.68a15.53,15.53,0,0,0-15.5-15.5Zm0,3.61v1.79h6.9a10.11,10.11,0,1,1,0,20.21h-6.9v1.79h6.9a11.87,11.87,0,0,0,8.4-20.29,11.45,11.45,0,0,0-8.4-3.5Zm0,3.5V85.08h6.9a7.92,7.92,0,0,0,5.85-2.5,8.32,8.32,0,0,0,0-11.79,7.92,7.92,0,0,0-5.85-2.5Z"/><path d="M120.58,52.18v78.2h-1.8V52.18Zm3.6,0v78.2h-1.8V52.18Zm3.6,0v78.2H126V52.18Zm3.6,0v78.2h-1.8V52.18Zm3.6,62h31.9V116H135v1.81h31.9v1.79H135v1.8h31.9v1.8H135V125h31.9v1.81H135v1.79h31.9v1.8h-33.7V52.18H135Z"/><path d="M203.78,52.18l-30.4,78.2h-2l30.5-78.2Zm4.1,0-30.6,78.2h-2l30.5-78.2Zm3.79,0-30.59,78.2h-2l30.7-78.2Zm3.81,0-30.6,78.2h-2l30.7-78.2Zm-21.2,64.2-5.5,14h-1.9l30.6-78.2h2l30.5,78.2h-2l-29.6-75.8-.9,2.4,28.5,73.4h-1.9l-27.6-70.8-.9,2.4,26.7,68.4h-2l-25.7-66-.91,2.5,24.81,63.5h-2L212.67,69.29,211.78,72l22.7,58.4h-1.9l-5.41-14Zm32.2-1.8-.7-1.7H195.67l-.69,1.7Zm-29.4-5.29-.8,1.79H225l-.7-1.79Zm1.3-3.61-.71,1.8h25.91l-.6-1.8Zm1.5-3.6-.71,1.8h23l-.59-1.8Zm21-1.79L210.67,74.38l-10.09,25.91Z"/><path d="M279.47,130.38h-1.8V102.29l-24.9-50.11h1.9l24.8,50.11Zm3.6,0h-1.8V102.29l-24.6-50.11h1.9l24.5,50.11Zm3.6,0h-1.8V102.29l-24.4-50.11h1.9l24.3,50.11Zm3.6,0h-1.8V102.29l-24.3-50.11h1.9l24.2,50.11Zm1.8-28.09L268,52.18h1.9l15.9,33.2,15.9-33.2h1.9l-16.9,35.2.9,1.8,17.9-37h1.9l-18.9,38.9.9,1.9,19.8-40.8h1.9l-20.8,42.7.9,1.8L313,52.18h1.9l-22.8,46.4.9,1.8,23.9-48.2h1.9l-24.9,50.11v28.09h-1.8Z"/></svg>
