<svg id="Layer_1" data-name="Layer 1" xmlns="http://www.w3.org/2000/svg" xmlns:xlink="http://www.w3.org/1999/xlink" width="223.62" height="105.68" viewBox="0 0 223.62 105.68"><defs><style>.cls-1{fill:#fff;}.cls-2{fill:url(#linear-gradient);}</style><linearGradient id="linear-gradient" x1="111.52" y1="2.92" x2="111.52" y2="103.34" gradientUnits="userSpaceOnUse"><stop offset="0.24" stop-color="#dd6285"/><stop offset="1" stop-color="#d4145a"/></linearGradient></defs><title>plus2</title><rect class="cls-1" width="223.62" height="105.68" rx="39.37"/><rect class="cls-2" x="2.34" y="2.92" width="218.36" height="100.42" rx="39.37"/><path class="cls-1" d="M81.3,48.35A4.44,4.44,0,0,1,83,49.79a4.69,4.69,0,0,1,.74,2.85v4.9A4.52,4.52,0,0,1,83,60.35a4.59,4.59,0,0,1-1.71,1.4,6.36,6.36,0,0,1-2.45.61H74v9.72a6.31,6.31,0,0,1-.61,2.45A4.3,4.3,0,0,1,72,76.24a4.71,4.71,0,0,1-2.85.75H64.31a4.68,4.68,0,0,1-2.84-.75A4.25,4.25,0,0,1,60,74.53a6.14,6.14,0,0,1-.61-2.45V62.36H54.59a6.36,6.36,0,0,1-2.45-.61,4.15,4.15,0,0,1-2.45-4.21v-4.9a4.69,4.69,0,0,1,.74-2.85,4.37,4.37,0,0,1,1.71-1.44,6.36,6.36,0,0,1,2.45-.62h4.82V38A6,6,0,0,1,60,35.65a4.38,4.38,0,0,1,1.45-1.71,4.75,4.75,0,0,1,2.84-.74h4.82a4.78,4.78,0,0,1,2.85.74,4.44,4.44,0,0,1,1.44,1.71A6.18,6.18,0,0,1,74,38v9.72h4.82A6.36,6.36,0,0,1,81.3,48.35Z"/><path class="cls-1" d="M130.43,67h18a4.73,4.73,0,0,1,3.63,1.28,5,5,0,0,1,1.18,3.57v4.93a5,5,0,0,1-1.18,3.57,4.73,4.73,0,0,1-3.63,1.28H124.13q-4.91,0-7.31-2.6a10.14,10.14,0,0,1-2.41-7.18q0-6.6,3.5-10.63l16.46-19.44a46.3,46.3,0,0,0,3.16-4,12.07,12.07,0,0,0,1.92-5.69q.18-5-5.42-5.43a4.88,4.88,0,0,0-2.46.79,4.13,4.13,0,0,0-1.79,2,9.75,9.75,0,0,0-.75,3c-.17,3.27-1.81,4.9-4.9,4.9h-4.82q-4.47,0-4.9-4.9A24,24,0,0,1,116.86,23q4.81-9.54,17.08-10,12.08-.45,17,9.54A26.15,26.15,0,0,1,152.55,27a24,24,0,0,1,.74,5.39,16.84,16.84,0,0,1-1.36,7.53A27.78,27.78,0,0,1,147.42,47q-1,1.32-5.29,6.27T130.43,67Z"/></svg>
