<svg id="Layer_1" data-name="Layer 1" xmlns="http://www.w3.org/2000/svg" xmlns:xlink="http://www.w3.org/1999/xlink" width="229" height="181" viewBox="0 0 229 181"><defs><style>.cls-1{fill:#fff;}.cls-2{fill:url(#linear-gradient);}</style><linearGradient id="linear-gradient" x1="114.2" y1="5" x2="114.2" y2="177" gradientUnits="userSpaceOnUse"><stop offset="0.24" stop-color="#dd6285"/><stop offset="1" stop-color="#d4145a"/></linearGradient></defs><title>settingsbutton</title><rect class="cls-1" width="229" height="181" rx="39.37"/><rect class="cls-2" x="2.39" y="5" width="223.62" height="172" rx="39.37"/><path class="cls-1" d="M120,42.26A43.06,43.06,0,1,0,163,85.32,43.06,43.06,0,0,0,120,42.26Zm-.18,52.4a9.53,9.53,0,1,1,9.52-9.53A9.53,9.53,0,0,1,119.77,94.66Z"/><rect class="cls-1" x="105.29" y="114.27" width="28.95" height="20.52" transform="translate(-4.76 244.29) rotate(-90)"/><rect class="cls-1" x="105.29" y="35.48" width="28.95" height="20.52" transform="translate(74.03 165.51) rotate(-90)"/><rect class="cls-1" x="145.05" y="75.24" width="28.95" height="20.52"/><rect class="cls-1" x="67" y="74.87" width="28.95" height="20.52"/><rect class="cls-1" x="76.71" y="46.47" width="28.95" height="20.52" transform="translate(115.55 161.33) rotate(-135)"/><rect class="cls-1" x="135.34" y="48.31" width="28.95" height="20.52" transform="translate(2.47 123.09) rotate(-45)"/><rect class="cls-1" x="135.34" y="102.17" width="28.95" height="20.52" transform="translate(123.38 -73) rotate(45)"/><rect class="cls-1" x="78.18" y="105.47" width="28.95" height="20.52" transform="translate(-54.7 99.41) rotate(-45)"/><path d="M115,45.26A43.06,43.06,0,1,0,158,88.32,43.06,43.06,0,0,0,115,45.26Zm-.18,52.4a9.53,9.53,0,1,1,9.52-9.53A9.53,9.53,0,0,1,114.77,97.66Z"/><rect x="100.29" y="117.27" width="28.95" height="20.52" transform="translate(-12.76 242.29) rotate(-90)"/><rect x="100.29" y="38.48" width="28.95" height="20.52" transform="translate(66.03 163.51) rotate(-90)"/><rect x="140.05" y="78.24" width="28.95" height="20.52"/><rect x="62" y="77.87" width="28.95" height="20.52"/><rect x="71.71" y="49.47" width="28.95" height="20.52" transform="translate(104.89 162.92) rotate(-135)"/><rect x="130.34" y="51.31" width="28.95" height="20.52" transform="translate(-1.12 120.43) rotate(-45)"/><rect x="130.34" y="105.17" width="28.95" height="20.52" transform="translate(124.04 -68.59) rotate(45)"/><rect x="73.18" y="108.47" width="28.95" height="20.52" transform="translate(-58.28 96.75) rotate(-45)"/></svg>
