<svg id="Layer_1" data-name="Layer 1" xmlns="http://www.w3.org/2000/svg" xmlns:xlink="http://www.w3.org/1999/xlink" width="1110" height="760" viewBox="0 0 1110 760"><defs><style>.cls-1{fill:#fcfcfc;opacity:0.62;}.cls-2{fill:url(#linear-gradient);}.cls-3{fill:#fff;}.cls-4{fill:url(#linear-gradient-2);}.cls-5{fill:#606060;}.cls-6{fill:url(#linear-gradient-3);}.cls-7{fill:url(#linear-gradient-4);}</style><linearGradient id="linear-gradient" x1="556" y1="26.5" x2="556" y2="734.5" gradientUnits="userSpaceOnUse"><stop offset="0.23" stop-color="#fff" stop-opacity="0.5"/><stop offset="0.33" stop-color="#fff4fb" stop-opacity="0.6"/><stop offset="0.5" stop-color="#ffe6f6" stop-opacity="0.74"/><stop offset="0.65" stop-color="#ffdcf3" stop-opacity="0.84"/><stop offset="0.79" stop-color="#ffd6f1" stop-opacity="0.9"/><stop offset="0.91" stop-color="#ffd4f0" stop-opacity="0.92"/></linearGradient><linearGradient id="linear-gradient-2" x1="564.67" y1="597.21" x2="564.67" y2="690.29" gradientUnits="userSpaceOnUse"><stop offset="0.24" stop-color="#dd6285"/><stop offset="1" stop-color="#d4145a"/></linearGradient><linearGradient id="linear-gradient-3" x1="793" y1="280" x2="928" y2="280" xlink:href="#linear-gradient-2"/><linearGradient id="linear-gradient-4" x1="792" y1="451" x2="927" y2="451" xlink:href="#linear-gradient-2"/></defs><title>settings</title><rect class="cls-1" x="2" y="2.5" width="1108" height="755" rx="12"/><rect class="cls-2" x="42" y="26.5" width="1028" height="708" rx="12"/><path d="M349.38,100.13a8.71,8.71,0,0,0-2.69-5.76,8.26,8.26,0,0,0-11.82.18,8.39,8.39,0,0,0-2.52,6.06,8.27,8.27,0,0,0,2.34,5.94,8.42,8.42,0,0,0,5.69,2.7A29.58,29.58,0,0,1,359,159.71a28.52,28.52,0,0,1-20.93,8.7,29,29,0,0,1-14.7-3.9A30.31,30.31,0,0,1,312.54,154l1.92-1.2q7.94,13.44,23.65,13.44a27.45,27.45,0,0,0,27.47-27.48,26,26,0,0,0-7.44-18.84,27.83,27.83,0,0,0-18-8.64,10.78,10.78,0,0,1-7.26-3.36,10.87,10.87,0,0,1,.37-15,10.88,10.88,0,0,1,18.29,5.88Zm15.61-9a26.55,26.55,0,0,0-9.54-11.88A25.94,25.94,0,0,0,315,100.61,24.56,24.56,0,0,0,321.72,118a25.53,25.53,0,0,0,16.74,8.22,13.13,13.13,0,0,1,8.65,4,12.65,12.65,0,0,1-.24,17.4,11.86,11.86,0,0,1-8.76,3.66q-7.69,0-11.16-7.2l1.8-1.08c1.68,4.08,4.79,6.12,9.36,6.12A9.72,9.72,0,0,0,345.3,146a10,10,0,0,0,3-7.26,9.87,9.87,0,0,0-2.87-7.08,10.69,10.69,0,0,0-7-3.36,27.88,27.88,0,0,1-25.55-27.72,27.15,27.15,0,0,1,8.15-19.86,27.84,27.84,0,0,1,35.47-3.36,28.52,28.52,0,0,1,10.26,12.54Zm-11.53,6.6a11.89,11.89,0,0,0-4.43-7.2,12.75,12.75,0,0,0-8.16-2.88,13.11,13.11,0,0,0-13,13,12.27,12.27,0,0,0,3.42,8.7,13,13,0,0,0,8.58,4.14,25.54,25.54,0,0,1,16.62,8,24.07,24.07,0,0,1,6.9,17.34A24.62,24.62,0,0,1,356,156.71a24.31,24.31,0,0,1-17.88,7.5q-14,0-22-12.6l1.81-1.32a23.1,23.1,0,0,0,8.4,8.52A23.24,23.24,0,0,0,355.14,123a23.28,23.28,0,0,0-15.47-7.38,15.13,15.13,0,0,1-9.79-4.92,14.32,14.32,0,0,1-4-10.08,14.62,14.62,0,0,1,4.38-10.68,14.35,14.35,0,0,1,10.62-4.44A14.56,14.56,0,0,1,350,88.61a14.76,14.76,0,0,1,5.34,8Zm7.68-4.32A20.63,20.63,0,0,0,353.35,83a21,21,0,0,0-12.48-4,21.7,21.7,0,0,0-21.6,21.6A20.58,20.58,0,0,0,325,115.13,20.88,20.88,0,0,0,338.83,122a17.55,17.55,0,0,1,11.34,5.34,15.86,15.86,0,0,1,4.62,11.46,16.29,16.29,0,0,1-4.86,11.88,16,16,0,0,1-11.82,4.92q-10.33,0-14.76-8.88l1.79-1.32q4.08,8,13,8a13.92,13.92,0,0,0,10.26-4.32,14.59,14.59,0,0,0,.24-20.34,14.87,14.87,0,0,0-9.9-4.74,22.36,22.36,0,0,1-15.18-7.44,22.74,22.74,0,0,1-6.18-16,23.06,23.06,0,0,1,6.84-16.8,22.48,22.48,0,0,1,16.68-7,22.88,22.88,0,0,1,13.56,4.26A23.2,23.2,0,0,1,363,92.21Zm-3.71,2a17.25,17.25,0,0,0-16.56-12.12,17.24,17.24,0,0,0-12.73,28.92,16.82,16.82,0,0,0,11.16,5.52,21.25,21.25,0,0,1,14.23,6.66,20.19,20.19,0,0,1,5.58,14.34,20.45,20.45,0,0,1-6.18,14.88,20.13,20.13,0,0,1-14.82,6.24A20.67,20.67,0,0,1,327.3,157a20,20,0,0,1-7.55-7.86l1.79-1.2q5.4,9.84,16.57,9.84a18.09,18.09,0,0,0,13.32-5.58A18.39,18.39,0,0,0,357,138.77a18,18,0,0,0-5.23-12.9,19,19,0,0,0-12.6-6.06,19.24,19.24,0,0,1-17.58-19.2,18.8,18.8,0,0,1,5.65-13.74,18.5,18.5,0,0,1,13.68-5.7,18.27,18.27,0,0,1,11.21,3.72,20,20,0,0,1,7,9.48Z"/><path d="M375.67,73.61v93.84H373.5V73.61Zm4.31,0v93.84h-2.16V73.61Zm4.32,0v93.84h-2.16V73.61Zm4.32,0v93.84h-2.16V73.61Zm4.33,52.2V128h26v2.16H393V148h35v2.16H393v2.16h35v2.16H393v2.16h35v2.16H393V161h35v2.16H393v2.16h35v2.16H390.79V73.61H428v2.16H393v2.16h35v2.16H393v2.16h35v2.16H393v2.16h35v2.16H393v2.16h35v2H393v17.76h26v2.16H393V115h26v2.16H393v2.16h26v2.16H393v2.16h26v2.16Z"/><path d="M434.1,73.61h57.36v2.16H434.1Zm0,4.32h57.36v2.16H434.1Zm0,4.32h57.36v2.16H434.1Zm0,4.32h57.36v2.16H434.1Zm23.28,6.36h-2v74.52h-2.16V92.93H434.1v-2h57.36v2h-19v74.52h-2.16V92.93h-2.16v74.52H466V92.93h-2.16v74.52H461.7V92.93h-2.16v74.52h-2.16Z"/><path d="M497.82,73.61h57.36v2.16H497.82Zm0,4.32h57.36v2.16H497.82Zm0,4.32h57.36v2.16H497.82Zm0,4.32h57.36v2.16H497.82Zm23.28,6.36h-2v74.52H516.9V92.93H497.82v-2h57.36v2h-19v74.52h-2.16V92.93H531.9v74.52h-2.16V92.93h-2.16v74.52h-2.16V92.93h-2.16v74.52H521.1Z"/><path d="M564.66,73.61v93.84H562.5V73.61Zm4.32,0v93.84h-2.16V73.61Zm4.32,0v93.84h-2.16V73.61Zm4.32,0v93.84h-2.16V73.61Zm4.32,0v93.84h-2.16V73.61Z"/><path d="M593.82,81.05l-2.16-3.84v90.24H589.5V73.61h2.28l54.36,93.84H643.5l-34.56-60.12v60.12h-2.16V103.61l-2.28-3.72v67.56h-2V96.17l-2.16-3.84v75.12h-2.16v-79L596,84.77v82.68h-2.16Zm3.24-7.44,54,93.84h-2.52L594.66,73.61Zm5,0,54,93.84h-2.64L599.58,73.61Zm4.92,0,54,93.84H658.5l-54-93.84ZM653.1,145l2.16,3.72V73.61h2.16v78.84l2.16,3.72V73.61h2.16V160l2.16,3.6v-90h2.16v93.84h-2.64l-54-93.84h2.4l34.8,60.24V73.61h2.16v64l2.28,3.6V73.61h2Z"/><path d="M729.3,121.61h2.16v45.84H729.3v-.36a39.91,39.91,0,0,1-9.6,1.32,47.73,47.73,0,0,1-47.88-47.88,47.82,47.82,0,0,1,76.56-38.4l-1.32,1.68a44.68,44.68,0,0,0-27.36-9.12,46,46,0,0,0-45.84,45.84,45.89,45.89,0,0,0,45.84,45.72,62,62,0,0,0,9.6-1.44v-2.28a49.47,49.47,0,0,1-9.6,1.68A43.63,43.63,0,0,1,676,120.53a43.62,43.62,0,0,1,69.84-34.92l-1.32,1.8a41.2,41.2,0,0,0-54.18,3.78,41.43,41.43,0,0,0,0,58.68,40,40,0,0,0,29.34,12.18,39.26,39.26,0,0,0,9.6-1.92v-2.28a28.36,28.36,0,0,1-9.6,2,39.33,39.33,0,0,1-39.36-39.36A39.33,39.33,0,0,1,719.7,81.17a38.9,38.9,0,0,1,23.76,8l-1.32,1.68a36.84,36.84,0,0,0-22.44-7.56,37.28,37.28,0,0,0-37.2,37.2,37.28,37.28,0,0,0,37.2,37.2q3.72,0,9.6-2.4v-2.76a18,18,0,0,1-9.6,3,35,35,0,0,1-35-35,35,35,0,0,1,35-35,35.65,35.65,0,0,1,21.24,7.08l-1.2,1.8a32.7,32.7,0,0,0-20-6.72,33,33,0,0,0-32.88,32.88,33,33,0,0,0,32.88,32.88,16.67,16.67,0,0,0,9.6-3.48v-2.88a12.23,12.23,0,0,1-9.6,4.2A30.73,30.73,0,0,1,689,120.53,30.63,30.63,0,0,1,719.7,89.81a30.77,30.77,0,0,1,18.84,6.36l-1.44,1.92A26,26,0,0,0,719.7,92a28.68,28.68,0,0,0-28.56,28.56,28.68,28.68,0,0,0,28.56,28.56,11.1,11.1,0,0,0,9.6-5.28Zm6.48,0v45.84h-2.16V121.61Zm4.32,0v45.84h-2.16V121.61Zm4.32,0v45.84h-2.16V121.61Zm4.32,0v45.84h-2.16V121.61Z"/><path d="M790.86,100.13a8.67,8.67,0,0,0-2.7-5.76,8.26,8.26,0,0,0-11.82.18,8.39,8.39,0,0,0-2.52,6.06,8.31,8.31,0,0,0,2.34,5.94,8.45,8.45,0,0,0,5.7,2.7,29.59,29.59,0,0,1,18.66,50.46,28.55,28.55,0,0,1-20.94,8.7,29,29,0,0,1-14.7-3.9A30.36,30.36,0,0,1,754,154l1.92-1.2q7.92,13.44,23.64,13.44a27.45,27.45,0,0,0,27.48-27.48,26,26,0,0,0-7.44-18.84,27.83,27.83,0,0,0-18-8.64,10.78,10.78,0,0,1-7.26-3.36,10.89,10.89,0,0,1,.36-15A10.89,10.89,0,0,1,793,98.81Zm15.6-9a26.42,26.42,0,0,0-9.54-11.88,26,26,0,0,0-40.5,21.36A24.53,24.53,0,0,0,763.2,118a25.53,25.53,0,0,0,16.74,8.22,13.11,13.11,0,0,1,8.64,4,12.62,12.62,0,0,1-.24,17.4,11.82,11.82,0,0,1-8.76,3.66q-7.68,0-11.16-7.2l1.8-1.08q2.52,6.12,9.36,6.12a9.72,9.72,0,0,0,7.2-3.06,10,10,0,0,0,3-7.26,9.88,9.88,0,0,0-2.88-7.08,10.66,10.66,0,0,0-7-3.36,27.87,27.87,0,0,1-25.56-27.72,27.16,27.16,0,0,1,8.16-19.86A27.83,27.83,0,0,1,798,77.39a28.45,28.45,0,0,1,10.26,12.54Zm-11.52,6.6a11.91,11.91,0,0,0-4.44-7.2,12.71,12.71,0,0,0-8.16-2.88,13.11,13.11,0,0,0-13,13,12.31,12.31,0,0,0,3.42,8.7,13,13,0,0,0,8.58,4.14,25.49,25.49,0,0,1,16.62,8,24,24,0,0,1,6.9,17.34,24.58,24.58,0,0,1-7.44,17.94,24.28,24.28,0,0,1-17.88,7.5q-14,0-22-12.6l1.8-1.32a23.18,23.18,0,0,0,8.4,8.52A23.25,23.25,0,0,0,796.62,123a23.3,23.3,0,0,0-15.48-7.38,15.11,15.11,0,0,1-9.78-4.92,14.33,14.33,0,0,1-4-10.08,14.66,14.66,0,0,1,4.38-10.68,14.36,14.36,0,0,1,10.62-4.44,14.57,14.57,0,0,1,9.18,3.12,14.76,14.76,0,0,1,5.34,8Zm7.68-4.32A20.65,20.65,0,0,0,794.82,83a21,21,0,0,0-12.48-4,21.72,21.72,0,0,0-21.6,21.6,20.59,20.59,0,0,0,5.7,14.52A20.88,20.88,0,0,0,780.3,122a17.51,17.51,0,0,1,11.34,5.34,15.82,15.82,0,0,1,4.62,11.46,16.29,16.29,0,0,1-4.86,11.88,16,16,0,0,1-11.82,4.92q-10.32,0-14.76-8.88l1.8-1.32q4.08,8,13,8a13.89,13.89,0,0,0,10.26-4.32,14.56,14.56,0,0,0,.24-20.34,14.83,14.83,0,0,0-9.9-4.74A22.38,22.38,0,0,1,765,116.57a22.78,22.78,0,0,1-6.18-16,23.1,23.1,0,0,1,6.84-16.8,22.5,22.5,0,0,1,16.68-7,22.85,22.85,0,0,1,13.56,4.26,23.14,23.14,0,0,1,8.52,11.1Zm-3.72,2a17.25,17.25,0,0,0-16.56-12.12,17.24,17.24,0,0,0-12.72,28.92,16.82,16.82,0,0,0,11.16,5.52A21.21,21.21,0,0,1,795,124.43a20.19,20.19,0,0,1,5.58,14.34,20.41,20.41,0,0,1-6.18,14.88,20.12,20.12,0,0,1-14.82,6.24,20.66,20.66,0,0,1-10.8-2.94,20.09,20.09,0,0,1-7.56-7.86l1.8-1.2q5.4,9.84,16.56,9.84a18.05,18.05,0,0,0,13.32-5.58,18.35,18.35,0,0,0,5.52-13.38,18,18,0,0,0-5.22-12.9,19,19,0,0,0-12.54-6.06,19.36,19.36,0,0,1-12-32.94,18.53,18.53,0,0,1,13.68-5.7,18.28,18.28,0,0,1,11.22,3.72,19.9,19.9,0,0,1,7,9.48Z"/><rect class="cls-3" x="440" y="594.5" width="250" height="97.95" rx="39.37"/><rect class="cls-4" x="442.61" y="597.21" width="244.13" height="93.08" rx="39.37"/><path class="cls-3" d="M515.6,652.3a17.75,17.75,0,0,1-.65,4.87,26.28,26.28,0,0,1-1.55,4.14q-4.56,9-15.87,9h-9q-4.56,0-6.79-2.39a9.28,9.28,0,0,1-2.24-6.62V616.18a9.28,9.28,0,0,1,2.24-6.62q2.24-2.38,6.79-2.39h9q11.31,0,15.87,9a26.28,26.28,0,0,1,1.55,4.14,17.75,17.75,0,0,1,.65,4.87v1.46a18,18,0,0,1-3.41,11.28q3.4,4.38,3.41,11.29ZM502,626.65v-1.46a4.06,4.06,0,0,0-4.55-4.47h-2.28q-2.19,0-2.19,2.28v8.11h4.47a4,4,0,0,0,4.55-4.46Zm0,25.65v-3.08a4.67,4.67,0,0,0-1.14-3.33,4.46,4.46,0,0,0-3.41-1.22H493v9.82q0,2.28,2.19,2.28h2.28A4.06,4.06,0,0,0,502,652.3Z"/><path class="cls-3" d="M559.78,661.31q0,4.55-2.4,6.78a9.39,9.39,0,0,1-6.64,2.23h-9q-11.31,0-15.79-9a23.61,23.61,0,0,1-1.51-4.14,15.79,15.79,0,0,1,0-9.74,25.09,25.09,0,0,1,1.5-4.14q4.47-9.09,15.76-9.09a14.31,14.31,0,0,1,2,.16c.76.11,1.59.27,2.52.49v-.65a4.06,4.06,0,0,0-4.55-4.47h-9a4.32,4.32,0,0,1-3.37-1.21,4.81,4.81,0,0,1-1.09-3.33v-4.47a4.82,4.82,0,0,1,1.09-3.33,4.32,4.32,0,0,1,3.37-1.21h9q11.33,0,15.9,9a25.33,25.33,0,0,1,1.55,4.14,17.37,17.37,0,0,1,.66,4.87Zm-13.56-6.82V652.3c0-2.76-1.52-4.27-4.55-4.55q-4.47.33-4.47,4.55a4.65,4.65,0,0,0,1.1,3.29,4.41,4.41,0,0,0,3.37,1.18h2.27A2,2,0,0,0,546.22,654.49Z"/><path class="cls-3" d="M604,652.87a25.31,25.31,0,0,1-2.2,9q-4.56,9-15.87,9t-15.79-9a28.38,28.38,0,0,1-1.59-4.14,16.66,16.66,0,0,1-.69-4.87V633.63a16.71,16.71,0,0,1,.69-4.87,29.29,29.29,0,0,1,1.59-4.14q4.47-9,15.79-9t15.87,9a25.92,25.92,0,0,1,2.2,9q-.4,4.54-4.5,4.55h-4.57q-4.25,0-4.49-4.55-.09-4.14-4.55-4.46-4.47.32-4.47,4.46v19.24q0,4.14,4.47,4.46,4.46-.32,4.55-4.46.24-4.54,4.49-4.55h4.57Q603.56,648.32,604,652.87Z"/><path class="cls-3" d="M647.49,660.66a4.86,4.86,0,0,1,1,3,4.38,4.38,0,0,1-1.78,3.32l-3.49,2.84a4.41,4.41,0,0,1-2.85,1.06,4.52,4.52,0,0,1-3.49-1.79l-11.37-15.74v12.42a4.43,4.43,0,0,1-1.22,3.41,4.71,4.71,0,0,1-3.33,1.13h-4.46a4.71,4.71,0,0,1-3.33-1.13,4.43,4.43,0,0,1-1.22-3.41V611.71a4.43,4.43,0,0,1,1.22-3.41,4.71,4.71,0,0,1,3.33-1.13H621a4.71,4.71,0,0,1,3.33,1.13,4.43,4.43,0,0,1,1.22,3.41V632.9l11.37-15.51a4.35,4.35,0,0,1,6.34-.73l3.49,2.84a4.41,4.41,0,0,1,1.78,3.33,4.86,4.86,0,0,1-1,3l-13.65,17.45Z"/><rect class="cls-5" x="688" y="228.5" width="240" height="104" rx="52"/><ellipse class="cls-6" cx="860.5" cy="280" rx="67.5" ry="51.5"/><rect class="cls-5" x="687" y="399.5" width="240" height="104" rx="52"/><ellipse class="cls-7" cx="859.5" cy="451" rx="67.5" ry="51.5"/><path d="M326.73,304.13a4.14,4.14,0,0,1-1,2.87,3.71,3.71,0,0,1-2.9,1.05H303.42q-3.93,0-5.85-2.07a8,8,0,0,1-1.92-5.7V261.36a8.07,8.07,0,0,1,1.92-5.71q1.92-2.06,5.85-2.06h19.46a3.71,3.71,0,0,1,2.9,1,4.12,4.12,0,0,1,1,2.87v3.85a4.14,4.14,0,0,1-1,2.87,3.71,3.71,0,0,1-2.9,1H309.23c-1.26,0-1.89.65-1.89,2v7.28h15.54a3.71,3.71,0,0,1,2.9,1.05,4.12,4.12,0,0,1,1,2.87v3.85a4.14,4.14,0,0,1-1,2.87,3.71,3.71,0,0,1-2.9,1H307.34v8.19a1.7,1.7,0,0,0,1.89,2h13.65a3.71,3.71,0,0,1,2.9,1.05,4.12,4.12,0,0,1,1,2.87Z"/><path d="M361,276.9a4,4,0,0,1-1,2.87,3.82,3.82,0,0,1-2.94,1.05h-3.85v23.31a3.85,3.85,0,0,1-1.05,2.94,4,4,0,0,1-2.87,1h-3.84a4.07,4.07,0,0,1-2.88-1,3.85,3.85,0,0,1-1.05-2.94V280.82h-3.85a3.81,3.81,0,0,1-2.93-1.05,4,4,0,0,1-1-2.87v-3.85a4,4,0,0,1,1-2.87,3.81,3.81,0,0,1,2.93-1.05h3.85a22.5,22.5,0,0,1,.67-4.24,19.7,19.7,0,0,1,1.3-3.6q3.92-7.92,13.57-8.19,3.93.35,3.93,3.92v3.85q0,3.63-3.86,3.92t-3.92,4.34H357a3.82,3.82,0,0,1,2.94,1.05,4,4,0,0,1,1,2.87Z"/><path d="M395.19,276.9a4.06,4.06,0,0,1-1,2.87,3.86,3.86,0,0,1-2.95,1.05h-3.84v23.31a3.85,3.85,0,0,1-1.05,2.94,4.06,4.06,0,0,1-2.87,1h-3.85a4,4,0,0,1-2.87-1,3.86,3.86,0,0,1-1.06-2.94V280.82h-3.84a3.82,3.82,0,0,1-2.94-1.05,4,4,0,0,1-1-2.87v-3.85a4,4,0,0,1,1-2.87,3.82,3.82,0,0,1,2.94-1.05h3.84a22.5,22.5,0,0,1,.67-4.24,19.7,19.7,0,0,1,1.3-3.6q3.92-7.92,13.57-8.19,3.93.35,3.93,3.92v3.85q0,3.63-3.86,3.92t-3.91,4.34h3.84a3.86,3.86,0,0,1,2.95,1.05,4,4,0,0,1,1,2.87Z"/><path d="M433.33,284.74q0,3.92-2.07,5.84a8.05,8.05,0,0,1-5.72,1.93H413.88c.18,2.56,1.46,3.85,3.84,3.85h7.77a3.82,3.82,0,0,1,2.94,1.05,4,4,0,0,1,1,2.87v3.85a4,4,0,0,1-1,2.87,3.82,3.82,0,0,1-2.94,1.05h-7.77q-9.72,0-13.58-7.77a26.87,26.87,0,0,1-1.36-3.57,14.31,14.31,0,0,1-.6-4.2v-16.1a14.21,14.21,0,0,1,.6-4.2,24.62,24.62,0,0,1,1.37-3.57q3.86-7.77,13.61-7.77t13.68,7.77a22.52,22.52,0,0,1,1.33,3.57,14.91,14.91,0,0,1,.56,4.2Zm-11.69-5.88v-2.45c0-2.34-1.3-3.62-3.92-3.85-2.56.18-3.84,1.47-3.84,3.85v4.41h5.8A1.73,1.73,0,0,0,421.64,278.86Z"/><path d="M471.41,293a21.73,21.73,0,0,1-1.89,7.77q-3.93,7.77-13.68,7.77t-13.61-7.77a25.55,25.55,0,0,1-1.37-3.57,14.31,14.31,0,0,1-.6-4.2V276.41a14.21,14.21,0,0,1,.6-4.2,24.62,24.62,0,0,1,1.37-3.57q3.86-7.77,13.61-7.77t13.68,7.77a22.17,22.17,0,0,1,1.89,7.77q-.35,3.91-3.87,3.92H463.6c-2.44,0-3.74-1.31-3.88-3.92,0-2.38-1.35-3.67-3.92-3.85-2.56.18-3.85,1.47-3.85,3.85V293c0,2.38,1.29,3.66,3.85,3.85q3.85-.28,3.92-3.85c.14-2.62,1.44-3.92,3.88-3.92h3.94C469.89,289.08,471.18,290.38,471.41,293Z"/><path d="M505.57,304.62c0,2.52-1.3,3.82-3.92,3.92a15.1,15.1,0,0,1-8.26-1.86,13.9,13.9,0,0,1-5.32-5.91,25.55,25.55,0,0,1-1.36-3.57,14.31,14.31,0,0,1-.6-4.2V276.9h-3.85a3.92,3.92,0,0,1-2.94-1,4,4,0,0,1-1-2.86v-3.94a4,4,0,0,1,1-2.85,3.92,3.92,0,0,1,2.94-1h3.85v-3.89a3.68,3.68,0,0,1,1.05-2.88,4.18,4.18,0,0,1,2.87-.93h3.85a4.16,4.16,0,0,1,2.87.93,3.68,3.68,0,0,1,1.05,2.88v3.89h3.85a3.5,3.5,0,0,1,3.92,3.87V273a3.94,3.94,0,0,1-1,2.86,3.89,3.89,0,0,1-2.94,1H497.8V293q0,3.5,3.92,3.85t3.85,3.92Z"/><path d="M543.65,293.49a14.58,14.58,0,0,1-14.56,14.56h-12.6a3.85,3.85,0,0,1-2.94-1.05,4.06,4.06,0,0,1-1-2.87v-3.85a4,4,0,0,1,1-2.87,3.85,3.85,0,0,1,2.94-1.05h12.6a3.16,3.16,0,0,0,2.1-.84,2.77,2.77,0,0,0,.84-2,2.85,2.85,0,0,0-.84-2.1,3.16,3.16,0,0,0-2.1-.84h-2a14.6,14.6,0,0,1,0-29.19h10.71a3.82,3.82,0,0,1,2.94,1.05,4,4,0,0,1,1,2.87v3.85a4,4,0,0,1-1,2.87,3.82,3.82,0,0,1-2.94,1.05H527.13a2.77,2.77,0,0,0-2,.84,2.85,2.85,0,0,0-.84,2.1,2.87,2.87,0,0,0,2.87,2.87h2a14.58,14.58,0,0,1,14.56,14.63Z"/><path d="M357.91,470.53a3.51,3.51,0,0,1-3.88,3.92h-3.94a4,4,0,0,1-2.85-1,3.88,3.88,0,0,1-1-2.94v-19l-7.91,20.09a3.74,3.74,0,0,1-3.57,2.17h-3.85a4.45,4.45,0,0,1-2.2-.53,3,3,0,0,1-1.37-1.71l-7.9-20.16v19.18a3.86,3.86,0,0,1-1.06,2.94,4,4,0,0,1-2.87,1h-3.85a4.06,4.06,0,0,1-2.87-1,3.85,3.85,0,0,1-1.05-2.94V423.91a3.82,3.82,0,0,1,1.05-2.94,4,4,0,0,1,2.87-1h3.85a4.17,4.17,0,0,1,2.21.56,3.41,3.41,0,0,1,1.43,1.75l13.65,34.16L346.5,422.3a3.5,3.5,0,0,1,3.59-2.31H354a3.51,3.51,0,0,1,3.88,3.92Z"/><path d="M396,466.68q0,3.92-2.07,5.84a8,8,0,0,1-5.71,1.93h-7.79q-9.75,0-13.61-7.77a25.55,25.55,0,0,1-1.37-3.57,14.31,14.31,0,0,1-.6-4.2V431.68a3.82,3.82,0,0,1,1.05-2.94,4,4,0,0,1,2.87-1h3.85a4,4,0,0,1,2.87,1,3.82,3.82,0,0,1,1,2.94v27.23a4,4,0,0,0,1,2.83,3.78,3.78,0,0,0,2.9,1h2a1.73,1.73,0,0,0,2-2V431.68a3.89,3.89,0,0,1,1-2.94,4,4,0,0,1,2.86-1h3.94a3.5,3.5,0,0,1,3.87,3.92Z"/><path d="M434,459.89a14.58,14.58,0,0,1-14.56,14.56h-12.6a3.85,3.85,0,0,1-2.94-1.05,4.06,4.06,0,0,1-1-2.87v-3.85a4,4,0,0,1,1-2.87,3.85,3.85,0,0,1,2.94-1.05h12.6a3.16,3.16,0,0,0,2.1-.84,2.77,2.77,0,0,0,.84-2,2.85,2.85,0,0,0-.84-2.1,3.16,3.16,0,0,0-2.1-.84h-2a14.6,14.6,0,0,1,0-29.19h10.71a3.82,3.82,0,0,1,2.94,1.05,4,4,0,0,1,1,2.87v3.85a4,4,0,0,1-1,2.87,3.82,3.82,0,0,1-2.94,1.05H417.47a2.77,2.77,0,0,0-2,.84,2.85,2.85,0,0,0-.84,2.1,2.87,2.87,0,0,0,2.87,2.87h2A14.58,14.58,0,0,1,434,459.89Z"/><path d="M452.68,425.73a3.85,3.85,0,0,1-1.05,2.94,4,4,0,0,1-2.87,1h-3.85a4.06,4.06,0,0,1-2.87-1,3.85,3.85,0,0,1-1.05-2.94v-1.82A3.82,3.82,0,0,1,442,421a4,4,0,0,1,2.87-1h3.85a4,4,0,0,1,2.87,1,3.82,3.82,0,0,1,1.05,2.94Zm0,44.8a3.85,3.85,0,0,1-1.05,2.94,4,4,0,0,1-2.87,1h-3.85a4.06,4.06,0,0,1-2.87-1,3.85,3.85,0,0,1-1.05-2.94V437.42a3.82,3.82,0,0,1,1.05-2.94,4,4,0,0,1,2.87-1h3.85a4,4,0,0,1,2.87,1,3.82,3.82,0,0,1,1.05,2.94Z"/><path d="M490.83,459.4a21.73,21.73,0,0,1-1.89,7.77q-3.93,7.77-13.68,7.77t-13.61-7.77a25.55,25.55,0,0,1-1.37-3.57,14.31,14.31,0,0,1-.6-4.2V442.81a14.21,14.21,0,0,1,.6-4.2,24.62,24.62,0,0,1,1.37-3.57q3.86-7.77,13.61-7.77T488.94,435a22.17,22.17,0,0,1,1.89,7.77q-.34,3.92-3.87,3.92H483q-3.67,0-3.88-3.92c0-2.38-1.35-3.67-3.92-3.85-2.56.18-3.85,1.47-3.85,3.85V459.4c0,2.38,1.29,3.66,3.85,3.85q3.86-.28,3.92-3.85c.14-2.62,1.43-3.92,3.88-3.92H487C489.31,455.48,490.6,456.78,490.83,459.4Z"/></svg>
