<svg id="Layer_1" data-name="Layer 1" xmlns="http://www.w3.org/2000/svg" xmlns:xlink="http://www.w3.org/1999/xlink" width="223.62" height="105.68" viewBox="0 0 223.62 105.68"><defs><style>.cls-1{fill:#fff;}.cls-2{fill:url(#linear-gradient);}.cls-3{fill:url(#linear-gradient-2);}.cls-4{fill:#333;}.cls-10,.cls-5,.cls-6,.cls-7,.cls-8,.cls-9{stroke:#000;stroke-miterlimit:10;}.cls-5{fill:url(#linear-gradient-3);}.cls-6{fill:url(#linear-gradient-4);}.cls-7{fill:url(#linear-gradient-5);}.cls-8{fill:url(#linear-gradient-6);}.cls-9{fill:url(#linear-gradient-7);}.cls-10{fill:url(#linear-gradient-8);}</style><linearGradient id="linear-gradient" x1="111.52" y1="2.92" x2="111.52" y2="103.34" gradientUnits="userSpaceOnUse"><stop offset="0.24" stop-color="#dd6285"/><stop offset="1" stop-color="#d4145a"/></linearGradient><linearGradient id="linear-gradient-2" x1="112.49" y1="96.45" x2="112.49" y2="10.9" gradientUnits="userSpaceOnUse"><stop offset="0" stop-color="#1a1a1a"/><stop offset="0.54" stop-color="#999"/><stop offset="1"/></linearGradient><linearGradient id="linear-gradient-3" x1="112.34" y1="81.36" x2="112.34" y2="81.36" xlink:href="#linear-gradient-2"/><linearGradient id="linear-gradient-4" x1="112.18" y1="91.24" x2="112.18" y2="71.47" xlink:href="#linear-gradient-2"/><linearGradient id="linear-gradient-5" x1="119.51" y1="91.42" x2="119.51" y2="71.65" xlink:href="#linear-gradient-2"/><linearGradient id="linear-gradient-6" x1="99.97" y1="91.78" x2="99.97" y2="72.01" xlink:href="#linear-gradient-2"/><linearGradient id="linear-gradient-7" x1="106.08" y1="91.42" x2="106.08" y2="71.65" xlink:href="#linear-gradient-2"/><linearGradient id="linear-gradient-8" x1="125.31" y1="91.78" x2="125.31" y2="72.01" xlink:href="#linear-gradient-2"/></defs><title>skull</title><rect class="cls-1" width="223.62" height="105.68" rx="39.37"/><rect class="cls-2" x="2.34" y="2.92" width="218.36" height="100.42" rx="39.37"/><path class="cls-3" d="M149,42.18c0-17.28-16.33-31.28-36.48-31.28S76,24.9,76,42.18C76,52.31,81.63,61.32,90.35,67V92.14c0,2.37,1.65,4.31,3.67,4.31h37.24c2,0,3.67-1.94,3.67-4.31V66.83C143.48,61.11,149,52.19,149,42.18Z"/><ellipse class="cls-4" cx="100.12" cy="39.3" rx="7.63" ry="8.99"/><ellipse class="cls-4" cx="126.38" cy="39.3" rx="7.63" ry="8.99"/><ellipse class="cls-4" cx="110.05" cy="60.69" rx="1.68" ry="3.41"/><ellipse class="cls-4" cx="116.46" cy="60.69" rx="1.68" ry="3.41"/><rect class="cls-1" x="94.8" y="71.65" width="34.86" height="19.77" rx="9.88"/><line class="cls-5" x1="94.93" y1="81.36" x2="129.74" y2="81.36"/><line class="cls-6" x1="112.18" y1="71.47" x2="112.18" y2="91.24"/><line class="cls-7" x1="119.51" y1="71.65" x2="119.51" y2="91.42"/><line class="cls-8" x1="99.97" y1="72.01" x2="99.97" y2="91.78"/><line class="cls-9" x1="106.08" y1="71.65" x2="106.08" y2="91.42"/><line class="cls-10" x1="125.31" y1="72.01" x2="125.31" y2="91.78"/></svg>
