<svg id="Layer_1" data-name="Layer 1" xmlns="http://www.w3.org/2000/svg" width="212.48" height="91.01" viewBox="0 0 212.48 91.01"><title>sleep</title><path d="M45,48.83a4.14,4.14,0,0,1-1.37,3.28,6.28,6.28,0,0,1-4.21,1.2H11.25q-5.67,0-8.46-2.36A8.06,8.06,0,0,1,0,44.44Q0,41,4.76,35.57L24.33,13.35H5.68a6.46,6.46,0,0,1-4.26-1.2A4.05,4.05,0,0,1,0,8.87V4.48A4.05,4.05,0,0,1,1.42,1.2,6.46,6.46,0,0,1,5.68,0H33.76q5.68,0,8.47,2.36A8.09,8.09,0,0,1,45,8.87q0,4.49-3.86,8.79L21.39,40h18a6.28,6.28,0,0,1,4.21,1.2A4.14,4.14,0,0,1,45,44.44Z"/><path d="M121.25,86.53a4.14,4.14,0,0,1-1.37,3.28,6.26,6.26,0,0,1-4.21,1.2H87.49Q81.81,91,79,88.65a8.07,8.07,0,0,1-2.79-6.52q0-4.3,4.06-9.67L102.9,42.17h-21A6.48,6.48,0,0,1,77.65,41a4,4,0,0,1-1.42-3.27V33.3A4.07,4.07,0,0,1,77.65,30a6.48,6.48,0,0,1,4.26-1.19H110q5.69,0,8.47,2.35a8.09,8.09,0,0,1,2.79,6.52,15.87,15.87,0,0,1-3.35,9.51L95.29,77.66h20.38a6.26,6.26,0,0,1,4.21,1.2,4.13,4.13,0,0,1,1.37,3.27Z"/><path d="M212.48,51.56a4.13,4.13,0,0,1-1.37,3.27A6.26,6.26,0,0,1,206.9,56H178.72c-3.79,0-6.61-.78-8.47-2.36a8.06,8.06,0,0,1-2.79-6.51q0-3.44,4.77-8.87L191.8,16.07H173.14a6.48,6.48,0,0,1-4.26-1.2,4.08,4.08,0,0,1-1.42-3.28V7.2a4.08,4.08,0,0,1,1.42-3.28,6.48,6.48,0,0,1,4.26-1.2h28.09q5.67,0,8.46,2.36a8.07,8.07,0,0,1,2.79,6.51q0,4.48-3.85,8.8l-19.77,22.3h18a6.26,6.26,0,0,1,4.21,1.19,4.16,4.16,0,0,1,1.37,3.28Z"/></svg>
