<svg id="Layer_1" data-name="Layer 1" xmlns="http://www.w3.org/2000/svg" xmlns:xlink="http://www.w3.org/1999/xlink" width="1920" height="1080" viewBox="0 0 1920 1080"><defs><style>.cls-1,.cls-10,.cls-13,.cls-8{fill:none;}.cls-2{fill:url(#linear-gradient);}.cls-3{fill:url(#linear-gradient-2);}.cls-4{fill:#44312a;}.cls-5{fill:#2d1f1b;}.cls-6{fill:#e8c0af;}.cls-7{fill:#c69487;}.cls-8{stroke:#000;}.cls-10,.cls-13,.cls-8{stroke-miterlimit:10;}.cls-10,.cls-8{stroke-width:6px;}.cls-9{fill:#d8afa4;}.cls-10{stroke:#4f3116;}.cls-11{fill:#28201b;}.cls-12{fill:#ba3d3a;}.cls-13{stroke:#940c00;stroke-width:4px;}.cls-14{fill:#cc7db7;}.cls-15{fill:#b26fa4;}.cls-16{fill:#d8b0a3;}.cls-17{clip-path:url(#clip-path);}.cls-18{clip-path:url(#clip-path-2);}.cls-19{fill:#fff;}.cls-20{fill:url(#radial-gradient);}.cls-21{fill:#686564;}</style><linearGradient id="linear-gradient" x1="959" y1="1079" x2="959" y2="775" gradientUnits="userSpaceOnUse"><stop offset="0.24" stop-color="#302720"/><stop offset="0.58" stop-color="#3e2f24"/><stop offset="1" stop-color="#543c2b"/></linearGradient><linearGradient id="linear-gradient-2" x1="960" y1="778" x2="960" gradientUnits="userSpaceOnUse"><stop offset="0" stop-color="#dd6285"/><stop offset="0.62" stop-color="#d72e69"/><stop offset="1" stop-color="#d4145a"/></linearGradient><clipPath id="clip-path"><rect class="cls-1" x="546.28" y="235.29" width="166.23" height="278.63"/></clipPath><clipPath id="clip-path-2"><rect class="cls-1" x="554.72" y="227.57" width="157.04" height="263.22"/></clipPath><radialGradient id="radial-gradient" cx="546.69" cy="735" r="395.74" gradientUnits="userSpaceOnUse"><stop offset="0" stop-color="#fff" stop-opacity="0"/><stop offset="0.94" stop-opacity="0.55"/></radialGradient></defs><title>startscreen</title><rect class="cls-2" x="-1" y="775" width="1920" height="304"/><rect class="cls-3" width="1920" height="778"/><path class="cls-4" d="M387.59,278.37c-10.93,16.29-17.67,35-26.82,52.36-2.48,4.69-7.34,13.83-5.45,24.56.32,1.81,1.15,2.67,1.43,4.77,1.15,8.72-6.13,16.19-8.47,18.85-9.62,10.93-5.79,20-13.39,41-12.82,35.5-32.79,32.27-31.23,51.75,1,12.24,9.64,26.24,4.47,48.15v0c-8.44,35-31.23,76.74-31.23,76.74-26.35,47.87-16.19,123.47.89,128.49,8.71,2.55,14-14.79,40.15-20.53,6.67-1.46,12.49-1.69,29.55-5.18,7.22-1.47,13.14-2.86,17.12-3.82,12.56-5.54,15.95-14.11,21.28-18.4,23.53-18.94,85.1,45.21,123,26.51,14.05-6.93,12-18.94,32.4-28.18,16-7.24,30.84-6.06,44.33-4.83,33.1,3,72.19,18.32,85.83,12.31a34.2,34.2,0,0,0,4.68-2.57c1.81-4.4,5.31-11,12.06-14.94,36.6-21.5,109.8,68,133.89,51.59,16.37-11.16,5.42-68.15-11.6-104.39-8.81-18.74-17.13-27.45-19.63-48.18-3-25.19,6.67-33.64-.9-51.76-6.09-14.59-13.87-13.22-29.44-35.69-12.63-18.21-16.74-33.31-17.12-33.14-.59.25,11,34.31,17.12,33.14,4.08-.78-.43-16.16,7.14-38.36,6.45-18.95,15.06-23.4,13.38-35.7-1.32-9.61-6.89-9.07-13-21.79-11-22.83.65-37.68-11.07-50.48-6.72-7.34-11.4-3.89-20.52-11.6-12.22-10.33-8.77-20.92-17-41-10.53-25.87-31.31-45.37-52.15-64.92a161.4,161.4,0,0,1-11.91-12c-6.45-7.24-7.85-10.47-17.13-17.68-2.52-2-33.35-24.87-77.45-28.88-45.13-4.1-104.64,11.55-136.7,53C406.64,230.18,414.66,238,387.59,278.37Z"/><path class="cls-5" d="M429.62,280.57c22.88-29.79,67-54.56,117.85-55.68,50.86-2.1,95,20.14,117.85,49.47"/><rect class="cls-6" x="659.46" y="616.49" width="63.38" height="153.6" rx="13.04" transform="translate(-164.7 218.04) rotate(-16.05)"/><rect class="cls-6" x="499.07" y="478.61" width="94.55" height="154.3" rx="19.47"/><rect class="cls-6" x="382.5" y="567.61" width="55.57" height="212.57" rx="13.04" transform="translate(185.32 -82.32) rotate(14.77)"/><rect class="cls-6" x="499.07" y="473.6" width="94.55" height="126.21" rx="19.47"/><rect class="cls-7" x="488.85" y="482.47" width="118.18" height="67.25" transform="translate(149.64 -122.62) rotate(14.77)"/><rect class="cls-5" x="594.62" y="438.55" width="75.13" height="147.25"/><rect class="cls-5" x="441.36" y="469.6" width="57.1" height="109.18"/><path class="cls-6" d="M674.85,388.07c-14.59,36.26-40.43,69.85-63.44,96.6-23.72,26.34-44.61,45.84-65.94,44.76-21.32-.33-42.21-20.78-65.94-46.48-23-26.21-48.85-57.69-63.44-91.78S404,321.89,427.62,291.59c22.87-29.79,67-54.56,117.85-55.68,50.86-2.1,95,20.13,117.85,49.47C687,315.11,689.38,351.94,674.85,388.07Z"/><path class="cls-8" d="M616.22,352.71c3.13,9,9.74,15.17,14.78,13.87"/><path class="cls-8" d="M606,353.38c2.17,9.18,8.11,15.87,13.26,15"/><path class="cls-8" d="M638.05,348c5.78,7.93,14.07,12.39,18.52,10"/><path class="cls-8" d="M645.56,343.75c7.16,7,16.17,10.31,20.12,7.32"/><path class="cls-8" d="M650,340.78c10,5.3,20.6,6,23.73,1.65"/><path class="cls-8" d="M594.18,351.85c1.57,9.26,7.06,16.24,12.27,15.58"/><path class="cls-8" d="M579,348.43c1.36,9.28,6.69,16.35,11.91,15.79"/><path class="cls-8" d="M567.88,343.53c.59,9.35,5.31,16.73,10.56,16.49"/><path class="cls-8" d="M627.84,351.1c4.39,8.57,11.85,14,16.66,12.19"/><ellipse class="cls-9" cx="608.88" cy="338.47" rx="44.45" ry="17.39"/><path class="cls-10" d="M562,310.27c46.39-22.57,93.32-21.69,104.83,2"/><path class="cls-10" d="M534.55,310.27c-46.4-22.57-93.33-21.69-104.83,2"/><path class="cls-5" d="M677.62,245.47a203.78,203.78,0,0,1,33,80.16c8.68,49.93,35.32,78.52-8.92,130.13-15.17,17.7,9.82,87.45-7.14,121.81s-20.52,40.6-37.47-67.67c-13.17-84.1-7-78.38-2.69-90.66a53.78,53.78,0,0,0,2.69-17.61c.49-36.05-5.36-88.49-5.36-88.49-5.92-53.21-3.2-62.13,1.79-66.63C660.05,240.62,670,242.66,677.62,245.47Z"/><path class="cls-4" d="M684.63,245.54a212.93,212.93,0,0,1,33,82.41c8.67,51.34,35.31,80.73-8.93,133.79-15.17,18.19,9.82,89.9-7.14,125.22s-20.52,41.74-37.47-69.57c-13.17-86.46-7-80.58-2.69-93.2a56.77,56.77,0,0,0,2.69-18.11c.49-37.05-5.35-91-5.35-91-5.93-54.7-3.21-63.87,1.78-68.5C667.06,240.56,677,242.66,684.63,245.54Z"/><ellipse class="cls-11" cx="542.21" cy="407.32" rx="4.77" ry="5.3"/><ellipse class="cls-11" cx="555.87" cy="407.32" rx="4.77" ry="5.3"/><path class="cls-12" d="M581.09,458.1c1.09,4.21-10.8,20.21-34.31,19.84-23.5,0-35.36-16-34.25-19.81"/><path class="cls-12" d="M512.52,458.22c.29-2.76,5.78.57,15.59,3.64s18.77,5.14,18.7,8.16"/><path class="cls-12" d="M546.81,470c-.06-3,9-5.06,18.72-8.38s15.29-6.46,15.57-3.44"/><path class="cls-12" d="M514.64,458.4c0-6.94,7.16-12.57,16-12.57s16,5.63,16,12.57"/><path class="cls-12" d="M546.29,459.4c0-6.94,7.11-12.61,15.94-12.67s16,5.52,16,12.46"/><path class="cls-13" d="M581.1,458.2c-6.6,5-19.57,7.85-34.38,7.48-14.4-.36-27-3.45-33.73-8.1"/><path class="cls-8" d="M480.73,353.71c-3.13,9-9.74,15.17-14.78,13.87"/><path class="cls-8" d="M490.91,354.39c-2.17,9.17-8.11,15.87-13.26,15"/><path class="cls-8" d="M458.89,349c-5.77,7.93-14.06,12.4-18.51,10"/><path class="cls-8" d="M451.39,344.75c-7.16,7-16.17,10.31-20.12,7.32"/><path class="cls-8" d="M446.93,341.78c-10,5.3-20.6,6-23.73,1.65"/><path class="cls-8" d="M502.77,352.85c-1.57,9.27-7.07,16.24-12.27,15.58"/><path class="cls-8" d="M518,349.43c-1.36,9.29-6.69,16.36-11.91,15.79"/><path class="cls-8" d="M529.06,344.54c-.58,9.34-5.3,16.73-10.56,16.48"/><path class="cls-8" d="M469.1,352.11c-4.38,8.56-11.84,14-16.65,12.18"/><ellipse class="cls-9" cx="488.07" cy="339.47" rx="44.45" ry="17.39"/><path class="cls-5" d="M441.73,242.17c-11.3,15.53-26.67,41-33,75.24-8.68,46.87-35.32,73.7,8.92,122.15,15.17,16.61-9.82,82.08,7.14,114.33S445.3,592,462.25,490.37c13.17-78.94,7-73.57,2.69-85.1a47.59,47.59,0,0,1-2.69-16.53c-.49-33.83,5.36-83.06,5.36-83.06,5.92-49.94,3.2-58.31-1.79-62.54C459.3,237.62,449.34,239.53,441.73,242.17Z"/><path class="cls-4" d="M434.72,238.38a210.17,210.17,0,0,0-33,81.77c-8.68,50.93-35.32,80.09,8.92,132.73,15.17,18.05-9.82,89.2,7.14,124.24s20.52,41.41,37.47-69c13.17-85.78,7-80,2.69-92.47a55.89,55.89,0,0,1-2.69-18c-.49-36.76,5.36-90.26,5.36-90.26,5.92-54.26,3.2-63.36-1.79-68C452.29,233.44,442.33,235.52,434.72,238.38Z"/><rect class="cls-14" x="403.6" y="565.1" width="287.31" height="256.08" rx="52.73"/><path class="cls-6" d="M591.87,562.43c0,20.69-20.77,37.47-46.4,37.47s-46.4-16.78-46.4-37.47"/><path class="cls-14" d="M371.09,696.85l35.75-118.63C410,567.8,423.1,562.45,436,566.33l29.9,9c12.88,3.89,20.86,15.59,17.71,26L447.84,720"/><path class="cls-14" d="M727.26,682.79l-43.8-115.91c-3.85-10.18-17.3-14.62-29.89-9.86l-29.21,11c-12.58,4.76-19.73,17-15.89,27.16l43.81,115.91"/><path class="cls-15" d="M409.28,769.76c0,13.58,31.09,25,67.89,25s67.89-11.46,67.89-25m3.48,0c0,16-31.35,28.51-71.37,28.51s-71.37-12.52-71.37-28.51"/><rect class="cls-16" x="407.5" y="429.66" width="58.7" height="351.47" rx="13.04" transform="translate(168.73 -91.35) rotate(14.77)"/><path class="cls-15" d="M546.51,771.76c0,13.58,31.09,25,67.89,25s67.89-11.47,67.89-25m3.48,0c0,16-31.35,28.51-71.37,28.51S543,787.75,543,771.76"/><rect class="cls-16" x="614.1" y="439" width="67.14" height="340.55" rx="13.04" transform="translate(1455.79 980.26) rotate(161.41)"/><path class="cls-5" d="M361.37,446.13c1.08.38-13.88,38-27.11,69.51-13.57,33.16-25.41,60.28-25.94,77.07-2.37,16.84-6.59,34.63-6.91,50.32-.81,15.62,2.28,29.16,3.55,35.8,2.05,2.74-.82-8.09.18-25.71.62-17.77,5.11-42.31,13-70.51,7.68-28,18.76-59.65,27.86-87.31C355.08,468.17,362.18,445,361.37,446.13Z"/><path class="cls-5" d="M547.6,195.79c-.19-1.42,18.93-8.17,41.23,2.52,23.66,11.34,37.88,36.08,37.83,36.89h0c-.18.52-23.25-24.11-48.56-34.16C560,193.86,547.75,196.91,547.6,195.79Z"/><path class="cls-5" d="M553.19,188.14c.1-3.11-37.07-11.86-77.16,18-42.53,31.69-64.93,89.42-64.7,91.14h0c.44,1.06,41.39-72.48,87.25-101.87C531.38,174.41,553.1,190.61,553.19,188.14Z"/><path class="cls-5" d="M548.33,190.05c-.37-.9-26.53,1.07-49.25,14.4C475,218.6,468,237.74,468.42,238.2h0c.44.25,18.24-21.6,44.9-35.48C532.39,192.79,548.61,190.77,548.33,190.05Z"/><path class="cls-5" d="M544.67,177c-.27-1.9,24.11-10.6,52.89,4.11,30.52,15.61,49.18,49,49.13,50.07h0c-.23.69-30.23-32.7-62.84-46.6C560.53,174.65,544.88,178.52,544.67,177Z"/><path class="cls-5" d="M544.24,178.16c.24-2-28.93-12.18-62.44,2.46-35.55,15.53-56.43,50.42-56.33,51.57h0c.3.74,34.59-33.76,72.67-47.39C525.38,175.07,544,179.76,544.24,178.16Z"/><path class="cls-5" d="M451.48,299.1c-1.33-1.35-26.53,14.57-36.05,48.12-10.11,35.59,3,71.43,3.9,72h0c.73.2-8.86-52,4.19-88.37C432.84,304.86,452.55,300.17,451.48,299.1Z"/><path class="cls-5" d="M395.48,585.28c-1.22,3-17.09.64-18.41-39.73-1.4-42.82,14.35-104.82,15.13-106.41v0c.57-.88-10.63,68.33-7.2,109.91C387.46,578.76,396.44,582.88,395.48,585.28Z"/><path class="cls-5" d="M400.75,326.63c-.87-.42-18.93,18.61-26.8,43.75-8.35,26.66-.65,45.52-.05,45.6h0c.49-.12-1-28.26,9.42-56.45C390.78,339.36,401.45,327,400.75,326.63Z"/><path class="cls-5" d="M743.81,412c-1.79-.65-17.71,24.56-11.9,58.94,6.17,36.48,33.38,63.22,34.46,63.37h0c.74-.12-30.33-43.13-34.18-81.59C729.45,425.25,745.23,412.55,743.81,412Z"/><path class="cls-5" d="M684.64,510.94c.88-.42,18.93,18.61,26.81,43.75,8.35,26.66.65,45.52,0,45.6h0c-.49-.12,1-28.26-9.42-56.45C694.61,523.67,684,511.28,684.64,510.94Z"/><path class="cls-5" d="M673.86,299.43c1.82-1.93,31.82,16.59,40.3,60.13,9,46.18-11.16,95.11-12.36,96h0c-.93.35,16.52-69.91,3.91-116.84C696.68,305.15,672.42,301,673.86,299.43Z"/><path class="cls-5" d="M741.63,580.76c-.9.37,1.28,26.52,14.79,49.13,14.33,24,33.53,30.8,34,30.4h0c.25-.45-21.74-18.08-35.84-44.63C744.49,596.68,742.34,580.47,741.63,580.76Z"/><g class="cls-17"><path class="cls-5" d="M619.85,466.69s27.48-15.11,15.8-93.5c-4-26.76-4.88-31.33-3.5-43.45,0,0,9-34.1,5-42.14,0-.06-.09-.18-.16-.36-2.64-6.33,4.12-17.95,4.12-17.95h0s-8.35-31.63-11.68-43.45A450.53,450.53,0,0,0,602.68,155c-12.5,64.7-7.54,110.71,0,141.67,8.76,36,24.25,64.95,24,114.29A239.33,239.33,0,0,1,619.85,466.69Z"/></g><g class="cls-18"><path class="cls-4" d="M624.22,446.18s26-14.28,14.93-88.34c-3.77-25.28-4.62-29.59-3.31-41,0,0,8.48-32.21,4.76-39.81,0-.06-.08-.17-.15-.34-2.49-6,3.89-17,3.89-17h0s-7.88-29.88-11-41A425,425,0,0,0,608,151.73c-11.81,61.13-7.12,104.59,0,133.84,8.28,34,22.91,61.36,22.71,108A225.59,225.59,0,0,1,624.22,446.18Z"/></g><path class="cls-7" d="M546.87,400.13c-15.86,29.31-34.54,57.94-45.82,65.52-12.11,9.76-16.83-1.54-24.12-1.85-6.4-3.63-16.09,3.4-21.74-10.66-6-11.83-7.95-44.76-7.14-76.85"/><path class="cls-7" d="M528.16,416h0c-4-2.43-5.31-8-2.88-12.42l33.2-60.23c2.43-4.4,7.7-6,11.71-3.59h0c4,2.42,5.31,8,2.88,12.41l-33.2,60.23C537.44,416.79,532.17,418.41,528.16,416Z"/><path class="cls-7" d="M511.38,406.91h0c-5.27-2.22-7.71-8.74-5.42-14.48l33.46-83.93c2.29-5.74,8.47-8.62,13.74-6.4h0c5.27,2.22,7.71,8.74,5.42,14.49l-33.46,83.92C522.83,406.26,516.65,409.14,511.38,406.91Z"/><rect class="cls-7" x="504.59" y="275.54" width="20.77" height="121.67" rx="8.89" transform="translate(106.19 -123.24) rotate(15.2)"/><path class="cls-7" d="M480.56,391.63h0c-5.66-.8-9.49-6.45-8.52-12.56l13.71-85.67c1-6.11,6.41-10.45,12.07-9.65h0c5.66.8,9.5,6.45,8.52,12.55L492.63,382C491.66,388.08,486.22,392.43,480.56,391.63Z"/><path class="cls-7" d="M465.05,406.61h0c-7.1,1.35-13.7-3.74-14.66-11.3l-8.19-64c-1-7.56,4.05-14.85,11.15-16.19h0c7.1-1.35,13.7,3.73,14.67,11.3l8.18,64C477.17,398,472.15,405.27,465.05,406.61Z"/><path class="cls-16" d="M542.37,400.3c-30,55.48-14.15,44.23-45.82,65.52-12.12,9.76-14.5,3.13-21.79,2.82C468.37,465,458.67,472,453,458c-6-11.83-7.95-44.76-7.14-76.85"/><path class="cls-16" d="M526,420.83h0c-4-2.43-5.31-8-2.88-12.42l33.2-60.23c2.43-4.4,7.7-6,11.71-3.59h0c4,2.42,5.31,8,2.88,12.41l-33.2,60.23C535.28,421.63,530,423.25,526,420.83Z"/><path class="cls-16" d="M509.21,411.76h0c-5.27-2.23-7.71-8.75-5.42-14.49l33.46-83.93c2.29-5.74,8.47-8.62,13.74-6.4h0c5.27,2.22,7.71,8.74,5.42,14.49L523,405.35C520.66,411.1,514.48,414,509.21,411.76Z"/><rect class="cls-16" x="502.42" y="280.38" width="20.77" height="121.67" rx="8.89" transform="matrix(0.97, 0.26, -0.26, 0.97, 107.39, -122.5)"/><path class="cls-16" d="M478.39,396.47h0c-5.66-.8-9.49-6.45-8.51-12.56l13.7-85.67c1-6.11,6.41-10.45,12.07-9.65h0c5.67.8,9.5,6.45,8.52,12.55l-13.71,85.68C489.49,392.92,484.06,397.27,478.39,396.47Z"/><path class="cls-16" d="M462.89,411.45h0c-7.1,1.35-13.7-3.74-14.67-11.3l-8.18-64c-1-7.56,4-14.85,11.15-16.19h0c7.1-1.35,13.7,3.74,14.66,11.3l8.19,64C475,402.82,470,410.11,462.89,411.45Z"/><path class="cls-7" d="M550.29,434.91c17.93,28,38.46,55.12,49.9,61.87,12.45,8.86,15.82-2.67,22.71-3.47,5.7-4,15.59,2.28,19.57-12,4.53-12.14,3.16-44.93-.76-76.69"/><path class="cls-7" d="M569.6,449.37h0c3.57-2.68,4.25-8.31,1.52-12.51l-37.41-57.48c-2.73-4.2-7.89-5.45-11.46-2.77h0c-3.57,2.67-4.25,8.3-1.51,12.5l37.4,57.48C560.87,450.79,566,452,569.6,449.37Z"/><path class="cls-7" d="M584.63,439.23h0c4.79-2.56,6.46-9.19,3.72-14.73l-40-81c-2.74-5.54-8.89-8-13.67-5.42h0c-4.78,2.56-6.45,9.19-3.72,14.73l40,81C573.7,439.35,579.85,441.79,584.63,439.23Z"/><rect class="cls-7" x="564.47" y="308.69" width="19.68" height="121.67" rx="8.42" transform="translate(1240.57 519.37) rotate(159.92)"/><path class="cls-7" d="M612.37,422h0c5.29-1.18,8.37-7,6.85-13l-21.41-84c-1.53-6-7.11-9.93-12.4-8.75h0c-5.29,1.17-8.38,7-6.85,13l21.41,84C601.5,419.22,607.08,423.16,612.37,422Z"/><path class="cls-7" d="M628.55,435.8h0c6.87.85,12.63-4.64,12.81-12.2l1.48-64c.18-7.56-5.3-14.45-12.17-15.31h0c-6.86-.85-12.63,4.64-12.8,12.2l-1.49,64C616.21,428.05,621.68,434.94,628.55,435.8Z"/><path class="cls-16" d="M545.62,439.58c17.93,28,38.45,55.12,49.9,61.87,12.45,8.86,15.81-2.66,22.7-3.47,5.71-4,15.6,2.29,19.58-12C642.33,473.8,641,441,637,409.25"/><path class="cls-16" d="M564.93,454h0c3.57-2.68,4.25-8.31,1.51-12.51L529,384.06c-2.73-4.21-7.89-5.46-11.46-2.78h0c-3.57,2.68-4.25,8.3-1.52,12.51l37.41,57.47C556.2,455.46,561.36,456.71,564.93,454Z"/><path class="cls-16" d="M580,443.9h0c4.78-2.56,6.46-9.18,3.72-14.73l-40-80.95c-2.74-5.54-8.89-8-13.67-5.42h0c-4.78,2.56-6.45,9.19-3.72,14.73l40,81C569,444,575.18,446.47,580,443.9Z"/><rect class="cls-16" x="559.79" y="313.36" width="19.68" height="121.67" rx="8.42" transform="translate(1233.12 530.04) rotate(159.92)"/><path class="cls-16" d="M607.7,426.66h0c5.29-1.18,8.37-7,6.84-13l-21.4-84c-1.53-6-7.11-9.93-12.4-8.75h0c-5.3,1.18-8.38,7-6.85,13l21.41,84C596.82,423.89,602.4,427.83,607.7,426.66Z"/><path class="cls-16" d="M623.88,440.47h0c6.86.85,12.63-4.64,12.8-12.2l1.49-64c.17-7.56-5.3-14.45-12.17-15.3h0c-6.87-.86-12.63,4.63-12.81,12.2l-1.48,64C611.53,432.73,617,439.61,623.88,440.47Z"/><rect class="cls-19" x="365" y="620" width="363.38" height="230" rx="12"/><rect class="cls-20" x="365" y="620" width="363.38" height="230" rx="12"/><path class="cls-21" d="M550.74,753.8c-.94-6,3.63-11.89,10.52-14,5.88-20.37,6-37.6-.15-42.46,5.72-6.05,7.62-14.37,4.17-19.36l-5.11,18.74-.13-.07c-7.31-3.71-19.55,8.28-29.82,28-9.64,2.59-15.88,12.88-14.16,23.94,1.69,10.83,10.43,18.62,20.15,18.5a16.84,16.84,0,0,0,26.2-3.31C556.39,763,551.57,759.1,550.74,753.8Z"/><path class="cls-19" d="M1182.58,475.37h3.6v76.4h-3.6v-.6a66.8,66.8,0,0,1-16,2.2q-33.19,0-56.5-23.3t-23.29-56.5q0-33.19,23.29-56.6t56.5-23.4a77.86,77.86,0,0,1,47.8,16l-2.2,2.8a74.49,74.49,0,0,0-45.6-15.2q-31.39,0-53.9,22.4t-22.5,54q0,31.4,22.4,53.8t54,22.4q4,0,16-2.4v-3.8q-11.6,2.8-16,2.8-30.19,0-51.5-21.3t-21.29-51.5q0-30.19,21.29-51.5t51.5-21.3a70.7,70.7,0,0,1,43.6,14.6l-2.2,3a66.11,66.11,0,0,0-41.4-14q-28.59,0-48.9,20.3t-20.3,48.9q0,28.6,20.3,48.9t48.9,20.3q5,0,16-3.2v-3.8q-9.19,3.4-16,3.4-27.19,0-46.4-19.2t-19.2-46.4q0-27.19,19.2-46.4t46.4-19.2a64.85,64.85,0,0,1,39.6,13.4l-2.2,2.8a61.4,61.4,0,0,0-37.4-12.6q-25.59,0-43.79,18.2t-18.21,43.8q0,25.6,18.21,43.8t43.79,18.2q6.21,0,16-4V527a30,30,0,0,1-16,5,58.4,58.4,0,0,1,0-116.8q19,0,35.4,11.8l-2,3a54.47,54.47,0,0,0-33.4-11.2,54.8,54.8,0,0,0,0,109.6q7.82,0,16-5.8v-4.8a20.37,20.37,0,0,1-16,7,51.21,51.21,0,0,1-51.2-51.2q0-21.4,15-36.3a49.51,49.51,0,0,1,36.2-14.9A51.24,51.24,0,0,1,1198,433l-2.4,3.2q-12-10.2-29-10.2a47.6,47.6,0,0,0,0,95.2q10,0,16-8.8Zm10.8,0v76.4h-3.59v-76.4Zm7.2,0v76.4H1197v-76.4Zm7.21,0v76.4h-3.61v-76.4Zm7.19,0v76.4h-3.6v-76.4Z"/><path class="cls-19" d="M1290.38,395.37l-60.8,156.4h-4l61-156.4Zm8.2,0-61.2,156.4h-4l61-156.4Zm7.6,0L1245,551.77h-4l61.4-156.4Zm7.6,0-61.2,156.4h-4l61.4-156.4Zm-42.4,128.4-11,28h-3.8l61.2-156.4h4l61,156.4h-4l-59.2-151.6-1.8,4.8,57,146.8H1371l-55.2-141.6L1314,415l53.4,136.8h-4l-51.4-132-1.8,5,49.6,127h-4l-47.6-122.2-1.8,5.4,45.4,116.8H1348l-10.8-28Zm64.4-3.6-1.4-3.4h-60.2l-1.4,3.4Zm-58.8-10.6-1.6,3.6h57.4l-1.4-3.6Zm2.6-7.2-1.4,3.6H1330l-1.2-3.6Zm3-7.2-1.4,3.6h46l-1.2-3.6Zm42-3.6-20.4-51.8-20.2,51.8Z"/><path class="cls-19" d="M1512.38,551.77l45.2-104.2-1-6.4-47.8,110.6h-4l50.8-117-1.2-6.8L1501,551.77h-4.2l56.4-130.8-1-6-59.6,136.8h-3.8l62.4-143.8-1.2-6.4-65,150.2h-4L1438.18,451l-17,100.8h-3.4l17.6-107-2.4-6.4-19.2,113.4h-3.2l19.8-119-2.6-6.4-21,125.4h-3.6l22-131.8-2.6-6.2-23.2,138H1396L1420,408l-2.8-6.4-25,150.2h-3.6l26.2-156.4h3.8l64.4,152.2,2-4.2-62.6-148h3.8l60.6,143.2,2-4.4-58.4-138.8h4.2l56.2,134,2.2-4.8-55-129.2h4l52.8,124.6,2-4.4-51-120.2h3.8l49,115.8,50.4-115.8h3.6l26.2,156.4h-3.6l-16.4-97.6-42.4,97.6Zm47.6-156.4,26,156.4h-3.4l-26.2-156.4Zm7.2,0,26.2,156.4h-3.6l-26.2-156.4Zm7.2,0,26.2,156.4H1597l-26-156.4Zm7.4,0,26.2,156.4h-3.6l-26.2-156.4Z"/><path class="cls-19" d="M1621.78,395.37v156.4h-3.6V395.37Zm7.2,0v156.4h-3.6V395.37Zm7.2,0v156.4h-3.6V395.37Zm7.2,0v156.4h-3.6V395.37Zm7.2,87V486H1694v3.6h-43.4v29.8H1709V523h-58.4v3.6H1709v3.6h-58.4v3.6H1709v3.6h-58.4V541H1709v3.6h-58.4v3.6H1709v3.6h-62V395.37h62V399h-58.4v3.6H1709v3.6h-58.4v3.6H1709v3.6h-58.4V417H1709v3.6h-58.4v3.6H1709v3.4h-58.4v29.6H1694v3.6h-43.4v3.6H1694V468h-43.4v3.6H1694v3.6h-43.4v3.6H1694v3.6Z"/><path class="cls-19" d="M930.44,103.05l93.69-19,.72,3.53-93.7,19Zm1.43,7.06,93.69-19,.72,3.53-93.7,19Zm1.43,7.06,93.69-19,.72,3.53-93.7,19Zm1.43,7,93.69-19,.72,3.53-93.7,19Zm40.13,2.68-3.33.68L996.2,249.31l-3.53.71L968,128.3l-31.17,6.31-.67-3.33,93.69-19,.68,3.33-31,6.28,24.67,121.72-3.53.72L996,122.61l-3.53.72,24.67,121.72-3.53.72L989,124l-3.53.72,24.68,121.72-3.53.72L981.92,125.48l-3.53.71,24.67,121.73-3.53.71Z"/><path class="cls-19" d="M1039.61,80.93l31.07,153.28-3.53.71L1036.09,81.64Zm7.06-1.43,31.07,153.28-3.53.71L1043.14,80.21Zm7.06-1.43,31.06,153.28-3.52.71L1050.2,78.78Zm7-1.43,31.07,153.28-3.53.71L1057.26,77.35Zm79.51,46.94L1128,63l3.52-.72,31.07,153.29-3.53.71-12.35-61-60.18,12.2,12.36,61-3.53.71L1064.31,75.92l3.53-.71,12.28,60.56Zm-58.74,19.25,60.17-12.2-.71-3.52-60.18,12.19Zm61.6-5.14-.71-3.53-60.18,12.2.72,3.53Zm-58.74,19.25,60.17-12.19-.71-3.53-60.18,12.19Zm1.43,7.06L1146,151.8l-.71-3.53-60.18,12.2ZM1138.6,60.86l31.07,153.29-3.53.71L1135.07,61.58Zm7.06-1.43,31.07,153.29-3.53.71L1142.13,60.15Zm7-1.43,31.07,153.29-3.53.71L1149.19,58.72Zm6.86-1.39,31.07,153.29-3.53.71L1156.05,57.33Z"/><path class="cls-19" d="M1175.84,53.32l31.07,153.28-3.53.71L1172.31,54Zm7.06-1.43L1214,205.17l-3.53.71L1179.37,52.6Zm7.06-1.43L1221,203.74l-3.52.71L1186.43,51.17Zm7-1.43,31.07,153.28-3.53.71L1193.48,49.74Zm24.34,83.83.72,3.53,42.53-8.62.72,3.53-42.54,8.62,5.92,29.2,57.24-11.6.71,3.53-57.23,11.6.71,3.53,57.24-11.6.71,3.53-57.23,11.6.71,3.53,57.24-11.6.71,3.52-57.23,11.61.71,3.52,57.24-11.6.71,3.53-57.23,11.6.71,3.53,57.24-11.6.71,3.53-60.76,12.31L1200.54,48.31,1261.31,36l.71,3.53-57.23,11.6.71,3.53,57.24-11.6.71,3.53-57.24,11.6.72,3.53,57.24-11.6.71,3.53-57.23,11.6.71,3.52,57.24-11.6.71,3.53-57.23,11.6.71,3.53L1267,64.22l.67,3.33-57.23,11.6,5.88,29,42.53-8.62.72,3.53-42.54,8.62.72,3.53,42.53-8.62.72,3.53-42.54,8.62.72,3.53,42.53-8.63.72,3.53-42.54,8.62.72,3.53,42.53-8.62.72,3.53Z"/><path d="M922.44,110.05l93.69-19,.72,3.53-93.7,19Zm1.43,7.06,93.69-19,.72,3.53-93.7,19Zm1.43,7.06,93.69-19,.72,3.53-93.7,19Zm1.43,7,93.69-19,.72,3.53-93.7,19Zm40.13,2.68-3.33.68L988.2,256.31l-3.53.71L960,135.3l-31.17,6.31-.67-3.33,93.69-19,.68,3.33-31,6.28,24.67,121.72-3.53.72L988,129.61l-3.53.72,24.67,121.72-3.53.72L981,131l-3.53.72,24.68,121.72-3.53.72L973.92,132.48l-3.53.71,24.67,121.73-3.53.71Z"/><path d="M1031.61,87.93l31.07,153.28-3.53.71L1028.09,88.64Zm7.06-1.43,31.07,153.28-3.53.71L1035.14,87.21Zm7.06-1.43,31.06,153.28-3.52.71L1042.2,85.78Zm7-1.43,31.07,153.28-3.53.71L1049.26,84.35Zm79.51,46.94L1120,70l3.52-.72,31.07,153.29-3.53.71-12.35-61-60.18,12.2,12.36,61-3.53.71L1056.31,82.92l3.53-.71,12.28,60.56Zm-58.74,19.25,60.17-12.2-.71-3.52-60.18,12.19Zm61.6-5.14-.71-3.53-60.18,12.2.72,3.53Zm-58.74,19.25,60.17-12.19-.71-3.53-60.18,12.19Zm1.43,7.06L1138,158.8l-.71-3.53-60.18,12.2ZM1130.6,67.86l31.07,153.29-3.53.71L1127.07,68.58Zm7.06-1.43,31.07,153.29-3.53.71L1134.13,67.15Zm7-1.43,31.07,153.29-3.53.71L1141.19,65.72Zm6.86-1.39,31.07,153.29-3.53.71L1148.05,64.33Z"/><path d="M1167.84,60.32l31.07,153.28-3.53.71L1164.31,61Zm7.06-1.43L1206,212.17l-3.53.71L1171.37,59.6Zm7.06-1.43L1213,210.74l-3.52.71L1178.43,58.17Zm7-1.43,31.07,153.28-3.53.71L1185.48,56.74Zm24.34,83.83.72,3.53,42.53-8.62.72,3.53-42.54,8.62,5.92,29.2,57.24-11.6.71,3.53-57.23,11.6.71,3.53,57.24-11.6.71,3.53-57.23,11.6.71,3.53,57.24-11.6.71,3.52-57.23,11.61.71,3.52,57.24-11.6.71,3.53-57.23,11.6.71,3.53,57.24-11.6.71,3.53-60.76,12.31L1192.54,55.31,1253.31,43l.71,3.53-57.23,11.6.71,3.53,57.24-11.6.71,3.53-57.24,11.6.72,3.53,57.24-11.6.71,3.53-57.23,11.6.71,3.52,57.24-11.6.71,3.53-57.23,11.6.71,3.53L1259,71.22l.67,3.33-57.23,11.6,5.88,29,42.53-8.62.72,3.53-42.54,8.62.72,3.53,42.53-8.62.72,3.53-42.54,8.62.72,3.53,42.53-8.63.72,3.53-42.54,8.62.72,3.53,42.53-8.62.72,3.53Z"/><path d="M1171.58,482.37h3.6v76.4h-3.6v-.6a66.8,66.8,0,0,1-16,2.2q-33.19,0-56.5-23.3t-23.29-56.5q0-33.19,23.29-56.6t56.5-23.4a77.86,77.86,0,0,1,47.8,16l-2.2,2.8a74.49,74.49,0,0,0-45.6-15.2q-31.39,0-53.9,22.4t-22.5,54q0,31.4,22.4,53.8t54,22.4q4,0,16-2.4v-3.8q-11.6,2.8-16,2.8-30.19,0-51.5-21.3t-21.29-51.5q0-30.19,21.29-51.5t51.5-21.3a70.7,70.7,0,0,1,43.6,14.6l-2.2,3a66.11,66.11,0,0,0-41.4-14q-28.59,0-48.9,20.3t-20.3,48.9q0,28.6,20.3,48.9t48.9,20.3q5,0,16-3.2v-3.8q-9.19,3.4-16,3.4-27.19,0-46.4-19.2t-19.2-46.4q0-27.19,19.2-46.4t46.4-19.2a64.85,64.85,0,0,1,39.6,13.4l-2.2,2.8a61.4,61.4,0,0,0-37.4-12.6q-25.59,0-43.79,18.2t-18.21,43.8q0,25.6,18.21,43.8t43.79,18.2q6.21,0,16-4V534a30,30,0,0,1-16,5,58.4,58.4,0,0,1,0-116.8q19,0,35.4,11.8l-2,3a54.47,54.47,0,0,0-33.4-11.2,54.8,54.8,0,0,0,0,109.6q7.82,0,16-5.8v-4.8a20.37,20.37,0,0,1-16,7,51.21,51.21,0,0,1-51.2-51.2q0-21.4,15-36.3a49.51,49.51,0,0,1,36.2-14.9A51.24,51.24,0,0,1,1187,440l-2.4,3.2q-12-10.2-29-10.2a47.6,47.6,0,0,0,0,95.2q10,0,16-8.8Zm10.8,0v76.4h-3.59v-76.4Zm7.2,0v76.4H1186v-76.4Zm7.21,0v76.4h-3.61v-76.4Zm7.19,0v76.4h-3.6v-76.4Z"/><path d="M1279.38,402.37l-60.8,156.4h-4l61-156.4Zm8.2,0-61.2,156.4h-4l61-156.4Zm7.6,0L1234,558.77h-4l61.4-156.4Zm7.6,0-61.2,156.4h-4l61.4-156.4Zm-42.4,128.4-11,28h-3.8l61.2-156.4h4l61,156.4h-4l-59.2-151.6-1.8,4.8,57,146.8H1360l-55.2-141.6L1303,422l53.4,136.8h-4l-51.4-132-1.8,5,49.6,127h-4l-47.6-122.2-1.8,5.4,45.4,116.8H1337l-10.8-28Zm64.4-3.6-1.4-3.4h-60.2l-1.4,3.4Zm-58.8-10.6-1.6,3.6h57.4l-1.4-3.6Zm2.6-7.2-1.4,3.6H1319l-1.2-3.6Zm3-7.2-1.4,3.6h46l-1.2-3.6Zm42-3.6-20.4-51.8-20.2,51.8Z"/><path d="M1501.38,558.77l45.2-104.2-1-6.4-47.8,110.6h-4l50.8-117-1.2-6.8L1490,558.77h-4.2l56.4-130.8-1-6-59.6,136.8h-3.8l62.4-143.8-1.2-6.4-65,150.2h-4L1427.18,458l-17,100.8h-3.4l17.6-107-2.4-6.4-19.2,113.4h-3.2l19.8-119-2.6-6.4-21,125.4h-3.6l22-131.8-2.6-6.2-23.2,138H1385L1409,415l-2.8-6.4-25,150.2h-3.6l26.2-156.4h3.8l64.4,152.2,2-4.2-62.6-148h3.8l60.6,143.2,2-4.4-58.4-138.8h4.2l56.2,134,2.2-4.8-55-129.2h4l52.8,124.6,2-4.4-51-120.2h3.8l49,115.8,50.4-115.8h3.6l26.2,156.4h-3.6l-16.4-97.6-42.4,97.6Zm47.6-156.4,26,156.4h-3.4l-26.2-156.4Zm7.2,0,26.2,156.4h-3.6l-26.2-156.4Zm7.2,0,26.2,156.4H1586l-26-156.4Zm7.4,0,26.2,156.4h-3.6l-26.2-156.4Z"/><path d="M1610.78,402.37v156.4h-3.6V402.37Zm7.2,0v156.4h-3.6V402.37Zm7.2,0v156.4h-3.6V402.37Zm7.2,0v156.4h-3.6V402.37Zm7.2,87V493H1683v3.6h-43.4v29.8H1698V530h-58.4v3.6H1698v3.6h-58.4v3.6H1698v3.6h-58.4V548H1698v3.6h-58.4v3.6H1698v3.6h-62V402.37h62V406h-58.4v3.6H1698v3.6h-58.4v3.6H1698v3.6h-58.4V424H1698v3.6h-58.4v3.6H1698v3.4h-58.4v29.6H1683v3.6h-43.4v3.6H1683V475h-43.4v3.6H1683v3.6h-43.4v3.6H1683v3.6Z"/><path class="cls-19" d="M868,501.39q4.37,24.29,8.37,47.83t7.12,43.55q.93,1.32-1.66,3a26.33,26.33,0,0,1-6.11,2.76,32.38,32.38,0,0,1-6.72,1.4c-2.13.19-3.43-.2-3.9-1.19q-2.88-18.19-7.34-39.83t-9.27-43.81q-4.83-22.17-9.06-43.76t-6.89-40a12.23,12.23,0,0,1,2.77-8.71,16.79,16.79,0,0,1,7.18-5.3,13,13,0,0,1,7.82-.61,6.83,6.83,0,0,1,5,4.77,6.56,6.56,0,0,0,.63-1.64q4.85-13.35,10.89-16.47t11.74,1.37q5.7,4.49,10.5,14.76a104.15,104.15,0,0,1,7.44,23.08q.69,3.5,1.73,9.49a123.26,123.26,0,0,1,1.51,13.22,94.81,94.81,0,0,1-.17,14.4,44,44,0,0,1-3.06,13.09,22.71,22.71,0,0,1-7.47,9.68c-3.35,2.53-7.79,3.76-13.32,3.72a5.33,5.33,0,0,1-3.9-1.19A25,25,0,0,1,868,501.39Zm-9.57-59.87q1.3,9.39,3.05,19.66t3.36,20.63q3.15,10.47,7.74,15.92,5.15,2.7,7.36-1.26t2.34-11.59a96.38,96.38,0,0,0-1.54-17.56,171,171,0,0,0-4.24-18.81A109,109,0,0,0,871,433.18q-3-6.42-5.65-7.69-3.6-1-5.22,3.51T858.4,441.52Z"/><path class="cls-19" d="M905.32,447.77q.21-1.29.77-6.87t.94-13.33q.36-7.76.58-16.57t-.37-16.14q-5.06-1.35-9.58-8.05a57.31,57.31,0,0,1-7.09-14.68,43.83,43.83,0,0,1-2.3-15.09q.27-7.11,4.3-9c3.13-1.26,5.79-1.18,8,.22s4,3.83,5.42,7.28a60.48,60.48,0,0,1,3.44,12.81q1.29,7.64,2.19,17.08c3.49-.72,5.8-2.08,6.92-4.11a24.68,24.68,0,0,0,2.42-8.89,11.3,11.3,0,0,1,3.25-9.24,20.75,20.75,0,0,1,8.09-5.25,12.7,12.7,0,0,1,8.18-.3,5.42,5.42,0,0,1,4,5.33q-.12,9,.39,21.53t2,24a100.66,100.66,0,0,0,4.15,19.29q2.69,7.89,6.93,7.45a9.39,9.39,0,0,0,2.74-.62c.93-.34,1.88-1.66,2.83-4a64.5,64.5,0,0,0,2.94-10.77A189.82,189.82,0,0,0,969,398.72a3.06,3.06,0,0,1,1-2.41,3.45,3.45,0,0,1,2-.92,2.38,2.38,0,0,1,1.77.58,2.7,2.7,0,0,1,.75,2.22q-.66,8.13-1.26,17.39a124.38,124.38,0,0,1-2.42,17.77,53.85,53.85,0,0,1-5.51,15.14A21.3,21.3,0,0,1,954.86,458q-5.45,2.37-9.53-.18a22.87,22.87,0,0,1-7.37-8.13,57,57,0,0,1-5.51-13.59q-2.22-8-4-16.88t-3-17.74q-1.21-8.83-2.39-16.57a22.65,22.65,0,0,1-4.18,6.18q-2.22,2.22-7,3a182,182,0,0,1,.83,18.74q-.06,9.3-.4,16.84t-.74,12.82c-.28,3.52-.4,5.65-.37,6.41-.28,1.72-.68,2.81-1.19,3.27a1.48,1.48,0,0,1-1.79.2,5,5,0,0,1-1.9-1.85A7.06,7.06,0,0,1,905.32,447.77Zm1.93-62.56a200.46,200.46,0,0,0-3.47-22.81q-2.12-9.42-5.31-10-2.1-.56-2.25,3.78a40.53,40.53,0,0,0,1.13,10.06,56.31,56.31,0,0,0,3.88,11.36Q903.84,383.18,907.25,385.21Z"/><path class="cls-19" d="M1022,343a126.88,126.88,0,0,1,2.38,15.24q.6,7,.78,15.37c0,.75-.11,1.65-.22,2.69,0,.75-.07,1.63-.09,2.61a11,11,0,0,1-.24,2.33l4.49,2.18a10.21,10.21,0,0,0,5.68,1c2-.2,3.91-1.36,5.77-3.46s3.32-5.88,4.37-11.34q.46-2.82,1.25-6a66.82,66.82,0,0,0,1.32-7.13,3.09,3.09,0,0,1,1.24-2.32,3.57,3.57,0,0,1,2.09-.75,2.39,2.39,0,0,1,1.72.73,2.69,2.69,0,0,1,.55,2.27l-2,13.56q-2.11,14-7.8,20.71t-19.09,4h-1.33a81.75,81.75,0,0,1-3.92,14,48,48,0,0,1-6.53,11.95,38.53,38.53,0,0,1-8.95,8.66,24.15,24.15,0,0,1-11.62,4q-8.12.33-13.77-7.1t-8.37-19a112.77,112.77,0,0,1-2.8-25.3,101.74,101.74,0,0,1,3-25.86,61.2,61.2,0,0,1,9.4-20.83q6.28-8.69,15.95-9.85c2.68,0,4.58.91,5.72,2.62a9.47,9.47,0,0,1,1.65,5.54l2.79-2.23a22.44,22.44,0,0,1,4.35-1.78,6.19,6.19,0,0,1,4.49.33,10.84,10.84,0,0,1,4.23,4.16A31.17,31.17,0,0,1,1022,343Zm-30.62,6.34a71.42,71.42,0,0,0-2.79,16.74,155.42,155.42,0,0,0,.14,19.74,173.2,173.2,0,0,0,2.21,18.64,61.84,61.84,0,0,0,3.72,13.42c1.48,3.37,2.9,4.69,4.28,3.95,1-.56,1.95-2,2.77-4.43a61,61,0,0,0,2.14-8.67q.93-5.08,1.59-10.95c.44-3.91.73-7.61.85-11.1a25,25,0,0,1-7.75-8.87,34.68,34.68,0,0,1-3.83-12.08,54.33,54.33,0,0,1-.05-13.37,35.55,35.55,0,0,1,3.76-12.48l-.41-.15C995.08,341.34,992.88,344.54,991.38,349.38Zm13.83,23.6a6.44,6.44,0,0,0,2.36,1.3c0-1.22-.05-3.09-.18-5.59s-.36-5-.71-7.51a62.93,62.93,0,0,0-1.26-6.67c-.49-1.94-1.09-3-1.81-3.06-1-.2-1.79.47-2.4,2a16.06,16.06,0,0,0-1,5.65,25.62,25.62,0,0,0,1,7.16A14.94,14.94,0,0,0,1005.21,373Z"/><path class="cls-19" d="M1080.68,316.22a12.64,12.64,0,0,0,1.11-3.44,27.1,27.1,0,0,0,.46-4.22,14.88,14.88,0,0,0-.34-3.88c-.27-1.17-.76-1.84-1.47-2q-2.88-1.61-4.82,2.87a50.69,50.69,0,0,0-3.12,12,118.11,118.11,0,0,0-1.27,16.8,125.64,125.64,0,0,0,1,17.78,63.52,63.52,0,0,0,3.41,14.34q2.28,5.88,6.12,6.74,4.77.84,9.58-5.89a63.61,63.61,0,0,0,8-15.75q2.34-6.57,5.48-17.33a3.12,3.12,0,0,1,1.47-2.18,3.5,3.5,0,0,1,2.15-.54,2.37,2.37,0,0,1,1.64.89,2.7,2.7,0,0,1,.33,2.32q-.81,4.19-2.08,8.74c-.86,3-1.73,6-2.62,9q-4.26,16.47-12.81,27.53t-17.69,13.45q-9.15,2.38-17.1-5.35t-11-28.87a96.68,96.68,0,0,1,6.09-48.73q4.47-10.59,11.46-16.65t15.46-3.95a14,14,0,0,1,7,5.14,15.56,15.56,0,0,1,2.42,7.75,24.33,24.33,0,0,1-1.29,9.11,41.38,41.38,0,0,1-4.22,8.93q-2.2,2.31-3.74.14T1080.68,316.22Z"/><path class="cls-19" d="M1101.58,342.87q.56-1.19,2.65-6.38t4.62-12.54q2.52-7.35,5.18-15.75a160.48,160.48,0,0,0,4.15-15.61q-4.48-2.7-7-10.4a57.62,57.62,0,0,1-2.71-16.07,43.94,43.94,0,0,1,2-15.13c1.49-4.51,3.7-7,6.62-7.41q5-.5,7.61,2.44c1.71,2,2.77,4.8,3.17,8.5a59.63,59.63,0,0,1-.28,13.26q-.87,7.7-2.65,17,5.31.43,7.79-2a25,25,0,0,0,4.81-7.87,11.27,11.27,0,0,1,5.69-8,20.74,20.74,0,0,1,9.24-2.79,12.71,12.71,0,0,1,7.93,2,5.43,5.43,0,0,1,2.33,6.22q-2.61,8.56-5.64,20.79t-4.8,23.57a100.72,100.72,0,0,0-1.4,19.68q.38,8.34,4.58,9.09a9.17,9.17,0,0,0,2.8.17c1-.07,2.27-1.07,3.82-3a63.72,63.72,0,0,0,5.84-9.53,189.88,189.88,0,0,0,8.44-19.6,3.06,3.06,0,0,1,1.68-2,3.53,3.53,0,0,1,2.19-.32,2.39,2.39,0,0,1,1.54,1.05,2.69,2.69,0,0,1,.09,2.34q-2.89,7.64-6.06,16.35a124.22,124.22,0,0,1-7.28,16.39,53.64,53.64,0,0,1-9.51,13,21.28,21.28,0,0,1-12.79,6.22q-5.88.76-9.1-2.83a22.91,22.91,0,0,1-4.8-9.87,56.7,56.7,0,0,1-1.5-14.58q.09-8.29.88-17.32t2.1-17.86q1.31-8.83,2.33-16.58a22.85,22.85,0,0,1-5.74,4.77c-1.83,1-4.34,1.31-7.51.91a183.59,183.59,0,0,1-4.43,18.23q-2.67,8.91-5.09,16.06t-4.29,12.1c-1.24,3.31-2,5.32-2.14,6.05-.75,1.58-1.43,2.52-2,2.82a1.49,1.49,0,0,1-1.78-.31,5,5,0,0,1-1.3-2.31A6.74,6.74,0,0,1,1101.58,342.87Zm19.3-59.54a196.93,196.93,0,0,0,3-22.87c.4-6.42-.36-10.14-2.29-11.13-1.24-.75-2.32.25-3.22,3a40.44,40.44,0,0,0-1.72,10,55.92,55.92,0,0,0,.56,12Q1118.17,280.44,1120.88,283.33Z"/><path class="cls-19" d="M1229.88,255.84a11.28,11.28,0,0,1,6.54-7.28,20.87,20.87,0,0,1,9.49-1.75,12.68,12.68,0,0,1,7.66,2.87,5.42,5.42,0,0,1,1.63,6.44q-3.56,8.22-7.92,20t-7.39,22.89a100.4,100.4,0,0,0-3.58,19.4q-.55,8.32,3.54,9.55a9.6,9.6,0,0,0,2.76.47q1.5.06,4.14-2.56a64.16,64.16,0,0,0,6.85-8.82,190,190,0,0,0,10.57-18.55,3.09,3.09,0,0,1,1.9-1.83,3.59,3.59,0,0,1,2.21-.08,2.42,2.42,0,0,1,1.42,1.22,2.74,2.74,0,0,1-.17,2.34q-3.72,7.26-7.84,15.58a124.68,124.68,0,0,1-9.06,15.47,53.69,53.69,0,0,1-10.9,11.86,21.33,21.33,0,0,1-13.4,4.77q-7.42,0-10.11-5.71t-2.37-15.35l-.4,1.06a82.62,82.62,0,0,1-5.27,10.17,41.55,41.55,0,0,1-6,7.69q-10,10.06-16.72,10.14t-10-6.4q-3.27-6.47-3.24-17.66a105.14,105.14,0,0,1,3-23.9q.84-3.44,2.9-10.07t5.15-14.1a150.08,150.08,0,0,1,7-14.6,39.82,39.82,0,0,1,8.77-11.31,17.49,17.49,0,0,1,10.32-4.52q5.44-.34,11.56,5.44,2.6,2.82,3.76,9.17c.42-2,.89-4.05,1.43-6S1229.26,257.93,1229.88,255.84Zm-31.33,80.39q2.25,2.55,5.61-1a41.41,41.41,0,0,0,6.67-10.59,150.93,150.93,0,0,0,6.32-15.8,161.35,161.35,0,0,0,4.88-17.17,77.42,77.42,0,0,0,2-14.84c.1-4.29-.57-7.18-2-8.67q-3.52-4.61-7-2t-6.88,9.48A99.77,99.77,0,0,0,1202,292a157.92,157.92,0,0,0-4.15,18.68,107.9,107.9,0,0,0-1.46,16.38Q1196.42,334.32,1198.55,336.23Z"/><path class="cls-19" d="M1291,263.87l-7.22,13-7.22,13q-4.82,8.55-8.42,14.22a56.13,56.13,0,0,0-4.08,7c-1,1.39-1.91,2.18-2.58,2.34a1.48,1.48,0,0,1-1.67-.66,4.89,4.89,0,0,1-.81-2.53,7,7,0,0,1,.32-2.95c.53-.69,2-2.82,4.28-6.38s4.93-7.85,7.81-12.87q1.56-2.42,5.36-9.08t8.44-14.06q4.63-7.39,9.2-13.81c3-4.27,5.68-7.16,7.89-8.65l1.64-1.45.52-.69a1.58,1.58,0,0,1,1.14-.43,19.06,19.06,0,0,1,9.09-1.78,22.25,22.25,0,0,1,8.38,1.86,7.94,7.94,0,0,1,4.51,4.47c.65,1.89-.21,3.7-2.6,5.42q-7.1,6.15-9.71,11.42a22.67,22.67,0,0,0-2.63,10,24.4,24.4,0,0,0,1.68,9.1q1.73,4.41,3.59,8.94a46.25,46.25,0,0,1,2.76,9.66,24.46,24.46,0,0,1-.66,10.77q-3.33,12-10.18,19.25a39.83,39.83,0,0,1-14.51,10.22,29,29,0,0,1-14.65,1.94,17,17,0,0,1-10.91-5.52c-2.62-3-3.71-7.08-3.29-12.21s3.16-11.27,8.2-18.42c1.66-1.23,3-1.25,4.11,0q1.4,2.48-1.08,4.31c-3.17,4-4.81,7.57-4.91,10.83a10.51,10.51,0,0,0,2.44,7.74,10.36,10.36,0,0,0,6.9,3.28,11.44,11.44,0,0,0,8.41-2.85,16.47,16.47,0,0,0,6.36-11,48.77,48.77,0,0,0-.19-13.78,118.7,118.7,0,0,0-3-14.18,69.8,69.8,0,0,1-2.4-12.13A41,41,0,0,1,1291,263.87Z"/><path class="cls-19" d="M1347.15,255.25c-1.36,0-2.73,0-4.09-.05s-2.74-.08-4.1,0c-1,0-1.48-.55-1.51-1.74a10.11,10.11,0,0,1,.76-3.9,15,15,0,0,1,2.09-3.78A3.63,3.63,0,0,1,1343,244a37.32,37.32,0,0,1,8.5.72q4.7-9.84,8.12-17.7t5-12.44a9.74,9.74,0,0,1,6.68-6.83,19.52,19.52,0,0,1,9.93-.61,15.26,15.26,0,0,1,7.87,4q3,3,.49,6.94-2.79,4.62-7.1,12.34t-9,16.92l7.33.76q3.21-.09,2.13,2.85-.78,3.27-3.41,3.34a35.11,35.11,0,0,0-4.69-.19l-4.67.13q-2.76,5.91-8,16.25t-9.34,20.82a86.61,86.61,0,0,0-5.31,18.92c-.81,5.63.45,9,3.81,10.24a5.31,5.31,0,0,0,3.06-.41,16.54,16.54,0,0,0,4.87-3.54q3-2.83,7.52-8.14t11.29-14.24a3.07,3.07,0,0,1,2.15-1.52,3.56,3.56,0,0,1,2.2.26,2.43,2.43,0,0,1,1.21,1.42,2.7,2.7,0,0,1-.52,2.28q-4.79,6.62-10.12,14.21a125.46,125.46,0,0,1-11.3,13.91,54,54,0,0,1-12.58,10.07,21.28,21.28,0,0,1-14,2.67q-6.75-.78-8.81-6.22t-1.12-13.39a88.47,88.47,0,0,1,4-17.27q3.09-9.3,6.64-18.31t6.85-16.21A92,92,0,0,0,1347.15,255.25Z"/><path class="cls-19" d="M1399.63,246.86a11.29,11.29,0,0,1,7.84-5.87,20.89,20.89,0,0,1,9.65.14,12.61,12.61,0,0,1,7,4.3,5.43,5.43,0,0,1,.35,6.64q-5.09,7.37-11.67,18.11t-11.7,21a100.54,100.54,0,0,0-7.28,18.33q-2.16,8.06,1.61,10.05a9.52,9.52,0,0,0,2.62,1q1.45.35,4.56-1.72a63.86,63.86,0,0,0,8.44-7.32,187.46,187.46,0,0,0,14-16.13,3.07,3.07,0,0,1,2.22-1.42,3.52,3.52,0,0,1,2.18.35,2.4,2.4,0,0,1,1.15,1.47,2.7,2.7,0,0,1-.61,2.26q-5.07,6.41-10.73,13.75a124.53,124.53,0,0,1-11.89,13.42,54,54,0,0,1-13,9.52,21.32,21.32,0,0,1-14.07,2.06q-8.46-1.74-9.06-10.48t3.52-21.62a253.22,253.22,0,0,1,11.08-28Q1392.69,261.65,1399.63,246.86Zm20.69-14.9q-5.25-1.36-5.17-6.87a21.24,21.24,0,0,1,3.82-11.27,33.5,33.5,0,0,1,10.08-9.88,18.51,18.51,0,0,1,13.93-2.71q6.4,1.38,5.9,6.87c-.35,3.67-2,7.41-5,11.25a41.66,41.66,0,0,1-11.1,9.87Q1426.15,233.33,1420.32,232Z"/><path class="cls-19" d="M1467.83,260.74c-1.29,1.64-2.91,4-4.89,7.12s-4.17,6.74-6.61,10.89a150.64,150.64,0,0,1,17.09-18.27q8.74-7.83,15.63-10a22.68,22.68,0,0,1,5.47-.6,31.76,31.76,0,0,1,7.13.66,18.5,18.5,0,0,1,5.86,2.18q2.38,1.47,1.94,3.7a51.28,51.28,0,0,1-4.44,9.26q-3.33,5.77-7.61,12.61t-8.44,14a130.58,130.58,0,0,0-7,13.63,39.26,39.26,0,0,0-3.28,11.44c-.33,3.33.72,5.84,3.15,7.51a5.48,5.48,0,0,0,2.93,0,14.81,14.81,0,0,0,5-2.73,98.57,98.57,0,0,0,8.41-7.2q5.17-4.83,12.79-13.39a3.12,3.12,0,0,1,2.29-1.3,3.58,3.58,0,0,1,2.17.48,2.37,2.37,0,0,1,1.06,1.53,2.67,2.67,0,0,1-.74,2.22q-5.1,6.14-11.15,13A120.53,120.53,0,0,1,1492.08,330a63.29,63.29,0,0,1-13.66,8.95,22.23,22.23,0,0,1-14.35,1.93q-8.4-1.54-9.92-7t.74-12.91a84.58,84.58,0,0,1,6.8-15.74l8.55-15.62a108.06,108.06,0,0,0,6-12.4c1.31-3.36,1-5.44-.89-6.22q-2-.78-6.71,3.92a135.33,135.33,0,0,0-11.5,13.63q-6.76,8.94-15.29,22t-18.13,29.22c-.07,1.07-1.08,1.49-3,1.25a25.86,25.86,0,0,1-6.32-1.73,31.66,31.66,0,0,1-6.09-3.18q-2.65-1.8-2.26-3.39,3.52-8.52,8.89-20.46t11.17-23.87q5.79-11.93,10.89-21.95t8-14.68a11.81,11.81,0,0,1,8.26-4.94,18.15,18.15,0,0,1,9.3,1.13,12,12,0,0,1,6.23,5.29Q1470.74,256.73,1467.83,260.74Z"/><path class="cls-19" d="M1579.66,262.67a11.27,11.27,0,0,1,8.43-5,20.85,20.85,0,0,1,9.58,1.21,12.69,12.69,0,0,1,6.43,5,5.42,5.42,0,0,1-.39,6.64q-5.87,6.77-13.6,16.7t-14,19.59a100.34,100.34,0,0,0-9.27,17.42q-3,7.77.49,10.16a9.45,9.45,0,0,0,2.49,1.3c.94.33,2.51-.06,4.72-1.2a64.89,64.89,0,0,0,9.2-6.34,189.67,189.67,0,0,0,15.67-14.49,3.09,3.09,0,0,1,2.36-1.17,3.59,3.59,0,0,1,2.14.6,2.35,2.35,0,0,1,1,1.59,2.66,2.66,0,0,1-.86,2.17q-5.74,5.81-12.18,12.48a125.24,125.24,0,0,1-13.3,12,54.14,54.14,0,0,1-14,8,21.36,21.36,0,0,1-14.21.49q-7.1-2.19-7.92-8.5t2.37-15.35l-.7.89a81.45,81.45,0,0,1-8.09,8.11,41.58,41.58,0,0,1-8.06,5.51q-12.63,6.56-19,4.61t-7.54-9.1q-1.17-7.16,2.24-17.81a105.55,105.55,0,0,1,10.12-21.87q1.86-3,5.82-8.72t9.16-11.88A146.89,146.89,0,0,1,1539.85,264a39.43,39.43,0,0,1,11.78-8.13,17.34,17.34,0,0,1,11.2-1.2q5.28,1.32,9.37,8.68,1.62,3.47.82,9.88c1-1.83,2.07-3.59,3.17-5.3S1578.44,264.47,1579.66,262.67Zm-54.15,67.17c.92,2.07,2.8,2.31,5.66.72a41.87,41.87,0,0,0,9.56-8.09,152.62,152.62,0,0,0,10.8-13.15,163.08,163.08,0,0,0,9.83-14.89,78.42,78.42,0,0,0,6.42-13.54q2.1-6.09.68-8.88-2-5.44-6.13-4t-9.42,7a99.7,99.7,0,0,0-10.73,13.81,160.51,160.51,0,0,0-9.6,16.56,106.76,106.76,0,0,0-6.33,15.17Q1524,327.38,1525.51,329.84Z"/><path class="cls-19" d="M1622.69,278c-1.35-.21-2.69-.47-4-.79s-2.67-.58-4-.79c-1-.16-1.35-.81-1.17-2a10.42,10.42,0,0,1,1.47-3.7,15.32,15.32,0,0,1,2.74-3.33,3.67,3.67,0,0,1,3-1.17,36.66,36.66,0,0,1,8.23,2.28q6.4-8.82,11.23-15.92t7.24-11.31a9.74,9.74,0,0,1,7.82-5.48,19.55,19.55,0,0,1,9.87,1.22,15.23,15.23,0,0,1,7,5.36q2.4,3.48-.79,6.91-3.6,4-9.25,10.83t-12,15l7.07,2.09c2.12.33,2.64,1.4,1.57,3.19-.91,2-2.23,2.93-4,2.65a35,35,0,0,0-4.57-1l-4.63-.73q-3.8,5.31-10.86,14.51t-13,18.75a87,87,0,0,0-8.69,17.62q-2.74,8.09,1.87,10.77a5.39,5.39,0,0,0,3.08.16,16.39,16.39,0,0,0,5.44-2.59,110.59,110.59,0,0,0,8.88-6.63q5.42-4.38,13.71-11.92a3.07,3.07,0,0,1,2.39-1.1,3.57,3.57,0,0,1,2.12.66,2.37,2.37,0,0,1,.93,1.62,2.68,2.68,0,0,1-.93,2.14q-5.91,5.63-12.55,12.11a124.27,124.27,0,0,1-13.66,11.61,54.06,54.06,0,0,1-14.22,7.59,21.29,21.29,0,0,1-14.22.06q-6.49-2-7.52-7.73t1.36-13.37a87.58,87.58,0,0,1,7.14-16.23q4.74-8.58,9.88-16.78t9.7-14.69A90.83,90.83,0,0,0,1622.69,278Z"/><path class="cls-19" d="M1674.75,278.17a11.3,11.3,0,0,1,8.65-4.6,21,21,0,0,1,9.51,1.63,12.68,12.68,0,0,1,6.21,5.33,5.44,5.44,0,0,1-.69,6.61q-6.17,6.5-14.32,16.09t-14.81,19a99.66,99.66,0,0,0-10,17q-3.39,7.63,0,10.18a9.26,9.26,0,0,0,2.43,1.4q1.38.57,4.77-1a63.74,63.74,0,0,0,9.47-5.92,191.51,191.51,0,0,0,16.3-13.79,3.09,3.09,0,0,1,2.4-1.06,3.52,3.52,0,0,1,2.11.69,2.41,2.41,0,0,1,.91,1.63,2.7,2.7,0,0,1-1,2.13q-6,5.55-12.72,11.94a125.21,125.21,0,0,1-13.82,11.41,53.91,53.91,0,0,1-14.32,7.4,21.34,21.34,0,0,1-14.22-.14q-8.09-3-7.33-11.75t6.82-20.82a252.45,252.45,0,0,1,15.27-25.93Q1665.6,291.69,1674.75,278.17Zm22.74-11.54c-3.32-1.44-4.66-4-4-7.58a21.28,21.28,0,0,1,5.52-10.54,33.37,33.37,0,0,1,11.49-8.21,18.52,18.52,0,0,1,14.18-.52q6.12,2.35,4.76,7.7c-.91,3.57-3.13,7-6.66,10.35a41.71,41.71,0,0,1-12.5,8Q1703,268.89,1697.49,266.63Z"/><path class="cls-19" d="M1766.39,319.45a126.88,126.88,0,0,1-7.65,13.4q-3.9,5.86-9,12.5c-.5.56-1.11,1.22-1.84,2-.51.56-1.07,1.23-1.71,2a10.84,10.84,0,0,1-1.64,1.67l2.15,4.5a10.24,10.24,0,0,0,3.82,4.32c1.68,1.08,3.91,1.37,6.67.89s6.26-2.52,10.49-6.13c1.42-1.27,3-2.58,4.73-3.91a65.15,65.15,0,0,0,5.47-4.75,3.08,3.08,0,0,1,2.42-1,3.54,3.54,0,0,1,2.1.71,2.39,2.39,0,0,1,.89,1.64,2.7,2.7,0,0,1-1,2.12l-10,9.34q-10.38,9.61-19,11.32t-17.42-8.78l-1-.84a81.3,81.3,0,0,1-11.82,8.52,47.65,47.65,0,0,1-12.56,5.26,38.58,38.58,0,0,1-12.4,1.19,24.31,24.31,0,0,1-11.59-4.1q-6.56-4.82-6.33-14.14t5.31-20.07a112.42,112.42,0,0,1,13.6-21.52,101.61,101.61,0,0,1,18.51-18.31,61.14,61.14,0,0,1,20.34-10.42q10.33-2.86,18.61,2.26c2.07,1.69,3,3.57,2.84,5.61a9.48,9.48,0,0,1-2.17,5.36h3.57a23,23,0,0,1,4.51,1.32,6.19,6.19,0,0,1,3.3,3.07,10.74,10.74,0,0,1,.71,5.88A30.85,30.85,0,0,1,1766.39,319.45Zm-27.88-14.14a71.1,71.1,0,0,0-12.63,11.33,154.83,154.83,0,0,0-12.2,15.53,171.32,171.32,0,0,0-9.91,15.94,61.86,61.86,0,0,0-5.46,12.81q-1.43,5.32.88,5.75,1.72.31,4.92-1.73a61.92,61.92,0,0,0,7.09-5.44q3.88-3.4,8.08-7.57t7.58-8.15a25,25,0,0,1-.52-11.76,34.83,34.83,0,0,1,4.54-11.83,54.38,54.38,0,0,1,8.31-10.48,35.37,35.37,0,0,1,10.72-7.41l-.23-.37Q1744.79,301,1738.51,305.31Zm-3.91,27.07a6.22,6.22,0,0,0,1,2.49c.77-1,1.88-2.45,3.34-4.49s2.84-4.13,4.13-6.31a63.14,63.14,0,0,0,3.18-6c.83-1.83,1-3,.5-3.53-.66-.78-1.7-.75-3.14.08a16.28,16.28,0,0,0-4.27,3.83,25.66,25.66,0,0,0-3.66,6.23A14.92,14.92,0,0,0,1734.6,332.38Z"/><path class="cls-19" d="M1826.49,316.36q-2.19,2.24-5.64,6.54t-7.77,10.1a150.44,150.44,0,0,1,19-16.29q9.54-6.82,16.63-8.18a22.92,22.92,0,0,1,5.49,0,31.44,31.44,0,0,1,7,1.43,18.45,18.45,0,0,1,5.58,2.81q2.21,1.73,1.53,3.89a51.94,51.94,0,0,1-5.44,8.72q-3.95,5.37-8.94,11.69t-9.93,13a129.93,129.93,0,0,0-8.39,12.79,38.86,38.86,0,0,0-4.52,11q-1,4.92,2.31,7.81a5.59,5.59,0,0,0,2.91.36,14.89,14.89,0,0,0,5.29-2.16,100.31,100.31,0,0,0,9.15-6.24q5.65-4.23,14.18-11.9a3.08,3.08,0,0,1,2.42-1.05,3.58,3.58,0,0,1,2.1.71,2.39,2.39,0,0,1,.89,1.64,2.7,2.7,0,0,1-1,2.12q-5.76,5.55-12.51,11.72a121.84,121.84,0,0,1-13.87,11,63.43,63.43,0,0,1-14.55,7.4,22.3,22.3,0,0,1-14.48.34q-8.17-2.46-9.09-8.05T1807,374.8a84.61,84.61,0,0,1,8.48-14.91l10.21-14.59a107.86,107.86,0,0,0,7.31-11.66c1.66-3.2,1.59-5.3-.21-6.28-1.27-.67-3.63.39-7.11,3.15a136.14,136.14,0,0,0-12.91,12.3q-7.71,8.15-17.6,20.16T1774,390c-.19,1.06-1.24,1.36-3.13.91a25.83,25.83,0,0,1-6.1-2.41,32.52,32.52,0,0,1-5.7-3.82c-1.63-1.39-2.26-2.6-1.87-3.63q4.42-8.07,11.07-19.36T1782,339.21q7.08-11.2,13.23-20.61t9.61-13.72a11.82,11.82,0,0,1,8.74-4,18.18,18.18,0,0,1,9.12,2.14,12.07,12.07,0,0,1,5.62,5.94Q1829.82,312.69,1826.49,316.36Z"/><path d="M861.5,507.35q4.37,24.28,8.37,47.83T877,598.74c.63.88.07,1.87-1.65,3a26.41,26.41,0,0,1-6.12,2.75,32.35,32.35,0,0,1-6.71,1.41q-3.21.28-3.9-1.2-2.9-18.18-7.34-39.82T842,521q-4.83-22.15-9.06-43.76T826,437.32a12.26,12.26,0,0,1,2.77-8.72,16.84,16.84,0,0,1,7.18-5.3,13,13,0,0,1,7.82-.6,6.83,6.83,0,0,1,5,4.77,7.18,7.18,0,0,0,.63-1.64q4.84-13.36,10.88-16.48t11.75,1.38q5.7,4.49,10.49,14.76A104.15,104.15,0,0,1,890,448.57c.46,2.32,1,5.48,1.73,9.49a125.8,125.8,0,0,1,1.5,13.21,95,95,0,0,1-.16,14.41A44.06,44.06,0,0,1,890,498.77a22.71,22.71,0,0,1-7.47,9.68q-5,3.78-13.33,3.72a5.38,5.38,0,0,1-3.9-1.19A25.05,25.05,0,0,1,861.5,507.35Zm-9.57-59.87q1.3,9.4,3,19.67t3.37,20.62q3.13,10.47,7.74,15.93c3.43,1.8,5.88,1.37,7.35-1.26s2.26-6.5,2.35-11.59a96.47,96.47,0,0,0-1.55-17.56A168.92,168.92,0,0,0,870,454.47a108.8,108.8,0,0,0-5.52-15.32q-3-6.43-5.65-7.69c-2.4-.68-4.13.5-5.21,3.51S852,442.16,851.93,447.48Z"/><path d="M898.84,453.73c.14-.86.4-3.14.78-6.86s.69-8.16.93-13.33.44-10.69.58-16.57a157.35,157.35,0,0,0-.37-16.15q-5.06-1.33-9.58-8a57.44,57.44,0,0,1-7.08-14.68A43.87,43.87,0,0,1,881.8,363q.26-7.11,4.3-9,4.7-1.89,8,.22t5.42,7.28a60.52,60.52,0,0,1,3.43,12.81q1.3,7.63,2.2,17.08,5.22-1.08,6.92-4.11a25,25,0,0,0,2.42-8.89,11.29,11.29,0,0,1,3.24-9.24,20.92,20.92,0,0,1,8.1-5.26,12.73,12.73,0,0,1,8.17-.29,5.42,5.42,0,0,1,4,5.32q-.12,9,.38,21.54t2,24a99.79,99.79,0,0,0,4.15,19.28q2.67,7.91,6.93,7.46a9.66,9.66,0,0,0,2.73-.62q1.41-.53,2.83-4a63.24,63.24,0,0,0,2.95-10.78,189.72,189.72,0,0,0,2.63-21.18,3.11,3.11,0,0,1,1.05-2.41,3.59,3.59,0,0,1,2-.93,2.42,2.42,0,0,1,1.77.59,2.69,2.69,0,0,1,.74,2.22q-.65,8.13-1.26,17.39a124.25,124.25,0,0,1-2.41,17.76,54.12,54.12,0,0,1-5.52,15.15A21.3,21.3,0,0,1,948.38,464q-5.43,2.37-9.53-.18a23,23,0,0,1-7.37-8.13A57.44,57.44,0,0,1,926,442.1q-2.24-8-4-16.88t-3-17.74q-1.21-8.85-2.39-16.57a23.11,23.11,0,0,1-4.18,6.18q-2.22,2.22-7,3a185,185,0,0,1,.83,18.74q-.08,9.3-.4,16.84t-.75,12.82c-.27,3.53-.39,5.66-.37,6.41-.27,1.73-.67,2.82-1.18,3.28a1.48,1.48,0,0,1-1.79.2,5,5,0,0,1-1.9-1.86A7,7,0,0,1,898.84,453.73Zm1.94-62.55a198,198,0,0,0-3.48-22.81q-2.1-9.42-5.3-10.05c-1.41-.37-2.16.88-2.25,3.77a40.55,40.55,0,0,0,1.12,10.07,55.94,55.94,0,0,0,3.89,11.36Q897.37,389.15,900.78,391.18Z"/><path d="M1015.53,349a126.73,126.73,0,0,1,2.37,15.24q.61,7,.78,15.37c0,.75-.1,1.65-.21,2.68,0,.76-.07,1.63-.09,2.62a11,11,0,0,1-.24,2.33c1.19.59,2.69,1.31,4.49,2.18a10.17,10.17,0,0,0,5.67,1c2-.21,3.91-1.37,5.78-3.47s3.31-5.87,4.36-11.33c.32-1.88.74-3.89,1.26-6a69.43,69.43,0,0,0,1.32-7.13,3.07,3.07,0,0,1,1.24-2.32,3.63,3.63,0,0,1,2.09-.76,2.45,2.45,0,0,1,1.72.73,2.71,2.71,0,0,1,.55,2.27l-2,13.57q-2.11,14-7.8,20.7t-19.09,4h-1.34a80.83,80.83,0,0,1-3.91,14,48,48,0,0,1-6.53,12,39,39,0,0,1-9,8.66,24.26,24.26,0,0,1-11.61,4q-8.11.33-13.77-7.1t-8.38-19a112.85,112.85,0,0,1-2.79-25.3,101.29,101.29,0,0,1,3-25.86,61,61,0,0,1,9.4-20.83q6.28-8.68,16-9.85c2.67,0,4.58.91,5.72,2.62a9.47,9.47,0,0,1,1.65,5.54l2.78-2.23a23.12,23.12,0,0,1,4.35-1.79,6.21,6.21,0,0,1,4.5.34,10.76,10.76,0,0,1,4.22,4.16A30.74,30.74,0,0,1,1015.53,349Zm-30.62,6.34a70.73,70.73,0,0,0-2.79,16.74,153.59,153.59,0,0,0,.14,19.74,173.5,173.5,0,0,0,2.21,18.64,60.89,60.89,0,0,0,3.72,13.42q2.22,5.06,4.27,3.94c1-.55,2-2,2.77-4.42a60.71,60.71,0,0,0,2.15-8.68q.92-5.07,1.59-11c.44-3.9.73-7.6.84-11.09a25,25,0,0,1-7.75-8.88,34.77,34.77,0,0,1-3.83-12.07,54.91,54.91,0,0,1,0-13.38,35.67,35.67,0,0,1,3.75-12.48l-.41-.14Q987.15,348.1,984.91,355.35Zm13.83,23.59a6.43,6.43,0,0,0,2.36,1.31c0-1.23-.06-3.09-.18-5.6s-.36-5-.71-7.5a62.93,62.93,0,0,0-1.26-6.67c-.49-1.94-1.09-3-1.81-3.07-1-.2-1.8.48-2.4,2a15.82,15.82,0,0,0-1,5.64,25.49,25.49,0,0,0,1,7.16A15,15,0,0,0,998.74,378.94Z"/><path d="M1074.2,322.18a12.56,12.56,0,0,0,1.11-3.43,27.12,27.12,0,0,0,.47-4.22,15,15,0,0,0-.34-3.89c-.28-1.16-.76-1.84-1.47-2-1.92-1.07-3.53-.12-4.82,2.87a50.21,50.21,0,0,0-3.12,12,116.66,116.66,0,0,0-1.27,16.8,124.26,124.26,0,0,0,1,17.78,63,63,0,0,0,3.41,14.34q2.27,5.88,6.11,6.74,4.77.84,9.59-5.89a63.16,63.16,0,0,0,8-15.76q2.34-6.56,5.49-17.32a3.08,3.08,0,0,1,1.47-2.19,3.64,3.64,0,0,1,2.15-.54,2.44,2.44,0,0,1,1.64.9,2.74,2.74,0,0,1,.32,2.32q-.8,4.19-2.08,8.73t-2.62,9q-4.26,16.45-12.81,27.53t-17.69,13.45q-9.15,2.39-17.09-5.35t-11-28.87a96.83,96.83,0,0,1,6.1-48.73q4.47-10.61,11.46-16.65t15.45-4a14,14,0,0,1,7,5.14,15.73,15.73,0,0,1,2.42,7.75,24.4,24.4,0,0,1-1.3,9.11,41.26,41.26,0,0,1-4.21,8.92c-1.48,1.55-2.72,1.6-3.74.15S1073,323.85,1074.2,322.18Z"/><path d="M1095.1,348.83q.56-1.18,2.66-6.37t4.62-12.54q2.5-7.35,5.17-15.75a157.66,157.66,0,0,0,4.15-15.61q-4.47-2.7-7-10.4a57.63,57.63,0,0,1-2.71-16.08,44,44,0,0,1,2-15.13q2.24-6.75,6.63-7.4c3.36-.34,5.89.48,7.6,2.44s2.77,4.79,3.18,8.5a60.87,60.87,0,0,1-.28,13.26q-.89,7.69-2.66,17c3.55.28,6.15-.38,7.8-2a24.78,24.78,0,0,0,4.8-7.87,11.3,11.3,0,0,1,5.69-8,20.82,20.82,0,0,1,9.24-2.79,12.68,12.68,0,0,1,7.94,2,5.43,5.43,0,0,1,2.33,6.22q-2.61,8.56-5.64,20.79t-4.8,23.57a99.94,99.94,0,0,0-1.4,19.68c.25,5.56,1.77,8.58,4.57,9.09a9.52,9.52,0,0,0,2.8.17c1-.07,2.28-1.08,3.83-3a63,63,0,0,0,5.83-9.53,187.09,187.09,0,0,0,8.44-19.61,3.12,3.12,0,0,1,1.68-2,3.56,3.56,0,0,1,2.2-.33,2.43,2.43,0,0,1,1.54,1.06,2.71,2.71,0,0,1,.09,2.34q-2.9,7.63-6.06,16.35a124.81,124.81,0,0,1-7.28,16.38,53.73,53.73,0,0,1-9.52,13,21.31,21.31,0,0,1-12.78,6.22q-5.88.76-9.1-2.83a22.92,22.92,0,0,1-4.81-9.87,56.73,56.73,0,0,1-1.49-14.58q.08-8.3.88-17.32t2.09-17.87q1.3-8.82,2.33-16.58a23.29,23.29,0,0,1-5.73,4.78c-1.84,1-4.34,1.3-7.52.91a183.59,183.59,0,0,1-4.43,18.23q-2.65,8.91-5.08,16.06t-4.29,12.1c-1.25,3.31-2,5.32-2.14,6-.75,1.58-1.44,2.52-2.06,2.82a1.5,1.5,0,0,1-1.77-.31,5,5,0,0,1-1.31-2.31A6.93,6.93,0,0,1,1095.1,348.83Zm19.31-59.53a199.13,199.13,0,0,0,3-22.87q.6-9.65-2.29-11.14c-1.25-.74-2.32.25-3.22,3a40.79,40.79,0,0,0-1.73,10,56,56,0,0,0,.57,12Q1111.7,286.4,1114.41,289.3Z"/><path d="M1223.4,261.81a11.29,11.29,0,0,1,6.54-7.29,21,21,0,0,1,9.49-1.74,12.73,12.73,0,0,1,7.67,2.87,5.42,5.42,0,0,1,1.62,6.44q-3.54,8.22-7.91,20t-7.4,22.9a100.93,100.93,0,0,0-3.57,19.4q-.55,8.32,3.54,9.54a9.27,9.27,0,0,0,2.76.48q1.5.06,4.14-2.57a62.92,62.92,0,0,0,6.85-8.82,188.39,188.39,0,0,0,10.57-18.54,3.1,3.1,0,0,1,1.89-1.83,3.63,3.63,0,0,1,2.22-.08,2.39,2.39,0,0,1,1.41,1.22,2.68,2.68,0,0,1-.16,2.33q-3.74,7.28-7.85,15.58a124.77,124.77,0,0,1-9,15.48,53.93,53.93,0,0,1-10.9,11.86,21.28,21.28,0,0,1-13.4,4.76c-4.95,0-8.32-1.87-10.11-5.7s-2.59-8.95-2.38-15.35l-.4,1.06a82.7,82.7,0,0,1-5.26,10.17,41.17,41.17,0,0,1-6,7.68q-10,10.08-16.72,10.14t-9.94-6.39q-3.27-6.46-3.24-17.66a104.54,104.54,0,0,1,3-23.9q.86-3.45,2.91-10.07t5.14-14.1a149.06,149.06,0,0,1,7-14.6,39.82,39.82,0,0,1,8.77-11.31,17.39,17.39,0,0,1,10.32-4.53q5.43-.33,11.55,5.45,2.6,2.8,3.77,9.17c.41-2.05.89-4.05,1.42-6S1222.79,263.89,1223.4,261.81Zm-31.32,80.39q2.25,2.55,5.6-1a41.59,41.59,0,0,0,6.68-10.6,152.93,152.93,0,0,0,6.32-15.79,161.91,161.91,0,0,0,4.87-17.17,78.42,78.42,0,0,0,2-14.84c.1-4.3-.58-7.18-2-8.67q-3.52-4.61-7.06-2c-2.35,1.74-4.65,4.91-6.88,9.48a99.67,99.67,0,0,0-6,16.4,160.62,160.62,0,0,0-4.16,18.69,107.66,107.66,0,0,0-1.45,16.37Q1189.94,340.29,1192.08,342.2Z"/><path d="M1284.52,269.83l-7.21,13q-2.67,4.79-7.22,13-4.81,8.55-8.43,14.22a55.45,55.45,0,0,0-4.07,7q-1.58,2.09-2.58,2.34a1.49,1.49,0,0,1-1.68-.66,5.08,5.08,0,0,1-.81-2.53,6.94,6.94,0,0,1,.33-2.95c.52-.7,2-2.82,4.28-6.39s4.92-7.85,7.81-12.87q1.55-2.4,5.36-9.08t8.44-14.06q4.62-7.38,9.2-13.8t7.89-8.66l1.63-1.44.53-.7a1.6,1.6,0,0,1,1.13-.42,19.06,19.06,0,0,1,9.09-1.78,22.26,22.26,0,0,1,8.39,1.85,7.92,7.92,0,0,1,4.5,4.47c.66,1.89-.21,3.71-2.6,5.43q-7.08,6.15-9.7,11.41a22.91,22.91,0,0,0-2.64,10,24.65,24.65,0,0,0,1.69,9.1q1.71,4.39,3.58,8.94a46.27,46.27,0,0,1,2.77,9.66,24.61,24.61,0,0,1-.66,10.77q-3.35,12-10.19,19.25a39.64,39.64,0,0,1-14.5,10.21,28.92,28.92,0,0,1-14.65,1.95,17.12,17.12,0,0,1-10.92-5.52q-3.91-4.53-3.28-12.21t8.2-18.43c1.65-1.22,3-1.24,4.11,0,.92,1.66.56,3.09-1.09,4.32-3.17,4-4.81,7.57-4.91,10.83a10.5,10.5,0,0,0,2.45,7.73,10.29,10.29,0,0,0,6.9,3.29,11.41,11.41,0,0,0,8.4-2.86,16.42,16.42,0,0,0,6.37-11,48.78,48.78,0,0,0-.2-13.78,118.83,118.83,0,0,0-3-14.19,67.71,67.71,0,0,1-2.4-12.12A41.1,41.1,0,0,1,1284.52,269.83Z"/><path d="M1340.68,261.21c-1.37,0-2.73,0-4.1,0s-2.73-.08-4.09-.05c-1,0-1.48-.54-1.52-1.73a10.22,10.22,0,0,1,.77-3.91,15.3,15.3,0,0,1,2.08-3.78,3.68,3.68,0,0,1,2.73-1.69,36.26,36.26,0,0,1,8.51.72q4.68-9.84,8.12-17.7c2.28-5.25,4-9.39,5-12.45a9.73,9.73,0,0,1,6.68-6.82,19.49,19.49,0,0,1,9.92-.61,15.18,15.18,0,0,1,7.87,4q3,3,.5,6.94-2.81,4.62-7.11,12.34t-9,16.92l7.34.76q3.21-.09,2.13,2.85-.78,3.26-3.42,3.33a34.88,34.88,0,0,0-4.68-.18l-4.68.13q-2.76,5.91-8,16.25t-9.35,20.82a87,87,0,0,0-5.3,18.92q-1.23,8.44,3.8,10.24A5.38,5.38,0,0,0,1348,326a16.41,16.41,0,0,0,4.87-3.54,109.23,109.23,0,0,0,7.52-8.15q4.53-5.3,11.29-14.23a3.06,3.06,0,0,1,2.15-1.52,3.54,3.54,0,0,1,2.2.26,2.39,2.39,0,0,1,1.22,1.42,2.7,2.7,0,0,1-.52,2.28q-4.79,6.62-10.13,14.2a123.56,123.56,0,0,1-11.3,13.92,53.8,53.8,0,0,1-12.58,10.07,21.31,21.31,0,0,1-14,2.67q-6.77-.78-8.81-6.22t-1.12-13.39a87.59,87.59,0,0,1,4-17.27q3.09-9.32,6.63-18.31t6.85-16.21A91.81,91.81,0,0,0,1340.68,261.21Z"/><path d="M1393.16,252.83A11.3,11.3,0,0,1,1401,247a20.89,20.89,0,0,1,9.65.13,12.74,12.74,0,0,1,7,4.31,5.42,5.42,0,0,1,.34,6.63q-5.07,7.38-11.66,18.11t-11.7,21a100.16,100.16,0,0,0-7.28,18.34q-2.17,8.06,1.61,10.05a9.39,9.39,0,0,0,2.62,1q1.46.36,4.55-1.71a63.22,63.22,0,0,0,8.44-7.32,188.79,188.79,0,0,0,14-16.13,3,3,0,0,1,2.21-1.43,3.54,3.54,0,0,1,2.19.36,2.4,2.4,0,0,1,1.15,1.47,2.69,2.69,0,0,1-.62,2.25q-5.07,6.4-10.72,13.76a125.62,125.62,0,0,1-11.89,13.42,53.73,53.73,0,0,1-13,9.51,21.26,21.26,0,0,1-14.07,2.07q-8.46-1.74-9.06-10.48t3.52-21.62a251.16,251.16,0,0,1,11.07-28Q1386.23,267.62,1393.16,252.83Zm20.68-14.91c-3.49-.91-5.22-3.2-5.16-6.86a21.28,21.28,0,0,1,3.81-11.27,33.31,33.31,0,0,1,10.09-9.88,18.56,18.56,0,0,1,13.93-2.72q6.4,1.4,5.89,6.88t-5,11.25a41.55,41.55,0,0,1-11.11,9.87Q1419.68,239.3,1413.84,237.92Z"/><path d="M1461.36,266.71q-1.93,2.46-4.89,7.12t-6.61,10.89a150,150,0,0,1,17.08-18.28q8.74-7.81,15.64-9.94a22.52,22.52,0,0,1,5.46-.6,31.91,31.91,0,0,1,7.14.65,18.59,18.59,0,0,1,5.85,2.19q2.38,1.47,2,3.7a51.78,51.78,0,0,1-4.45,9.26q-3.33,5.78-7.61,12.6t-8.44,14a129.32,129.32,0,0,0-6.94,13.62,38.7,38.7,0,0,0-3.28,11.45q-.49,5,3.14,7.51a5.58,5.58,0,0,0,2.93,0,14.83,14.83,0,0,0,5-2.73,97.2,97.2,0,0,0,8.41-7.21q5.16-4.82,12.79-13.38a3.06,3.06,0,0,1,2.29-1.3,3.54,3.54,0,0,1,2.16.47,2.43,2.43,0,0,1,1.07,1.53,2.69,2.69,0,0,1-.74,2.22q-5.11,6.14-11.15,13A121.63,121.63,0,0,1,1485.61,336a63.54,63.54,0,0,1-13.66,8.95,22.3,22.3,0,0,1-14.35,1.93q-8.4-1.56-9.93-7t.75-12.92a83.92,83.92,0,0,1,6.8-15.74q4.52-8.26,8.55-15.62a108.93,108.93,0,0,0,6-12.39q1.95-5.06-.89-6.22c-1.34-.52-3.57.78-6.72,3.91a134.44,134.44,0,0,0-11.49,13.64q-6.78,8.94-15.29,22t-18.13,29.23c-.08,1.07-1.09,1.49-3,1.25a26.26,26.26,0,0,1-6.33-1.73,32.44,32.44,0,0,1-6.08-3.18c-1.77-1.2-2.53-2.33-2.26-3.4q3.53-8.5,8.88-20.46t11.17-23.87q5.81-11.91,10.89-21.94t8-14.68a11.82,11.82,0,0,1,8.25-5,18.26,18.26,0,0,1,9.3,1.13,12,12,0,0,1,6.24,5.29Q1464.27,262.69,1461.36,266.71Z"/><path d="M1573.18,268.63a11.27,11.27,0,0,1,8.44-5,21,21,0,0,1,9.57,1.2,12.68,12.68,0,0,1,6.44,5.05,5.42,5.42,0,0,1-.4,6.63q-5.87,6.76-13.6,16.71t-14,19.59a100.52,100.52,0,0,0-9.26,17.41q-3,7.77.48,10.17a9.45,9.45,0,0,0,2.49,1.29c.94.34,2.52-.06,4.72-1.2a63.23,63.23,0,0,0,9.2-6.33A187.87,187.87,0,0,0,1593,319.7a3.07,3.07,0,0,1,2.35-1.17,3.57,3.57,0,0,1,2.14.59,2.45,2.45,0,0,1,1,1.59,2.73,2.73,0,0,1-.86,2.18q-5.74,5.79-12.19,12.48a124.27,124.27,0,0,1-13.3,12,53.77,53.77,0,0,1-14,8,21.3,21.3,0,0,1-14.21.5q-7.1-2.2-7.92-8.5t2.38-15.35l-.7.89a82.58,82.58,0,0,1-8.1,8.11,40.92,40.92,0,0,1-8.06,5.5q-12.62,6.57-19,4.62t-7.55-9.1q-1.17-7.15,2.25-17.81a104.53,104.53,0,0,1,10.12-21.87q1.85-3,5.81-8.72t9.16-11.89a150.33,150.33,0,0,1,11.07-11.8,39.91,39.91,0,0,1,11.78-8.14,17.43,17.43,0,0,1,11.21-1.19q5.28,1.32,9.36,8.67,1.63,3.48.82,9.89,1.53-2.74,3.18-5.31T1573.18,268.63ZM1519,335.81q1.38,3.1,5.66.71a41.76,41.76,0,0,0,9.57-8.08,153.84,153.84,0,0,0,10.79-13.15,161.14,161.14,0,0,0,9.83-14.9,76.9,76.9,0,0,0,6.42-13.53q2.1-6.09.68-8.88-2-5.46-6.12-4c-2.78.95-5.92,3.28-9.43,7a99.7,99.7,0,0,0-10.72,13.81,158.72,158.72,0,0,0-9.61,16.55,106.84,106.84,0,0,0-6.33,15.18Q1517.58,333.35,1519,335.81Z"/><path d="M1616.22,283.92c-1.35-.21-2.7-.47-4-.79s-2.68-.59-4-.8q-1.46-.22-1.17-2a10.06,10.06,0,0,1,1.47-3.7,14.77,14.77,0,0,1,2.74-3.33,3.65,3.65,0,0,1,3-1.17,36.65,36.65,0,0,1,8.23,2.27q6.42-8.81,11.23-15.91t7.25-11.31a9.72,9.72,0,0,1,7.82-5.48,19.57,19.57,0,0,1,9.87,1.22,15.25,15.25,0,0,1,7,5.35q2.42,3.5-.79,6.92-3.58,4-9.24,10.82t-12,15l7.07,2.09q3.18.5,1.57,3.19-1.37,3.06-4,2.65a34.67,34.67,0,0,0-4.57-1l-4.62-.73q-3.79,5.29-10.86,14.5t-13,18.75a87.48,87.48,0,0,0-8.68,17.63q-2.76,8.08,1.86,10.77a5.35,5.35,0,0,0,3.09.15,16.49,16.49,0,0,0,5.43-2.58,108.68,108.68,0,0,0,8.89-6.63q5.42-4.38,13.71-11.93a3.09,3.09,0,0,1,2.39-1.09,3.59,3.59,0,0,1,2.12.66A2.45,2.45,0,0,1,1645,329a2.74,2.74,0,0,1-.93,2.14q-5.92,5.63-12.56,12.11a124.27,124.27,0,0,1-13.66,11.61,54.16,54.16,0,0,1-14.21,7.59,21.35,21.35,0,0,1-14.22.06q-6.5-2-7.52-7.73t1.36-13.37a86.83,86.83,0,0,1,7.13-16.23q4.76-8.59,9.89-16.79t9.7-14.68A90.83,90.83,0,0,0,1616.22,283.92Z"/><path d="M1668.28,284.13a11.28,11.28,0,0,1,8.64-4.59,20.85,20.85,0,0,1,9.51,1.63,12.63,12.63,0,0,1,6.21,5.33,5.4,5.4,0,0,1-.68,6.6q-6.17,6.51-14.33,16.09t-14.81,19a100.64,100.64,0,0,0-10,17q-3.39,7.62,0,10.18a9.79,9.79,0,0,0,2.44,1.4q1.38.57,4.76-1a63.47,63.47,0,0,0,9.47-5.93A187.93,187.93,0,0,0,1685.8,336a3.08,3.08,0,0,1,2.41-1.06,3.63,3.63,0,0,1,2.11.68,2.38,2.38,0,0,1,.9,1.64,2.69,2.69,0,0,1-1,2.13q-6,5.54-12.73,11.93a124.32,124.32,0,0,1-13.81,11.42,53.86,53.86,0,0,1-14.32,7.39,21.28,21.28,0,0,1-14.22-.13q-8.09-3-7.33-11.76t6.82-20.81A250.71,250.71,0,0,1,1650,311.51Q1659.13,297.66,1668.28,284.13ZM1691,272.6q-5-2.16-4-7.58a21.26,21.26,0,0,1,5.51-10.54,33.56,33.56,0,0,1,11.49-8.21,18.6,18.6,0,0,1,14.19-.53q6.1,2.37,4.76,7.71t-6.67,10.34a41.48,41.48,0,0,1-12.5,8Q1696.57,274.86,1691,272.6Z"/><path d="M1759.92,325.42a126.12,126.12,0,0,1-7.66,13.4q-3.9,5.87-9,12.49c-.51.57-1.12,1.23-1.85,2-.5.56-1.07,1.23-1.7,2a12.42,12.42,0,0,1-1.64,1.67l2.14,4.5a10.29,10.29,0,0,0,3.82,4.32c1.69,1.07,3.91,1.37,6.68.89s6.26-2.52,10.48-6.14c1.43-1.27,3-2.57,4.73-3.9a68.79,68.79,0,0,0,5.48-4.75,3.07,3.07,0,0,1,2.42-1,3.59,3.59,0,0,1,2.1.72,2.38,2.38,0,0,1,.88,1.64,2.67,2.67,0,0,1-1,2.12l-10,9.34q-10.38,9.62-19,11.32t-17.42-8.78l-1-.85a81.37,81.37,0,0,1-11.82,8.53,48.07,48.07,0,0,1-12.55,5.26,38.63,38.63,0,0,1-12.41,1.18,24.19,24.19,0,0,1-11.59-4.09q-6.54-4.81-6.33-14.15T1679,343a112.86,112.86,0,0,1,13.6-21.51,101.29,101.29,0,0,1,18.51-18.31,61.14,61.14,0,0,1,20.34-10.42q10.33-2.87,18.61,2.26,3.11,2.53,2.84,5.61a9.44,9.44,0,0,1-2.17,5.36h3.57a23.07,23.07,0,0,1,4.52,1.32,6.26,6.26,0,0,1,3.3,3.07,10.88,10.88,0,0,1,.71,5.89A31.24,31.24,0,0,1,1759.92,325.42ZM1732,311.28a70.71,70.71,0,0,0-12.62,11.33,154.43,154.43,0,0,0-12.21,15.52,171.59,171.59,0,0,0-9.9,15.94,61.43,61.43,0,0,0-5.47,12.81c-.95,3.56-.65,5.47.88,5.75,1.15.21,2.79-.36,4.93-1.73a60.79,60.79,0,0,0,7.09-5.44q3.88-3.39,8.07-7.56c2.78-2.78,5.32-5.49,7.59-8.15a25,25,0,0,1-.53-11.77,34.67,34.67,0,0,1,4.55-11.82,54.38,54.38,0,0,1,8.31-10.48,35.25,35.25,0,0,1,10.72-7.41l-.23-.37Q1738.31,307,1732,311.28Zm-3.91,27.06a6.32,6.32,0,0,0,1,2.49c.77-.95,1.89-2.45,3.35-4.48s2.84-4.14,4.13-6.31a64.44,64.44,0,0,0,3.18-6c.82-1.82,1-3,.49-3.52-.65-.78-1.7-.75-3.13.08a16.1,16.1,0,0,0-4.27,3.82,25.62,25.62,0,0,0-3.67,6.24A15,15,0,0,0,1728.12,338.34Z"/><path d="M1820,322.32c-1.46,1.5-3.33,3.67-5.63,6.55s-4.9,6.24-7.77,10.1a150.56,150.56,0,0,1,19-16.3q9.54-6.81,16.62-8.17a22.49,22.49,0,0,1,5.5,0,31.35,31.35,0,0,1,7,1.43,18.39,18.39,0,0,1,5.59,2.81c1.47,1.15,2,2.44,1.52,3.89a51.76,51.76,0,0,1-5.43,8.72q-3.95,5.37-9,11.69t-9.92,13a131.24,131.24,0,0,0-8.4,12.78,39.26,39.26,0,0,0-4.51,11q-1,4.9,2.31,7.81a5.54,5.54,0,0,0,2.9.36,14.8,14.8,0,0,0,5.3-2.17,96.59,96.59,0,0,0,9.14-6.23q5.67-4.23,14.19-11.91a3.05,3.05,0,0,1,2.41-1,3.58,3.58,0,0,1,2.1.71,2.4,2.4,0,0,1,.9,1.64,2.7,2.7,0,0,1-1,2.12q-5.76,5.55-12.51,11.71a120.85,120.85,0,0,1-13.87,11,63,63,0,0,1-14.56,7.39,22.21,22.21,0,0,1-14.47.35q-8.18-2.46-9.1-8.05c-.61-3.73.1-8,2.16-12.76a84.27,84.27,0,0,1,8.48-14.9l10.21-14.59a109.53,109.53,0,0,0,7.3-11.66c1.67-3.2,1.6-5.3-.2-6.28q-1.9-1-7.11,3.15a134.86,134.86,0,0,0-12.91,12.3q-7.71,8.14-17.61,20.15T1767.5,396c-.19,1.06-1.24,1.36-3.14.91a26,26,0,0,1-6.1-2.41,32.54,32.54,0,0,1-5.7-3.83q-2.44-2.07-1.87-3.62,4.43-8.07,11.07-19.36t13.72-22.51q7.07-11.21,13.23-20.62t9.6-13.71a11.84,11.84,0,0,1,8.75-4,18.24,18.24,0,0,1,9.12,2.14,11.92,11.92,0,0,1,5.61,5.94Q1823.35,318.66,1820,322.32Z"/><path d="M1107.64,588.63v4.55h-16.78v-4.55Z"/><path d="M1140.46,591.79q2.44-5.25,4.11-8.51t2.28-4.65a2.36,2.36,0,0,1,1.66-1.44,4.9,4.9,0,0,1,2.31-.07,3.66,3.66,0,0,1,1.8.91,1.09,1.09,0,0,1,.14,1.51c-.37.51-1,1.47-1.9,2.87s-1.91,3-3,4.83-2.19,3.75-3.3,5.81-2,4-2.82,5.81a28.58,28.58,0,0,0-1.6,4.72c-.29,1.33-.14,2.18.45,2.56a1.22,1.22,0,0,0,1,0,6.3,6.3,0,0,0,1.35-.8,19,19,0,0,0,1.53-1.3c.52-.49,1-1,1.46-1.5l.85-1c.25-.3.49-.57.72-.8a.68.68,0,0,1,.51-.32.87.87,0,0,1,.5.07.55.55,0,0,1,.28.32.56.56,0,0,1-.14.49c-.23.32-.46.64-.71.94l-.78,1c-.68.84-1.41,1.69-2.18,2.55a19,19,0,0,1-2.41,2.28,10.67,10.67,0,0,1-2.58,1.5,5.27,5.27,0,0,1-2.75.32,2.33,2.33,0,0,1-2-1.54,6.81,6.81,0,0,1-.07-3.22,16.67,16.67,0,0,1-1.46,1.71,13.93,13.93,0,0,1-1.77,1.54,10.65,10.65,0,0,1-1.93,1.12,5,5,0,0,1-2,.46,2.24,2.24,0,0,1-1.94-.91,4.28,4.28,0,0,1-.68-2.42,12.22,12.22,0,0,1,.48-3.39,23.38,23.38,0,0,1,1.46-3.92c.22-.47.59-1.15,1.09-2a32.24,32.24,0,0,1,1.76-2.8,28.63,28.63,0,0,1,2.21-2.8,9.93,9.93,0,0,1,2.48-2.07,4.1,4.1,0,0,1,2.55-.59,3.65,3.65,0,0,1,2.41,1.68,2.12,2.12,0,0,1,.48,1.54A1.27,1.27,0,0,1,1140.46,591.79ZM1131,606.14c.27.37.7.35,1.29-.07a10.24,10.24,0,0,0,1.93-2,28.86,28.86,0,0,0,2.11-3.08,36.53,36.53,0,0,0,1.84-3.47,18,18,0,0,0,1.12-3.11,2.86,2.86,0,0,0,0-2c-.41-.75-.93-1-1.57-.7a5.41,5.41,0,0,0-2,1.78,24.51,24.51,0,0,0-2,3.29,38.16,38.16,0,0,0-1.77,3.82,19.5,19.5,0,0,0-1.05,3.43C1130.64,605.13,1130.68,605.81,1131,606.14Z"/><path d="M1153,603.62a4.85,4.85,0,0,0-.2.94,2,2,0,0,0,.07,1,1.09,1.09,0,0,0,.5.63,1.2,1.2,0,0,0,1,0,5.12,5.12,0,0,0,1.6-1,30.53,30.53,0,0,0,2.95-3l1.23-1.4a.68.68,0,0,1,.51-.32.92.92,0,0,1,.51.07.57.57,0,0,1,.27.32.56.56,0,0,1-.14.49l-1.29,1.61c-.68.88-1.42,1.77-2.21,2.66a24.72,24.72,0,0,1-2.44,2.38,10.23,10.23,0,0,1-2.65,1.61,5,5,0,0,1-2.82.28,3.57,3.57,0,0,1-2.72-1.65,6,6,0,0,1-.75-3.32,13.58,13.58,0,0,1,.92-4.24,24.37,24.37,0,0,1,2.17-4.41,21.77,21.77,0,0,1,3.06-3.85,11.08,11.08,0,0,1,3.64-2.48c1.72-.7,3-.91,3.8-.63a2.1,2.1,0,0,1,1.46,1.75,6.23,6.23,0,0,1-.44,3.18,19.86,19.86,0,0,1-1.87,3.75,18.25,18.25,0,0,1-2.82,3.46A10.89,10.89,0,0,1,1153,603.62Zm.21-1.33a5.3,5.3,0,0,0,2.71-1.75,15.9,15.9,0,0,0,2.31-3.19,11.94,11.94,0,0,0,1.29-3.18c.23-1,.12-1.54-.34-1.68-.72-.24-1.42.07-2.1.91a14.68,14.68,0,0,0-1.84,3,29,29,0,0,0-1.36,3.5C1153.48,601.07,1153.26,601.87,1153.17,602.29Z"/><path d="M1174.84,590.25a2.64,2.64,0,0,1,1.8-1.3,5.28,5.28,0,0,1,2.24,0,3,3,0,0,1,1.63.91,1.11,1.11,0,0,1,.1,1.44q-1.15,1.61-2.65,4c-1,1.56-1.88,3.09-2.64,4.59a20.34,20.34,0,0,0-1.64,4c-.31,1.16-.18,1.89.41,2.17a2.74,2.74,0,0,0,.61.21,1.78,1.78,0,0,0,1.06-.39,14.33,14.33,0,0,0,1.93-1.61,42.68,42.68,0,0,0,3.2-3.53.68.68,0,0,1,.51-.32.92.92,0,0,1,.51.07.57.57,0,0,1,.27.32.56.56,0,0,1-.14.49c-.77.93-1.58,1.93-2.44,3a29.58,29.58,0,0,1-2.72,2.94,12.9,12.9,0,0,1-3,2.1,5.34,5.34,0,0,1-3.26.49,2.31,2.31,0,0,1-2.08-1.61,6.82,6.82,0,0,1,.11-3.36l-.14.21a18.81,18.81,0,0,1-1.63,2,9.49,9.49,0,0,1-1.7,1.4q-2.71,1.74-4.25,1.5a2.37,2.37,0,0,1-2-1.75,7.87,7.87,0,0,1,0-3.88,21.38,21.38,0,0,1,1.7-5c.23-.47.59-1.15,1.09-2a32.24,32.24,0,0,1,1.76-2.8,33.28,33.28,0,0,1,2.21-2.84,8.91,8.91,0,0,1,2.48-2.06,4.21,4.21,0,0,1,2.55-.56,3.42,3.42,0,0,1,2.89,3.71q.27-.63.57-1.23C1174.4,591.08,1174.61,590.67,1174.84,590.25Zm-10.53,15.89q.4.63,1.32,0a9.33,9.33,0,0,0,2-2,33.51,33.51,0,0,0,2.11-3.11,34.24,34.24,0,0,0,1.83-3.47,15.77,15.77,0,0,0,1.09-3.08,2.48,2.48,0,0,0-.1-1.92c-.41-.75-.92-1-1.53-.7a5.81,5.81,0,0,0-2,1.75,21.31,21.31,0,0,0-2.07,3.25,33.83,33.83,0,0,0-1.74,3.82,21.91,21.91,0,0,0-1,3.43C1164,605.13,1164,605.81,1164.31,606.14Z"/><path d="M1194.61,591.79q2.45-5.25,4.11-8.51t2.28-4.65a2.38,2.38,0,0,1,1.66-1.44,4.9,4.9,0,0,1,2.31-.07,3.66,3.66,0,0,1,1.8.91,1.08,1.08,0,0,1,.14,1.51c-.36.51-1,1.47-1.9,2.87s-1.9,3-3,4.83-2.19,3.75-3.3,5.81-2,4-2.82,5.81a27.52,27.52,0,0,0-1.59,4.72c-.3,1.33-.15,2.18.44,2.56a1.22,1.22,0,0,0,1,0,6.34,6.34,0,0,0,1.36-.8c.49-.38,1-.81,1.53-1.3s1-1,1.46-1.5.6-.71.84-1,.49-.57.72-.8a.68.68,0,0,1,.51-.32.92.92,0,0,1,.51.07.57.57,0,0,1,.27.32.56.56,0,0,1-.14.49c-.22.32-.46.64-.71.94l-.78,1c-.68.84-1.41,1.69-2.18,2.55a19,19,0,0,1-2.41,2.28,10.67,10.67,0,0,1-2.58,1.5,5.26,5.26,0,0,1-2.75.32,2.33,2.33,0,0,1-2-1.54,6.81,6.81,0,0,1-.07-3.22,15.5,15.5,0,0,1-1.46,1.71,12.68,12.68,0,0,1-1.77,1.54,10.65,10.65,0,0,1-1.93,1.12,5,5,0,0,1-2,.46,2.24,2.24,0,0,1-1.94-.91,4.36,4.36,0,0,1-.68-2.42,12.22,12.22,0,0,1,.48-3.39,24.29,24.29,0,0,1,1.46-3.92c.23-.47.59-1.15,1.09-2s1.09-1.82,1.76-2.8a28.63,28.63,0,0,1,2.21-2.8,10.11,10.11,0,0,1,2.48-2.07,4.1,4.1,0,0,1,2.55-.59,3.65,3.65,0,0,1,2.41,1.68,2.12,2.12,0,0,1,.48,1.54A1.61,1.61,0,0,1,1194.61,591.79Zm-9.51,14.35c.27.37.7.35,1.29-.07a10.55,10.55,0,0,0,1.94-2,30.42,30.42,0,0,0,2.1-3.08,32.46,32.46,0,0,0,1.84-3.47,18,18,0,0,0,1.12-3.11,2.75,2.75,0,0,0,0-2c-.41-.75-.93-1-1.56-.7a5.33,5.33,0,0,0-2,1.78,25.56,25.56,0,0,0-2,3.29,38.16,38.16,0,0,0-1.77,3.82,19.5,19.5,0,0,0-1,3.43C1184.79,605.13,1184.83,605.81,1185.1,606.14Z"/><path d="M1218.67,579.82c0-.05-.32.56-1.09,1.82s-1.72,2.84-2.86,4.76-2.33,4-3.6,6.23-2.35,4.35-3.26,6.33a35.7,35.7,0,0,0-1.94,5q-.57,2.07.45,2.28a2.05,2.05,0,0,0,1.22-.39,11.63,11.63,0,0,0,1.49-1.08,16.86,16.86,0,0,0,1.36-1.26c.41-.42.7-.75.89-1l1.7-1.89a.68.68,0,0,1,.51-.32.87.87,0,0,1,.5.07.55.55,0,0,1,.28.32.56.56,0,0,1-.14.49l-1.56,2c-.68.79-1.38,1.58-2.11,2.38a19.65,19.65,0,0,1-2.27,2.13,11.05,11.05,0,0,1-2.55,1.51,7.51,7.51,0,0,1-2.86.56,3,3,0,0,1-2.07-1.44,4.93,4.93,0,0,1-.47-2.66,12.94,12.94,0,0,1,.71-3.39c.41-1.22.87-2.43,1.39-3.64s1.07-2.35,1.63-3.4,1-2,1.4-2.69c.76-1.5,1.55-3,2.34-4.41s1.53-2.78,2.21-4,1.27-2.28,1.76-3.19.86-1.62,1.09-2.13a2.38,2.38,0,0,1,1.67-1.44,4.9,4.9,0,0,1,2.31-.07,3.67,3.67,0,0,1,1.8.91A1.05,1.05,0,0,1,1218.67,579.82Z"/><path d="M1217.92,590.25a2.6,2.6,0,0,1,1.8-1.3,5.28,5.28,0,0,1,2.24,0,3,3,0,0,1,1.63.91,1.12,1.12,0,0,1,.1,1.44q-1.15,1.61-2.65,4c-1,1.56-1.88,3.09-2.65,4.59a20.87,20.87,0,0,0-1.63,4c-.32,1.16-.18,1.89.41,2.17a2.57,2.57,0,0,0,.61.21,1.73,1.73,0,0,0,1-.39,13.69,13.69,0,0,0,1.94-1.61,41.16,41.16,0,0,0,3.19-3.53.72.72,0,0,1,.51-.32.89.89,0,0,1,.51.07.5.5,0,0,1,.27.32.55.55,0,0,1-.13.49c-.77.93-1.59,1.93-2.45,3a28.35,28.35,0,0,1-2.71,2.94,13.12,13.12,0,0,1-3,2.1,5.37,5.37,0,0,1-3.27.49,2.34,2.34,0,0,1-2.14-2.24,12.17,12.17,0,0,1,.75-4.69,51.84,51.84,0,0,1,2.48-6.09Q1216.35,593.46,1217.92,590.25Zm4.75-3.29a1.4,1.4,0,0,1-1.22-1.47,4.35,4.35,0,0,1,.85-2.45,7.43,7.43,0,0,1,2.31-2.17,4.53,4.53,0,0,1,3.23-.63c1,.18,1.46.67,1.39,1.47a4.6,4.6,0,0,1-1.12,2.45,9.52,9.52,0,0,1-2.55,2.17A4.07,4.07,0,0,1,1222.67,587Z"/><path d="M1233.41,592.49c-.27.37-.61.91-1,1.61s-.86,1.51-1.36,2.45a32.66,32.66,0,0,1,3.67-4.2,10.21,10.21,0,0,1,3.47-2.38,4.8,4.8,0,0,1,1.25-.21,7.75,7.75,0,0,1,1.67,0,4.47,4.47,0,0,1,1.39.39.73.73,0,0,1,.51.77,11.11,11.11,0,0,1-.88,2.06c-.46.87-1,1.81-1.57,2.84s-1.16,2.07-1.73,3.15a25.63,25.63,0,0,0-1.39,3,7.75,7.75,0,0,0-.58,2.52,1.61,1.61,0,0,0,.85,1.58,1.48,1.48,0,0,0,.68,0,3.6,3.6,0,0,0,1.12-.66,24.48,24.48,0,0,0,1.83-1.68c.75-.75,1.67-1.78,2.76-3.08a.68.68,0,0,1,.5-.32.89.89,0,0,1,.51.07.55.55,0,0,1,.28.32.56.56,0,0,1-.14.49c-.72.93-1.52,1.92-2.38,3a25.67,25.67,0,0,1-2.72,2.87,14.86,14.86,0,0,1-3,2.14,5.47,5.47,0,0,1-3.29.63c-1.32-.14-2.12-.6-2.42-1.37a4.71,4.71,0,0,1,0-2.8,16.85,16.85,0,0,1,1.33-3.5c.61-1.24,1.18-2.4,1.73-3.5a24.05,24.05,0,0,0,1.19-2.76c.25-.75.14-1.19-.31-1.33s-.81.22-1.49.94a28.25,28.25,0,0,0-2.45,3.12c-.95,1.35-2,3-3.19,5s-2.43,4.15-3.74,6.58c0,.23-.23.33-.68.31a6.34,6.34,0,0,1-1.49-.28,7.63,7.63,0,0,1-1.47-.59c-.42-.24-.62-.47-.57-.7q.68-1.89,1.73-4.55t2.21-5.32q1.15-2.67,2.17-4.9c.68-1.5,1.23-2.59,1.63-3.29a2.74,2.74,0,0,1,1.84-1.19,4.51,4.51,0,0,1,2.17.1,2.79,2.79,0,0,1,1.53,1.05A1.36,1.36,0,0,1,1233.41,592.49Z"/><path d="M1249.51,603.62a4.85,4.85,0,0,0-.2.94,2.12,2.12,0,0,0,.06,1,1.07,1.07,0,0,0,.51.63,1.2,1.2,0,0,0,1,0,5.12,5.12,0,0,0,1.6-1,30.53,30.53,0,0,0,3-3l1.22-1.4a.72.72,0,0,1,.51-.32.89.89,0,0,1,.51.07.55.55,0,0,1,.28.32.56.56,0,0,1-.14.49l-1.29,1.61c-.68.88-1.42,1.77-2.21,2.66a23.74,23.74,0,0,1-2.45,2.38,9.91,9.91,0,0,1-2.65,1.61,5,5,0,0,1-2.82.28,3.57,3.57,0,0,1-2.71-1.65,5.86,5.86,0,0,1-.75-3.32,13.3,13.3,0,0,1,.92-4.24,24.37,24.37,0,0,1,2.17-4.41,20.89,20.89,0,0,1,3.06-3.85,11.15,11.15,0,0,1,3.63-2.48q2.58-1.05,3.81-.63A2.11,2.11,0,0,1,1258,591a6.23,6.23,0,0,1-.44,3.18,20.47,20.47,0,0,1-1.87,3.75,18.25,18.25,0,0,1-2.82,3.46A10.89,10.89,0,0,1,1249.51,603.62Zm.2-1.33a5.28,5.28,0,0,0,2.72-1.75,15.9,15.9,0,0,0,2.31-3.19,11.94,11.94,0,0,0,1.29-3.18c.23-1,.12-1.54-.34-1.68-.72-.24-1.42.07-2.1.91a14.68,14.68,0,0,0-1.84,3,29,29,0,0,0-1.36,3.5C1250,601.07,1249.8,601.87,1249.71,602.29Z"/><path d="M1263.64,593.33c-.81,1.12-1.46,2-1.93,2.66l-1.94,2.66c-.86,1.16-1.61,2.13-2.24,2.9a11,11,0,0,0-1.09,1.44,1.34,1.34,0,0,1-.65.45.36.36,0,0,1-.37-.17,1,1,0,0,1-.13-.56,1.39,1.39,0,0,1,.13-.63c.14-.14.51-.58,1.12-1.3s1.3-1.6,2.07-2.62c.28-.33.75-.95,1.43-1.86s1.43-1.87,2.24-2.87,1.62-1.93,2.42-2.8a8.13,8.13,0,0,1,2-1.71l.41-.28.13-.14a.39.39,0,0,1,.28-.07,4.52,4.52,0,0,1,2.14-.21,5.38,5.38,0,0,1,1.9.56,1.74,1.74,0,0,1,1,1.05c.11.42-.13.79-.71,1.12a8.75,8.75,0,0,0-2.48,2.27,4.66,4.66,0,0,0-.82,2.1,5,5,0,0,0,.2,2c.21.65.42,1.31.65,2a9.34,9.34,0,0,1,.44,2.14,5,5,0,0,1-.37,2.31,9.81,9.81,0,0,1-2.75,4,9.51,9.51,0,0,1-3.57,1.93,7.32,7.32,0,0,1-3.43.14,4,4,0,0,1-2.41-1.4,3.21,3.21,0,0,1-.51-2.7,8.38,8.38,0,0,1,2.27-3.81c.41-.24.73-.21,1,.07s.07.67-.34.91a4.13,4.13,0,0,0-1.36,2.24,2.15,2.15,0,0,0,.41,1.71,2.42,2.42,0,0,0,1.53.84,2.8,2.8,0,0,0,2-.45,3.57,3.57,0,0,0,1.69-2.24,9.73,9.73,0,0,0,.24-3,23,23,0,0,0-.41-3.11,14.29,14.29,0,0,1-.3-2.66A8.5,8.5,0,0,1,1263.64,593.33Z"/><path d="M1291,599.42c.36-.47.92-1.23,1.69-2.28a36.57,36.57,0,0,1,2.65-3.18,22.59,22.59,0,0,1,3.16-2.84,5.87,5.87,0,0,1,3.23-1.29c1.54-.1,2.46.17,2.75.8a3.13,3.13,0,0,1-.17,2.49,22.59,22.59,0,0,1-1.83,3.5c-.82,1.3-1.59,2.59-2.31,3.85a12.84,12.84,0,0,0-.61,1.26,19.68,19.68,0,0,0-.72,1.85,5.06,5.06,0,0,0-.27,1.72.86.86,0,0,0,.72.91,1.94,1.94,0,0,0,1.63-.46,15.82,15.82,0,0,0,1.93-1.61,24.15,24.15,0,0,0,1.84-2l1.25-1.5a.72.72,0,0,1,.51-.32.89.89,0,0,1,.51.07.55.55,0,0,1,.28.32.56.56,0,0,1-.14.49c-.77.93-1.59,1.93-2.45,3a28.35,28.35,0,0,1-2.71,2.94,13.12,13.12,0,0,1-3,2.1,5.37,5.37,0,0,1-3.27.49,2.22,2.22,0,0,1-1.93-1.47,5.88,5.88,0,0,1-.1-2.8,17.22,17.22,0,0,1,1-3.47c.5-1.24,1-2.39,1.47-3.46s.83-2,1.08-2.73.26-1.19,0-1.33a4.07,4.07,0,0,0-1.4,1.08,28.14,28.14,0,0,0-2,2.38c-.75,1-1.54,2-2.38,3.15s-1.62,2.24-2.35,3.29-1.38,2-2,2.91-1,1.54-1.29,2a1.13,1.13,0,0,0-.27.49c0,.23-.23.33-.68.31a6.34,6.34,0,0,1-1.49-.28,7.53,7.53,0,0,1-1.46-.59c-.43-.24-.63-.47-.58-.7,1.27-2.38,2.49-4.86,3.67-7.42l3.53-7.74q1.77-3.89,3.6-7.66t3.81-7.35a2.72,2.72,0,0,1,1.83-1.19,4.37,4.37,0,0,1,2.14.1,2.78,2.78,0,0,1,1.5,1,1.36,1.36,0,0,1-.11,1.65q-2.58,4.62-5.16,9.55T1291,599.42Z"/><path d="M1320.65,590.25a2.64,2.64,0,0,1,1.8-1.3,5.28,5.28,0,0,1,2.24,0,3,3,0,0,1,1.63.91,1.11,1.11,0,0,1,.1,1.44q-1.15,1.61-2.65,4c-1,1.56-1.88,3.09-2.65,4.59a20.87,20.87,0,0,0-1.63,4c-.31,1.16-.18,1.89.41,2.17a2.74,2.74,0,0,0,.61.21,1.78,1.78,0,0,0,1.06-.39,14.33,14.33,0,0,0,1.93-1.61,42.68,42.68,0,0,0,3.2-3.53.68.68,0,0,1,.51-.32.87.87,0,0,1,.5.07.55.55,0,0,1,.28.32.56.56,0,0,1-.14.49c-.77.93-1.59,1.93-2.44,3a29.58,29.58,0,0,1-2.72,2.94,12.9,12.9,0,0,1-3,2.1,5.34,5.34,0,0,1-3.26.49,2.31,2.31,0,0,1-2.08-1.61,6.82,6.82,0,0,1,.11-3.36l-.14.21a18.81,18.81,0,0,1-1.63,2,9.49,9.49,0,0,1-1.7,1.4q-2.71,1.74-4.25,1.5a2.37,2.37,0,0,1-2-1.75,7.87,7.87,0,0,1,0-3.88,21.38,21.38,0,0,1,1.7-5c.22-.47.59-1.15,1.09-2a32.24,32.24,0,0,1,1.76-2.8,33.28,33.28,0,0,1,2.21-2.84,8.91,8.91,0,0,1,2.48-2.06,4.21,4.21,0,0,1,2.55-.56,3.42,3.42,0,0,1,2.89,3.71q.27-.63.57-1.23C1320.21,591.08,1320.42,590.67,1320.65,590.25Zm-10.53,15.89q.41.63,1.32,0a9.33,9.33,0,0,0,2-2,33.51,33.51,0,0,0,2.11-3.11,34.24,34.24,0,0,0,1.83-3.47,15.77,15.77,0,0,0,1.09-3.08,2.48,2.48,0,0,0-.1-1.92c-.41-.75-.92-1-1.53-.7a5.81,5.81,0,0,0-2,1.75,21.31,21.31,0,0,0-2.07,3.25,33.83,33.83,0,0,0-1.74,3.82,21.91,21.91,0,0,0-1,3.43C1309.81,605.13,1309.85,605.81,1310.12,606.14Z"/><path d="M1335.67,591a15.34,15.34,0,0,0-1.16,2.13c-.45,1-.93,2-1.43,3.12s-1,2.27-1.39,3.46a24.09,24.09,0,0,0-1,3.22,7,7,0,0,0-.17,2.35c.09.6.41.88,1,.84a7.49,7.49,0,0,0,3.47-1.86,24,24,0,0,0,4.07-4.37,10.23,10.23,0,0,1-.27-4.06,10.75,10.75,0,0,1,1.12-3.71,6.64,6.64,0,0,1,2.17-2.49,3.56,3.56,0,0,1,3-.45c.77.23,1,.84.82,1.82a13.33,13.33,0,0,1-1.29,3.22c-.64,1.16-1.32,2.27-2,3.32s-1.2,1.72-1.43,2a11.5,11.5,0,0,0,.75,2.48,2.67,2.67,0,0,0,1.22,1.44,2,2,0,0,0,1.84-.25,9.06,9.06,0,0,0,2.51-2.48.79.79,0,0,1,.51-.35.72.72,0,0,1,.51,0,.57.57,0,0,1,.27.35.62.62,0,0,1-.14.53,11.5,11.5,0,0,1-2.58,2.94,4.72,4.72,0,0,1-2.55,1.12,2.92,2.92,0,0,1-2.17-.84,6.06,6.06,0,0,1-1.53-2.94,38.6,38.6,0,0,1-2.68,3.15,25.38,25.38,0,0,1-3,2.69,20,20,0,0,1-2.92,1.86,4.33,4.33,0,0,1-2.42.56,2.36,2.36,0,0,1-2-1.44,7.09,7.09,0,0,1-.58-3.22,21.3,21.3,0,0,1,.54-4.23c.34-1.54.74-3,1.19-4.48s.93-2.77,1.43-4a22.53,22.53,0,0,1,1.29-2.69,1.76,1.76,0,0,1,1.39-.84,5.27,5.27,0,0,1,1.94.07,3.28,3.28,0,0,1,1.56.77A.84.84,0,0,1,1335.67,591Zm5.23,6.86a10.9,10.9,0,0,0,1.32-1.72,13.5,13.5,0,0,0,1-2,3.73,3.73,0,0,0,.38-1.64c0-.47-.24-.7-.65-.7a1.21,1.21,0,0,0-1,.59,4.8,4.8,0,0,0-.72,1.47,11.48,11.48,0,0,0-.4,2A6.69,6.69,0,0,0,1340.9,597.81Z"/><path d="M1352.85,603.62a4.85,4.85,0,0,0-.2.94,2.11,2.11,0,0,0,.07,1,1.07,1.07,0,0,0,.51.63,1.18,1.18,0,0,0,1,0,4.9,4.9,0,0,0,1.6-1,30.36,30.36,0,0,0,3-3l1.22-1.4a.68.68,0,0,1,.51-.32.92.92,0,0,1,.51.07.57.57,0,0,1,.27.32.56.56,0,0,1-.14.49l-1.29,1.61c-.68.88-1.41,1.77-2.21,2.66a23.67,23.67,0,0,1-2.44,2.38,10.06,10.06,0,0,1-2.65,1.61,5,5,0,0,1-2.82.28,3.57,3.57,0,0,1-2.72-1.65,6,6,0,0,1-.75-3.32,13.58,13.58,0,0,1,.92-4.24,25,25,0,0,1,2.17-4.41,21.77,21.77,0,0,1,3.06-3.85,11.19,11.19,0,0,1,3.64-2.48c1.72-.7,3-.91,3.8-.63a2.1,2.1,0,0,1,1.46,1.75,6.23,6.23,0,0,1-.44,3.18,19.86,19.86,0,0,1-1.87,3.75,18.25,18.25,0,0,1-2.82,3.46A10.66,10.66,0,0,1,1352.85,603.62Zm.21-1.33a5.36,5.36,0,0,0,2.72-1.75,16.72,16.72,0,0,0,2.31-3.19,12.65,12.65,0,0,0,1.29-3.18c.22-1,.11-1.54-.34-1.68-.73-.24-1.43.07-2.11.91a14.24,14.24,0,0,0-1.83,3,26,26,0,0,0-1.36,3.5C1353.37,601.07,1353.15,601.87,1353.06,602.29Z"/><path d="M1382.82,592.49c-.27.37-.61.91-1,1.61s-.86,1.51-1.36,2.45a32.66,32.66,0,0,1,3.67-4.2,10.28,10.28,0,0,1,3.46-2.38,5,5,0,0,1,1.26-.21,7.75,7.75,0,0,1,1.67,0,4.47,4.47,0,0,1,1.39.39.73.73,0,0,1,.51.77,10.62,10.62,0,0,1-.89,2.06c-.45.87-1,1.81-1.56,2.84s-1.16,2.07-1.73,3.15a25.63,25.63,0,0,0-1.39,3,7.75,7.75,0,0,0-.58,2.52,1.61,1.61,0,0,0,.85,1.58,1.48,1.48,0,0,0,.68,0,3.6,3.6,0,0,0,1.12-.66,24.48,24.48,0,0,0,1.83-1.68c.75-.75,1.67-1.78,2.76-3.08a.68.68,0,0,1,.5-.32.89.89,0,0,1,.51.07.55.55,0,0,1,.28.32.56.56,0,0,1-.14.49c-.72.93-1.52,1.92-2.38,3a25.67,25.67,0,0,1-2.72,2.87,14.86,14.86,0,0,1-3,2.14,5.47,5.47,0,0,1-3.29.63c-1.32-.14-2.12-.6-2.42-1.37a4.71,4.71,0,0,1,0-2.8,17.36,17.36,0,0,1,1.32-3.5l1.74-3.5a24.05,24.05,0,0,0,1.19-2.76c.24-.75.14-1.19-.31-1.33s-.82.22-1.49.94a28.25,28.25,0,0,0-2.45,3.12c-1,1.35-2,3-3.19,5s-2.43,4.15-3.74,6.58c0,.23-.23.33-.68.31a6.51,6.51,0,0,1-1.5-.28,7.8,7.8,0,0,1-1.46-.59c-.43-.24-.62-.47-.57-.7q.67-1.89,1.73-4.55t2.21-5.32q1.15-2.67,2.17-4.9c.68-1.5,1.22-2.59,1.63-3.29a2.74,2.74,0,0,1,1.84-1.19,4.51,4.51,0,0,1,2.17.1,2.79,2.79,0,0,1,1.53,1.05A1.36,1.36,0,0,1,1382.82,592.49Z"/><path d="M1398.92,603.62a4.85,4.85,0,0,0-.2.94,2.12,2.12,0,0,0,.06,1,1.07,1.07,0,0,0,.51.63,1.2,1.2,0,0,0,1,0,5.12,5.12,0,0,0,1.6-1,30.53,30.53,0,0,0,2.95-3l1.22-1.4a.72.72,0,0,1,.51-.32.89.89,0,0,1,.51.07.5.5,0,0,1,.27.32.55.55,0,0,1-.13.49l-1.29,1.61c-.68.88-1.42,1.77-2.21,2.66a23.74,23.74,0,0,1-2.45,2.38,10.06,10.06,0,0,1-2.65,1.61,5,5,0,0,1-2.82.28,3.57,3.57,0,0,1-2.71-1.65,5.86,5.86,0,0,1-.75-3.32,13.3,13.3,0,0,1,.92-4.24,24.37,24.37,0,0,1,2.17-4.41,20.89,20.89,0,0,1,3.06-3.85,11,11,0,0,1,3.63-2.48q2.58-1.05,3.81-.63a2.11,2.11,0,0,1,1.46,1.75,6.23,6.23,0,0,1-.44,3.18,20.47,20.47,0,0,1-1.87,3.75,18.25,18.25,0,0,1-2.82,3.46A10.89,10.89,0,0,1,1398.92,603.62Zm.2-1.33a5.32,5.32,0,0,0,2.72-1.75,15.9,15.9,0,0,0,2.31-3.19,12.28,12.28,0,0,0,1.29-3.18c.23-1,.11-1.54-.34-1.68-.72-.24-1.42.07-2.1.91a14.68,14.68,0,0,0-1.84,3,29,29,0,0,0-1.36,3.5C1399.44,601.07,1399.21,601.87,1399.12,602.29Z"/><path d="M1415,591a16.68,16.68,0,0,0-1.15,2.13c-.45,1-.93,2-1.43,3.12s-1,2.27-1.39,3.46a24.09,24.09,0,0,0-1,3.22,6.71,6.71,0,0,0-.17,2.35c.09.6.4.88,1,.84a7.47,7.47,0,0,0,3.46-1.86,23.72,23.72,0,0,0,4.08-4.37,10.23,10.23,0,0,1-.27-4.06,10.75,10.75,0,0,1,1.12-3.71,6.55,6.55,0,0,1,2.17-2.49,3.56,3.56,0,0,1,3-.45c.77.23,1,.84.81,1.82a12.56,12.56,0,0,1-1.29,3.22,37.65,37.65,0,0,1-2,3.32c-.73,1-1.21,1.72-1.43,2a11.5,11.5,0,0,0,.75,2.48,2.67,2.67,0,0,0,1.22,1.44,2,2,0,0,0,1.83-.25,8.94,8.94,0,0,0,2.52-2.48.79.79,0,0,1,.51-.35.72.72,0,0,1,.51,0,.57.57,0,0,1,.27.35.62.62,0,0,1-.14.53,11.5,11.5,0,0,1-2.58,2.94,4.79,4.79,0,0,1-2.55,1.12,2.91,2.91,0,0,1-2.17-.84,6.06,6.06,0,0,1-1.53-2.94,40.7,40.7,0,0,1-2.68,3.15,25.38,25.38,0,0,1-3,2.69,19.57,19.57,0,0,1-2.93,1.86,4.28,4.28,0,0,1-2.41.56,2.39,2.39,0,0,1-2-1.44,7.23,7.23,0,0,1-.57-3.22,21.3,21.3,0,0,1,.54-4.23c.34-1.54.74-3,1.19-4.48s.93-2.77,1.43-4a19.79,19.79,0,0,1,1.29-2.69,1.76,1.76,0,0,1,1.39-.84,5.27,5.27,0,0,1,1.94.07,3.28,3.28,0,0,1,1.56.77A.84.84,0,0,1,1415,591Zm5.23,6.86a10.36,10.36,0,0,0,1.33-1.72,13.5,13.5,0,0,0,1.05-2,3.88,3.88,0,0,0,.38-1.64c0-.47-.24-.7-.65-.7a1.21,1.21,0,0,0-1,.59,4.8,4.8,0,0,0-.72,1.47,11.45,11.45,0,0,0-.41,2A7.43,7.43,0,0,0,1420.25,597.81Z"/><path d="M1432.21,603.62a4.85,4.85,0,0,0-.2.94,2.11,2.11,0,0,0,.07,1,1.07,1.07,0,0,0,.51.63,1.18,1.18,0,0,0,1,0,5.12,5.12,0,0,0,1.6-1,29.43,29.43,0,0,0,2.95-3l1.23-1.4a.68.68,0,0,1,.51-.32.92.92,0,0,1,.51.07.57.57,0,0,1,.27.32.56.56,0,0,1-.14.49l-1.29,1.61c-.68.88-1.42,1.77-2.21,2.66a24.72,24.72,0,0,1-2.44,2.38,10.23,10.23,0,0,1-2.65,1.61,5,5,0,0,1-2.82.28,3.57,3.57,0,0,1-2.72-1.65,6,6,0,0,1-.75-3.32,13.58,13.58,0,0,1,.92-4.24,24.37,24.37,0,0,1,2.17-4.41,21.77,21.77,0,0,1,3.06-3.85,11.19,11.19,0,0,1,3.64-2.48c1.72-.7,3-.91,3.8-.63a2.1,2.1,0,0,1,1.46,1.75,6.23,6.23,0,0,1-.44,3.18,19.86,19.86,0,0,1-1.87,3.75,18.25,18.25,0,0,1-2.82,3.46A10.78,10.78,0,0,1,1432.21,603.62Zm.21-1.33a5.3,5.3,0,0,0,2.71-1.75,15.9,15.9,0,0,0,2.31-3.19,12.34,12.34,0,0,0,1.3-3.18c.22-1,.11-1.54-.34-1.68-.73-.24-1.43.07-2.11.91a14.24,14.24,0,0,0-1.83,3,26,26,0,0,0-1.36,3.5C1432.73,601.07,1432.51,601.87,1432.42,602.29Z"/><path d="M1438.33,602.08l1-1.16q.81-.95,1.86-2.31c.71-.91,1.44-1.89,2.21-2.94a33.73,33.73,0,0,0,2-3,3.77,3.77,0,0,1-.85-2.59,11.69,11.69,0,0,1,.48-3.5,9.08,9.08,0,0,1,1.46-3,2.16,2.16,0,0,1,2-1.12,1.93,1.93,0,0,1,1.53,1,3.12,3.12,0,0,1,.14,2,12.51,12.51,0,0,1-1,2.73c-.47,1-1.05,2.14-1.73,3.36a2.4,2.4,0,0,0,1.87.07,5.85,5.85,0,0,0,1.6-1.33,2.6,2.6,0,0,1,1.8-1.3,5.28,5.28,0,0,1,2.24,0,3.07,3.07,0,0,1,1.63.91,1.12,1.12,0,0,1,.1,1.44q-1.15,1.61-2.65,4t-2.65,4.59a20.87,20.87,0,0,0-1.63,4c-.32,1.16-.18,1.89.41,2.17a2.57,2.57,0,0,0,.61.21,1.73,1.73,0,0,0,1-.39,14.28,14.28,0,0,0,1.94-1.61,41.16,41.16,0,0,0,3.19-3.53.72.72,0,0,1,.51-.32.89.89,0,0,1,.51.07.5.5,0,0,1,.27.32.55.55,0,0,1-.13.49c-.77.93-1.59,1.93-2.45,3a27.36,27.36,0,0,1-2.72,2.94,12.85,12.85,0,0,1-3,2.1,5.37,5.37,0,0,1-3.27.49,2.28,2.28,0,0,1-1.83-1.16,4.68,4.68,0,0,1-.41-2.34,11.6,11.6,0,0,1,.65-3.12c.38-1.14.83-2.32,1.36-3.53s1.07-2.41,1.66-3.57,1.13-2.27,1.63-3.29a6,6,0,0,1-1.6.63,3.11,3.11,0,0,1-1.73-.28,38.23,38.23,0,0,1-2.21,3.5c-.79,1.12-1.53,2.12-2.2,3s-1.27,1.63-1.77,2.24-.79,1-.88,1.12a1.38,1.38,0,0,1-.65.45.35.35,0,0,1-.37-.17,1,1,0,0,1-.14-.56A1.39,1.39,0,0,1,1438.33,602.08Zm8.29-11.13a42.31,42.31,0,0,0,2.2-4.55c.52-1.31.6-2.13.24-2.45s-.53-.1-.92.42a8.67,8.67,0,0,0-1.05,2,11.4,11.4,0,0,0-.68,2.52A3.39,3.39,0,0,0,1446.62,591Z"/><path d="M1486.29,580c-1,1.68-1.91,3.4-2.88,5.18s-2,3.54-3,5.32l.21-.14c1.81-1.17,3.23-1.68,4.28-1.54a2.29,2.29,0,0,1,2,1.71,8,8,0,0,1,0,3.92,21.45,21.45,0,0,1-1.69,5c-.23.46-.59,1.14-1.09,2s-1.09,1.82-1.77,2.8a28.31,28.31,0,0,1-2.21,2.8,10.09,10.09,0,0,1-2.48,2.06,4.17,4.17,0,0,1-2.54.6,3.74,3.74,0,0,1-2.42-1.68,3.84,3.84,0,0,1-.4-2.52c-.37.65-.72,1.3-1.06,2s-.69,1.3-1,2c0,.23-.23.33-.68.31a7.29,7.29,0,0,1-1.49-.24,5.53,5.53,0,0,1-1.47-.6c-.42-.26-.62-.5-.57-.73q3.87-7.22,7.37-15t7.51-14.87a2.72,2.72,0,0,1,1.83-1.19,4.37,4.37,0,0,1,2.14.1,2.78,2.78,0,0,1,1.5,1A1.36,1.36,0,0,1,1486.29,580Zm-7.74,14q-1.15,2.24-2.31,4.37c-.77,1.43-1.54,2.86-2.31,4.31a7.09,7.09,0,0,0-.54,3.43c.36.74.86,1,1.49.7a5.79,5.79,0,0,0,2-1.75,20.7,20.7,0,0,0,2.08-3.26,33.6,33.6,0,0,0,1.73-3.81,24,24,0,0,0,1-3.43c.23-1,.21-1.71-.07-2s-.75-.48-1.32-.18A6,6,0,0,0,1478.55,594Z"/><path d="M1492.89,603.62a4.83,4.83,0,0,0-.21.94,2.26,2.26,0,0,0,.07,1,1.07,1.07,0,0,0,.51.63,1.2,1.2,0,0,0,1,0,5,5,0,0,0,1.59-1,30.36,30.36,0,0,0,3-3l1.22-1.4a.72.72,0,0,1,.51-.32.92.92,0,0,1,.51.07.5.5,0,0,1,.27.32.55.55,0,0,1-.13.49l-1.3,1.61c-.67.88-1.41,1.77-2.2,2.66a24.79,24.79,0,0,1-2.45,2.38,10.06,10.06,0,0,1-2.65,1.61,5,5,0,0,1-2.82.28,3.59,3.59,0,0,1-2.72-1.65,5.94,5.94,0,0,1-.74-3.32,13.55,13.55,0,0,1,.91-4.24,24.42,24.42,0,0,1,2.18-4.41,21.27,21.27,0,0,1,3-3.85,11.19,11.19,0,0,1,3.64-2.48c1.72-.7,3-.91,3.8-.63a2.11,2.11,0,0,1,1.47,1.75,6.25,6.25,0,0,1-.45,3.18,19.79,19.79,0,0,1-1.86,3.75,19.06,19.06,0,0,1-2.82,3.46A10.89,10.89,0,0,1,1492.89,603.62Zm.2-1.33a5.32,5.32,0,0,0,2.72-1.75,16.72,16.72,0,0,0,2.31-3.19,12.65,12.65,0,0,0,1.29-3.18c.22-1,.11-1.54-.34-1.68-.73-.24-1.43.07-2.11.91a14.24,14.24,0,0,0-1.83,3,26,26,0,0,0-1.36,3.5C1493.41,601.07,1493.18,601.87,1493.09,602.29Z"/><path d="M1505.46,603.62a4.83,4.83,0,0,0-.21.94,2.26,2.26,0,0,0,.07,1,1.07,1.07,0,0,0,.51.63,1.18,1.18,0,0,0,1,0,4.9,4.9,0,0,0,1.6-1,30.36,30.36,0,0,0,3-3l1.22-1.4a.72.72,0,0,1,.51-.32.92.92,0,0,1,.51.07.53.53,0,0,1,.27.32.55.55,0,0,1-.13.49l-1.3,1.61c-.68.88-1.41,1.77-2.2,2.66a24.79,24.79,0,0,1-2.45,2.38,10.06,10.06,0,0,1-2.65,1.61,5,5,0,0,1-2.82.28,3.59,3.59,0,0,1-2.72-1.65,5.94,5.94,0,0,1-.74-3.32,13.27,13.27,0,0,1,.91-4.24,24.42,24.42,0,0,1,2.18-4.41,21.27,21.27,0,0,1,3-3.85,11.19,11.19,0,0,1,3.64-2.48c1.72-.7,3-.91,3.8-.63a2.11,2.11,0,0,1,1.47,1.75,6.25,6.25,0,0,1-.45,3.18,19.27,19.27,0,0,1-1.87,3.75,18.59,18.59,0,0,1-2.81,3.46A10.89,10.89,0,0,1,1505.46,603.62Zm.2-1.33a5.32,5.32,0,0,0,2.72-1.75,16.72,16.72,0,0,0,2.31-3.19,12.65,12.65,0,0,0,1.29-3.18c.22-1,.11-1.54-.34-1.68-.73-.24-1.43.07-2.11.91a14.24,14.24,0,0,0-1.83,3,26,26,0,0,0-1.36,3.5C1506,601.07,1505.75,601.87,1505.66,602.29Z"/><path d="M1522.58,592.49c-.27.37-.61.91-1,1.61s-.86,1.51-1.36,2.45a32.66,32.66,0,0,1,3.67-4.2,10.28,10.28,0,0,1,3.46-2.38,5,5,0,0,1,1.26-.21,7.65,7.65,0,0,1,1.66,0,4.45,4.45,0,0,1,1.4.39.73.73,0,0,1,.51.77,10.62,10.62,0,0,1-.89,2.06c-.45.87-1,1.81-1.56,2.84s-1.17,2.07-1.73,3.15a25.63,25.63,0,0,0-1.39,3,7.75,7.75,0,0,0-.58,2.52,1.61,1.61,0,0,0,.85,1.58,1.48,1.48,0,0,0,.68,0,3.6,3.6,0,0,0,1.12-.66,24.48,24.48,0,0,0,1.83-1.68c.75-.75,1.67-1.78,2.76-3.08a.68.68,0,0,1,.5-.32.89.89,0,0,1,.51.07.55.55,0,0,1,.28.32.56.56,0,0,1-.14.49c-.73.93-1.52,1.92-2.38,3a26.62,26.62,0,0,1-2.72,2.87,14.86,14.86,0,0,1-3,2.14,5.47,5.47,0,0,1-3.29.63c-1.32-.14-2.12-.6-2.42-1.37a4.71,4.71,0,0,1,0-2.8,17.36,17.36,0,0,1,1.32-3.5l1.74-3.5a24.05,24.05,0,0,0,1.19-2.76c.24-.75.14-1.19-.31-1.33s-.82.22-1.49.94a28.25,28.25,0,0,0-2.45,3.12c-1,1.35-2,3-3.19,5s-2.43,4.15-3.74,6.58c0,.23-.23.33-.68.31a6.51,6.51,0,0,1-1.5-.28,7.8,7.8,0,0,1-1.46-.59c-.43-.24-.62-.47-.57-.7q.67-1.89,1.73-4.55t2.21-5.32q1.15-2.67,2.17-4.9c.68-1.5,1.22-2.59,1.63-3.29a2.74,2.74,0,0,1,1.84-1.19,4.51,4.51,0,0,1,2.17.1,2.79,2.79,0,0,1,1.53,1.05A1.36,1.36,0,0,1,1522.58,592.49Z"/><path d="M1550.16,592.07c-.32,0-.63,0-1,0s-.63,0-1,0-.34-.13-.34-.39a2.17,2.17,0,0,1,.2-.84,3.42,3.42,0,0,1,.51-.8.86.86,0,0,1,.65-.35,9.15,9.15,0,0,1,2,.21c.77-1.4,1.44-2.66,2-3.78s1-2,1.26-2.66a2.18,2.18,0,0,1,1.6-1.44,4.9,4.9,0,0,1,2.31-.07,3.62,3.62,0,0,1,1.8.91,1.05,1.05,0,0,1,.07,1.51c-.46.65-1,1.53-1.74,2.62s-1.43,2.3-2.21,3.61l1.7.21q.75,0,.48.63a.83.83,0,0,1-.82.7,7.83,7.83,0,0,0-1.08-.07h-1.09c-.45.84-1.11,2-2,3.46a48.3,48.3,0,0,0-2.31,4.45,17.9,17.9,0,0,0-1.36,4.06c-.23,1.21,0,2,.82,2.24a1.44,1.44,0,0,0,.71-.07,3.94,3.94,0,0,0,1.15-.74c.48-.4,1.08-1,1.81-1.71s1.63-1.75,2.71-3a.72.72,0,0,1,.51-.32.89.89,0,0,1,.51.07.5.5,0,0,1,.27.32.55.55,0,0,1-.13.49c-.77.93-1.59,1.93-2.45,3a27.36,27.36,0,0,1-2.72,2.94,12.7,12.7,0,0,1-3,2.1,5.34,5.34,0,0,1-3.26.49,2.23,2.23,0,0,1-2-1.4,5.73,5.73,0,0,1-.17-2.91,18,18,0,0,1,1-3.71c.52-1.33,1.08-2.64,1.67-3.92s1.15-2.44,1.7-3.46A19.8,19.8,0,0,0,1550.16,592.07Z"/><path d="M1562.94,599.42c.36-.47.92-1.23,1.69-2.28a36.57,36.57,0,0,1,2.65-3.18,22.59,22.59,0,0,1,3.16-2.84,5.87,5.87,0,0,1,3.23-1.29c1.54-.1,2.46.17,2.75.8a3.13,3.13,0,0,1-.17,2.49,23.5,23.5,0,0,1-1.83,3.5c-.82,1.3-1.59,2.59-2.31,3.85a12.84,12.84,0,0,0-.61,1.26,17.27,17.27,0,0,0-.72,1.85,5.06,5.06,0,0,0-.27,1.72.86.86,0,0,0,.71.91,2,2,0,0,0,1.64-.46,16.61,16.61,0,0,0,1.93-1.61,24.15,24.15,0,0,0,1.84-2l1.25-1.5a.72.72,0,0,1,.51-.32.89.89,0,0,1,.51.07.5.5,0,0,1,.27.32.55.55,0,0,1-.13.49c-.77.93-1.59,1.93-2.45,3a28.35,28.35,0,0,1-2.71,2.94,13,13,0,0,1-3,2.1,5.33,5.33,0,0,1-3.26.49,2.22,2.22,0,0,1-1.93-1.47,6,6,0,0,1-.11-2.8,18,18,0,0,1,1-3.47c.5-1.24,1-2.39,1.47-3.46s.83-2,1.08-2.73.26-1.19,0-1.33a4.07,4.07,0,0,0-1.4,1.08,30,30,0,0,0-2,2.38c-.74,1-1.54,2-2.37,3.15s-1.62,2.24-2.35,3.29-1.38,2-2,2.91-1,1.54-1.29,2a1,1,0,0,0-.27.49c0,.23-.23.33-.68.31a6.34,6.34,0,0,1-1.49-.28,7.53,7.53,0,0,1-1.46-.59c-.44-.24-.63-.47-.58-.7,1.26-2.38,2.49-4.86,3.67-7.42l3.53-7.74q1.77-3.89,3.6-7.66t3.81-7.35a2.72,2.72,0,0,1,1.83-1.19,4.37,4.37,0,0,1,2.14.1,2.78,2.78,0,0,1,1.5,1,1.36,1.36,0,0,1-.11,1.65q-2.58,4.62-5.16,9.55T1562.94,599.42Z"/><path d="M1582.78,590.25a2.6,2.6,0,0,1,1.8-1.3,5.28,5.28,0,0,1,2.24,0,3.07,3.07,0,0,1,1.63.91,1.12,1.12,0,0,1,.1,1.44q-1.15,1.61-2.65,4t-2.65,4.59a20.87,20.87,0,0,0-1.63,4c-.32,1.16-.18,1.89.41,2.17a2.57,2.57,0,0,0,.61.21,1.73,1.73,0,0,0,1-.39,14.28,14.28,0,0,0,1.94-1.61,42.92,42.92,0,0,0,3.19-3.53.72.72,0,0,1,.51-.32.89.89,0,0,1,.51.07.5.5,0,0,1,.27.32.55.55,0,0,1-.13.49c-.77.93-1.59,1.93-2.45,3a28.43,28.43,0,0,1-2.72,2.94,12.7,12.7,0,0,1-3,2.1,5.34,5.34,0,0,1-3.26.49,2.34,2.34,0,0,1-2.14-2.24,12.17,12.17,0,0,1,.75-4.69,51.84,51.84,0,0,1,2.48-6.09Q1581.21,593.46,1582.78,590.25Zm4.75-3.29a1.4,1.4,0,0,1-1.22-1.47,4.35,4.35,0,0,1,.85-2.45,7.32,7.32,0,0,1,2.31-2.17,4.53,4.53,0,0,1,3.23-.63c1,.18,1.46.67,1.39,1.47a4.6,4.6,0,0,1-1.12,2.45,9.52,9.52,0,0,1-2.55,2.17A4.07,4.07,0,0,1,1587.53,587Z"/><path d="M1595.75,593.33c-.81,1.12-1.46,2-1.93,2.66l-1.94,2.66c-.86,1.16-1.61,2.13-2.24,2.9a11,11,0,0,0-1.09,1.44,1.34,1.34,0,0,1-.65.45.36.36,0,0,1-.37-.17,1,1,0,0,1-.14-.56,1.39,1.39,0,0,1,.14-.63c.14-.14.51-.58,1.12-1.3s1.3-1.6,2.07-2.62c.28-.33.75-.95,1.43-1.86s1.43-1.87,2.24-2.87,1.62-1.93,2.41-2.8a8.32,8.32,0,0,1,2-1.71l.41-.28.13-.14a.38.38,0,0,1,.27-.07,4.54,4.54,0,0,1,2.14-.21,5.37,5.37,0,0,1,1.91.56,1.77,1.77,0,0,1,.95,1.05c.11.42-.13.79-.71,1.12a9,9,0,0,0-2.49,2.27,4.76,4.76,0,0,0-.81,2.1,5,5,0,0,0,.2,2c.21.65.42,1.31.65,2a9.34,9.34,0,0,1,.44,2.14,5,5,0,0,1-.37,2.31,9.81,9.81,0,0,1-2.75,4,9.51,9.51,0,0,1-3.57,1.93,7.32,7.32,0,0,1-3.43.14,4,4,0,0,1-2.41-1.4,3.21,3.21,0,0,1-.51-2.7,8.38,8.38,0,0,1,2.27-3.81c.41-.24.73-.21.95.07s.07.67-.34.91a4.07,4.07,0,0,0-1.36,2.24,2.15,2.15,0,0,0,.41,1.71,2.42,2.42,0,0,0,1.53.84,2.8,2.8,0,0,0,2-.45A3.57,3.57,0,0,0,1596,605a9.73,9.73,0,0,0,.24-3,23,23,0,0,0-.41-3.11,14.29,14.29,0,0,1-.3-2.66A8.25,8.25,0,0,1,1595.75,593.33Z"/><path d="M1631,591.79q2.44-5.25,4.11-8.51t2.27-4.65a2.4,2.4,0,0,1,1.67-1.44,4.9,4.9,0,0,1,2.31-.07,3.66,3.66,0,0,1,1.8.91,1.09,1.09,0,0,1,.14,1.51c-.37.51-1,1.47-1.91,2.87s-1.9,3-3,4.83-2.18,3.75-3.29,5.81-2,4-2.82,5.81a28.58,28.58,0,0,0-1.6,4.72c-.29,1.33-.15,2.18.44,2.56a1.22,1.22,0,0,0,1,0,6.11,6.11,0,0,0,1.36-.8A19,19,0,0,0,1635,604c.52-.49,1-1,1.46-1.5l.85-1c.25-.3.49-.57.71-.8a.72.72,0,0,1,.51-.32.89.89,0,0,1,.51.07.5.5,0,0,1,.27.32.55.55,0,0,1-.13.49c-.23.32-.47.64-.71.94l-.79,1c-.68.84-1.4,1.69-2.17,2.55a19.7,19.7,0,0,1-2.41,2.28,10.67,10.67,0,0,1-2.58,1.5,5.29,5.29,0,0,1-2.76.32,2.35,2.35,0,0,1-2-1.54,6.82,6.82,0,0,1-.06-3.22,16.67,16.67,0,0,1-1.46,1.71,13.93,13.93,0,0,1-1.77,1.54,10.73,10.73,0,0,1-1.94,1.12,5,5,0,0,1-2,.46,2.23,2.23,0,0,1-1.94-.91,4.28,4.28,0,0,1-.68-2.42,12.17,12.17,0,0,1,.47-3.39,23.46,23.46,0,0,1,1.47-3.92c.22-.47.58-1.15,1.08-2s1.09-1.82,1.77-2.8a27.19,27.19,0,0,1,2.21-2.8,9.93,9.93,0,0,1,2.48-2.07,4.1,4.1,0,0,1,2.55-.59,3.67,3.67,0,0,1,2.41,1.68,2.17,2.17,0,0,1,.47,1.54A1.21,1.21,0,0,1,1631,591.79Zm-9.52,14.35c.28.37.71.35,1.3-.07a10.54,10.54,0,0,0,1.93-2,30.42,30.42,0,0,0,2.11-3.08,34.24,34.24,0,0,0,1.83-3.47,17.21,17.21,0,0,0,1.12-3.11,2.75,2.75,0,0,0,0-2c-.4-.75-.93-1-1.56-.7a5.41,5.41,0,0,0-2,1.78,25.56,25.56,0,0,0-2,3.29,35.93,35.93,0,0,0-1.76,3.82,20.5,20.5,0,0,0-1.06,3.43C1621.13,605.13,1621.16,605.81,1621.43,606.14Z"/><path d="M1643.45,603.62a4.85,4.85,0,0,0-.2.94,2.12,2.12,0,0,0,.06,1,1.07,1.07,0,0,0,.51.63,1.2,1.2,0,0,0,1,0,5,5,0,0,0,1.59-1,29.28,29.28,0,0,0,3-3l1.22-1.4a.72.72,0,0,1,.51-.32.89.89,0,0,1,.51.07.5.5,0,0,1,.27.32.55.55,0,0,1-.13.49l-1.29,1.61c-.68.88-1.42,1.77-2.21,2.66a23.74,23.74,0,0,1-2.45,2.38,10.06,10.06,0,0,1-2.65,1.61,5,5,0,0,1-2.82.28,3.55,3.55,0,0,1-2.71-1.65,5.86,5.86,0,0,1-.75-3.32,13.3,13.3,0,0,1,.92-4.24,24.37,24.37,0,0,1,2.17-4.41,20.89,20.89,0,0,1,3.06-3.85,11,11,0,0,1,3.63-2.48q2.58-1.05,3.81-.63a2.11,2.11,0,0,1,1.46,1.75,6.23,6.23,0,0,1-.44,3.18,20.47,20.47,0,0,1-1.87,3.75,18.65,18.65,0,0,1-2.82,3.46A10.89,10.89,0,0,1,1643.45,603.62Zm.2-1.33a5.32,5.32,0,0,0,2.72-1.75,15.9,15.9,0,0,0,2.31-3.19,12.65,12.65,0,0,0,1.29-3.18c.23-1,.11-1.54-.34-1.68-.72-.24-1.42.07-2.1.91a14.26,14.26,0,0,0-1.84,3,27.45,27.45,0,0,0-1.36,3.5C1644,601.07,1643.74,601.87,1643.65,602.29Z"/><path d="M1665.33,590.25a2.62,2.62,0,0,1,1.8-1.3,5.28,5.28,0,0,1,2.24,0,3,3,0,0,1,1.63.91,1.11,1.11,0,0,1,.1,1.44q-1.15,1.61-2.65,4c-1,1.56-1.88,3.09-2.65,4.59a20.87,20.87,0,0,0-1.63,4c-.31,1.16-.18,1.89.41,2.17a2.57,2.57,0,0,0,.61.21,1.78,1.78,0,0,0,1.06-.39,14.33,14.33,0,0,0,1.93-1.61,42.68,42.68,0,0,0,3.2-3.53.68.68,0,0,1,.5-.32.89.89,0,0,1,.51.07.55.55,0,0,1,.28.32.56.56,0,0,1-.14.49c-.77.93-1.59,1.93-2.45,3a28.35,28.35,0,0,1-2.71,2.94,12.9,12.9,0,0,1-3,2.1,5.35,5.35,0,0,1-3.26.49,2.31,2.31,0,0,1-2.08-1.61,6.92,6.92,0,0,1,.1-3.36l-.13.21a20.15,20.15,0,0,1-1.63,2,9.86,9.86,0,0,1-1.7,1.4q-2.72,1.74-4.25,1.5a2.36,2.36,0,0,1-2-1.75,7.87,7.87,0,0,1,0-3.88,21.38,21.38,0,0,1,1.7-5c.22-.47.58-1.15,1.08-2s1.09-1.82,1.77-2.8a33.28,33.28,0,0,1,2.21-2.84,8.91,8.91,0,0,1,2.48-2.06,4.21,4.21,0,0,1,2.55-.56,3.4,3.4,0,0,1,2.88,3.71c.19-.42.38-.83.58-1.23S1665.1,590.67,1665.33,590.25Zm-10.53,15.89q.4.63,1.32,0a9.33,9.33,0,0,0,2-2,33.51,33.51,0,0,0,2.11-3.11,34.24,34.24,0,0,0,1.83-3.47,15.77,15.77,0,0,0,1.09-3.08,2.48,2.48,0,0,0-.1-1.92c-.41-.75-.92-1-1.53-.7a5.81,5.81,0,0,0-2,1.75,20.57,20.57,0,0,0-2.07,3.25,33.83,33.83,0,0,0-1.74,3.82,23.19,23.19,0,0,0-1,3.43C1654.49,605.13,1654.52,605.81,1654.8,606.14Z"/><path d="M1685.1,591.79q2.45-5.25,4.11-8.51t2.28-4.65a2.36,2.36,0,0,1,1.66-1.44,4.9,4.9,0,0,1,2.31-.07,3.66,3.66,0,0,1,1.8.91,1.09,1.09,0,0,1,.14,1.51c-.37.51-1,1.47-1.9,2.87s-1.91,3-3,4.83-2.19,3.75-3.3,5.81-2,4-2.82,5.81a28.58,28.58,0,0,0-1.6,4.72c-.29,1.33-.14,2.18.45,2.56a1.2,1.2,0,0,0,1,0,6.11,6.11,0,0,0,1.36-.8,19,19,0,0,0,1.53-1.3c.52-.49,1-1,1.46-1.5l.85-1c.25-.3.49-.57.72-.8a.68.68,0,0,1,.51-.32.87.87,0,0,1,.5.07.55.55,0,0,1,.28.32.56.56,0,0,1-.14.49c-.23.32-.46.64-.71.94l-.78,1c-.68.84-1.41,1.69-2.18,2.55a19,19,0,0,1-2.41,2.28,10.67,10.67,0,0,1-2.58,1.5,5.27,5.27,0,0,1-2.75.32,2.33,2.33,0,0,1-2-1.54,6.81,6.81,0,0,1-.07-3.22,16.67,16.67,0,0,1-1.46,1.71,13.93,13.93,0,0,1-1.77,1.54,10.65,10.65,0,0,1-1.93,1.12,5,5,0,0,1-2,.46,2.24,2.24,0,0,1-1.94-.91,4.28,4.28,0,0,1-.68-2.42,12.22,12.22,0,0,1,.48-3.39,23.38,23.38,0,0,1,1.46-3.92c.22-.47.59-1.15,1.08-2s1.09-1.82,1.77-2.8a28.63,28.63,0,0,1,2.21-2.8,9.93,9.93,0,0,1,2.48-2.07,4.1,4.1,0,0,1,2.55-.59,3.65,3.65,0,0,1,2.41,1.68,2.12,2.12,0,0,1,.48,1.54A1.27,1.27,0,0,1,1685.1,591.79Zm-9.51,14.35c.27.37.7.35,1.29-.07a10.24,10.24,0,0,0,1.93-2,28.86,28.86,0,0,0,2.11-3.08,34.24,34.24,0,0,0,1.83-3.47,17.32,17.32,0,0,0,1.13-3.11,2.86,2.86,0,0,0,0-2c-.41-.75-.93-1-1.57-.7a5.41,5.41,0,0,0-2,1.78,25.56,25.56,0,0,0-2,3.29,38,38,0,0,0-1.76,3.82,19.5,19.5,0,0,0-1,3.43C1675.28,605.13,1675.32,605.81,1675.59,606.14Z"/><path d="M1709.15,579.82c0-.05-.32.56-1.09,1.82s-1.72,2.84-2.85,4.76-2.33,4-3.6,6.23-2.36,4.35-3.26,6.33a35.7,35.7,0,0,0-1.94,5c-.38,1.38-.24,2.14.44,2.28a2.06,2.06,0,0,0,1.23-.39,12.37,12.37,0,0,0,1.49-1.08c.5-.42,1-.84,1.36-1.26a12.73,12.73,0,0,0,.88-1l1.7-1.89a.72.72,0,0,1,.51-.32.89.89,0,0,1,.51.07.5.5,0,0,1,.27.32.55.55,0,0,1-.13.49l-1.57,2c-.68.79-1.38,1.58-2.1,2.38a20.58,20.58,0,0,1-2.28,2.13,10.65,10.65,0,0,1-2.55,1.51,7.43,7.43,0,0,1-2.85.56,3,3,0,0,1-2.07-1.44,4.93,4.93,0,0,1-.48-2.66,13.4,13.4,0,0,1,.72-3.39c.4-1.22.87-2.43,1.39-3.64s1.06-2.35,1.63-3.4,1-2,1.39-2.69q1.15-2.25,2.35-4.41t2.21-4l1.76-3.19c.5-.91.86-1.62,1.09-2.13a2.36,2.36,0,0,1,1.66-1.44,4.9,4.9,0,0,1,2.31-.07,3.58,3.58,0,0,1,1.8.91A1,1,0,0,1,1709.15,579.82Z"/><path d="M1714.25,591.58q-1.15,1.6-2.55,3.85a49.08,49.08,0,0,0-2.45,4.41,25.21,25.21,0,0,0-1.56,3.92q-.51,1.74.24,2.31c.27.23.73.16,1.39-.21a9.16,9.16,0,0,0,1.94-1.54c1.08-2.38,2.21-4.81,3.36-7.28s2.32-4.76,3.5-6.86a1.68,1.68,0,0,1,1.36-.77,5.84,5.84,0,0,1,2,.07,4,4,0,0,1,1.66.7.75.75,0,0,1,.24,1.12q-1.43,2.44-2.51,4.34c-.73,1.26-1.43,2.52-2.11,3.78s-1.37,2.6-2.07,4-1.51,3.07-2.41,4.94a46.37,46.37,0,0,0,4.24-2.35,19.1,19.1,0,0,0,3.84-3.18l1.9-2.17a.72.72,0,0,1,.51-.32.89.89,0,0,1,.51.07.5.5,0,0,1,.27.32.55.55,0,0,1-.13.49l-1.7,2.1a20.85,20.85,0,0,1-2.31,2.41,31.8,31.8,0,0,1-2.68,2.14,27.38,27.38,0,0,1-2.86,1.75,17.87,17.87,0,0,1-2.75,1.19q-2.31,4.54-4.55,8c-.64,1-1.3,1.94-2,2.9a27.43,27.43,0,0,1-2.1,2.56,10.92,10.92,0,0,1-2.08,1.75,2.67,2.67,0,0,1-1.83.49,2.84,2.84,0,0,1-3.06-3.64,10.28,10.28,0,0,1,1.33-3.26,24.27,24.27,0,0,1,2.55-3.53,29.08,29.08,0,0,1,3.33-3.33,23.76,23.76,0,0,1,3.66-2.62l.89-1.68a9.9,9.9,0,0,1-2.38,1.29,5.11,5.11,0,0,1-2.58.25,2.41,2.41,0,0,1-2-1.47,5.55,5.55,0,0,1-.13-2.91,20,20,0,0,1,1.12-3.81q.81-2.1,1.77-4.17c.63-1.37,1.25-2.68,1.86-3.92s1.1-2.27,1.46-3.11a2.22,2.22,0,0,1,1.6-1.44,5,5,0,0,1,2.34-.07,3.68,3.68,0,0,1,1.84.91A1,1,0,0,1,1714.25,591.58Zm-7.07,21.14a37.56,37.56,0,0,0-4.25,4.09,25.33,25.33,0,0,0-2.51,3.33,6.76,6.76,0,0,0-1,2.2c-.1.54,0,.76.34.67.49-.1,1.38-.94,2.64-2.52A53.1,53.1,0,0,0,1707.18,612.72Z"/></svg>
