<svg id="Layer_1" data-name="Layer 1" xmlns="http://www.w3.org/2000/svg" xmlns:xlink="http://www.w3.org/1999/xlink" width="825.95" height="198.77" viewBox="0 0 825.95 198.77"><defs><style>.cls-1{fill:#fff;}.cls-2{fill:url(#radial-gradient);}.cls-3{fill:url(#radial-gradient-2);}.cls-4{fill:#2d2524;}.cls-5{fill:#9fdcf4;}.cls-6{fill:#202223;}</style><radialGradient id="radial-gradient" cx="695.68" cy="60.25" r="93.47" gradientTransform="matrix(1, 0, 0, 1, 5.55, 2.85)" gradientUnits="userSpaceOnUse"><stop offset="0" stop-color="#fff" stop-opacity="0"/><stop offset="0.8" stop-opacity="0.55"/><stop offset="1" stop-opacity="0.55"/></radialGradient><radialGradient id="radial-gradient-2" cx="706.51" cy="168.67" r="90.65" gradientTransform="matrix(1, 0, 0, 1, -4.59, -2.12)" gradientUnits="userSpaceOnUse"><stop offset="0" stop-color="#fff" stop-opacity="0"/><stop offset="0.94" stop-opacity="0.55"/></radialGradient></defs><title>studyometerny</title><path class="cls-1" d="M783.35,130.47l-165-.51c-10.41,0-19.83-7.48-21-16.72L586.2,21.39C584.78,9.71,593.47,0,605.55,0L796.93.59c12.07,0,20.7,9.84,19.21,21.52l-11.73,91.77C803.23,123.12,793.76,130.5,783.35,130.47Z"/><path class="cls-2" d="M783.35,130.47l-165-.51c-10.41,0-19.83-7.48-21-16.72L586.2,21.39C584.78,9.71,593.47,0,605.55,0L796.93.59c12.07,0,20.7,9.84,19.21,21.52l-11.73,91.77C803.23,123.12,793.76,130.5,783.35,130.47Z"/><path class="cls-1" d="M805.58,198.77,597.7,197.49c-12.65-.08-20.91-5.47-18.5-11.76L597,139.35c1.69-4.4,11.28-7.93,21.4-8l165-.79c10.72-.05,21,3.5,22.76,8l19.3,48.16C828.12,193.35,819.18,198.86,805.58,198.77Z"/><path class="cls-3" d="M805.58,198.77,597.7,197.49c-12.65-.08-20.91-5.47-18.5-11.76L597,139.35c1.69-4.4,11.28-7.93,21.4-8l165-.79c10.72-.05,21,3.5,22.76,8l19.3,48.16C828.12,193.35,819.18,198.86,805.58,198.77Z"/><path class="cls-4" d="M790.28,178l-178.72-.51c-10.93,0-18.08-3.19-16-6.88L611,143.36c1.46-2.58,9.74-4.65,18.47-4.69l141.86-.5c9.18,0,17.94,2,19.49,4.68L807.31,171C809.55,174.78,801.91,178,790.28,178Z"/><path class="cls-4" d="M737.47,195.52l-75-.43c-4.67,0-7.72-1.19-6.83-2.54l6.6-9.91c.62-.94,4.15-1.68,7.87-1.66l59.56.2c3.79,0,7.41.78,8.05,1.73L744.48,193C745.41,194.4,742.26,195.54,737.47,195.52Z"/><path class="cls-5" d="M772.32,124.4,627.66,124c-9.13,0-17.39-6.38-18.37-14.27l-9.8-78.32c-1.24-10,6.38-18.28,17-18.25l167.76.52c10.58,0,18.15,8.4,16.84,18.35l-10.28,78.27C789.74,118.14,781.44,124.43,772.32,124.4Z"/><rect class="cls-1" x="640.53" y="29.78" width="119.98" height="94.41" transform="translate(0.24 -2.17) rotate(0.18)"/><rect class="cls-6" x="649.82" y="35.68" width="104.9" height="3.93" transform="translate(0.12 -2.17) rotate(0.18)"/><rect class="cls-6" x="649.73" y="65.12" width="65.56" height="3.28" transform="translate(0.21 -2.11) rotate(0.18)"/><rect class="cls-6" x="649.75" y="57.32" width="104.9" height="3.93" transform="translate(0.19 -2.17) rotate(0.18)"/><rect class="cls-6" x="649.77" y="50.1" width="104.9" height="3.93" transform="translate(0.16 -2.17) rotate(0.18)"/><rect class="cls-6" x="649.79" y="42.89" width="104.9" height="3.93" transform="translate(0.14 -2.17) rotate(0.18)"/><rect class="cls-6" x="649.69" y="77.64" width="104.9" height="3.93" transform="translate(0.25 -2.17) rotate(0.18)"/><rect class="cls-6" x="649.73" y="92.06" width="104.9" height="3.93"/><rect class="cls-6" x="649.73" y="84.85" width="104.9" height="3.93"/><rect class="cls-6" x="649.73" y="98.61" width="81.29" height="3.28"/><path class="cls-1" d="M314.58,127.58a10.05,10.05,0,0,1-.36,2.4,12.76,12.76,0,0,1-.76,2,7.89,7.89,0,0,1-3.06,3.38,8.72,8.72,0,0,1-4.74,1.06,10.21,10.21,0,0,1-2.4-.36,11.87,11.87,0,0,1-2-.76,7.9,7.9,0,0,1-3.38-3,8.62,8.62,0,0,1-1.06-4.72,2,2,0,0,1,2.24-2.24h2.2a2.06,2.06,0,0,1,2.24,2.2c.13,1.5.87,2.24,2.2,2.24h0a2.15,2.15,0,0,0,1.66-.58,2.26,2.26,0,0,0,.54-1.62,2.94,2.94,0,0,0-1-2.08,26.38,26.38,0,0,0-3.52-2.76,26.82,26.82,0,0,1-4.4-3.48,8.74,8.74,0,0,1-1.7-2.58,6.72,6.72,0,0,1-.5-3,10.46,10.46,0,0,1,.36-2.42,12.66,12.66,0,0,1,.76-2.06,8,8,0,0,1,3-3.38,8.62,8.62,0,0,1,4.72-1.06,10.21,10.21,0,0,1,2.4.36,13.8,13.8,0,0,1,2,.76,7.88,7.88,0,0,1,3.42,3.06,8.74,8.74,0,0,1,1.06,4.74,2,2,0,0,1-2.24,2.2H310.1c-1.33,0-2.07-.74-2.2-2.24s-.88-2.22-2.24-2.2a2,2,0,0,0-2.2,2.24,2.88,2.88,0,0,0,1.2,1.88q.31.28,1.14.9l2.1,1.58a28.14,28.14,0,0,1,4.52,3.92,10.32,10.32,0,0,1,1.66,2.68A6.65,6.65,0,0,1,314.58,127.58Z"/><path class="cls-1" d="M334.14,134.22a2,2,0,0,1-2.24,2.24,8.62,8.62,0,0,1-4.72-1.06,7.91,7.91,0,0,1-3-3.38,15,15,0,0,1-.78-2,8,8,0,0,1-.34-2.4v-9.2h-2.2a2.21,2.21,0,0,1-1.68-.58,2.27,2.27,0,0,1-.56-1.63v-2.25a2.25,2.25,0,0,1,.56-1.63,2.21,2.21,0,0,1,1.68-.59H323v-2.22a2.07,2.07,0,0,1,.6-1.64,2.37,2.37,0,0,1,1.64-.54h2.2a2.37,2.37,0,0,1,1.64.54,2.07,2.07,0,0,1,.6,1.64v2.22h2.2a2.21,2.21,0,0,1,1.68.59,2.25,2.25,0,0,1,.56,1.63v2.25a2.27,2.27,0,0,1-.56,1.63,2.21,2.21,0,0,1-1.68.58h-2.2v9.2c0,1.34.75,2.07,2.24,2.2a2.06,2.06,0,0,1,2.2,2.24Z"/><path class="cls-1" d="M355.94,131.74a4.33,4.33,0,0,1-1.18,3.34,4.59,4.59,0,0,1-3.27,1.1H347q-5.57,0-7.78-4.44a15,15,0,0,1-.78-2,8,8,0,0,1-.34-2.4V111.74a2.21,2.21,0,0,1,.6-1.68,2.33,2.33,0,0,1,1.64-.56h2.2a2.33,2.33,0,0,1,1.64.56,2.21,2.21,0,0,1,.6,1.68V127.3a2.26,2.26,0,0,0,.54,1.62,2.15,2.15,0,0,0,1.66.58h1.12a1,1,0,0,0,1.12-1.12V111.74a2,2,0,0,1,2.21-2.24h2.26a2.29,2.29,0,0,1,1.63.56,2.24,2.24,0,0,1,.58,1.68Z"/><path class="cls-1" d="M377.7,127.58a8.76,8.76,0,0,1-.32,2.4,12.76,12.76,0,0,1-.76,2q-2.25,4.44-7.82,4.44T361,132a15,15,0,0,1-.78-2,8,8,0,0,1-.34-2.4v-9.2a8.14,8.14,0,0,1,.34-2.4,16.08,16.08,0,0,1,.78-2q2.21-4.44,7.76-4.44a7.7,7.7,0,0,1,1,.08c.37.06.79.14,1.24.24V107.3a2.24,2.24,0,0,1,.58-1.68,2.29,2.29,0,0,1,1.63-.56h2.26a2,2,0,0,1,2.21,2.24Zm-6.68,0v-9.2c0-1.33-.75-2.06-2.24-2.2-1.47.11-2.2.84-2.2,2.2v9.2c0,1.36.73,2.1,2.2,2.2C370.27,129.65,371,128.92,371,127.58Z"/><path class="cls-1" d="M399.5,127.22a8.63,8.63,0,0,1-.34,2.42,13.63,13.63,0,0,1-.79,2.06q-2.21,4.49-7.83,4.48H386.1a2.12,2.12,0,0,1-1.66-.6,2.35,2.35,0,0,1-.54-1.64v-2.2a2.37,2.37,0,0,1,.54-1.64,2.12,2.12,0,0,1,1.66-.6h4.44a2.15,2.15,0,0,0,1.74-.68,2.45,2.45,0,0,0,.5-1.84,12.14,12.14,0,0,1-1.24.24,6.26,6.26,0,0,1-1,.08q-5.57,0-7.76-4.44a14.8,14.8,0,0,1-.78-2.06,8.28,8.28,0,0,1-.34-2.42v-6.64a2.21,2.21,0,0,1,.6-1.68,2.33,2.33,0,0,1,1.64-.56h2.2a2.33,2.33,0,0,1,1.64.56,2.21,2.21,0,0,1,.6,1.68v6.64a2,2,0,0,0,2.2,2.24,1.9,1.9,0,0,0,1.92-1.08,2.25,2.25,0,0,0,.32-1.12v-6.68a2.24,2.24,0,0,1,.58-1.68,2.27,2.27,0,0,1,1.63-.56h2.26a2,2,0,0,1,2.21,2.24Z"/><path class="cls-1" d="M419,123.34a2.31,2.31,0,0,1-.56,1.64,2.2,2.2,0,0,1-1.68.6H405.7A2.18,2.18,0,0,1,404,125a2.31,2.31,0,0,1-.56-1.64v-2.2a2.33,2.33,0,0,1,.56-1.64,2.18,2.18,0,0,1,1.68-.6h11.08a2.2,2.2,0,0,1,1.68.6,2.33,2.33,0,0,1,.56,1.64Z"/><path class="cls-1" d="M440.82,127.58a8.76,8.76,0,0,1-.32,2.4,12.76,12.76,0,0,1-.76,2q-2.25,4.44-7.82,4.44T424.14,132a15,15,0,0,1-.78-2,8,8,0,0,1-.34-2.4V118.1a8.14,8.14,0,0,1,.34-2.4,16.08,16.08,0,0,1,.78-2q2.21-4.44,7.78-4.44t7.82,4.44a13.53,13.53,0,0,1,.76,2,8.86,8.86,0,0,1,.32,2.4Zm-6.68,0V118.1c0-1.33-.75-2.06-2.24-2.2-1.47.11-2.2.84-2.2,2.2v9.48c0,1.36.73,2.1,2.2,2.2C433.39,129.65,434.14,128.92,434.14,127.58Z"/><path class="cls-1" d="M460.34,123.34a2.31,2.31,0,0,1-.56,1.64,2.18,2.18,0,0,1-1.68.6H447a2.18,2.18,0,0,1-1.68-.6,2.31,2.31,0,0,1-.56-1.64v-2.2a2.33,2.33,0,0,1,.56-1.64,2.18,2.18,0,0,1,1.68-.6H458.1a2.18,2.18,0,0,1,1.68.6,2.33,2.33,0,0,1,.56,1.64Z"/><path class="cls-1" d="M493.26,133.94a2,2,0,0,1-2.21,2.24h-2.26a2,2,0,0,1-2.21-2.24V118.38c0-1.33-.74-2.06-2.22-2.2-1.48.14-2.22.87-2.22,2.2v15.56a2,2,0,0,1-2.21,2.24h-2.26a2,2,0,0,1-2.21-2.24V118.38a2,2,0,0,0-2.24-2.2H472.1A1,1,0,0,0,471,117.3v16.64a2.18,2.18,0,0,1-.6,1.68,2.28,2.28,0,0,1-1.64.56h-2.2a2.27,2.27,0,0,1-1.64-.56,2.18,2.18,0,0,1-.6-1.68v-20a4.34,4.34,0,0,1,1.18-3.34,4.64,4.64,0,0,1,3.27-1.1h4.44a10,10,0,0,1,5.57,1.8,10.12,10.12,0,0,1,5.57-1.8q5.52,0,7.77,4.44a11.71,11.71,0,0,1,.8,2,8.86,8.86,0,0,1,.32,2.4Z"/><path class="cls-1" d="M515,122.86a4.33,4.33,0,0,1-1.19,3.34,4.59,4.59,0,0,1-3.27,1.1H503.9c.1,1.47.84,2.2,2.2,2.2h4.44a2.2,2.2,0,0,1,1.68.6,2.33,2.33,0,0,1,.56,1.64v2.2a2.31,2.31,0,0,1-.56,1.64,2.2,2.2,0,0,1-1.68.6H506.1q-5.57,0-7.76-4.44a13.78,13.78,0,0,1-.78-2,8,8,0,0,1-.34-2.4v-9.2a8.14,8.14,0,0,1,.34-2.4,16.08,16.08,0,0,1,.78-2q2.21-4.44,7.78-4.44t7.82,4.44a14.7,14.7,0,0,1,.76,2,8.86,8.86,0,0,1,.32,2.4Zm-6.68-3.36v-1.4c0-1.33-.75-2.06-2.24-2.2-1.47.11-2.2.84-2.2,2.2v2.52h3.32A1,1,0,0,0,508.34,119.5Z"/><path class="cls-1" d="M534.54,134.22a2,2,0,0,1-2.24,2.24,8.62,8.62,0,0,1-4.72-1.06,7.91,7.91,0,0,1-3-3.38,13.78,13.78,0,0,1-.78-2,8,8,0,0,1-.34-2.4v-9.2h-2.2a2.21,2.21,0,0,1-1.68-.58,2.27,2.27,0,0,1-.56-1.63v-2.25a2.25,2.25,0,0,1,.56-1.63,2.21,2.21,0,0,1,1.68-.59h2.2v-2.22a2.07,2.07,0,0,1,.6-1.64,2.35,2.35,0,0,1,1.64-.54h2.2a2.37,2.37,0,0,1,1.64.54,2.07,2.07,0,0,1,.6,1.64v2.22h2.2a2,2,0,0,1,2.24,2.22v2.25a2.27,2.27,0,0,1-.56,1.63,2.24,2.24,0,0,1-1.68.58h-2.2v9.2c0,1.34.74,2.07,2.24,2.2a2.06,2.06,0,0,1,2.2,2.24Z"/><path class="cls-1" d="M556.34,122.86a4.33,4.33,0,0,1-1.19,3.34,4.59,4.59,0,0,1-3.27,1.1h-6.66c.1,1.47.84,2.2,2.2,2.2h4.44a2.21,2.21,0,0,1,1.68.6,2.33,2.33,0,0,1,.56,1.64v2.2a2.31,2.31,0,0,1-.56,1.64,2.21,2.21,0,0,1-1.68.6h-4.44q-5.56,0-7.76-4.44a12.76,12.76,0,0,1-.78-2,8,8,0,0,1-.34-2.4v-9.2a8.14,8.14,0,0,1,.34-2.4,16.08,16.08,0,0,1,.78-2q2.21-4.44,7.78-4.44t7.82,4.44a14.7,14.7,0,0,1,.76,2,8.86,8.86,0,0,1,.32,2.4Zm-6.68-3.36v-1.4c0-1.33-.75-2.06-2.24-2.2-1.47.11-2.2.84-2.2,2.2v2.52h3.32A1,1,0,0,0,549.66,119.5Z"/><path class="cls-1" d="M573.62,113.94a2.35,2.35,0,0,1-.54,1.64,2.13,2.13,0,0,1-1.66.6h-2.24a2.19,2.19,0,0,0-1.66.58,2.3,2.3,0,0,0-.54,1.62V134a2.12,2.12,0,0,1-.6,1.66,2.37,2.37,0,0,1-1.64.54h-2.2a2.35,2.35,0,0,1-1.64-.54,2.12,2.12,0,0,1-.6-1.66v-15.6a8.14,8.14,0,0,1,.34-2.4,13.53,13.53,0,0,1,.78-2q2.19-4.44,7.76-4.44h2.24a2.13,2.13,0,0,1,1.66.6,2.37,2.37,0,0,1,.54,1.64Z"/></svg>
